  0
SECTION
  2
HEADER
  9
$ACADVER
  1
AC1009
  9
$INSBASE
 10
0.0
 20
0.0
 30
0.0
  9
$EXTMIN
 10
4.845262
 20
3.02933
 30
0.0
  9
$EXTMAX
 10
8.847323
 20
6.850559
 30
0.0
  9
$LIMMIN
 10
0.0
 20
0.0
  9
$LIMMAX
 10
12.0
 20
9.0
  9
$ORTHOMODE
 70
     0
  9
$REGENMODE
 70
     1
  9
$FILLMODE
 70
     1
  9
$QTEXTMODE
 70
     0
  9
$MIRRTEXT
 70
     1
  9
$DRAGMODE
 70
     2
  9
$LTSCALE
 40
1.0
  9
$OSMODE
 70
     0
  9
$ATTMODE
 70
     1
  9
$TEXTSIZE
 40
0.2
  9
$TRACEWID
 40
0.05
  9
$TEXTSTYLE
  7
STANDARD
  9
$CLAYER
  8
0
  9
$CELTYPE
  6
BYLAYER
  9
$CECOLOR
 62
   256
  9
$DIMSCALE
 40
1.0
  9
$DIMASZ
 40
0.18
  9
$DIMEXO
 40
0.0625
  9
$DIMDLI
 40
0.38
  9
$DIMRND
 40
0.0
  9
$DIMDLE
 40
0.0
  9
$DIMEXE
 40
0.18
  9
$DIMTP
 40
0.0
  9
$DIMTM
 40
0.0
  9
$DIMTXT
 40
0.18
  9
$DIMCEN
 40
0.09
  9
$DIMTSZ
 40
0.0
  9
$DIMTOL
 70
     0
  9
$DIMLIM
 70
     0
  9
$DIMTIH
 70
     1
  9
$DIMTOH
 70
     1
  9
$DIMSE1
 70
     0
  9
$DIMSE2
 70
     0
  9
$DIMTAD
 70
     0
  9
$DIMZIN
 70
     0
  9
$DIMBLK
  1

  9
$DIMASO
 70
     1
  9
$DIMSHO
 70
     1
  9
$DIMPOST
  1

  9
$DIMAPOST
  1

  9
$DIMALT
 70
     0
  9
$DIMALTD
 70
     2
  9
$DIMALTF
 40
25.4
  9
$DIMLFAC
 40
1.0
  9
$DIMTOFL
 70
     0
  9
$DIMTVP
 40
0.0
  9
$DIMTIX
 70
     0
  9
$DIMSOXD
 70
     0
  9
$DIMSAH
 70
     0
  9
$DIMBLK1
  1

  9
$DIMBLK2
  1

  9
$DIMSTYLE
  2
*UNNAMED
  9
$DIMCLRD
 70
     0
  9
$DIMCLRE
 70
     0
  9
$DIMCLRT
 70
     0
  9
$DIMTFAC
 40
1.0
  9
$DIMGAP
 40
0.09
  9
$LUNITS
 70
     2
  9
$LUPREC
 70
     4
  9
$SKETCHINC
 40
0.1
  9
$FILLETRAD
 40
0.0
  9
$AUNITS
 70
     0
  9
$AUPREC
 70
     0
  9
$MENU
  1
aDXF
  9
$ELEVATION
 40
0.0
  9
$PELEVATION
 40
0.0
  9
$THICKNESS
 40
0.0
  9
$LIMCHECK
 70
     0
  9
$BLIPMODE
 70
     1
  9
$CHAMFERA
 40
0.0
  9
$CHAMFERB
 40
0.0
  9
$SKPOLY
 70
     0
  9
$TDCREATE
 40
2450406.327857407
  9
$TDUPDATE
 40
2450406.327857407
  9
$TDINDWG
 40
0.0000000000
  9
$TDUSRTIMER
 40
0.0000000000
  9
$USRTIMER
 70
     1
  9
$ANGBASE
 50
0.0
  9
$ANGDIR
 70
     0
  9
$PDMODE
 70
     0
  9
$PDSIZE
 40
0.0
  9
$PLINEWID
 40
0.0
  9
$COORDS
 70
     1
  9
$SPLFRAME
 70
     0
  9
$SPLINETYPE
 70
     6
  9
$SPLINESEGS
 70
     8
  9
$ATTDIA
 70
     0
  9
$ATTREQ
 70
     1
  9
$HANDLING
 70
     0
  9
$HANDSEED
  5
0
  9
$SURFTAB1
 70
     6
  9
$SURFTAB2
 70
     6
  9
$SURFTYPE
 70
     6
  9
$SURFU
 70
     6
  9
$SURFV
 70
     6
  9
$UCSNAME
  2

  9
$UCSORG
 10
0.0
 20
0.0
 30
0.0
  9
$UCSXDIR
 10
1.0
 20
0.0
 30
0.0
  9
$UCSYDIR
 10
0.0
 20
1.0
 30
0.0
  9
$PUCSNAME
  2

  9
$PUCSORG
 10
0.0
 20
0.0
 30
0.0
  9
$PUCSXDIR
 10
1.0
 20
0.0
 30
0.0
  9
$PUCSYDIR
 10
0.0
 20
1.0
 30
0.0
  9
$USERI1
 70
     0
  9
$USERI2
 70
     0
  9
$USERI3
 70
     0
  9
$USERI4
 70
     0
  9
$USERI5
 70
     0
  9
$USERR1
 40
0.0
  9
$USERR2
 40
0.0
  9
$USERR3
 40
0.0
  9
$USERR4
 40
0.0
  9
$USERR5
 40
0.0
  9
$WORLDVIEW
 70
     1
  9
$SHADEDGE
 70
     3
  9
$SHADEDIF
 70
    70
  9
$TILEMODE
 70
     1
  9
$MAXACTVP
 70
    16
  9
$PINSBASE
 10
0.0
 20
0.0
 30
0.0
  9
$PLIMCHECK
 70
     0
  9
$PEXTMIN
 10
1.000000E+20
 20
1.000000E+20
 30
1.000000E+20
  9
$PEXTMAX
 10
-1.000000E+20
 20
-1.000000E+20
 30
-1.000000E+20
  9
$PLIMMIN
 10
0.0
 20
0.0
  9
$PLIMMAX
 10
12.0
 20
9.0
  9
$UNITMODE
 70
     0
  9
$VISRETAIN
 70
     0
  9
$PLINEGEN
 70
     0
  9
$PSLTSCALE
 70
     1
  9
$TREEDEPTH
 70
  3020
  9
$DWGCODEPAGE
  3
iso8859-1
  0
ENDSEC
  0
SECTION
  2
TABLES
  0
TABLE
  2
VPORT
 70
     2
  0
VPORT
  2
*ACTIVE
 70
     0
 10
0.0
 20
0.0
 11
1.0
 21
1.0
 12
7.953782
 22
4.5
 13
0.0
 23
0.0
 14
1.0
 24
1.0
 15
0.0
 25
0.0
 16
0.0
 26
0.0
 36
1.0
 17
0.0
 27
0.0
 37
0.0
 40
9.0
 41
1.767507
 42
50.0
 43
0.0
 44
0.0
 50
0.0
 51
0.0
 71
     0
 72
   100
 73
     1
 74
     1
 75
     0
 76
     0
 77
     0
 78
     0
  0
ENDTAB
  0
TABLE
  2
LTYPE
 70
     1
  0
LTYPE
  2
CONTINUOUS
 70
    64
  3
Solid line
 72
    65
 73
     0
 40
0.0
  0
ENDTAB
  0
TABLE
  2
LAYER
 70
     1
  0
LAYER
  2
0
 70
     0
 62
     7
  6
CONTINUOUS
  0
ENDTAB
  0
TABLE
  2
STYLE
 70
     1
  0
STYLE
  2
STANDARD
 70
     0
 40
0.0
 41
1.0
 50
0.0
 71
     0
 42
0.2
  3
txt
  4

  0
ENDTAB
  0
TABLE
  2
VIEW
 70
     0
  0
ENDTAB
  0
TABLE
  2
UCS
 70
     0
  0
ENDTAB
  0
TABLE
  2
APPID
 70
     1
  0
APPID
  2
ADXF
 70
    64
  0
ENDTAB
  0
TABLE
  2
DIMSTYLE
 70
     0
  0
ENDTAB
  0
ENDSEC
  0
SECTION
  2
BLOCKS
  0
ENDSEC
  0
SECTION
  2
ENTITIES
  0
POLYLINE
  8
0
 66
1
  0
VERTEX
  8
0
 10
-62.687622
 20
-80.352882
  0
VERTEX
  8
0
 10
-64.164520
 20
-77.476776
  0
VERTEX
  8
0
 10
-65.641426
 20
-74.600670
  0
VERTEX
  8
0
 10
-67.895988
 20
-69.057098
  0
VERTEX
  8
0
 10
-70.150589
 20
-63.513565
  0
VERTEX
  8
0
 10
-73.365807
 20
-54.096680
  0
VERTEX
  8
0
 10
-76.370605
 20
-44.617260
  0
VERTEX
  8
0
 10
-77.887161
 20
-39.677078
  0
VERTEX
  8
0
 10
-79.403671
 20
-34.736954
  0
VERTEX
  8
0
 10
-81.506584
 20
-27.318027
  0
VERTEX
  8
0
 10
-83.609467
 20
-19.899120
  0
VERTEX
  8
0
 10
-85.041290
 20
-14.644087
  0
VERTEX
  8
0
 10
-86.473114
 20
-9.389017
  0
VERTEX
  8
0
 10
-88.622253
 20
-0.659541
  0
VERTEX
  8
0
 10
-90.771439
 20
8.069973
  0
VERTEX
  8
0
 10
-93.299164
 20
18.467213
  0
VERTEX
  8
0
 10
-94.493317
 20
24.028679
  0
VERTEX
  8
0
 10
-94.772186
 20
25.637653
  0
VERTEX
  8
0
 10
-95.051071
 20
27.246651
  0
VERTEX
  8
0
 10
-94.806549
 20
27.480371
  0
VERTEX
  8
0
 10
-94.562027
 20
27.714092
  0
VERTEX
  8
0
 10
-93.083786
 20
27.229015
  0
VERTEX
  8
0
 10
-91.605515
 20
26.743927
  0
VERTEX
  8
0
 10
-90.221176
 20
26.138887
  0
VERTEX
  8
0
 10
-88.836853
 20
25.533833
  0
VERTEX
  8
0
 10
-85.372108
 20
24.058865
  0
VERTEX
  8
0
 10
-81.907364
 20
22.583878
  0
VERTEX
  8
0
 10
-76.069748
 20
20.035643
  0
VERTEX
  8
0
 10
-70.232132
 20
17.487427
  0
VERTEX
  8
0
 10
-64.091644
 20
14.839418
  0
VERTEX
  8
0
 10
-57.951118
 20
12.191410
  0
VERTEX
  8
0
 10
-47.527122
 20
7.603185
  0
VERTEX
  8
0
 10
-37.103127
 20
3.014957
  0
VERTEX
  8
0
 10
-31.918499
 20
0.701755
  0
VERTEX
  8
0
 10
-26.733873
 20
-1.611414
  0
VERTEX
  8
0
 10
-24.010118
 20
-2.995390
  0
VERTEX
  8
0
 10
-24.304892
 20
-7.944691
  0
VERTEX
  8
0
 10
-24.551435
 20
-13.123634
  0
VERTEX
  8
0
 10
-24.798018
 20
-18.302561
  0
VERTEX
  8
0
 10
-25.447269
 20
-18.319178
  0
VERTEX
  8
0
 10
-26.096525
 20
-18.335777
  0
VERTEX
  8
0
 10
-28.834349
 20
-17.177301
  0
VERTEX
  8
0
 10
-31.572168
 20
-16.018826
  0
VERTEX
  8
0
 10
-37.392517
 20
-13.514212
  0
VERTEX
  8
0
 10
-43.212791
 20
-11.009600
  0
VERTEX
  8
0
 10
-46.169731
 20
-9.805646
  0
VERTEX
  8
0
 10
-49.126671
 20
-8.601692
  0
VERTEX
  8
0
 10
-51.759476
 20
-7.494526
 42
0.138511
  0
VERTEX
  8
0
 10
-53.119377
 20
-7.812846
 42
0.160930
  0
VERTEX
  8
0
 10
-54.097786
 20
-8.897078
 42
0.179520
  0
VERTEX
  8
0
 10
-54.185001
 20
-10.354895
 42
0.061741
  0
VERTEX
  8
0
 10
-53.724937
 20
-11.388365
  0
VERTEX
  8
0
 10
-50.878403
 20
-17.275007
  0
VERTEX
  8
0
 10
-48.031937
 20
-23.161596
  0
VERTEX
  8
0
 10
-46.549591
 20
-26.501888
  0
VERTEX
  8
0
 10
-45.067245
 20
-29.842180
 42
-0.020861
  0
VERTEX
  8
0
 10
-43.248810
 20
-34.835129
 42
-0.023649
  0
VERTEX
  8
0
 10
-41.057434
 20
-43.267372
 42
-0.071786
  0
VERTEX
  8
0
 10
-40.956787
 20
-49.987484
 42
-0.043263
  0
VERTEX
  8
0
 10
-42.389496
 20
-56.553894
  0
VERTEX
  8
0
 10
-43.677189
 20
-59.303436
  0
VERTEX
  8
0
 10
-44.964890
 20
-62.053009
  0
VERTEX
  8
0
 10
-47.321205
 20
-65.735596
  0
VERTEX
  8
0
 10
-49.677490
 20
-69.418182
  0
VERTEX
  8
0
 10
-51.609879
 20
-71.813263
  0
VERTEX
  8
0
 10
-53.542267
 20
-74.208382
  0
VERTEX
  8
0
 10
-55.541092
 20
-76.364517
  0
VERTEX
  8
0
 10
-57.539917
 20
-78.520622
  0
VERTEX
  8
0
 10
-58.996574
 20
-80.062492
  0
VERTEX
  8
0
 10
-60.453232
 20
-81.604301
  0
VERTEX
  8
0
 10
-60.850842
 20
-82.045433
  0
VERTEX
  8
0
 10
-61.248451
 20
-82.486572
  0
VERTEX
  8
0
 10
-61.501995
 20
-82.403046
  0
VERTEX
  8
0
 10
-61.755547
 20
-82.319489
  0
VERTEX
  8
0
 10
-62.221584
 20
-81.336182
  0
VERTEX
  8
0
 10
-62.687622
 20
-80.352882
  0
SEQEND
  8
0
  0
POLYLINE
  8
0
 66
1
  0
VERTEX
  8
0
 10
-97.509369
 20
33.453522
  0
VERTEX
  8
0
 10
-98.542343
 20
37.273216
  0
VERTEX
  8
0
 10
-99.575348
 20
41.092911
  0
VERTEX
  8
0
 10
-99.861435
 20
42.511501
  0
VERTEX
  8
0
 10
-100.147491
 20
43.930077
  0
VERTEX
  8
0
 10
-100.384903
 20
45.333107
  0
VERTEX
  8
0
 10
-100.622375
 20
46.736115
  0
VERTEX
  8
0
 10
-100.064453
 20
47.074570
  0
VERTEX
  8
0
 10
-99.506531
 20
47.413025
  0
VERTEX
  8
0
 10
-97.279572
 20
48.561089
  0
VERTEX
  8
0
 10
-95.052559
 20
49.709206
 42
0.027341
  0
VERTEX
  8
0
 10
-86.793961
 20
55.273994
 42
0.023291
  0
VERTEX
  8
0
 10
-82.740303
 20
58.708652
 42
0.016564
  0
VERTEX
  8
0
 10
-80.215111
 20
61.089344
 42
0.019160
  0
VERTEX
  8
0
 10
-76.107666
 20
65.605972
  0
VERTEX
  8
0
 10
-75.624519
 20
66.113770
  0
VERTEX
  8
0
 10
-75.141373
 20
66.621590
  0
VERTEX
  8
0
 10
-74.787880
 20
66.264984
  0
VERTEX
  8
0
 10
-74.434418
 20
65.908371
  0
VERTEX
  8
0
 10
-73.987762
 20
63.939934
  0
VERTEX
  8
0
 10
-73.541107
 20
61.971458
  0
VERTEX
  8
0
 10
-72.850494
 20
59.034687
  0
VERTEX
  8
0
 10
-72.159866
 20
56.097923
  0
VERTEX
  8
0
 10
-70.920357
 20
51.715031
  0
VERTEX
  8
0
 10
-69.680847
 20
47.332191
  0
VERTEX
  8
0
 10
-68.994781
 20
44.999474
  0
VERTEX
  8
0
 10
-68.308678
 20
42.666756
 42
0.030150
  0
VERTEX
  8
0
 10
-67.662064
 20
40.817528
 42
0.028043
  0
VERTEX
  8
0
 10
-67.023094
 20
39.521156
 42
0.041311
  0
VERTEX
  8
0
 10
-65.796440
 20
37.578426
 42
0.042311
  0
VERTEX
  8
0
 10
-64.010979
 20
35.602821
 42
0.058161
  0
VERTEX
  8
0
 10
-62.198902
 20
34.155983
 42
0.049136
  0
VERTEX
  8
0
 10
-58.124001
 20
32.140118
  0
VERTEX
  8
0
 10
-54.102539
 20
30.159443
  0
VERTEX
  8
0
 10
-49.683132
 20
28.103380
  0
VERTEX
  8
0
 10
-45.263649
 20
26.047318
  0
VERTEX
  8
0
 10
-40.575096
 20
24.006069
  0
VERTEX
  8
0
 10
-35.886543
 20
21.964821
  0
VERTEX
  8
0
 10
-31.632370
 20
20.101849
  0
VERTEX
  8
0
 10
-27.378164
 20
18.238873
  0
VERTEX
  8
0
 10
-25.720491
 20
17.425388
  0
VERTEX
  8
0
 10
-24.062819
 20
16.611923
  0
VERTEX
  8
0
 10
-24.462851
 20
14.345499
  0
VERTEX
  8
0
 10
-24.862883
 20
12.079071
  0
VERTEX
  8
0
 10
-25.600937
 20
8.836744
  0
VERTEX
  8
0
 10
-26.339025
 20
5.594417
  0
VERTEX
  8
0
 10
-26.765270
 20
4.223959
  0
VERTEX
  8
0
 10
-27.191549
 20
2.853481
  0
VERTEX
  8
0
 10
-27.222248
 20
2.769534
  0
VERTEX
  8
0
 10
-27.252947
 20
2.685569
  0
VERTEX
  8
0
 10
-29.675035
 20
3.624130
  0
VERTEX
  8
0
 10
-33.007694
 20
5.040853
  0
VERTEX
  8
0
 10
-36.340317
 20
6.457538
  0
VERTEX
  8
0
 10
-41.670296
 20
8.791044
  0
VERTEX
  8
0
 10
-47.000160
 20
11.124569
  0
VERTEX
  8
0
 10
-53.441074
 20
13.809645
  0
VERTEX
  8
0
 10
-59.881989
 20
16.494740
  0
VERTEX
  8
0
 10
-65.927719
 20
19.135014
  0
VERTEX
  8
0
 10
-71.973488
 20
21.775307
  0
VERTEX
  8
0
 10
-76.947014
 20
23.950367
  0
VERTEX
  8
0
 10
-81.920563
 20
26.125370
  0
VERTEX
  8
0
 10
-85.648323
 20
27.758118
  0
VERTEX
  8
0
 10
-89.376083
 20
29.390911
  0
VERTEX
  8
0
 10
-91.569000
 20
30.315737
  0
VERTEX
  8
0
 10
-93.761871
 20
31.240547
  0
VERTEX
  8
0
 10
-97.318237
 20
32.853382
  0
VERTEX
  8
0
 10
-97.413788
 20
33.153469
  0
VERTEX
  8
0
 10
-97.509369
 20
33.453522
  0
SEQEND
  8
0
  0
POLYLINE
  8
0
 66
1
  0
VERTEX
  8
0
 10
84.496216
 20
33.131901
  0
VERTEX
  8
0
 10
85.552475
 20
36.945221
  0
VERTEX
  8
0
 10
86.608711
 20
40.758575
  0
VERTEX
  8
0
 10
86.903427
 20
42.175396
  0
VERTEX
  8
0
 10
87.198135
 20
43.592201
  0
VERTEX
  8
0
 10
87.444077
 20
44.993736
  0
VERTEX
  8
0
 10
87.690048
 20
46.395271
  0
VERTEX
  8
0
 10
87.134232
 20
46.737144
  0
VERTEX
  8
0
 10
86.578438
 20
47.079002
  0
VERTEX
  8
0
 10
82.138535
 20
49.402252
 42
-0.027342
  0
VERTEX
  8
0
 10
73.913887
 20
55.017242
 42
-0.023292
  0
VERTEX
  8
0
 10
69.881302
 20
58.476528
 42
-0.016567
  0
VERTEX
  8
0
 10
67.370613
 20
60.872570
 42
-0.019162
  0
VERTEX
  8
0
 10
63.290771
 20
65.414108
  0
VERTEX
  8
0
 10
62.810715
 20
65.924850
  0
VERTEX
  8
0
 10
62.330658
 20
66.435593
  0
VERTEX
  8
0
 10
61.975010
 20
66.081161
  0
VERTEX
  8
0
 10
61.619339
 20
65.726700
  0
VERTEX
  8
0
 10
61.160721
 20
63.761017
  0
VERTEX
  8
0
 10
60.702118
 20
61.795319
  0
VERTEX
  8
0
 10
59.993607
 20
58.862804
  0
VERTEX
  8
0
 10
59.285141
 20
55.930290
  0
VERTEX
  8
0
 10
58.018936
 20
51.555038
  0
VERTEX
  8
0
 10
56.752747
 20
47.179840
  0
VERTEX
  8
0
 10
56.052467
 20
44.851349
  0
VERTEX
  8
0
 10
55.352165
 20
42.522846
 42
-0.030197
  0
VERTEX
  8
0
 10
54.694313
 20
40.677555
 42
-0.028097
  0
VERTEX
  8
0
 10
54.047508
 20
39.385155
 42
-0.041322
  0
VERTEX
  8
0
 10
52.808971
 20
37.449917
 42
-0.042314
  0
VERTEX
  8
0
 10
51.011562
 20
35.485210
 42
-0.058158
  0
VERTEX
  8
0
 10
49.190742
 20
34.049477
 42
-0.049137
  0
VERTEX
  8
0
 10
45.103600
 20
32.058426
  0
VERTEX
  8
0
 10
43.086876
 20
31.080351
  0
VERTEX
  8
0
 10
41.070137
 20
30.102276
  0
VERTEX
  8
0
 10
36.638268
 20
28.073174
  0
VERTEX
  8
0
 10
32.206398
 20
26.044086
  0
VERTEX
  8
0
 10
27.505480
 20
24.031414
  0
VERTEX
  8
0
 10
22.804579
 20
22.018757
  0
VERTEX
  8
0
 10
18.539164
 20
20.181732
  0
VERTEX
  8
0
 10
14.273697
 20
18.344727
  0
VERTEX
  8
0
 10
10.948492
 20
16.738022
  0
VERTEX
  8
0
 10
11.334739
 20
14.469168
  0
VERTEX
  8
0
 10
11.720968
 20
12.200371
  0
VERTEX
  8
0
 10
12.439240
 20
8.953533
  0
VERTEX
  8
0
 10
13.157549
 20
5.706447
  0
VERTEX
  8
0
 10
13.575468
 20
4.333434
  0
VERTEX
  8
0
 10
13.993370
 20
2.960403
  0
VERTEX
  8
0
 10
14.053770
 20
2.792087
  0
VERTEX
  8
0
 10
15.267632
 20
3.254001
  0
VERTEX
  8
0
 10
16.481493
 20
3.715915
  0
VERTEX
  8
0
 10
19.822685
 20
5.112291
  0
VERTEX
  8
0
 10
23.163931
 20
6.508647
  0
VERTEX
  8
0
 10
28.507967
 20
8.809948
  0
VERTEX
  8
0
 10
33.851952
 20
11.111000
  0
VERTEX
  8
0
 10
40.309097
 20
13.756812
  0
VERTEX
  8
0
 10
46.766258
 20
16.402641
  0
VERTEX
  8
0
 10
52.827961
 20
19.006063
  0
VERTEX
  8
0
 10
58.889717
 20
21.609486
  0
VERTEX
  8
0
 10
63.876366
 20
23.754192
  0
VERTEX
  8
0
 10
68.863068
 20
25.898865
  0
VERTEX
  8
0
 10
72.600700
 20
27.508877
  0
VERTEX
  8
0
 10
76.338371
 20
29.118927
  0
VERTEX
  8
0
 10
78.536865
 20
30.030378
  0
VERTEX
  8
0
 10
80.735336
 20
30.941830
  0
VERTEX
  8
0
 10
82.518433
 20
31.737368
  0
VERTEX
  8
0
 10
84.301498
 20
32.532925
  0
VERTEX
  8
0
 10
84.398865
 20
32.832439
  0
VERTEX
  8
0
 10
84.496216
 20
33.131901
  0
SEQEND
  8
0
  0
POLYLINE
  8
0
 66
1
  0
VERTEX
  8
0
 10
48.646561
 20
-80.740654
  0
VERTEX
  8
0
 10
50.170155
 20
-77.888931
  0
VERTEX
  8
0
 10
51.693748
 20
-75.037285
  0
VERTEX
  8
0
 10
54.038464
 20
-69.531227
  0
VERTEX
  8
0
 10
56.383179
 20
-64.025131
  0
VERTEX
  8
0
 10
58.067352
 20
-59.343594
  0
VERTEX
  8
0
 10
59.751511
 20
-54.661991
  0
VERTEX
  8
0
 10
61.330997
 20
-49.947411
  0
VERTEX
  8
0
 10
62.910461
 20
-45.232800
  0
VERTEX
  8
0
 10
64.507355
 20
-40.318050
  0
VERTEX
  8
0
 10
66.104248
 20
-35.403267
  0
VERTEX
  8
0
 10
68.327774
 20
-28.019642
  0
VERTEX
  8
0
 10
70.551346
 20
-20.636074
  0
VERTEX
  8
0
 10
72.068672
 20
-15.405050
  0
VERTEX
  8
0
 10
73.586014
 20
-10.174063
  0
VERTEX
  8
0
 10
75.877213
 20
-1.480602
  0
VERTEX
  8
0
 10
78.168427
 20
7.213645
  0
VERTEX
  8
0
 10
79.516914
 20
12.390972
  0
VERTEX
  8
0
 10
80.865402
 20
17.568283
  0
VERTEX
  8
0
 10
81.507721
 20
20.338917
  0
VERTEX
  8
0
 10
82.150055
 20
23.109554
  0
VERTEX
  8
0
 10
82.455124
 20
24.713741
  0
VERTEX
  8
0
 10
82.760208
 20
26.317951
  0
VERTEX
  8
0
 10
82.278915
 20
26.793327
  0
VERTEX
  8
0
 10
80.792923
 20
26.332453
  0
VERTEX
  8
0
 10
79.306961
 20
25.871563
  0
VERTEX
  8
0
 10
77.912933
 20
25.289150
  0
VERTEX
  8
0
 10
76.518929
 20
24.706753
  0
VERTEX
  8
0
 10
73.030563
 20
23.288486
  0
VERTEX
  8
0
 10
69.542191
 20
21.870182
  0
VERTEX
  8
0
 10
63.663948
 20
19.417469
  0
VERTEX
  8
0
 10
57.785591
 20
16.964767
  0
VERTEX
  8
0
 10
45.419823
 20
11.869766
  0
VERTEX
  8
0
 10
40.171112
 20
9.660754
  0
VERTEX
  8
0
 10
34.922390
 20
7.451552
  0
VERTEX
  8
0
 10
29.673662
 20
5.242358
  0
VERTEX
  8
0
 10
24.424921
 20
3.033374
  0
VERTEX
  8
0
 10
19.203186
 20
0.805032
  0
VERTEX
  8
0
 10
13.981419
 20
-1.423327
  0
VERTEX
  8
0
 10
12.608448
 20
-2.092983
  0
VERTEX
  8
0
 10
11.235495
 20
-2.762656
  0
VERTEX
  8
0
 10
11.342458
 20
-5.239386
  0
VERTEX
  8
0
 10
11.449457
 20
-7.716116
  0
VERTEX
  8
0
 10
11.611551
 20
-12.898365
  0
VERTEX
  8
0
 10
11.773645
 20
-18.080614
  0
VERTEX
  8
0
 10
13.071465
 20
-18.135025
  0
VERTEX
  8
0
 10
18.584366
 20
-15.907675
  0
VERTEX
  8
0
 10
24.444757
 20
-13.498304
  0
VERTEX
  8
0
 10
30.305136
 20
-11.088936
  0
VERTEX
  8
0
 10
33.281265
 20
-9.933368
  0
VERTEX
  8
0
 10
36.257416
 20
-8.777781
  0
VERTEX
  8
0
 10
37.582687
 20
-8.245745
  0
VERTEX
  8
0
 10
38.907967
 20
-7.713692
 42
-0.138458
  0
VERTEX
  8
0
 10
40.262543
 20
-8.054132
 42
-0.160918
  0
VERTEX
  8
0
 10
41.223099
 20
-9.154197
 42
-0.179519
  0
VERTEX
  8
0
 10
41.286518
 20
-10.613235
 42
-0.061748
  0
VERTEX
  8
0
 10
40.809631
 20
-11.639061
  0
VERTEX
  8
0
 10
37.867531
 20
-17.478495
  0
VERTEX
  8
0
 10
34.925453
 20
-23.317894
  0
VERTEX
  8
0
 10
33.388828
 20
-26.633589
  0
VERTEX
  8
0
 10
31.852224
 20
-29.949268
 42
0.020863
  0
VERTEX
  8
0
 10
29.952574
 20
-34.911903
 42
0.023651
  0
VERTEX
  8
0
 10
27.624006
 20
-43.307346
 42
0.071779
  0
VERTEX
  8
0
 10
27.413849
 20
-50.024868
 42
0.043263
  0
VERTEX
  8
0
 10
28.739225
 20
-56.613674
  0
VERTEX
  8
0
 10
29.981928
 20
-59.383923
  0
VERTEX
  8
0
 10
31.224592
 20
-62.154137
  0
VERTEX
  8
0
 10
33.520550
 20
-65.874619
  0
VERTEX
  8
0
 10
35.816490
 20
-69.595146
  0
VERTEX
  8
0
 10
37.709553
 20
-72.021446
  0
VERTEX
  8
0
 10
39.602600
 20
-74.447746
  0
VERTEX
  8
0
 10
41.565994
 20
-76.636177
  0
VERTEX
  8
0
 10
43.529442
 20
-78.824608
  0
VERTEX
  8
0
 10
44.960732
 20
-80.389999
  0
VERTEX
  8
0
 10
46.392052
 20
-81.955383
  0
VERTEX
  8
0
 10
47.172821
 20
-82.850487
  0
VERTEX
  8
0
 10
47.682510
 20
-82.691719
  0
VERTEX
  8
0
 10
48.164551
 20
-81.716164
  0
VERTEX
  8
0
 10
48.646561
 20
-80.740654
  0
SEQEND
  8
0
  0
POLYLINE
  8
0
 66
1
  0
VERTEX
  8
0
 10
1.802214
 20
59.529213
  0
VERTEX
  8
0
 10
22.480776
 20
69.892662
 42
-0.414213
  0
VERTEX
  8
0
 10
24.209249
 20
69.318260
  0
VERTEX
  8
0
 10
32.829891
 20
52.117180
 42
-0.414213
  0
VERTEX
  8
0
 10
32.255562
 20
50.388687
  0
VERTEX
  8
0
 10
11.577018
 20
40.025230
 42
-0.414218
  0
VERTEX
  8
0
 10
9.848501
 20
40.599617
  0
VERTEX
  8
0
 10
1.227848
 20
57.800724
 42
-0.414215
  0
VERTEX
  8
0
 10
1.802270
 20
59.529175
 42
240788484342463670000000000000000000000000000000000000000000000000000000000000000000000000000000000000000000000000000000000000000000000000000000000000000000000000000000000000000000000000000000000000000000000000000000000000000000000000000000000000000000000000000000000000000000000000000000000.000000
  0
SEQEND
  8
0
  0
POLYLINE
  8
0
 66
1
  0
VERTEX
  8
0
 10
-13.956598
 20
58.287918
  0
VERTEX
  8
0
 10
-33.133335
 20
71.220718
 42
0.414215
  0
VERTEX
  8
0
 10
-34.921249
 20
70.872932
  0
VERTEX
  8
0
 10
-45.679211
 20
54.921246
 42
0.414214
  0
VERTEX
  8
0
 10
-45.331421
 20
53.133232
  0
VERTEX
  8
0
 10
-26.154762
 20
40.200432
 42
0.414213
  0
VERTEX
  8
0
 10
-24.366858
 20
40.548111
  0
VERTEX
  8
0
 10
-13.608877
 20
56.499916
 42
0.414214
  0
VERTEX
  8
0
 10
-13.956564
 20
58.287834
 42
240788484342463670000000000000000000000000000000000000000000000000000000000000000000000000000000000000000000000000000000000000000000000000000000000000000000000000000000000000000000000000000000000000000000000000000000000000000000000000000000000000000000000000000000000000000000000000000000000.000000
  0
SEQEND
  8
0
  0
POLYLINE
  8
0
 66
1
  0
VERTEX
  8
0
 10
40.495659
 20
105.501678
 42
-0.159641
  0
VERTEX
  8
0
 10
43.256672
 20
103.436188
 42
-0.157933
  0
VERTEX
  8
0
 10
44.437355
 20
99.735161
  0
VERTEX
  8
0
 10
44.437386
 20
72.258156
 42
0.464983
  0
VERTEX
  8
0
 10
56.123314
 20
71.241432
  0
VERTEX
  8
0
 10
56.834602
 20
71.950348
 42
-0.422811
  0
VERTEX
  8
0
 10
68.003876
 20
71.767914
  0
VERTEX
  8
0
 10
68.963997
 20
70.746445
 42
-0.015301
  0
VERTEX
  8
0
 10
69.279449
 20
70.389565
 42
0.006030
  0
VERTEX
  8
0
 10
70.497597
 20
68.958847
 42
0.033147
  0
VERTEX
  8
0
 10
75.171051
 20
64.190918
 42
0.018820
  0
VERTEX
  8
0
 10
77.464088
 20
62.150551
 42
0.035418
  0
VERTEX
  8
0
 10
85.947006
 20
56.196716
  0
VERTEX
  8
0
 10
90.188179
 20
53.977440
 42
-0.017332
  0
VERTEX
  8
0
 10
90.657440
 20
53.710777
  0
VERTEX
  8
0
 10
91.769081
 20
53.027050
 42
-0.307447
  0
VERTEX
  8
0
 10
95.358658
 20
45.049408
  0
VERTEX
  8
0
 10
94.845650
 20
42.126160
  0
VERTEX
  8
0
 10
94.231392
 20
39.173069
 42
-0.016286
  0
VERTEX
  8
0
 10
94.112022
 20
38.680252
  0
VERTEX
  8
0
 10
91.953690
 20
30.888058
  0
VERTEX
  8
0
 10
91.705879
 20
30.125769
 42
-0.088369
  0
VERTEX
  8
0
 10
90.419273
 20
27.717110
 42
-0.092415
  0
VERTEX
  8
0
 10
90.408936
 20
24.863384
  0
VERTEX
  8
0
 10
89.769798
 20
21.502419
  0
VERTEX
  8
0
 10
88.426338
 20
15.707554
  0
VERTEX
  8
0
 10
85.700043
 20
5.240341
  0
VERTEX
  8
0
 10
81.090317
 20
-12.250917
  0
VERTEX
  8
0
 10
78.017883
 20
-22.843159
  0
VERTEX
  8
0
 10
73.535042
 20
-37.729057
  0
VERTEX
  8
0
 10
70.304260
 20
-47.672474
  0
VERTEX
  8
0
 10
67.106773
 20
-57.216713
  0
VERTEX
  8
0
 10
63.709385
 20
-66.660683
 42
-0.014321
  0
VERTEX
  8
0
 10
63.546555
 20
-67.075592
  0
VERTEX
  8
0
 10
58.857101
 20
-78.087746
 42
-0.022033
  0
VERTEX
  8
0
 10
58.560898
 20
-78.706238
  0
VERTEX
  8
0
 10
55.571999
 20
-84.300491
  0
VERTEX
  8
0
 10
54.662716
 20
-86.140732
 42
-0.205291
  0
VERTEX
  8
0
 10
49.997917
 20
-90.125267
  0
VERTEX
  8
0
 10
49.488224
 20
-90.284042
 42
-0.297179
  0
VERTEX
  8
0
 10
41.305511
 20
-87.968437
  0
VERTEX
  8
0
 10
40.584595
 20
-87.142006
  0
VERTEX
  8
0
 10
37.758644
 20
-84.051292
  0
VERTEX
  8
0
 10
33.807327
 20
-79.647125
 42
-0.017191
  0
VERTEX
  8
0
 10
33.464134
 20
-79.237091
  0
VERTEX
  8
0
 10
29.678038
 20
-74.384506
 42
-0.027414
  0
VERTEX
  8
0
 10
29.190744
 20
-73.683937
  0
VERTEX
  8
0
 10
24.598825
 20
-66.242935
 42
-0.032817
  0
VERTEX
  8
0
 10
24.120787
 20
-65.340843
  0
VERTEX
  8
0
 10
21.635443
 20
-59.800335
 42
-0.032066
  0
VERTEX
  8
0
 10
21.286268
 20
-58.865845
 42
-0.054213
  0
VERTEX
  8
0
 10
19.572203
 20
-49.713829
 42
-0.066287
  0
VERTEX
  8
0
 10
19.995291
 20
-41.743793
 42
-0.012873
  0
VERTEX
  8
0
 10
21.276974
 20
-36.651096
 42
-0.034475
  0
VERTEX
  8
0
 10
24.741648
 20
-26.775703
  0
VERTEX
  8
0
 10
27.593592
 20
-20.621891
  0
VERTEX
  8
0
 10
21.522963
 20
-23.117687
  0
VERTEX
  8
0
 10
15.988063
 20
-25.353931
 42
-0.106868
  0
VERTEX
  8
0
 10
12.745447
 20
-25.914032
  0
VERTEX
  8
0
 10
11.447631
 20
-25.859619
 42
-0.391649
  0
VERTEX
  8
0
 10
3.991622
 20
-18.324017
 42
0.028225
  0
VERTEX
  8
0
 10
1.620101
 20
-14.999320
 42
0.075638
  0
VERTEX
  8
0
 10
-2.373200
 20
-11.325369
 42
0.152716
  0
VERTEX
  8
0
 10
-6.514712
 20
-10.090884
 42
0.140975
  0
VERTEX
  8
0
 10
-10.270154
 20
-11.225906
 42
0.080658
  0
VERTEX
  8
0
 10
-14.394455
 20
-14.950940
 42
0.030363
  0
VERTEX
  8
0
 10
-17.021032
 20
-18.672836
 42
-0.392949
  0
VERTEX
  8
0
 10
-24.598951
 20
-26.085819
  0
VERTEX
  8
0
 10
-25.897463
 20
-26.119057
 42
-0.106869
  0
VERTEX
  8
0
 10
-29.130541
 20
-25.506111
  0
VERTEX
  8
0
 10
-34.627953
 20
-23.179939
  0
VERTEX
  8
0
 10
-40.657120
 20
-20.585487
  0
VERTEX
  8
0
 10
-37.905998
 20
-26.784826
 42
-0.034488
  0
VERTEX
  8
0
 10
-34.602795
 20
-36.715496
 42
-0.012886
  0
VERTEX
  8
0
 10
-33.404247
 20
-41.828629
 42
-0.066282
  0
VERTEX
  8
0
 10
-33.111179
 20
-49.804279
 42
-0.054223
  0
VERTEX
  8
0
 10
-34.974304
 20
-58.927490
 42
-0.032062
  0
VERTEX
  8
0
 10
-35.338623
 20
-59.856026
  0
VERTEX
  8
0
 10
-37.914028
 20
-65.355110
 42
-0.032814
  0
VERTEX
  8
0
 10
-38.406670
 20
-66.249245
  0
VERTEX
  8
0
 10
-43.119286
 20
-73.614441
 42
-0.027423
  0
VERTEX
  8
0
 10
-43.617958
 20
-74.307037
  0
VERTEX
  8
0
 10
-47.482700
 20
-79.097252
 42
-0.017160
  0
VERTEX
  8
0
 10
-47.832489
 20
-79.501595
  0
VERTEX
  8
0
 10
-51.855133
 20
-83.840775
  0
VERTEX
  8
0
 10
-54.731148
 20
-86.885010
  0
VERTEX
  8
0
 10
-55.465519
 20
-87.699554
 42
-0.297164
  0
VERTEX
  8
0
 10
-63.684418
 20
-89.881393
  0
VERTEX
  8
0
 10
-64.191582
 20
-89.714447
 42
-0.205306
  0
VERTEX
  8
0
 10
-68.791161
 20
-85.654167
  0
VERTEX
  8
0
 10
-69.670197
 20
-83.799339
  0
VERTEX
  8
0
 10
-72.567482
 20
-78.157211
 42
-0.022027
  0
VERTEX
  8
0
 10
-72.853577
 20
-77.533897
  0
VERTEX
  8
0
 10
-77.362785
 20
-66.446808
 42
-0.014305
  0
VERTEX
  8
0
 10
-77.518799
 20
-66.029320
  0
VERTEX
  8
0
 10
-80.761780
 20
-56.531178
  0
VERTEX
  8
0
 10
-83.803207
 20
-46.935997
  0
VERTEX
  8
0
 10
-86.871399
 20
-36.941280
  0
VERTEX
  8
0
 10
-91.111023
 20
-21.984196
  0
VERTEX
  8
0
 10
-94.010315
 20
-11.343338
  0
VERTEX
  8
0
 10
-98.334244
 20
6.219722
  0
VERTEX
  8
0
 10
-100.889389
 20
16.730015
  0
VERTEX
  8
0
 10
-102.138245
 20
22.546001
  0
VERTEX
  8
0
 10
-102.722557
 20
25.916969
 42
-0.046593
  0
VERTEX
  8
0
 10
-102.836105
 20
27.360474
 42
-0.119268
  0
VERTEX
  8
0
 10
-104.736969
 20
30.490856
  0
VERTEX
  8
0
 10
-104.980270
 20
31.254898
  0
VERTEX
  8
0
 10
-107.091202
 20
39.060322
 42
-0.016279
  0
VERTEX
  8
0
 10
-107.207581
 20
39.553925
  0
VERTEX
  8
0
 10
-107.803726
 20
42.510651
  0
VERTEX
  8
0
 10
-108.298988
 20
45.436913
 42
-0.307459
  0
VERTEX
  8
0
 10
-104.660690
 20
53.392723
  0
VERTEX
  8
0
 10
-103.544891
 20
54.069649
 42
-0.017327
  0
VERTEX
  8
0
 10
-103.074219
 20
54.333328
  0
VERTEX
  8
0
 10
-98.819626
 20
56.526756
 42
0.035419
  0
VERTEX
  8
0
 10
-90.300674
 20
62.428627
 42
0.018789
  0
VERTEX
  8
0
 10
-87.995087
 20
64.455185
 42
0.033127
  0
VERTEX
  8
0
 10
-83.293045
 20
69.194267
 42
0.005978
  0
VERTEX
  8
0
 10
-82.065300
 20
70.618553
 42
-0.015266
  0
VERTEX
  8
0
 10
-81.748306
 20
70.972794
  0
VERTEX
  8
0
 10
-80.781967
 20
71.988380
 42
-0.422821
  0
VERTEX
  8
0
 10
-69.611656
 20
72.102554
  0
VERTEX
  8
0
 10
-68.904709
 20
71.389343
 42
0.475091
  0
VERTEX
  8
0
 10
-57.539063
 20
72.497856
  0
VERTEX
  8
0
 10
-57.539078
 20
99.735146
 42
-0.253081
  0
VERTEX
  8
0
 10
-54.810997
 20
104.915344
 42
-0.062296
  0
VERTEX
  8
0
 10
-53.614002
 20
105.501350
  0
VERTEX
  8
0
 10
-47.975105
 20
105.500000
 42
0.234172
  0
VERTEX
  8
0
 10
-46.807335
 20
107.220612
  0
VERTEX
  8
0
 10
-46.805992
 20
126.633865
 42
-0.382723
  0
VERTEX
  8
0
 10
-40.793663
 20
133.153137
  0
VERTEX
  8
0
 10
-32.720375
 20
133.156250
 42
-0.380249
  0
VERTEX
  8
0
 10
-26.443197
 20
126.608459
  0
VERTEX
  8
0
 10
-26.461508
 20
107.829712
 42
0.217451
  0
VERTEX
  8
0
 10
-25.197691
 20
105.471825
 42
0.033293
  0
VERTEX
  8
0
 10
-24.796347
 20
105.406921
  0
VERTEX
  8
0
 10
-18.268135
 20
105.402473
 42
0.178898
  0
VERTEX
  8
0
 10
-16.809402
 20
106.643356
 42
0.025584
  0
VERTEX
  8
0
 10
-16.705160
 20
106.922150
  0
VERTEX
  8
0
 10
-16.684406
 20
126.692886
 42
-0.393256
  0
VERTEX
  8
0
 10
-10.734090
 20
133.136108
  0
VERTEX
  8
0
 10
-2.407737
 20
133.135727
 42
-0.391822
  0
VERTEX
  8
0
 10
3.592082
 20
126.673096
  0
VERTEX
  8
0
 10
3.649704
 20
107.449272
 42
0.191653
  0
VERTEX
  8
0
 10
4.830371
 20
105.735214
 42
0.031422
  0
VERTEX
  8
0
 10
5.420085
 20
105.446442
  0
VERTEX
  8
0
 10
11.830399
 20
105.459023
 42
0.200441
  0
VERTEX
  8
0
 10
13.544597
 20
106.984528
  0
VERTEX
  8
0
 10
13.435221
 20
126.660378
 42
-0.395308
  0
VERTEX
  8
0
 10
19.345133
 20
133.152679
  0
VERTEX
  8
0
 10
27.708097
 20
133.152725
 42
-0.377487
  0
VERTEX
  8
0
 10
33.877846
 20
126.642639
  0
VERTEX
  8
0
 10
33.879677
 20
107.051208
 42
0.316792
  0
VERTEX
  8
0
 10
34.978554
 20
105.500732
  0
VERTEX
  8
0
 10
39.391518
 20
105.501587
  0
VERTEX
  8
0
 10
40.495659
 20
105.501678
  0
SEQEND
  8
0
  0
ENDSEC
  0
EOF
