999
dxfrw 0.6.3
  0
SECTION
  2
HEADER
  9
$ACADVER
  1
AC1027
  9
$DWGCODEPAGE
  3
ANSI_1252
  9
$INSBASE
 10
0
 20
0
 30
0
  9
$EXTMIN
 10
1e+20
 20
1e+20
 30
1e+20
  9
$EXTMAX
 10
-1e+20
 20
-1e+20
 30
-1e+20
  9
$LIMMIN
 10
0
 20
0
  9
$LIMMAX
 10
420
 20
297
  9
$ORTHOMODE
 70
    0
  9
$REGENMODE
 70
    1
  9
$FILLMODE
 70
    1
  9
$QTEXTMODE
 70
    0
  9
$MIRRTEXT
 70
    0
  9
$LTSCALE
 40
1
  9
$ATTMODE
 70
    0
  9
$TEXTSIZE
 40
2.5
  9
$TRACEWID
 40
15.68
  9
$TEXTSTYLE
  7
STANDARD
  9
$CLAYER
  8
0
  9
$CELTYPE
  6
BYLAYER
  9
$CECOLOR
 62
  256
  9
$CELTSCALE
 40
1
  9
$DISPSILH
 70
    0
  9
$DIMSCALE
 40
2.5
  9
$DIMASZ
 40
2.5
  9
$DIMEXO
 40
0.625
  9
$DIMDLI
 40
3.75
  9
$DIMRND
 40
0
  9
$DIMDLE
 40
0
  9
$DIMEXE
 40
1.25
  9
$DIMTP
 40
0
  9
$DIMTM
 40
0
  9
$DIMTXT
 40
2.5
  9
$DIMCEN
 40
2.5
  9
$DIMTSZ
 40
0
  9
$DIMTOL
 70
    0
  9
$DIMLIM
 70
    0
  9
$DIMTIH
 70
    0
  9
$DIMTOH
 70
    0
  9
$DIMSE1
 70
    0
  9
$DIMSE2
 70
    0
  9
$DIMTAD
 70
    1
  9
$DIMZIN
 70
    8
  9
$DIMBLK
  1

  9
$DIMASO
 70
    1
  9
$DIMSHO
 70
    1
  9
$DIMPOST
  1

  9
$DIMAPOST
  1

  9
$DIMALT
 70
    0
  9
$DIMALTD
 70
    3
  9
$DIMALTF
 40
0.03937
  9
$DIMLFAC
 40
1
  9
$DIMTOFL
 70
    1
  9
$DIMTVP
 40
0
  9
$DIMTIX
 70
    0
  9
$DIMSOXD
 70
    0
  9
$DIMSAH
 70
    0
  9
$DIMBLK1
  1

  9
$DIMBLK2
  1

  9
$DIMSTYLE
  2
STANDARD
  9
$DIMCLRD
 70
    0
  9
$DIMCLRE
 70
    0
  9
$DIMCLRT
 70
    0
  9
$DIMTFAC
 40
1
  9
$DIMGAP
 40
0.625
  9
$DIMJUST
 70
    0
  9
$DIMSD1
 70
    0
  9
$DIMSD2
 70
    0
  9
$DIMTOLJ
 70
    0
  9
$DIMTZIN
 70
    8
  9
$DIMALTZ
 70
    0
  9
$DIMALTTZ
 70
    0
  9
$DIMUPT
 70
    0
  9
$DIMDEC
 70
    2
  9
$DIMTDEC
 70
    2
  9
$DIMALTU
 70
    2
  9
$DIMALTTD
 70
    3
  9
$DIMTXSTY
  7
STANDARD
  9
$DIMAUNIT
 70
    0
  9
$DIMADEC
 70
    0
  9
$DIMALTRND
 40
0
  9
$DIMAZIN
 70
    0
  9
$DIMDSEP
 70
   44
  9
$DIMATFIT
 70
    3
  9
$DIMFRAC
 70
    0
  9
$DIMLDRBLK
  1
STANDARD
  9
$DIMLUNIT
 70
    2
  9
$DIMLWD
 70
   -2
  9
$DIMLWE
 70
   -2
  9
$DIMTMOVE
 70
    0
  9
$DIMFXL
 40
1
  9
$DIMFXLON
 70
    0
  9
$DIMJOGANG
 40
0.7854
  9
$DIMTFILL
 70
    0
  9
$DIMTFILLCLR
 70
    0
  9
$DIMARCSYM
 70
    0
  9
$DIMLTYPE
  6

  9
$DIMLTEX1
  6

  9
$DIMLTEX2
  6

  9
$DIMTXTDIRECTION
 70
    0
  9
$LUNITS
 70
    2
  9
$LUPREC
 70
    4
  9
$SKETCHINC
 40
1
  9
$FILLETRAD
 40
0
  9
$AUNITS
 70
    0
  9
$AUPREC
 70
    2
  9
$MENU
  1
.
  9
$ELEVATION
 40
0
  9
$PELEVATION
 40
0
  9
$THICKNESS
 40
0
  9
$LIMCHECK
 70
    0
  9
$CHAMFERA
 40
0
  9
$CHAMFERB
 40
0
  9
$CHAMFERC
 40
0
  9
$CHAMFERD
 40
0
  9
$SKPOLY
 70
    0
  9
$USRTIMER
 70
    1
  9
$ANGBASE
 50
0
  9
$ANGDIR
 70
    0
  9
$PDMODE
 70
   34
  9
$PDSIZE
 40
0
  9
$PLINEWID
 40
0
  9
$SPLFRAME
 70
    0
  9
$SPLINETYPE
 70
    2
  9
$SPLINESEGS
 70
    8
  9
$HANDSEED
  5
20000
  9
$SURFTAB1
 70
    6
  9
$SURFTAB2
 70
    6
  9
$SURFTYPE
 70
    6
  9
$SURFU
 70
    6
  9
$SURFV
 70
    6
  9
$UCSBASE
  2

  9
$UCSNAME
  2

  9
$UCSORG
 10
0
 20
0
 30
0
  9
$UCSXDIR
 10
1
 20
0
 30
0
  9
$UCSYDIR
 10
0
 20
1
 30
0
  9
$UCSORTHOREF
  2

  9
$UCSORTHOVIEW
 70
    0
  9
$UCSORGTOP
 10
0
 20
0
 30
0
  9
$UCSORGBOTTOM
 10
0
 20
0
 30
0
  9
$UCSORGLEFT
 10
0
 20
0
 30
0
  9
$UCSORGRIGHT
 10
0
 20
0
 30
0
  9
$UCSORGFRONT
 10
0
 20
0
 30
0
  9
$UCSORGBACK
 10
0
 20
0
 30
0
  9
$PUCSBASE
  2

  9
$PUCSNAME
  2

  9
$PUCSORG
 10
0
 20
0
 30
0
  9
$PUCSXDIR
 10
1
 20
0
 30
0
  9
$PUCSYDIR
 10
0
 20
1
 30
0
  9
$PUCSORTHOREF
  2

  9
$PUCSORTHOVIEW
 70
    0
  9
$PUCSORGTOP
 10
0
 20
0
 30
0
  9
$PUCSORGBOTTOM
 10
0
 20
0
 30
0
  9
$PUCSORGLEFT
 10
0
 20
0
 30
0
  9
$PUCSORGRIGHT
 10
0
 20
0
 30
0
  9
$PUCSORGFRONT
 10
0
 20
0
 30
0
  9
$PUCSORGBACK
 10
0
 20
0
 30
0
  9
$USERI1
 70
    0
  9
$USERI2
 70
    0
  9
$USERI3
 70
    0
  9
$USERI4
 70
    0
  9
$USERI5
 70
    0
  9
$USERR1
 40
0
  9
$USERR2
 40
0
  9
$USERR3
 40
0
  9
$USERR4
 40
0
  9
$USERR5
 40
0
  9
$WORLDVIEW
 70
    1
  9
$SHADEDGE
 70
    3
  9
$SHADEDIF
 70
   70
  9
$TILEMODE
 70
    1
  9
$MAXACTVP
 70
   64
  9
$PINSBASE
 10
0
 20
0
 30
0
  9
$PLIMCHECK
 70
    0
  9
$PEXTMIN
 10
0
 20
0
 30
0
  9
$PEXTMAX
 10
0
 20
0
 30
0
  9
$PLIMMIN
 10
0
 20
0
  9
$PLIMMAX
 10
297
 20
210
  9
$UNITMODE
 70
    0
  9
$VISRETAIN
 70
    1
  9
$PLINEGEN
 70
    0
  9
$PSLTSCALE
 70
    1
  9
$TREEDEPTH
 70
 3020
  9
$CMLSTYLE
  2
Standard
  9
$CMLJUST
 70
    0
  9
$CMLSCALE
 40
20
  9
$PROXYGRAPHICS
 70
    1
  9
$MEASUREMENT
 70
    1
  9
$CELWEIGHT
370
   -1
  9
$ENDCAPS
280
    0
  9
$JOINSTYLE
280
    0
  9
$LWDISPLAY
290
    0
  9
$INSUNITS
 70
    0
  9
$HYPERLINKBASE
  1

  9
$STYLESHEET
  1

  9
$XEDIT
290
    1
  9
$CEPSNTYPE
380
    0
  9
$PSTYLEMODE
290
    1
  9
$EXTNAMES
290
    1
  9
$PSVPSCALE
 40
0
  9
$OLESTARTUP
290
    0
  9
$SORTENTS
280
  127
  9
$INDEXCTL
280
    0
  9
$HIDETEXT
280
    1
  9
$XCLIPFRAME
280
    0
  9
$HALOGAP
280
    0
  9
$OBSCOLOR
 70
  257
  9
$OBSLTYPE
280
    0
  9
$INTERSECTIONDISPLAY
280
    0
  9
$INTERSECTIONCOLOR
 70
  257
  9
$DIMASSOC
280
    1
  9
$PROJECTNAME
  1

  9
$CAMERADISPLAY
290
    0
  9
$LENSLENGTH
 40
50
  9
$CAMERAHEIGHT
 40
0
  9
$STEPSPERSEC
 40
2
  9
$STEPSIZE
 40
50
  9
$3DDWFPREC
 40
2
  9
$PSOLWIDTH
 40
5
  9
$PSOLHEIGHT
 40
80
  9
$LOFTANG1
 40
1.570796326794897
  9
$LOFTANG2
 40
1.570796326794897
  9
$LOFTMAG1
 40
0
  9
$LOFTMAG2
 40
0
  9
$LOFTPARAM
 70
    7
  9
$LOFTNORMALS
280
    1
  9
$LATITUDE
 40
1
  9
$LONGITUDE
 40
1
  9
$NORTHDIRECTION
 40
0
  9
$TIMEZONE
 70
-8000
  9
$LIGHTGLYPHDISPLAY
280
    1
  9
$TILEMODELIGHTSYNCH
280
    1
  9
$SOLIDHIST
280
    1
  9
$SHOWHIST
280
    1
  9
$DWFFRAME
280
    2
  9
$DGNFRAME
280
    0
  9
$REALWORLDSCALE
290
    1
  9
$INTERFERECOLOR
 62
    1
  9
$CSHADOW
280
    0
  9
$SHADOWPLANELOCATION
 40
0
  0
ENDSEC
  0
SECTION
  2
CLASSES
  0
ENDSEC
  0
SECTION
  2
TABLES
  0
TABLE
  2
VPORT
  5
8
330
0
100
AcDbSymbolTable
 70
    1
  0
VPORT
  5
31
330
2
100
AcDbSymbolTableRecord
100
AcDbViewportTableRecord
  2
*ACTIVE
 70
    0
 10
0
 20
0
 11
1
 21
1
 12
0.651828
 22
-0.16
 13
0
 23
0
 14
10
 24
10
 15
10
 25
10
 16
0
 26
0
 36
1
 17
0
 27
0
 37
0
 40
5.13732
 41
2.4426877
 42
50
 43
0
 44
0
 50
0
 51
0
 71
    0
 72
  100
 73
    1
 74
    3
 75
    0
 76
    0
 77
    0
 78
    0
281
    0
 65
    1
110
0
120
0
130
0
111
1
121
0
131
0
112
0
122
1
132
0
 79
    0
146
0
348
10020
 60
    7
 61
    5
292
1
282
    1
141
0
142
0
 63
  250
421
3358443
  0
ENDTAB
  0
TABLE
  2
LTYPE
  5
5
330
0
100
AcDbSymbolTable
 70
    4
  0
LTYPE
  5
14
330
5
100
AcDbSymbolTableRecord
100
AcDbLinetypeTableRecord
  2
ByBlock
 70
    0
  3

 72
   65
 73
    0
 40
0
  0
LTYPE
  5
15
330
5
100
AcDbSymbolTableRecord
100
AcDbLinetypeTableRecord
  2
ByLayer
 70
    0
  3

 72
   65
 73
    0
 40
0
  0
LTYPE
  5
16
330
5
100
AcDbSymbolTableRecord
100
AcDbLinetypeTableRecord
  2
Continuous
 70
    0
  3
Solid line
 72
   65
 73
    0
 40
0
  0
ENDTAB
  0
TABLE
  2
LAYER
  5
2
330
0
100
AcDbSymbolTable
 70
    1
  0
LAYER
  5
10
330
2
100
AcDbSymbolTableRecord
100
AcDbLayerTableRecord
  2
0
 70
    0
 62
    7
  6
CONTINUOUS
370
   -3
390
F
  0
ENDTAB
  0
TABLE
  2
STYLE
  5
3
330
0
100
AcDbSymbolTable
 70
    3
  0
STYLE
  5
32
330
2
100
AcDbSymbolTableRecord
100
AcDbTextStyleTableRecord
  2
Standard
 70
    0
 40
0
 41
1
 50
0
 71
    0
 42
1
  3
txt
  4

  0
ENDTAB
  0
TABLE
  2
VIEW
  5
6
330
0
100
AcDbSymbolTable
 70
    0
  0
ENDTAB
  0
TABLE
  2
UCS
  5
7
330
0
100
AcDbSymbolTable
 70
    0
  0
ENDTAB
  0
TABLE
  2
APPID
  5
9
330
0
100
AcDbSymbolTable
 70
    1
  0
APPID
  5
12
330
9
100
AcDbSymbolTableRecord
100
AcDbRegAppTableRecord
  2
ACAD
 70
    0
  0
ENDTAB
  0
TABLE
  2
DIMSTYLE
  5
A
330
0
100
AcDbSymbolTable
 70
    1
100
AcDbDimStyleTable
 71
    1
  0
DIMSTYLE
105
33
330
A
100
AcDbSymbolTableRecord
100
AcDbDimStyleTableRecord
  2
Standard
 70
    0
 40
1
 41
0.18
 42
0.0625
 43
0.38
 44
0.18
 45
0
 46
0
 47
0
 48
0
 49
1
140
0.18
141
0.09
142
0
143
25.4
144
1
145
0
146
1
147
0.09
148
0
 71
    0
 72
    0
 73
    0
 74
    1
 75
    0
 76
    0
 77
    0
 78
    0
 79
    0
170
    0
171
    2
172
    0
173
    0
174
    0
175
    0
176
    0
177
    0
178
    0
179
    0
271
    4
272
    4
273
    2
274
    2
275
    0
276
    0
277
    2
278
   46
279
    0
280
    0
281
    0
282
    0
283
    1
284
    0
285
    0
286
    0
288
    0
289
    3
340
32
  0
ENDTAB
  0
TABLE
  2
BLOCK_RECORD
  5
1
330
0
100
AcDbSymbolTable
 70
    2
  0
BLOCK_RECORD
  5
1F
330
1
100
AcDbSymbolTableRecord
100
AcDbBlockTableRecord
  2
*Model_Space
 70
    0
280
    1
281
    0
  0
BLOCK_RECORD
  5
1E
330
1
100
AcDbSymbolTableRecord
100
AcDbBlockTableRecord
  2
*Paper_Space
 70
    0
280
    1
281
    0
  0
ENDTAB
  0
ENDSEC
  0
SECTION
  2
BLOCKS
  0
BLOCK
  5
20
330
1F
100
AcDbEntity
  8
0
100
AcDbBlockBegin
  2
*Model_Space
 70
    0
 10
0
 20
0
 30
0
  3
*Model_Space
  1

  0
ENDBLK
  5
21
330
1F
100
AcDbEntity
  8
0
100
AcDbBlockEnd
  0
BLOCK
  5
1C
330
1B
100
AcDbEntity
  8
0
100
AcDbBlockBegin
  2
*Paper_Space
 70
    0
 10
0
 20
0
 30
0
  3
*Paper_Space
  1

  0
ENDBLK
  5
1D
330
1F
100
AcDbEntity
  8
0
100
AcDbBlockEnd
  0
ENDSEC
  0
SECTION
  2
ENTITIES
  0
LWPOLYLINE
  5
34
100
AcDbEntity
  8
0
  6
BYLAYER
 62
  256
370
   -1
100
AcDbPolyline
 90
  768
 70
    0
 43
0
 10
14399
 20
0
 10
14444
 20
5
 10
14507
 20
12
 10
14571
 20
21
 10
14634
 20
30
 10
14688
 20
39
 10
14750
 20
51
 10
14804
 20
61
 10
14859
 20
73
 10
14914
 20
86
 10
14965
 20
99
 10
15016
 20
113
 10
15084
 20
134
 10
15152
 20
157
 10
15220
 20
182
 10
15289
 20
210
 10
15351
 20
236
 10
15415
 20
265
 10
15697
 20
396
 10
15887
 20
572
 10
16039
 20
710
 10
16354
 20
997
 10
16598
 20
1222
 10
16680
 20
1297
 10
16729
 20
1340
 10
16756
 20
1363
 10
16759
 20
1357
 10
16765
 20
1348
 10
16772
 20
1338
 10
16779
 20
1331
 10
16786
 20
1325
 10
16794
 20
1321
 10
16803
 20
1317
 10
16812
 20
1315
 10
16823
 20
1313
 10
16835
 20
1313
 10
16848
 20
1313
 10
16850
 20
1313
 10
16852
 20
1262
 10
16855
 20
1224
 10
16858
 20
1198
 10
16862
 20
1176
 10
16868
 20
1158
 10
16872
 20
1149
 10
16878
 20
1140
 10
16884
 20
1132
 10
16891
 20
1125
 10
16899
 20
1119
 10
16908
 20
1114
 10
16917
 20
1111
 10
16927
 20
1108
 10
16937
 20
1106
 10
16947
 20
1105
 10
16957
 20
1106
 10
16969
 20
1107
 10
16979
 20
1110
 10
16990
 20
1114
 10
17002
 20
1118
 10
17013
 20
1124
 10
17036
 20
1138
 10
17062
 20
1156
 10
17063
 20
1157
 10
17069
 20
1111
 10
17077
 20
1063
 10
17086
 20
1020
 10
17096
 20
975
 10
17109
 20
930
 10
17122
 20
886
 10
17136
 20
844
 10
17158
 20
787
 10
17179
 20
796
 10
17353
 20
874
 10
17420
 20
904
 10
17478
 20
932
 10
17532
 20
960
 10
17560
 20
976
 10
17588
 20
993
 10
17615
 20
1010
 10
17638
 20
1026
 10
17660
 20
1042
 10
17681
 20
1059
 10
17702
 20
1077
 10
17722
 20
1096
 10
17744
 20
1118
 10
17762
 20
1139
 10
17782
 20
1164
 10
17799
 20
1188
 10
17816
 20
1214
 10
17831
 20
1241
 10
17845
 20
1268
 10
17858
 20
1300
 10
17870
 20
1328
 10
17879
 20
1357
 10
17887
 20
1387
 10
17895
 20
1420
 10
17902
 20
1464
 10
17910
 20
1420
 10
17918
 20
1387
 10
17927
 20
1358
 10
17937
 20
1329
 10
17948
 20
1300
 10
17963
 20
1269
 10
17977
 20
1242
 10
17992
 20
1216
 10
18009
 20
1190
 10
18027
 20
1165
 10
18047
 20
1141
 10
18065
 20
1121
 10
18088
 20
1099
 10
18108
 20
1080
 10
18129
 20
1063
 10
18151
 20
1046
 10
18173
 20
1030
 10
18196
 20
1015
 10
18223
 20
998
 10
18251
 20
981
 10
18280
 20
966
 10
18334
 20
939
 10
18393
 20
911
 10
18460
 20
882
 10
18636
 20
807
 10
18656
 20
798
 10
18677
 20
855
 10
18691
 20
898
 10
18704
 20
942
 10
18715
 20
987
 10
18725
 20
1032
 10
18733
 20
1076
 10
18740
 20
1123
 10
18746
 20
1170
 10
18747
 20
1169
 10
18774
 20
1151
 10
18796
 20
1138
 10
18807
 20
1132
 10
18819
 20
1128
 10
18831
 20
1124
 10
18841
 20
1122
 10
18852
 20
1120
 10
18862
 20
1120
 10
18873
 20
1121
 10
18882
 20
1123
 10
18893
 20
1126
 10
18902
 20
1130
 10
18910
 20
1134
 10
18918
 20
1141
 10
18925
 20
1148
 10
18931
 20
1156
 10
18937
 20
1165
 10
18941
 20
1174
 10
18946
 20
1192
 10
18951
 20
1214
 10
18953
 20
1240
 10
18955
 20
1278
 10
18956
 20
1330
 10
18958
 20
1330
 10
18971
 20
1329
 10
18984
 20
1330
 10
18994
 20
1331
 10
19004
 20
1334
 10
19013
 20
1338
 10
19020
 20
1342
 10
19027
 20
1348
 10
19034
 20
1355
 10
19041
 20
1365
 10
19047
 20
1374
 10
19050
 20
1381
 10
19077
 20
1358
 10
19127
 20
1315
 10
19210
 20
1242
 10
19457
 20
1021
 10
19516
 20
969
 10
19777
 20
739
 10
19844
 20
679
 10
19930
 20
603
 10
20123
 20
430
 10
20407
 20
303
 10
20472
 20
275
 10
20534
 20
250
 10
20604
 20
223
 10
20672
 20
199
 10
20740
 20
177
 10
20809
 20
157
 10
20860
 20
144
 10
20911
 20
132
 10
20966
 20
120
 10
21021
 20
109
 10
21075
 20
99
 10
21138
 20
89
 10
21192
 20
81
 10
21255
 20
72
 10
21318
 20
65
 10
21382
 20
58
 10
21428
 20
54
 10
21374
 20
231
 10
21327
 20
386
 10
21302
 20
469
 10
21178
 20
873
 10
21055
 20
1270
 10
21140
 20
1378
 10
21012
 20
1413
 10
20963
 20
1572
 10
20871
 20
1879
 10
20823
 20
2045
 10
20763
 20
1977
 10
20672
 20
1876
 10
20568
 20
1762
 10
20458
 20
1643
 10
20371
 20
1551
 10
20318
 20
1498
 10
20280
 20
1463
 10
20248
 20
1437
 10
20241
 20
1431
 10
20206
 20
1404
 10
20187
 20
1393
 10
20169
 20
1382
 10
20150
 20
1372
 10
20135
 20
1366
 10
20117
 20
1358
 10
20101
 20
1353
 10
20086
 20
1349
 10
20071
 20
1346
 10
20053
 20
1344
 10
20040
 20
1344
 10
20026
 20
1343
 10
20008
 20
1345
 10
19994
 20
1346
 10
19976
 20
1349
 10
19957
 20
1353
 10
19939
 20
1358
 10
19920
 20
1364
 10
19901
 20
1371
 10
19864
 20
1388
 10
19822
 20
1409
 10
19775
 20
1437
 10
19729
 20
1467
 10
19675
 20
1505
 10
19599
 20
1561
 10
19582
 20
1574
 10
19478
 20
1651
 10
19355
 20
1743
 10
19064
 20
1966
 10
19071
 20
2245
 10
19078
 20
2576
 10
19295
 20
2422
 10
19407
 20
2344
 10
19465
 20
2304
 10
19522
 20
2266
 10
19578
 20
2231
 10
19624
 20
2203
 10
19666
 20
2180
 10
19705
 20
2160
 10
19741
 20
2145
 10
19774
 20
2134
 10
19792
 20
2129
 10
19807
 20
2126
 10
19822
 20
2124
 10
19837
 20
2122
 10
19852
 20
2121
 10
19867
 20
2122
 10
19881
 20
2123
 10
19896
 20
2125
 10
19910
 20
2128
 10
19924
 20
2132
 10
19952
 20
2142
 10
19983
 20
2157
 10
20013
 20
2175
 10
20046
 20
2197
 10
20079
 20
2222
 10
20114
 20
2252
 10
20151
 20
2287
 10
20192
 20
2327
 10
20241
 20
2376
 10
20341
 20
2480
 10
20590
 20
2745
 10
20623
 20
2781
 10
20588
 20
2919
 10
20539
 20
3118
 10
20488
 20
3327
 10
20480
 20
3358
 10
20302
 20
3163
 10
20219
 20
3073
 10
20146
 20
2996
 10
20070
 20
2917
 10
20011
 20
2857
 10
19980
 20
2827
 10
19953
 20
2803
 10
19928
 20
2782
 10
19902
 20
2764
 10
19878
 20
2750
 10
19854
 20
2738
 10
19829
 20
2728
 10
19807
 20
2722
 10
19784
 20
2719
 10
19759
 20
2719
 10
19733
 20
2721
 10
19707
 20
2726
 10
19680
 20
2733
 10
19651
 20
2742
 10
19619
 20
2755
 10
19583
 20
2771
 10
19526
 20
2800
 10
19432
 20
2850
 10
19089
 20
3038
 10
19098
 20
3417
 10
19101
 20
3583
 10
19126
 20
3568
 10
19197
 20
3525
 10
19326
 20
3447
 10
19383
 20
3413
 10
19460
 20
3369
 10
19491
 20
3353
 10
19518
 20
3339
 10
19547
 20
3326
 10
19575
 20
3315
 10
19600
 20
3308
 10
19625
 20
3303
 10
19648
 20
3300
 10
19669
 20
3301
 10
19691
 20
3304
 10
19712
 20
3310
 10
19736
 20
3321
 10
19762
 20
3335
 10
19789
 20
3355
 10
19816
 20
3377
 10
19844
 20
3404
 10
19874
 20
3435
 10
19913
 20
3478
 10
19959
 20
3532
 10
20006
 20
3588
 10
20053
 20
3646
 10
20106
 20
3713
 10
20166
 20
3791
 10
20324
 20
3998
 10
20301
 20
4081
 10
20274
 20
4178
 10
20264
 20
4213
 10
20357
 20
4340
 10
20214
 20
4374
 10
20201
 20
4416
 10
20174
 20
4495
 10
20112
 20
4408
 10
19844
 20
4032
 10
19746
 20
3895
 10
19723
 20
3866
 10
19703
 20
3843
 10
19684
 20
3825
 10
19674
 20
3817
 10
19664
 20
3810
 10
19653
 20
3804
 10
19643
 20
3800
 10
19631
 20
3796
 10
19620
 20
3793
 10
19607
 20
3792
 10
19594
 20
3792
 10
19580
 20
3792
 10
19565
 20
3794
 10
19548
 20
3797
 10
19531
 20
3802
 10
19491
 20
3814
 10
19441
 20
3833
 10
19395
 20
3853
 10
19351
 20
3876
 10
19309
 20
3900
 10
19277
 20
3921
 10
19262
 20
3932
 10
19249
 20
3943
 10
19237
 20
3954
 10
19227
 20
3965
 10
19217
 20
3977
 10
19209
 20
3988
 10
19202
 20
3999
 10
19195
 20
4011
 10
19191
 20
4022
 10
19187
 20
4036
 10
19184
 20
4047
 10
19182
 20
4062
 10
19180
 20
4076
 10
19180
 20
4091
 10
19181
 20
4122
 10
19186
 20
4155
 10
19194
 20
4192
 10
19205
 20
4234
 10
19223
 20
4294
 10
19243
 20
4353
 10
19264
 20
4411
 10
19286
 20
4467
 10
19309
 20
4522
 10
19334
 20
4580
 10
19366
 20
4647
 10
19398
 20
4713
 10
19435
 20
4785
 10
19470
 20
4853
 10
19502
 20
4911
 10
19532
 20
4965
 10
19564
 20
5018
 10
19596
 20
5071
 10
19626
 20
5119
 10
19659
 20
5170
 10
19692
 20
5218
 10
19729
 20
5271
 10
19809
 20
5380
 10
19790
 20
5418
 10
19756
 20
5482
 10
19742
 20
5507
 10
19697
 20
5588
 10
19649
 20
5667
 10
19599
 20
5744
 10
19577
 20
5775
 10
19497
 20
5672
 10
19386
 20
5527
 10
19282
 20
5387
 10
19182
 20
5247
 10
19146
 20
5195
 10
19133
 20
5181
 10
19117
 20
5170
 10
19099
 20
5163
 10
19080
 20
5160
 10
19061
 20
5163
 10
19042
 20
5170
 10
19027
 20
5181
 10
19014
 20
5196
 10
19004
 20
5213
 10
18978
 20
5278
 10
18945
 20
5353
 10
18919
 20
5329
 10
18895
 20
5305
 10
18877
 20
5285
 10
18856
 20
5259
 10
18840
 20
5237
 10
18825
 20
5214
 10
18812
 20
5190
 10
18800
 20
5166
 10
18791
 20
5145
 10
18785
 20
5126
 10
18778
 20
5103
 10
18772
 20
5080
 10
18767
 20
5056
 10
18760
 20
5008
 10
18756
 20
4952
 10
18754
 20
4922
 10
18754
 20
4913
 10
18753
 20
4867
 10
18751
 20
4626
 10
18749
 20
4509
 10
18747
 20
4444
 10
18745
 20
4377
 10
18742
 20
4337
 10
18739
 20
4307
 10
18736
 20
4282
 10
18731
 20
4259
 10
18725
 20
4238
 10
18718
 20
4219
 10
18710
 20
4203
 10
18701
 20
4188
 10
18689
 20
4174
 10
18677
 20
4163
 10
18662
 20
4153
 10
18646
 20
4144
 10
18629
 20
4138
 10
18612
 20
4133
 10
18597
 20
4131
 10
18579
 20
4131
 10
18561
 20
4132
 10
18540
 20
4136
 10
18523
 20
4142
 10
18503
 20
4149
 10
18483
 20
4158
 10
18461
 20
4169
 10
18427
 20
4189
 10
18304
 20
4265
 10
18267
 20
4286
 10
18231
 20
4305
 10
18200
 20
4320
 10
18171
 20
4333
 10
18140
 20
4345
 10
18111
 20
4355
 10
18073
 20
4367
 10
18036
 20
4376
 10
17999
 20
4383
 10
17960
 20
4388
 10
17923
 20
4390
 10
17880
 20
4391
 10
17836
 20
4390
 10
17799
 20
4387
 10
17761
 20
4381
 10
17724
 20
4373
 10
17704
 20
4368
 10
17687
 20
4364
 10
17649
 20
4352
 10
17620
 20
4341
 10
17589
 20
4329
 10
17561
 20
4315
 10
17530
 20
4300
 10
17494
 20
4280
 10
17458
 20
4258
 10
17336
 20
4181
 10
17302
 20
4161
 10
17280
 20
4149
 10
17261
 20
4140
 10
17241
 20
4132
 10
17223
 20
4126
 10
17203
 20
4122
 10
17185
 20
4120
 10
17167
 20
4120
 10
17151
 20
4122
 10
17134
 20
4126
 10
17117
 20
4133
 10
17101
 20
4141
 10
17086
 20
4151
 10
17074
 20
4162
 10
17062
 20
4175
 10
17052
 20
4190
 10
17044
 20
4206
 10
17036
 20
4225
 10
17030
 20
4246
 10
17025
 20
4269
 10
17021
 20
4294
 10
17018
 20
4323
 10
17015
 20
4363
 10
17011
 20
4431
 10
17008
 20
4496
 10
17005
 20
4612
 10
17000
 20
4854
 10
16998
 20
4900
 10
16995
 20
4939
 10
16990
 20
4995
 10
16982
 20
5043
 10
16977
 20
5066
 10
16971
 20
5089
 10
16964
 20
5112
 10
16957
 20
5130
 10
16948
 20
5152
 10
16936
 20
5176
 10
16922
 20
5199
 10
16907
 20
5222
 10
16891
 20
5244
 10
16869
 20
5269
 10
16850
 20
5290
 10
16826
 20
5313
 10
16800
 20
5337
 10
16768
 20
5261
 10
16743
 20
5196
 10
16733
 20
5178
 10
16721
 20
5164
 10
16705
 20
5152
 10
16687
 20
5145
 10
16668
 20
5142
 10
16649
 20
5144
 10
16630
 20
5151
 10
16614
 20
5161
 10
16601
 20
5176
 10
16564
 20
5227
 10
16462
 20
5366
 10
16356
 20
5504
 10
16243
 20
5648
 10
16161
 20
5749
 10
16140
 20
5718
 10
16091
 20
5640
 10
16045
 20
5560
 10
16000
 20
5479
 10
15954
 20
5389
 10
15936
 20
5351
 10
16017
 20
5243
 10
16055
 20
5190
 10
16088
 20
5143
 10
16123
 20
5092
 10
16154
 20
5045
 10
16186
 20
4992
 10
16218
 20
4940
 10
16250
 20
4886
 10
16282
 20
4829
 10
16319
 20
4762
 10
16357
 20
4690
 10
16390
 20
4624
 10
16422
 20
4558
 10
16449
 20
4500
 10
16473
 20
4446
 10
16495
 20
4390
 10
16517
 20
4332
 10
16538
 20
4273
 10
16557
 20
4214
 10
16569
 20
4172
 10
16577
 20
4135
 10
16582
 20
4102
 10
16584
 20
4071
 10
16584
 20
4056
 10
16583
 20
4042
 10
16581
 20
4028
 10
16578
 20
4016
 10
16574
 20
4002
 10
16570
 20
3991
 10
16564
 20
3979
 10
16557
 20
3967
 10
16549
 20
3956
 10
16539
 20
3944
 10
16529
 20
3934
 10
16517
 20
3922
 10
16505
 20
3911
 10
16490
 20
3900
 10
16458
 20
3878
 10
16417
 20
3853
 10
16373
 20
3830
 10
16327
 20
3809
 10
16277
 20
3790
 10
16238
 20
3777
 10
16221
 20
3772
 10
16204
 20
3769
 10
16188
 20
3766
 10
16175
 20
3765
 10
16162
 20
3766
 10
16149
 20
3767
 10
16137
 20
3769
 10
16126
 20
3773
 10
16115
 20
3777
 10
16105
 20
3783
 10
16094
 20
3790
 10
16084
 20
3798
 10
16065
 20
3815
 10
16045
 20
3838
 10
16021
 20
3867
 10
15921
 20
4002
 10
15647
 20
4374
 10
15584
 20
4460
 10
15558
 20
4380
 10
15546
 20
4338
 10
15403
 20
4302
 10
15499
 20
4177
 10
15489
 20
4142
 10
15463
 20
4044
 10
15442
 20
3960
 10
15602
 20
3756
 10
15664
 20
3679
 10
15718
 20
3613
 10
15766
 20
3556
 10
15814
 20
3500
 10
15861
 20
3447
 10
15900
 20
3405
 10
15930
 20
3374
 10
15959
 20
3347
 10
15986
 20
3325
 10
16014
 20
3306
 10
16040
 20
3292
 10
16064
 20
3283
 10
16086
 20
3277
 10
16108
 20
3274
 10
16128
 20
3273
 10
16151
 20
3276
 10
16176
 20
3282
 10
16201
 20
3290
 10
16229
 20
3300
 10
16258
 20
3314
 10
16285
 20
3328
 10
16315
 20
3345
 10
16391
 20
3390
 10
16448
 20
3425
 10
16575
 20
3505
 10
16646
 20
3549
 10
16671
 20
3564
 10
16677
 20
3398
 10
16691
 20
3019
 10
16351
 20
2826
 10
16258
 20
2775
 10
16201
 20
2745
 10
16166
 20
2729
 10
16134
 20
2715
 10
16105
 20
2705
 10
16078
 20
2698
 10
16052
 20
2693
 10
16026
 20
2690
 10
16001
 20
2690
 10
15978
 20
2693
 10
15956
 20
2699
 10
15931
 20
2708
 10
15907
 20
2719
 10
15883
 20
2733
 10
15857
 20
2751
 10
15831
 20
2771
 10
15804
 20
2795
 10
15772
 20
2825
 10
15712
 20
2884
 10
15635
 20
2962
 10
15561
 20
3038
 10
15477
 20
3126
 10
15295
 20
3319
 10
15288
 20
3288
 10
15241
 20
3077
 10
15194
 20
2877
 10
15161
 20
2739
 10
15195
 20
2704
 10
15448
 20
2443
 10
15550
 20
2340
 10
15600
 20
2292
 10
15641
 20
2252
 10
15679
 20
2218
 10
15714
 20
2189
 10
15747
 20
2164
 10
15780
 20
2142
 10
15811
 20
2125
 10
15842
 20
2111
 10
15870
 20
2101
 10
15885
 20
2098
 10
15899
 20
2095
 10
15913
 20
2093
 10
15928
 20
2092
 10
15942
 20
2092
 10
15957
 20
2092
 10
15972
 20
2094
 10
15987
 20
2097
 10
16002
 20
2100
 10
16020
 20
2105
 10
16053
 20
2117
 10
16089
 20
2133
 10
16128
 20
2152
 10
16169
 20
2176
 10
16214
 20
2205
 10
16270
 20
2241
 10
16326
 20
2280
 10
16384
 20
2321
 10
16495
 20
2401
 10
16709
 20
2557
 10
16722
 20
2227
 10
16733
 20
1948
 10
16445
 20
1721
 10
16323
 20
1626
 10
16204
 20
1535
 10
16129
 20
1478
 10
16075
 20
1439
 10
16029
 20
1408
 10
15983
 20
1380
 10
15942
 20
1358
 10
15905
 20
1341
 10
15886
 20
1334
 10
15868
 20
1327
 10
15849
 20
1322
 10
15831
 20
1317
 10
15812
 20
1314
 10
15798
 20
1312
 10
15780
 20
1311
 10
15767
 20
1311
 10
15753
 20
1311
 10
15736
 20
1313
 10
15720
 20
1316
 10
15705
 20
1320
 10
15689
 20
1324
 10
15670
 20
1331
 10
15655
 20
1338
 10
15637
 20
1347
 10
15618
 20
1358
 10
15600
 20
1369
 10
15564
 20
1395
 10
15524
 20
1427
 10
15486
 20
1461
 10
15432
 20
1514
 10
15344
 20
1604
 10
15232
 20
1721
 10
15126
 20
1834
 10
15033
 20
1934
 10
14972
 20
2000
 10
14927
 20
1834
 10
14840
 20
1525
 10
14794
 20
1365
 10
14666
 20
1328
 10
14752
 20
1222
 10
14636
 20
823
 10
14518
 20
417
 10
14494
 20
334
 10
14449
 20
178
 10
14399
 20
0
  0
LWPOLYLINE
  5
35
100
AcDbEntity
  8
0
  6
BYLAYER
 62
  256
370
   -1
100
AcDbPolyline
 90
  785
 70
    0
 43
0
 10
8174
 20
0
 10
8342
 20
47
 10
8509
 20
94
 10
8599
 20
120
 10
9033
 20
246
 10
9462
 20
370
 10
9575
 20
279
 10
9615
 20
413
 10
9787
 20
462
 10
10118
 20
555
 10
10299
 20
604
 10
10216
 20
679
 10
10108
 20
778
 10
9989
 20
889
 10
9870
 20
1002
 10
9781
 20
1088
 10
9725
 20
1145
 10
9688
 20
1185
 10
9655
 20
1226
 10
9640
 20
1245
 10
9627
 20
1264
 10
9615
 20
1284
 10
9604
 20
1303
 10
9594
 20
1323
 10
9587
 20
1339
 10
9580
 20
1359
 10
9575
 20
1375
 10
9571
 20
1391
 10
9568
 20
1407
 10
9566
 20
1426
 10
9566
 20
1440
 10
9566
 20
1454
 10
9568
 20
1474
 10
9570
 20
1488
 10
9573
 20
1507
 10
9578
 20
1527
 10
9584
 20
1546
 10
9591
 20
1566
 10
9599
 20
1586
 10
9617
 20
1625
 10
9641
 20
1669
 10
9672
 20
1717
 10
9705
 20
1765
 10
9747
 20
1822
 10
9774
 20
1856
 10
9808
 20
1901
 10
9911
 20
2031
 10
10020
 20
2168
 10
10255
 20
2459
 10
10552
 20
2448
 10
10906
 20
2436
 10
10749
 20
2226
 10
10650
 20
2093
 10
10604
 20
2029
 10
10563
 20
1969
 10
10523
 20
1911
 10
10492
 20
1862
 10
10467
 20
1819
 10
10445
 20
1779
 10
10428
 20
1741
 10
10416
 20
1706
 10
10411
 20
1687
 10
10407
 20
1671
 10
10405
 20
1655
 10
10403
 20
1639
 10
10402
 20
1624
 10
10402
 20
1611
 10
10403
 20
1596
 10
10405
 20
1581
 10
10408
 20
1566
 10
10412
 20
1551
 10
10422
 20
1522
 10
10428
 20
1507
 10
10437
 20
1489
 10
10455
 20
1456
 10
10479
 20
1421
 10
10505
 20
1387
 10
10536
 20
1350
 10
10572
 20
1310
 10
10614
 20
1266
 10
10665
 20
1214
 10
10774
 20
1107
 10
11051
 20
842
 10
11090
 20
805
 10
11237
 20
840
 10
11451
 20
889
 10
11677
 20
940
 10
11711
 20
947
 10
11500
 20
1144
 10
11408
 20
1230
 10
11328
 20
1308
 10
11245
 20
1389
 10
11185
 20
1449
 10
11153
 20
1482
 10
11128
 20
1511
 10
11107
 20
1538
 10
11088
 20
1565
 10
11073
 20
1591
 10
11061
 20
1616
 10
11051
 20
1642
 10
11046
 20
1666
 10
11043
 20
1690
 10
11043
 20
1717
 10
11046
 20
1744
 10
11051
 20
1772
 10
11059
 20
1799
 10
11071
 20
1830
 10
11085
 20
1864
 10
11103
 20
1901
 10
11134
 20
1958
 10
11191
 20
2059
 10
11400
 20
2418
 10
11805
 20
2404
 10
11982
 20
2397
 10
11966
 20
2372
 10
11918
 20
2297
 10
11831
 20
2163
 10
11792
 20
2100
 10
11745
 20
2023
 10
11727
 20
1991
 10
11712
 20
1962
 10
11697
 20
1931
 10
11685
 20
1903
 10
11676
 20
1876
 10
11670
 20
1849
 10
11667
 20
1825
 10
11667
 20
1804
 10
11669
 20
1792
 10
11671
 20
1781
 10
11677
 20
1758
 10
11681
 20
1746
 10
11687
 20
1733
 10
11694
 20
1719
 10
11702
 20
1705
 10
11711
 20
1692
 10
11722
 20
1676
 10
11745
 20
1648
 10
11774
 20
1617
 10
11806
 20
1586
 10
11851
 20
1545
 10
11908
 20
1495
 10
11967
 20
1445
 10
12028
 20
1394
 10
12095
 20
1340
 10
12180
 20
1273
 10
12398
 20
1104
 10
12488
 20
1126
 10
12593
 20
1154
 10
12630
 20
1164
 10
12764
 20
1064
 10
12804
 20
1214
 10
12849
 20
1227
 10
12933
 20
1254
 10
12841
 20
1321
 10
12449
 20
1606
 10
12301
 20
1714
 10
12270
 20
1739
 10
12246
 20
1760
 10
12228
 20
1781
 10
12219
 20
1791
 10
12212
 20
1802
 10
12205
 20
1815
 10
12201
 20
1826
 10
12197
 20
1838
 10
12195
 20
1850
 10
12194
 20
1863
 10
12194
 20
1877
 10
12195
 20
1892
 10
12198
 20
1908
 10
12202
 20
1926
 10
12207
 20
1944
 10
12222
 20
1987
 10
12243
 20
2039
 10
12266
 20
2088
 10
12291
 20
2134
 10
12317
 20
2176
 10
12341
 20
2209
 10
12354
 20
2225
 10
12365
 20
2238
 10
12378
 20
2251
 10
12389
 20
2261
 10
12402
 20
2272
 10
12414
 20
2280
 10
12427
 20
2287
 10
12441
 20
2293
 10
12452
 20
2298
 10
12467
 20
2302
 10
12480
 20
2305
 10
12495
 20
2307
 10
12511
 20
2308
 10
12526
 20
2308
 10
12559
 20
2305
 10
12595
 20
2300
 10
12634
 20
2291
 10
12682
 20
2277
 10
12744
 20
2258
 10
12807
 20
2236
 10
12868
 20
2213
 10
12928
 20
2189
 10
12991
 20
2162
 10
13052
 20
2134
 10
13118
 20
2102
 10
13194
 20
2065
 10
13265
 20
2028
 10
13336
 20
1989
 10
13393
 20
1957
 10
13454
 20
1922
 10
13511
 20
1888
 10
13562
 20
1856
 10
13612
 20
1824
 10
13666
 20
1788
 10
13716
 20
1753
 10
13773
 20
1713
 10
13821
 20
1678
 10
13889
 20
1627
 10
13931
 20
1647
 10
14001
 20
1682
 10
14028
 20
1696
 10
14115
 20
1743
 10
14201
 20
1792
 10
14247
 20
1820
 10
14300
 20
1854
 10
14196
 20
1937
 10
14043
 20
2056
 10
13896
 20
2167
 10
13748
 20
2275
 10
13661
 20
2336
 10
13646
 20
2349
 10
13635
 20
2366
 10
13629
 20
2384
 10
13627
 20
2403
 10
13629
 20
2423
 10
13637
 20
2441
 10
13648
 20
2457
 10
13663
 20
2469
 10
13681
 20
2478
 10
13715
 20
2490
 10
13793
 20
2520
 10
13869
 20
2552
 10
13831
 20
2591
 10
13809
 20
2611
 10
13782
 20
2634
 10
13759
 20
2651
 10
13735
 20
2667
 10
13710
 20
2681
 10
13685
 20
2694
 10
13662
 20
2703
 10
13642
 20
2711
 10
13618
 20
2718
 10
13597
 20
2723
 10
13572
 20
2729
 10
13546
 20
2734
 10
13521
 20
2737
 10
13491
 20
2741
 10
13461
 20
2743
 10
13419
 20
2746
 10
13370
 20
2748
 10
13117
 20
2752
 10
12978
 20
2756
 10
12903
 20
2760
 10
12833
 20
2763
 10
12796
 20
2766
 10
12764
 20
2769
 10
12738
 20
2773
 10
12713
 20
2779
 10
12691
 20
2785
 10
12673
 20
2792
 10
12656
 20
2801
 10
12640
 20
2811
 10
12626
 20
2824
 10
12615
 20
2836
 10
12604
 20
2852
 10
12595
 20
2869
 10
12588
 20
2887
 10
12584
 20
2905
 10
12582
 20
2922
 10
12582
 20
2941
 10
12584
 20
2960
 10
12589
 20
2981
 10
12595
 20
3000
 10
12603
 20
3021
 10
12613
 20
3042
 10
12626
 20
3065
 10
12648
 20
3100
 10
12731
 20
3227
 10
12754
 20
3265
 10
12775
 20
3302
 10
12793
 20
3335
 10
12807
 20
3366
 10
12821
 20
3398
 10
12833
 20
3430
 10
12846
 20
3471
 10
12857
 20
3510
 10
12861
 20
3530
 10
12865
 20
3549
 10
12872
 20
3590
 10
12875
 20
3628
 10
12877
 20
3674
 10
12876
 20
3720
 10
12873
 20
3759
 10
12867
 20
3800
 10
12859
 20
3839
 10
12849
 20
3878
 10
12836
 20
3918
 10
12823
 20
3951
 10
12810
 20
3983
 10
12796
 20
4014
 10
12779
 20
4047
 10
12758
 20
4084
 10
12735
 20
4123
 10
12654
 20
4250
 10
12632
 20
4286
 10
12620
 20
4309
 10
12610
 20
4330
 10
12602
 20
4351
 10
12596
 20
4370
 10
12591
 20
4391
 10
12589
 20
4410
 10
12590
 20
4429
 10
12592
 20
4446
 10
12597
 20
4465
 10
12604
 20
4482
 10
12613
 20
4499
 10
12623
 20
4515
 10
12635
 20
4527
 10
12649
 20
4539
 10
12665
 20
4550
 10
12682
 20
4558
 10
12700
 20
4565
 10
12722
 20
4571
 10
12747
 20
4576
 10
12773
 20
4580
 10
12805
 20
4583
 10
12842
 20
4585
 10
12912
 20
4588
 10
12987
 20
4591
 10
13127
 20
4594
 10
13379
 20
4596
 10
13429
 20
4597
 10
13435
 20
4597
 10
13470
 20
4599
 10
13500
 20
4601
 10
13530
 20
4604
 10
13556
 20
4608
 10
13582
 20
4612
 10
13607
 20
4617
 10
13628
 20
4623
 10
13652
 20
4630
 10
13672
 20
4637
 10
13695
 20
4646
 10
13720
 20
4659
 10
13745
 20
4673
 10
13770
 20
4688
 10
13793
 20
4705
 10
13820
 20
4727
 10
13842
 20
4747
 10
13881
 20
4786
 10
13805
 20
4819
 10
13727
 20
4850
 10
13693
 20
4862
 10
13676
 20
4871
 10
13661
 20
4884
 10
13649
 20
4900
 10
13642
 20
4918
 10
13640
 20
4937
 10
13642
 20
4957
 10
13649
 20
4975
 10
13660
 20
4991
 10
13674
 20
5004
 10
13763
 20
5065
 10
13911
 20
5170
 10
14059
 20
5280
 10
14214
 20
5397
 10
14319
 20
5479
 10
14266
 20
5514
 10
14220
 20
5543
 10
14135
 20
5593
 10
14048
 20
5641
 10
14021
 20
5655
 10
13952
 20
5690
 10
13910
 20
5711
 10
13842
 20
5661
 10
13793
 20
5626
 10
13736
 20
5586
 10
13686
 20
5552
 10
13631
 20
5517
 10
13580
 20
5485
 10
13529
 20
5454
 10
13472
 20
5421
 10
13411
 20
5386
 10
13354
 20
5354
 10
13282
 20
5317
 10
13210
 20
5280
 10
13134
 20
5243
 10
13068
 20
5212
 10
13006
 20
5185
 10
12943
 20
5159
 10
12883
 20
5135
 10
12822
 20
5113
 10
12759
 20
5092
 10
12696
 20
5073
 10
12649
 20
5060
 10
12609
 20
5051
 10
12573
 20
5046
 10
12541
 20
5044
 10
12525
 20
5044
 10
12509
 20
5045
 10
12494
 20
5048
 10
12481
 20
5050
 10
12467
 20
5055
 10
12455
 20
5059
 10
12441
 20
5066
 10
12429
 20
5073
 10
12417
 20
5082
 10
12404
 20
5092
 10
12392
 20
5102
 10
12380
 20
5115
 10
12369
 20
5128
 10
12356
 20
5144
 10
12333
 20
5178
 10
12307
 20
5221
 10
12282
 20
5267
 10
12260
 20
5315
 10
12239
 20
5368
 10
12225
 20
5411
 10
12220
 20
5429
 10
12216
 20
5447
 10
12214
 20
5464
 10
12212
 20
5478
 10
12212
 20
5492
 10
12214
 20
5506
 10
12216
 20
5517
 10
12220
 20
5529
 10
12225
 20
5541
 10
12232
 20
5553
 10
12239
 20
5564
 10
12247
 20
5574
 10
12266
 20
5594
 10
12290
 20
5616
 10
12322
 20
5640
 10
12471
 20
5747
 10
12865
 20
6027
 10
12958
 20
6094
 10
12874
 20
6121
 10
12829
 20
6135
 10
12791
 20
6286
 10
12656
 20
6187
 10
12619
 20
6198
 10
12514
 20
6226
 10
12425
 20
6249
 10
12205
 20
6083
 10
12119
 20
6016
 10
12051
 20
5963
 10
11990
 20
5913
 10
11930
 20
5863
 10
11873
 20
5814
 10
11828
 20
5773
 10
11795
 20
5742
 10
11766
 20
5712
 10
11743
 20
5684
 10
11731
 20
5668
 10
11722
 20
5655
 10
11714
 20
5642
 10
11707
 20
5628
 10
11701
 20
5614
 10
11697
 20
5603
 10
11690
 20
5580
 10
11688
 20
5569
 10
11687
 20
5557
 10
11686
 20
5535
 10
11689
 20
5511
 10
11695
 20
5485
 10
11703
 20
5458
 10
11715
 20
5429
 10
11730
 20
5398
 10
11744
 20
5369
 10
11762
 20
5337
 10
11808
 20
5259
 10
11847
 20
5196
 10
11932
 20
5061
 10
11979
 20
4986
 10
11995
 20
4960
 10
11818
 20
4956
 10
11413
 20
4945
 10
11207
 20
5307
 10
11151
 20
5408
 10
11121
 20
5465
 10
11104
 20
5502
 10
11090
 20
5537
 10
11079
 20
5568
 10
11071
 20
5595
 10
11066
 20
5623
 10
11063
 20
5650
 10
11063
 20
5677
 10
11067
 20
5701
 10
11072
 20
5725
 10
11082
 20
5751
 10
11095
 20
5776
 10
11110
 20
5801
 10
11129
 20
5828
 10
11151
 20
5855
 10
11176
 20
5884
 10
11208
 20
5916
 10
11269
 20
5976
 10
11352
 20
6056
 10
11434
 20
6133
 10
11526
 20
6218
 10
11739
 20
6413
 10
11705
 20
6421
 10
11480
 20
6474
 10
11266
 20
6525
 10
11120
 20
6562
 10
11081
 20
6525
 10
10801
 20
6263
 10
10691
 20
6157
 10
10639
 20
6105
 10
10596
 20
6062
 10
10560
 20
6023
 10
10529
 20
5986
 10
10502
 20
5952
 10
10478
 20
5917
 10
10460
 20
5885
 10
10451
 20
5866
 10
10444
 20
5852
 10
10434
 20
5822
 10
10430
 20
5808
 10
10427
 20
5793
 10
10425
 20
5778
 10
10424
 20
5762
 10
10423
 20
5750
 10
10424
 20
5734
 10
10425
 20
5718
 10
10428
 20
5703
 10
10431
 20
5687
 10
10436
 20
5668
 10
10448
 20
5633
 10
10465
 20
5595
 10
10486
 20
5554
 10
10511
 20
5510
 10
10542
 20
5462
 10
10580
 20
5403
 10
10621
 20
5343
 10
10667
 20
5278
 10
10764
 20
5144
 10
10919
 20
4933
 10
10565
 20
4924
 10
10267
 20
4916
 10
10035
 20
5210
 10
9928
 20
5347
 10
9827
 20
5479
 10
9767
 20
5558
 10
9725
 20
5616
 10
9692
 20
5664
 10
9662
 20
5713
 10
9638
 20
5757
 10
9620
 20
5796
 10
9613
 20
5816
 10
9606
 20
5836
 10
9600
 20
5855
 10
9596
 20
5875
 10
9592
 20
5894
 10
9590
 20
5909
 10
9589
 20
5928
 10
9589
 20
5942
 10
9590
 20
5957
 10
9592
 20
5975
 10
9595
 20
5991
 10
9599
 20
6007
 10
9604
 20
6023
 10
9612
 20
6043
 10
9619
 20
6059
 10
9629
 20
6079
 10
9640
 20
6098
 10
9652
 20
6117
 10
9666
 20
6136
 10
9680
 20
6155
 10
9714
 20
6196
 10
9751
 20
6236
 10
9807
 20
6292
 10
9897
 20
6377
 10
10017
 20
6489
 10
10138
 20
6599
 10
10247
 20
6697
 10
10331
 20
6771
 10
10150
 20
6821
 10
9820
 20
6917
 10
9649
 20
6968
 10
9610
 20
7103
 10
9496
 20
7014
 10
9069
 20
7142
 10
8635
 20
7272
 10
8546
 20
7298
 10
8380
 20
7347
 10
8212
 20
7397
 10
8216
 20
7356
 10
8224
 20
7289
 10
8233
 20
7223
 10
8243
 20
7156
 10
8252
 20
7099
 10
8264
 20
7033
 10
8275
 20
6977
 10
8287
 20
6919
 10
8301
 20
6861
 10
8316
 20
6804
 10
8330
 20
6751
 10
8352
 20
6679
 10
8376
 20
6608
 10
8403
 20
6535
 10
8433
 20
6462
 10
8459
 20
6401
 10
8489
 20
6333
 10
8631
 20
6030
 10
8653
 20
5981
 10
8802
 20
5819
 10
8878
 20
5736
 10
8950
 20
5658
 10
9249
 20
5328
 10
9486
 20
5072
 10
9568
 20
4981
 10
9614
 20
4929
 10
9649
 20
4889
 10
9647
 20
4888
 10
9637
 20
4880
 10
9630
 20
4874
 10
9624
 20
4866
 10
9620
 20
4859
 10
9616
 20
4850
 10
9613
 20
4840
 10
9612
 20
4830
 10
9611
 20
4817
 10
9612
 20
4804
 10
9612
 20
4801
 10
9532
 20
4799
 10
9492
 20
4798
 10
9465
 20
4795
 10
9440
 20
4791
 10
9422
 20
4785
 10
9411
 20
4780
 10
9402
 20
4775
 10
9394
 20
4768
 10
9386
 20
4761
 10
9380
 20
4753
 10
9375
 20
4744
 10
9370
 20
4733
 10
9367
 20
4723
 10
9365
 20
4712
 10
9364
 20
4702
 10
9365
 20
4691
 10
9367
 20
4678
 10
9369
 20
4668
 10
9373
 20
4656
 10
9378
 20
4644
 10
9384
 20
4632
 10
9399
 20
4608
 10
9419
 20
4580
 10
9371
 20
4574
 10
9321
 20
4566
 10
9271
 20
4557
 10
9222
 20
4546
 10
9174
 20
4534
 10
9128
 20
4521
 10
9082
 20
4506
 10
9021
 20
4484
 10
9031
 20
4462
 10
9111
 20
4280
 10
9143
 20
4210
 10
9176
 20
4144
 10
9205
 20
4087
 10
9223
 20
4057
 10
9240
 20
4028
 10
9259
 20
3999
 10
9276
 20
3975
 10
9293
 20
3951
 10
9311
 20
3928
 10
9330
 20
3906
 10
9350
 20
3885
 10
9374
 20
3861
 10
9396
 20
3842
 10
9422
 20
3821
 10
9449
 20
3802
 10
9476
 20
3785
 10
9505
 20
3768
 10
9534
 20
3753
 10
9567
 20
3738
 10
9598
 20
3726
 10
9629
 20
3716
 10
9661
 20
3707
 10
9696
 20
3698
 10
9743
 20
3690
 10
9696
 20
3683
 10
9661
 20
3675
 10
9629
 20
3666
 10
9598
 20
3656
 10
9567
 20
3644
 10
9533
 20
3629
 10
9504
 20
3615
 10
9475
 20
3599
 10
9448
 20
3581
 10
9421
 20
3563
 10
9394
 20
3542
 10
9372
 20
3523
 10
9348
 20
3499
 10
9328
 20
3478
 10
9309
 20
3457
 10
9290
 20
3434
 10
9273
 20
3411
 10
9256
 20
3387
 10
9237
 20
3358
 10
9219
 20
3329
 10
9201
 20
3299
 10
9171
 20
3243
 10
9138
 20
3176
 10
9105
 20
3107
 10
9023
 20
2926
 10
9013
 20
2904
 10
9074
 20
2882
 10
9119
 20
2866
 10
9165
 20
2852
 10
9214
 20
2840
 10
9262
 20
2829
 10
9312
 20
2819
 10
9362
 20
2811
 10
9410
 20
2804
 10
9389
 20
2776
 10
9375
 20
2753
 10
9369
 20
2741
 10
9363
 20
2729
 10
9359
 20
2717
 10
9356
 20
2706
 10
9355
 20
2694
 10
9354
 20
2683
 10
9355
 20
2672
 10
9357
 20
2662
 10
9360
 20
2651
 10
9364
 20
2641
 10
9369
 20
2631
 10
9375
 20
2624
 10
9383
 20
2616
 10
9391
 20
2609
 10
9400
 20
2604
 10
9410
 20
2599
 10
9429
 20
2593
 10
9453
 20
2588
 10
9481
 20
2585
 10
9521
 20
2583
 10
9600
 20
2580
 10
9600
 20
2578
 10
9600
 20
2565
 10
9600
 20
2552
 10
9602
 20
2542
 10
9604
 20
2532
 10
9608
 20
2523
 10
9612
 20
2516
 10
9618
 20
2508
 10
9625
 20
2501
 10
9634
 20
2494
 10
9636
 20
2493
 10
9601
 20
2453
 10
9555
 20
2401
 10
9472
 20
2311
 10
9233
 20
2057
 10
9148
 20
1966
 10
8930
 20
1731
 10
8858
 20
1654
 10
8780
 20
1571
 10
8629
 20
1411
 10
8607
 20
1362
 10
8462
 20
1061
 10
8431
 20
993
 10
8404
 20
932
 10
8374
 20
859
 10
8346
 20
787
 10
8321
 20
716
 10
8299
 20
645
 10
8284
 20
591
 10
8268
 20
534
 10
8254
 20
477
 10
8241
 20
419
 10
8229
 20
363
 10
8217
 20
297
 10
8207
 20
240
 10
8197
 20
174
 10
8187
 20
107
 10
8178
 20
40
 10
8174
 20
0
  0
LWPOLYLINE
  5
36
100
AcDbEntity
  8
0
  6
BYLAYER
 62
  256
370
   -1
100
AcDbPolyline
 90
  779
 70
    0
 43
0
 10
8174
 20
7477
 10
8347
 20
7525
 10
8508
 20
7571
 10
8595
 20
7596
 10
9015
 20
7717
 10
9429
 20
7837
 10
9539
 20
7749
 10
9577
 20
7879
 10
9743
 20
7927
 10
10063
 20
8016
 10
10303
 20
8081
 10
10201
 20
8175
 10
10101
 20
8268
 10
9986
 20
8377
 10
9872
 20
8487
 10
9782
 20
8575
 10
9729
 20
8629
 10
9695
 20
8667
 10
9663
 20
8707
 10
9638
 20
8743
 10
9626
 20
8761
 10
9616
 20
8780
 10
9607
 20
8799
 10
9600
 20
8814
 10
9593
 20
8833
 10
9588
 20
8848
 10
9585
 20
8863
 10
9582
 20
8879
 10
9580
 20
8896
 10
9580
 20
8910
 10
9580
 20
8923
 10
9581
 20
8942
 10
9583
 20
8955
 10
9586
 20
8974
 10
9591
 20
8992
 10
9596
 20
9011
 10
9603
 20
9029
 10
9610
 20
9048
 10
9627
 20
9085
 10
9649
 20
9126
 10
9678
 20
9172
 10
9709
 20
9218
 10
9748
 20
9272
 10
9758
 20
9285
 10
9804
 20
9346
 10
9893
 20
9462
 10
9992
 20
9587
 10
10219
 20
9874
 10
10498
 20
9863
 10
10828
 20
9850
 10
10671
 20
9635
 10
10591
 20
9525
 10
10550
 20
9467
 10
10511
 20
9411
 10
10475
 20
9356
 10
10446
 20
9310
 10
10422
 20
9269
 10
10402
 20
9231
 10
10386
 20
9195
 10
10374
 20
9162
 10
10369
 20
9144
 10
10366
 20
9129
 10
10363
 20
9114
 10
10362
 20
9099
 10
10361
 20
9084
 10
10361
 20
9069
 10
10362
 20
9055
 10
10364
 20
9040
 10
10367
 20
9026
 10
10370
 20
9012
 10
10380
 20
8984
 10
10394
 20
8953
 10
10411
 20
8922
 10
10433
 20
8888
 10
10458
 20
8855
 10
10487
 20
8820
 10
10521
 20
8782
 10
10560
 20
8741
 10
10609
 20
8691
 10
10711
 20
8589
 10
10971
 20
8336
 10
11042
 20
8267
 10
11145
 20
8291
 10
11352
 20
8339
 10
11570
 20
8388
 10
11623
 20
8399
 10
11602
 20
8419
 10
11394
 20
8616
 10
11233
 20
8772
 10
11156
 20
8849
 10
11093
 20
8912
 10
11064
 20
8944
 10
11040
 20
8971
 10
11020
 20
8997
 10
11002
 20
9023
 10
10988
 20
9047
 10
10977
 20
9071
 10
10968
 20
9096
 10
10962
 20
9118
 10
10960
 20
9141
 10
10960
 20
9166
 10
10962
 20
9192
 10
10967
 20
9218
 10
10975
 20
9245
 10
10985
 20
9274
 10
10998
 20
9306
 10
11015
 20
9341
 10
11045
 20
9398
 10
11096
 20
9491
 10
11290
 20
9831
 10
11669
 20
9816
 10
11835
 20
9809
 10
11820
 20
9785
 10
11776
 20
9714
 10
11695
 20
9587
 10
11658
 20
9527
 10
11615
 20
9454
 10
11598
 20
9424
 10
11584
 20
9397
 10
11570
 20
9368
 10
11559
 20
9340
 10
11551
 20
9315
 10
11546
 20
9290
 10
11543
 20
9267
 10
11543
 20
9247
 10
11546
 20
9224
 10
11552
 20
9203
 10
11562
 20
9179
 10
11576
 20
9153
 10
11595
 20
9125
 10
11617
 20
9098
 10
11643
 20
9069
 10
11674
 20
9039
 10
11716
 20
9000
 10
11769
 20
8952
 10
11824
 20
8905
 10
11885
 20
8854
 10
11948
 20
8802
 10
12025
 20
8740
 10
12225
 20
8582
 10
12271
 20
8547
 10
12354
 20
8567
 10
12455
 20
8594
 10
12492
 20
8604
 10
12621
 20
8506
 10
12659
 20
8652
 10
12702
 20
8665
 10
12772
 20
8687
 10
12643
 20
8784
 10
12275
 20
9056
 10
12136
 20
9159
 10
12107
 20
9182
 10
12084
 20
9203
 10
12067
 20
9222
 10
12059
 20
9232
 10
12053
 20
9242
 10
12047
 20
9253
 10
12042
 20
9264
 10
12039
 20
9275
 10
12036
 20
9286
 10
12035
 20
9299
 10
12035
 20
9313
 10
12036
 20
9326
 10
12038
 20
9342
 10
12042
 20
9359
 10
12046
 20
9376
 10
12060
 20
9415
 10
12079
 20
9465
 10
12100
 20
9511
 10
12123
 20
9553
 10
12147
 20
9594
 10
12170
 20
9627
 10
12182
 20
9642
 10
12193
 20
9655
 10
12204
 20
9667
 10
12214
 20
9676
 10
12227
 20
9686
 10
12238
 20
9694
 10
12250
 20
9701
 10
12262
 20
9707
 10
12273
 20
9712
 10
12287
 20
9716
 10
12298
 20
9718
 10
12312
 20
9720
 10
12327
 20
9721
 10
12342
 20
9721
 10
12372
 20
9719
 10
12406
 20
9714
 10
12443
 20
9706
 10
12485
 20
9694
 10
12544
 20
9675
 10
12603
 20
9654
 10
12660
 20
9632
 10
12716
 20
9609
 10
12770
 20
9585
 10
12828
 20
9558
 10
12894
 20
9526
 10
12960
 20
9493
 10
13032
 20
9455
 10
13098
 20
9418
 10
13156
 20
9385
 10
13209
 20
9354
 10
13262
 20
9322
 10
13314
 20
9289
 10
13362
 20
9258
 10
13413
 20
9223
 10
13459
 20
9190
 10
13512
 20
9152
 10
13565
 20
9113
 10
13616
 20
9073
 10
13667
 20
9033
 10
13686
 20
9042
 10
13749
 20
9072
 10
13842
 20
9119
 10
13926
 20
9165
 10
14009
 20
9213
 10
14053
 20
9240
 10
14090
 20
9263
 10
14113
 20
9279
 10
14011
 20
9361
 10
13862
 20
9478
 10
13720
 20
9586
 10
13577
 20
9691
 10
13508
 20
9740
 10
13493
 20
9753
 10
13482
 20
9770
 10
13476
 20
9788
 10
13474
 20
9807
 10
13477
 20
9827
 10
13484
 20
9845
 10
13495
 20
9860
 10
13510
 20
9873
 10
13528
 20
9882
 10
13541
 20
9887
 10
13617
 20
9916
 10
13693
 20
9947
 10
13674
 20
9968
 10
13650
 20
9992
 10
13629
 20
10012
 10
13603
 20
10034
 10
13580
 20
10050
 10
13557
 20
10066
 10
13533
 20
10080
 10
13508
 20
10092
 10
13486
 20
10102
 10
13467
 20
10109
 10
13443
 20
10116
 10
13419
 20
10122
 10
13395
 20
10128
 10
13371
 20
10132
 10
13346
 20
10136
 10
13288
 20
10141
 10
13247
 20
10144
 10
13200
 20
10146
 10
12954
 20
10151
 10
12829
 20
10155
 10
12757
 20
10158
 10
12687
 20
10162
 10
12648
 20
10165
 10
12620
 20
10168
 10
12595
 20
10172
 10
12570
 20
10177
 10
12549
 20
10183
 10
12529
 20
10191
 10
12513
 20
10199
 10
12498
 20
10209
 10
12484
 20
10221
 10
12473
 20
10234
 10
12463
 20
10249
 10
12454
 20
10265
 10
12447
 20
10283
 10
12443
 20
10301
 10
12441
 20
10317
 10
12441
 20
10336
 10
12443
 20
10354
 10
12448
 20
10375
 10
12453
 20
10393
 10
12462
 20
10414
 10
12471
 20
10434
 10
12483
 20
10456
 10
12505
 20
10491
 10
12585
 20
10616
 10
12608
 20
10654
 10
12628
 20
10690
 10
12645
 20
10722
 10
12659
 20
10751
 10
12672
 20
10782
 10
12683
 20
10812
 10
12696
 20
10851
 10
12706
 20
10889
 10
12714
 20
10927
 10
12720
 20
10967
 10
12723
 20
11005
 10
12725
 20
11049
 10
12724
 20
11094
 10
12721
 20
11132
 10
12716
 20
11172
 10
12708
 20
11210
 10
12699
 20
11248
 10
12686
 20
11287
 10
12676
 20
11317
 10
12663
 20
11349
 10
12650
 20
11378
 10
12634
 20
11410
 10
12614
 20
11447
 10
12592
 20
11485
 10
12513
 20
11611
 10
12492
 20
11646
 10
12480
 20
11669
 10
12471
 20
11689
 10
12463
 20
11710
 10
12458
 20
11728
 10
12453
 20
11749
 10
12452
 20
11767
 10
12452
 20
11786
 10
12454
 20
11802
 10
12459
 20
11820
 10
12466
 20
11838
 10
12474
 20
11854
 10
12485
 20
11868
 10
12496
 20
11881
 10
12510
 20
11893
 10
12525
 20
11903
 10
12542
 20
11911
 10
12562
 20
11918
 10
12583
 20
11924
 10
12608
 20
11929
 10
12633
 20
11932
 10
12661
 20
11935
 10
12700
 20
11937
 10
12770
 20
11940
 10
12842
 20
11943
 10
12968
 20
11945
 10
13213
 20
11946
 10
13261
 20
11947
 10
13301
 20
11949
 10
13359
 20
11954
 10
13384
 20
11957
 10
13409
 20
11961
 10
13433
 20
11966
 10
13457
 20
11972
 10
13480
 20
11979
 10
13500
 20
11986
 10
13522
 20
11995
 10
13547
 20
12007
 10
13571
 20
12020
 10
13595
 20
12036
 10
13618
 20
12052
 10
13644
 20
12073
 10
13665
 20
12093
 10
13690
 20
12117
 10
13709
 20
12137
 10
13633
 20
12170
 10
13558
 20
12200
 10
13545
 20
12205
 10
13528
 20
12214
 10
13513
 20
12227
 10
13502
 20
12243
 10
13495
 20
12261
 10
13492
 20
12280
 10
13494
 20
12300
 10
13501
 20
12318
 10
13512
 20
12334
 10
13527
 20
12347
 10
13597
 20
12395
 10
13741
 20
12498
 10
13886
 20
12604
 10
14035
 20
12718
 10
14139
 20
12799
 10
14116
 20
12815
 10
14080
 20
12839
 10
14036
 20
12867
 10
13954
 20
12916
 10
13871
 20
12963
 10
13844
 20
12977
 10
13778
 20
13011
 10
13715
 20
13043
 10
13696
 20
13052
 10
13646
 20
13012
 10
13593
 20
12973
 10
13540
 20
12935
 10
13487
 20
12897
 10
13439
 20
12865
 10
13388
 20
12832
 10
13340
 20
12801
 10
13288
 20
12769
 10
13234
 20
12738
 10
13181
 20
12707
 10
13123
 20
12675
 10
13055
 20
12639
 10
12983
 20
12603
 10
12917
 20
12570
 10
12850
 20
12539
 10
12792
 20
12513
 10
12737
 20
12490
 10
12681
 20
12468
 10
12624
 20
12447
 10
12564
 20
12427
 10
12505
 20
12409
 10
12463
 20
12397
 10
12426
 20
12389
 10
12392
 20
12384
 10
12362
 20
12383
 10
12347
 20
12383
 10
12332
 20
12384
 10
12318
 20
12387
 10
12306
 20
12389
 10
12293
 20
12394
 10
12282
 20
12398
 10
12270
 20
12404
 10
12258
 20
12412
 10
12247
 20
12420
 10
12235
 20
12430
 10
12225
 20
12440
 10
12213
 20
12452
 10
12203
 20
12465
 10
12191
 20
12480
 10
12169
 20
12513
 10
12145
 20
12555
 10
12123
 20
12597
 10
12103
 20
12643
 10
12084
 20
12693
 10
12071
 20
12733
 10
12067
 20
12750
 10
12064
 20
12767
 10
12062
 20
12783
 10
12061
 20
12796
 10
12061
 20
12809
 10
12063
 20
12822
 10
12065
 20
12833
 10
12069
 20
12845
 10
12074
 20
12856
 10
12080
 20
12866
 10
12086
 20
12876
 10
12094
 20
12886
 10
12112
 20
12905
 10
12135
 20
12925
 10
12164
 20
12948
 10
12304
 20
13050
 10
12676
 20
13316
 10
12807
 20
13411
 10
12738
 20
13434
 10
12695
 20
13447
 10
12658
 20
13594
 10
12528
 20
13498
 10
12492
 20
13508
 10
12391
 20
13537
 10
12308
 20
13558
 10
12262
 20
13524
 10
12059
 20
13369
 10
11981
 20
13308
 10
11917
 20
13257
 10
11856
 20
13207
 10
11800
 20
13160
 10
11747
 20
13114
 10
11703
 20
13075
 10
11673
 20
13045
 10
11646
 20
13017
 10
11623
 20
12990
 10
11604
 20
12963
 10
11590
 20
12937
 10
11580
 20
12913
 10
11573
 20
12892
 10
11570
 20
12869
 10
11570
 20
12849
 10
11572
 20
12826
 10
11577
 20
12801
 10
11585
 20
12776
 10
11595
 20
12748
 10
11609
 20
12719
 10
11622
 20
12691
 10
11639
 20
12661
 10
11681
 20
12587
 10
11717
 20
12527
 10
11796
 20
12399
 10
11839
 20
12327
 10
11853
 20
12303
 10
11687
 20
12299
 10
11308
 20
12289
 10
11119
 20
12632
 10
11070
 20
12725
 10
11040
 20
12783
 10
11024
 20
12818
 10
11011
 20
12850
 10
11002
 20
12880
 10
10995
 20
12906
 10
10990
 20
12932
 10
10988
 20
12958
 10
10988
 20
12984
 10
10991
 20
13006
 10
10997
 20
13029
 10
11006
 20
13053
 10
11018
 20
13078
 10
11033
 20
13101
 10
11051
 20
13127
 10
11071
 20
13152
 10
11095
 20
13180
 10
11125
 20
13211
 10
11188
 20
13273
 10
11267
 20
13349
 10
11430
 20
13502
 10
11641
 20
13696
 10
11663
 20
13715
 10
11610
 20
13728
 10
11392
 20
13780
 10
11186
 20
13831
 10
11084
 20
13857
 10
11012
 20
13789
 10
10747
 20
13540
 10
10644
 20
13439
 10
10594
 20
13390
 10
10554
 20
13349
 10
10520
 20
13312
 10
10491
 20
13277
 10
10465
 20
13244
 10
10443
 20
13211
 10
10425
 20
13181
 10
10411
 20
13150
 10
10401
 20
13122
 10
10397
 20
13107
 10
10394
 20
13093
 10
10392
 20
13079
 10
10390
 20
13065
 10
10390
 20
13050
 10
10391
 20
13035
 10
10392
 20
13020
 10
10395
 20
13005
 10
10398
 20
12990
 10
10403
 20
12972
 10
10414
 20
12939
 10
10429
 20
12902
 10
10449
 20
12864
 10
10472
 20
12822
 10
10500
 20
12776
 10
10536
 20
12720
 10
10574
 20
12663
 10
10614
 20
12605
 10
10692
 20
12494
 10
10846
 20
12277
 10
10516
 20
12269
 10
10237
 20
12261
 10
10013
 20
12552
 10
9917
 20
12679
 10
9830
 20
12795
 10
9774
 20
12871
 10
9736
 20
12925
 10
9706
 20
12971
 10
9678
 20
13018
 10
9656
 20
13060
 10
9640
 20
13097
 10
9633
 20
13116
 10
9627
 20
13134
 10
9622
 20
13153
 10
9617
 20
13171
 10
9614
 20
13190
 10
9613
 20
13203
 10
9612
 20
13222
 10
9612
 20
13235
 10
9612
 20
13249
 10
9614
 20
13266
 10
9617
 20
13282
 10
9621
 20
13297
 10
9626
 20
13312
 10
9633
 20
13331
 10
9640
 20
13346
 10
9650
 20
13365
 10
9660
 20
13383
 10
9672
 20
13401
 10
9698
 20
13437
 10
9730
 20
13476
 10
9765
 20
13514
 10
9819
 20
13567
 10
9910
 20
13654
 10
10026
 20
13762
 10
10142
 20
13869
 10
10244
 20
13961
 10
10348
 20
14053
 10
10108
 20
14122
 10
9790
 20
14216
 10
9625
 20
14266
 10
9588
 20
14397
 10
9477
 20
14310
 10
9065
 20
14436
 10
8647
 20
14564
 10
8561
 20
14590
 10
8400
 20
14638
 10
8227
 20
14689
 10
8231
 20
14646
 10
8239
 20
14581
 10
8247
 20
14516
 10
8256
 20
14451
 10
8264
 20
14396
 10
8275
 20
14331
 10
8286
 20
14276
 10
8297
 20
14220
 10
8310
 20
14163
 10
8324
 20
14107
 10
8338
 20
14055
 10
8359
 20
13985
 10
8382
 20
13915
 10
8407
 20
13845
 10
8436
 20
13773
 10
8460
 20
13713
 10
8490
 20
13647
 10
8624
 20
13351
 10
8634
 20
13329
 10
8798
 20
13148
 10
8940
 20
12990
 10
9228
 20
12669
 10
9455
 20
12419
 10
9534
 20
12330
 10
9578
 20
12279
 10
9607
 20
12245
 10
9598
 20
12240
 10
9588
 20
12233
 10
9581
 20
12226
 10
9575
 20
12219
 10
9571
 20
12211
 10
9567
 20
12202
 10
9564
 20
12193
 10
9563
 20
12182
 10
9562
 20
12170
 10
9562
 20
12157
 10
9563
 20
12150
 10
9544
 20
12150
 10
9506
 20
12149
 10
9481
 20
12146
 10
9458
 20
12142
 10
9440
 20
12136
 10
9431
 20
12132
 10
9422
 20
12127
 10
9414
 20
12121
 10
9407
 20
12113
 10
9402
 20
12106
 10
9396
 20
12097
 10
9392
 20
12088
 10
9389
 20
12078
 10
9387
 20
12068
 10
9386
 20
12058
 10
9387
 20
12048
 10
9388
 20
12036
 10
9391
 20
12026
 10
9394
 20
12014
 10
9399
 20
12003
 10
9404
 20
11991
 10
9418
 20
11969
 10
9435
 20
11943
 10
9389
 20
11939
 10
9340
 20
11933
 10
9292
 20
11926
 10
9245
 20
11917
 10
9198
 20
11907
 10
9153
 20
11896
 10
9108
 20
11883
 10
9064
 20
11869
 10
9001
 20
11846
 10
9011
 20
11825
 10
9087
 20
11648
 10
9118
 20
11580
 10
9148
 20
11515
 10
9177
 20
11460
 10
9193
 20
11430
 10
9210
 20
11402
 10
9228
 20
11374
 10
9244
 20
11350
 10
9261
 20
11327
 10
9278
 20
11305
 10
9296
 20
11283
 10
9315
 20
11263
 10
9338
 20
11239
 10
9359
 20
11221
 10
9385
 20
11200
 10
9410
 20
11182
 10
9437
 20
11164
 10
9464
 20
11148
 10
9492
 20
11134
 10
9525
 20
11119
 10
9554
 20
11107
 10
9584
 20
11097
 10
9615
 20
11088
 10
9649
 20
11080
 10
9694
 20
11072
 10
9649
 20
11065
 10
9615
 20
11057
 10
9584
 20
11048
 10
9554
 20
11038
 10
9524
 20
11027
 10
9492
 20
11013
 10
9463
 20
10999
 10
9435
 20
10983
 10
9409
 20
10966
 10
9383
 20
10948
 10
9357
 20
10928
 10
9336
 20
10910
 10
9312
 20
10887
 10
9293
 20
10866
 10
9275
 20
10845
 10
9257
 20
10823
 10
9240
 20
10800
 10
9224
 20
10777
 10
9205
 20
10749
 10
9188
 20
10721
 10
9171
 20
10692
 10
9142
 20
10637
 10
9110
 20
10572
 10
9079
 20
10505
 10
9000
 20
10329
 10
8990
 20
10308
 10
9052
 20
10284
 10
9096
 20
10269
 10
9141
 20
10256
 10
9186
 20
10244
 10
9233
 20
10233
 10
9280
 20
10224
 10
9327
 20
10216
 10
9376
 20
10209
 10
9422
 20
10204
 10
9404
 20
10179
 10
9391
 20
10157
 10
9385
 20
10145
 10
9380
 20
10134
 10
9376
 20
10122
 10
9374
 20
10112
 10
9372
 20
10101
 10
9372
 20
10091
 10
9373
 20
10080
 10
9374
 20
10071
 10
9377
 20
10060
 10
9381
 20
10051
 10
9386
 20
10042
 10
9392
 20
10035
 10
9399
 20
10027
 10
9407
 20
10021
 10
9415
 20
10016
 10
9425
 20
10011
 10
9442
 20
10005
 10
9465
 20
10001
 10
9491
 20
9998
 10
9528
 20
9996
 10
9547
 20
9995
 10
9546
 20
9989
 10
9546
 20
9976
 10
9546
 20
9963
 10
9548
 20
9953
 10
9550
 20
9943
 10
9554
 20
9934
 10
9558
 20
9927
 10
9564
 20
9919
 10
9571
 20
9912
 10
9580
 20
9905
 10
9589
 20
9900
 10
9560
 20
9867
 10
9515
 20
9816
 10
9435
 20
9729
 10
9204
 20
9482
 10
8912
 20
9165
 10
8843
 20
9090
 10
8768
 20
9009
 10
8601
 20
8831
 10
8591
 20
8808
 10
8452
 20
8515
 10
8421
 20
8449
 10
8396
 20
8390
 10
8366
 20
8318
 10
8346
 20
8263
 10
8340
 20
8248
 10
8316
 20
8179
 10
8294
 20
8109
 10
8279
 20
8057
 10
8265
 20
8001
 10
8251
 20
7945
 10
8239
 20
7889
 10
8227
 20
7834
 10
8215
 20
7769
 10
8206
 20
7714
 10
8196
 20
7649
 10
8187
 20
7584
 10
8179
 20
7519
 10
8174
 20
7477
  0
LWPOLYLINE
  5
37
100
AcDbEntity
  8
0
  6
BYLAYER
 62
  256
370
   -1
100
AcDbPolyline
 90
  798
 70
    0
 43
0
 10
0
 20
7835
 10
163
 20
7881
 10
336
 20
7930
 10
428
 20
7956
 10
877
 20
8086
 10
1320
 20
8214
 10
1437
 20
8121
 10
1479
 20
8259
 10
1656
 20
8310
 10
1999
 20
8405
 10
2253
 20
8474
 10
2134
 20
8582
 10
2026
 20
8681
 10
1907
 20
8792
 10
1788
 20
8905
 10
1699
 20
8991
 10
1643
 20
9048
 10
1606
 20
9088
 10
1573
 20
9129
 10
1559
 20
9148
 10
1545
 20
9167
 10
1533
 20
9187
 10
1522
 20
9206
 10
1512
 20
9226
 10
1506
 20
9242
 10
1498
 20
9262
 10
1493
 20
9278
 10
1489
 20
9294
 10
1486
 20
9310
 10
1485
 20
9329
 10
1484
 20
9343
 10
1484
 20
9357
 10
1486
 20
9377
 10
1488
 20
9391
 10
1491
 20
9410
 10
1496
 20
9430
 10
1502
 20
9449
 10
1509
 20
9469
 10
1517
 20
9489
 10
1535
 20
9528
 10
1560
 20
9572
 10
1590
 20
9620
 10
1623
 20
9668
 10
1665
 20
9725
 10
1677
 20
9741
 10
1726
 20
9804
 10
1829
 20
9934
 10
1938
 20
10071
 10
2173
 20
10362
 10
2471
 20
10351
 10
2824
 20
10339
 10
2667
 20
10129
 10
2568
 20
9996
 10
2522
 20
9932
 10
2481
 20
9872
 10
2441
 20
9814
 10
2410
 20
9765
 10
2385
 20
9722
 10
2363
 20
9682
 10
2347
 20
9644
 10
2334
 20
9609
 10
2329
 20
9590
 10
2325
 20
9574
 10
2323
 20
9558
 10
2321
 20
9542
 10
2320
 20
9527
 10
2320
 20
9514
 10
2321
 20
9499
 10
2323
 20
9484
 10
2326
 20
9469
 10
2330
 20
9454
 10
2340
 20
9425
 10
2346
 20
9410
 10
2355
 20
9392
 10
2373
 20
9360
 10
2397
 20
9324
 10
2423
 20
9290
 10
2454
 20
9253
 10
2490
 20
9213
 10
2532
 20
9169
 10
2583
 20
9117
 10
2692
 20
9010
 10
2970
 20
8745
 10
3044
 20
8673
 10
3155
 20
8700
 10
3377
 20
8751
 10
3610
 20
8803
 10
3666
 20
8816
 10
3639
 20
8841
 10
3418
 20
9047
 10
3327
 20
9133
 10
3246
 20
9211
 10
3163
 20
9292
 10
3103
 20
9352
 10
3072
 20
9385
 10
3046
 20
9414
 10
3025
 20
9441
 10
3006
 20
9468
 10
2991
 20
9494
 10
2979
 20
9519
 10
2970
 20
9545
 10
2964
 20
9569
 10
2961
 20
9593
 10
2961
 20
9620
 10
2964
 20
9647
 10
2970
 20
9675
 10
2978
 20
9702
 10
2989
 20
9733
 10
3003
 20
9767
 10
3021
 20
9804
 10
3053
 20
9864
 10
3110
 20
9965
 10
3318
 20
10321
 10
3723
 20
10307
 10
3900
 20
10300
 10
3884
 20
10275
 10
3836
 20
10200
 10
3748
 20
10063
 10
3710
 20
10003
 10
3663
 20
9926
 10
3645
 20
9894
 10
3630
 20
9865
 10
3615
 20
9834
 10
3603
 20
9806
 10
3594
 20
9779
 10
3588
 20
9752
 10
3585
 20
9728
 10
3586
 20
9707
 10
3587
 20
9695
 10
3589
 20
9684
 10
3595
 20
9661
 10
3599
 20
9650
 10
3605
 20
9636
 10
3612
 20
9622
 10
3620
 20
9608
 10
3629
 20
9595
 10
3640
 20
9579
 10
3664
 20
9551
 10
3692
 20
9520
 10
3724
 20
9489
 10
3769
 20
9448
 10
3826
 20
9398
 10
3885
 20
9348
 10
3946
 20
9297
 10
4013
 20
9243
 10
4098
 20
9176
 10
4312
 20
9010
 10
4360
 20
8974
 10
4448
 20
8996
 10
4557
 20
9025
 10
4595
 20
9035
 10
4733
 20
8933
 10
4775
 20
9087
 10
4821
 20
9101
 10
4896
 20
9124
 10
4759
 20
9224
 10
4363
 20
9512
 10
4219
 20
9617
 10
4188
 20
9642
 10
4164
 20
9663
 10
4153
 20
9675
 10
4144
 20
9685
 10
4136
 20
9696
 10
4130
 20
9705
 10
4124
 20
9718
 10
4119
 20
9729
 10
4115
 20
9741
 10
4113
 20
9753
 10
4112
 20
9766
 10
4112
 20
9780
 10
4113
 20
9795
 10
4116
 20
9811
 10
4120
 20
9829
 10
4125
 20
9847
 10
4140
 20
9890
 10
4161
 20
9942
 10
4184
 20
9991
 10
4209
 20
10037
 10
4235
 20
10079
 10
4259
 20
10112
 10
4272
 20
10128
 10
4284
 20
10141
 10
4296
 20
10154
 10
4307
 20
10164
 10
4320
 20
10175
 10
4332
 20
10183
 10
4345
 20
10190
 10
4359
 20
10197
 10
4371
 20
10201
 10
4385
 20
10205
 10
4398
 20
10208
 10
4413
 20
10210
 10
4429
 20
10211
 10
4445
 20
10211
 10
4477
 20
10209
 10
4513
 20
10203
 10
4553
 20
10194
 10
4600
 20
10180
 10
4663
 20
10161
 10
4726
 20
10139
 10
4787
 20
10116
 10
4846
 20
10092
 10
4909
 20
10065
 10
4971
 20
10037
 10
5036
 20
10005
 10
5112
 20
9968
 10
5183
 20
9931
 10
5254
 20
9892
 10
5311
 20
9860
 10
5373
 20
9825
 10
5429
 20
9791
 10
5484
 20
9757
 10
5535
 20
9724
 10
5585
 20
9691
 10
5634
 20
9657
 10
5691
 20
9616
 10
5740
 20
9581
 10
5795
 20
9539
 10
5854
 20
9493
 10
5873
 20
9501
 10
5940
 20
9533
 10
6012
 20
9569
 10
6040
 20
9583
 10
6130
 20
9632
 10
6219
 20
9683
 10
6266
 20
9712
 10
6313
 20
9741
 10
6207
 20
9825
 10
6049
 20
9946
 10
5898
 20
10060
 10
5746
 20
10170
 10
5641
 20
10243
 10
5627
 20
10256
 10
5615
 20
10272
 10
5609
 20
10291
 10
5607
 20
10310
 10
5610
 20
10330
 10
5617
 20
10348
 10
5629
 20
10364
 10
5644
 20
10376
 10
5662
 20
10386
 10
5711
 20
10403
 10
5791
 20
10434
 10
5872
 20
10468
 10
5838
 20
10502
 10
5816
 20
10522
 10
5788
 20
10545
 10
5764
 20
10563
 10
5739
 20
10579
 10
5714
 20
10594
 10
5687
 20
10607
 10
5664
 20
10616
 10
5643
 20
10624
 10
5619
 20
10631
 10
5597
 20
10637
 10
5571
 20
10642
 10
5545
 20
10647
 10
5518
 20
10651
 10
5487
 20
10654
 10
5456
 20
10657
 10
5420
 20
10659
 10
5413
 20
10659
 10
5366
 20
10661
 10
5102
 20
10665
 10
4963
 20
10669
 10
4886
 20
10672
 10
4808
 20
10676
 10
4770
 20
10679
 10
4737
 20
10682
 10
4710
 20
10686
 10
4684
 20
10691
 10
4662
 20
10698
 10
4643
 20
10705
 10
4625
 20
10714
 10
4609
 20
10725
 10
4594
 20
10737
 10
4583
 20
10750
 10
4572
 20
10766
 10
4563
 20
10784
 10
4556
 20
10802
 10
4551
 20
10821
 10
4549
 20
10838
 10
4549
 20
10858
 10
4551
 20
10877
 10
4556
 20
10899
 10
4562
 20
10919
 10
4571
 20
10940
 10
4582
 20
10961
 10
4595
 20
10985
 10
4618
 20
11021
 10
4676
 20
11109
 10
4703
 20
11151
 10
4728
 20
11191
 10
4750
 20
11229
 10
4767
 20
11263
 10
4782
 20
11294
 10
4797
 20
11327
 10
4810
 20
11360
 10
4823
 20
11402
 10
4835
 20
11444
 10
4844
 20
11484
 10
4850
 20
11524
 10
4854
 20
11563
 10
4856
 20
11610
 10
4854
 20
11657
 10
4850
 20
11697
 10
4844
 20
11736
 10
4836
 20
11777
 10
4825
 20
11819
 10
4811
 20
11861
 10
4798
 20
11894
 10
4784
 20
11927
 10
4770
 20
11959
 10
4752
 20
11993
 10
4730
 20
12031
 10
4706
 20
12071
 10
4679
 20
12113
 10
4621
 20
12201
 10
4599
 20
12238
 10
4586
 20
12261
 10
4575
 20
12282
 10
4567
 20
12304
 10
4560
 20
12323
 10
4556
 20
12345
 10
4554
 20
12365
 10
4554
 20
12384
 10
4556
 20
12401
 10
4561
 20
12420
 10
4568
 20
12439
 10
4577
 20
12456
 10
4588
 20
12472
 10
4600
 20
12485
 10
4614
 20
12497
 10
4631
 20
12508
 10
4648
 20
12517
 10
4667
 20
12524
 10
4690
 20
12530
 10
4716
 20
12536
 10
4742
 20
12540
 10
4775
 20
12543
 10
4814
 20
12545
 10
4891
 20
12548
 10
4968
 20
12551
 10
5107
 20
12554
 10
5372
 20
12557
 10
5419
 20
12558
 10
5426
 20
12558
 10
5462
 20
12560
 10
5493
 20
12562
 10
5524
 20
12566
 10
5551
 20
12569
 10
5577
 20
12574
 10
5603
 20
12579
 10
5625
 20
12585
 10
5649
 20
12592
 10
5670
 20
12600
 10
5693
 20
12609
 10
5720
 20
12622
 10
5746
 20
12636
 10
5770
 20
12652
 10
5794
 20
12670
 10
5822
 20
12693
 10
5845
 20
12713
 10
5879
 20
12747
 10
5798
 20
12781
 10
5718
 20
12812
 10
5669
 20
12830
 10
5652
 20
12840
 10
5636
 20
12852
 10
5625
 20
12868
 10
5617
 20
12886
 10
5615
 20
12906
 10
5617
 20
12925
 10
5624
 20
12944
 10
5635
 20
12960
 10
5649
 20
12973
 10
5754
 20
13045
 10
5907
 20
13154
 10
6060
 20
13267
 10
6218
 20
13388
 10
6324
 20
13471
 10
6278
 20
13501
 10
6231
 20
13530
 10
6142
 20
13581
 10
6052
 20
13630
 10
5953
 20
13681
 10
5886
 20
13713
 10
5867
 20
13722
 10
5807
 20
13676
 10
5752
 20
13635
 10
5703
 20
13599
 10
5646
 20
13559
 10
5596
 20
13525
 10
5546
 20
13492
 10
5496
 20
13460
 10
5440
 20
13426
 10
5383
 20
13393
 10
5322
 20
13358
 10
5265
 20
13326
 10
5193
 20
13288
 10
5122
 20
13251
 10
5046
 20
13214
 10
4980
 20
13183
 10
4918
 20
13155
 10
4855
 20
13129
 10
4796
 20
13105
 10
4735
 20
13083
 10
4671
 20
13061
 10
4609
 20
13042
 10
4561
 20
13029
 10
4522
 20
13020
 10
4486
 20
13014
 10
4453
 20
13012
 10
4437
 20
13013
 10
4422
 20
13014
 10
4406
 20
13016
 10
4394
 20
13018
 10
4379
 20
13023
 10
4367
 20
13027
 10
4354
 20
13034
 10
4341
 20
13041
 10
4329
 20
13049
 10
4316
 20
13060
 10
4305
 20
13070
 10
4293
 20
13083
 10
4281
 20
13096
 10
4268
 20
13112
 10
4245
 20
13145
 10
4219
 20
13188
 10
4194
 20
13234
 10
4171
 20
13283
 10
4150
 20
13335
 10
4136
 20
13378
 10
4131
 20
13396
 10
4127
 20
13414
 10
4124
 20
13430
 10
4123
 20
13445
 10
4123
 20
13459
 10
4124
 20
13473
 10
4127
 20
13484
 10
4130
 20
13496
 10
4135
 20
13508
 10
4142
 20
13520
 10
4148
 20
13530
 10
4156
 20
13540
 10
4165
 20
13550
 10
4176
 20
13561
 10
4200
 20
13583
 10
4232
 20
13607
 10
4376
 20
13712
 10
4774
 20
13997
 10
4911
 20
14096
 10
4836
 20
14120
 10
4790
 20
14134
 10
4749
 20
14289
 10
4611
 20
14187
 10
4572
 20
14198
 10
4464
 20
14227
 10
4376
 20
14250
 10
4328
 20
14214
 10
4113
 20
14049
 10
4027
 20
13982
 10
3960
 20
13929
 10
3899
 20
13879
 10
3840
 20
13829
 10
3783
 20
13780
 10
3737
 20
13739
 10
3704
 20
13707
 10
3676
 20
13677
 10
3653
 20
13649
 10
3641
 20
13633
 10
3632
 20
13620
 10
3624
 20
13606
 10
3617
 20
13593
 10
3611
 20
13579
 10
3607
 20
13568
 10
3600
 20
13545
 10
3598
 20
13533
 10
3597
 20
13522
 10
3597
 20
13500
 10
3600
 20
13476
 10
3606
 20
13449
 10
3614
 20
13423
 10
3626
 20
13394
 10
3641
 20
13363
 10
3656
 20
13334
 10
3674
 20
13302
 10
3720
 20
13224
 10
3757
 20
13164
 10
3845
 20
13027
 10
3892
 20
12952
 10
3908
 20
12926
 10
3731
 20
12921
 10
3326
 20
12909
 10
3120
 20
13267
 10
3064
 20
13367
 10
3032
 20
13428
 10
3014
 20
13465
 10
3000
 20
13499
 10
2989
 20
13530
 10
2981
 20
13557
 10
2976
 20
13585
 10
2973
 20
13612
 10
2973
 20
13639
 10
2976
 20
13663
 10
2982
 20
13687
 10
2992
 20
13713
 10
3004
 20
13738
 10
3019
 20
13763
 10
3039
 20
13791
 10
3060
 20
13817
 10
3085
 20
13846
 10
3117
 20
13879
 10
3178
 20
13939
 10
3261
 20
14020
 10
3342
 20
14097
 10
3433
 20
14182
 10
3656
 20
14387
 10
3683
 20
14412
 10
3627
 20
14425
 10
3394
 20
14479
 10
3173
 20
14531
 10
3062
 20
14558
 10
2987
 20
14487
 10
2708
 20
14224
 10
2599
 20
14118
 10
2547
 20
14065
 10
2505
 20
14022
 10
2469
 20
13983
 10
2437
 20
13946
 10
2411
 20
13911
 10
2387
 20
13876
 10
2369
 20
13844
 10
2360
 20
13826
 10
2354
 20
13811
 10
2343
 20
13782
 10
2339
 20
13767
 10
2336
 20
13752
 10
2334
 20
13737
 10
2333
 20
13722
 10
2333
 20
13709
 10
2334
 20
13694
 10
2335
 20
13678
 10
2338
 20
13662
 10
2341
 20
13646
 10
2346
 20
13627
 10
2359
 20
13592
 10
2375
 20
13554
 10
2396
 20
13513
 10
2422
 20
13470
 10
2452
 20
13422
 10
2491
 20
13363
 10
2533
 20
13303
 10
2578
 20
13239
 10
2676
 20
13105
 10
2832
 20
12894
 10
2478
 20
12884
 10
2180
 20
12875
 10
1947
 20
13167
 10
1839
 20
13305
 10
1738
 20
13436
 10
1677
 20
13515
 10
1635
 20
13572
 10
1602
 20
13620
 10
1572
 20
13669
 10
1548
 20
13713
 10
1530
 20
13752
 10
1522
 20
13772
 10
1515
 20
13792
 10
1509
 20
13811
 10
1505
 20
13831
 10
1501
 20
13850
 10
1499
 20
13865
 10
1498
 20
13884
 10
1498
 20
13898
 10
1499
 20
13913
 10
1501
 20
13931
 10
1503
 20
13947
 10
1507
 20
13963
 10
1512
 20
13979
 10
1520
 20
13999
 10
1527
 20
14015
 10
1537
 20
14035
 10
1548
 20
14054
 10
1560
 20
14073
 10
1574
 20
14092
 10
1588
 20
14111
 10
1622
 20
14152
 10
1658
 20
14192
 10
1715
 20
14249
 10
1804
 20
14334
 10
1924
 20
14447
 10
2044
 20
14557
 10
2153
 20
14656
 10
2272
 20
14762
 10
2018
 20
14833
 10
1676
 20
14930
 10
1499
 20
14982
 10
1458
 20
15120
 10
1341
 20
15028
 10
899
 20
15159
 10
451
 20
15291
 10
358
 20
15318
 10
186
 20
15368
 10
23
 20
15415
 10
27
 20
15377
 10
36
 20
15309
 10
45
 20
15241
 10
56
 20
15173
 10
66
 20
15114
 10
78
 20
15047
 10
90
 20
14989
 10
103
 20
14930
 10
118
 20
14871
 10
133
 20
14812
 10
149
 20
14758
 10
172
 20
14684
 10
197
 20
14611
 10
225
 20
14538
 10
256
 20
14462
 10
285
 20
14396
 10
317
 20
14326
 10
463
 20
14021
 10
499
 20
13944
 10
632
 20
13802
 10
786
 20
13636
 10
1102
 20
13294
 10
1343
 20
13037
 10
1429
 20
12944
 10
1477
 20
12891
 10
1517
 20
12843
 10
1512
 20
12839
 10
1505
 20
12833
 10
1499
 20
12825
 10
1495
 20
12818
 10
1491
 20
12809
 10
1489
 20
12799
 10
1487
 20
12789
 10
1487
 20
12776
 10
1487
 20
12763
 10
1488
 20
12756
 10
1441
 20
12755
 10
1401
 20
12753
 10
1373
 20
12751
 10
1349
 20
12746
 10
1331
 20
12740
 10
1320
 20
12735
 10
1311
 20
12730
 10
1303
 20
12723
 10
1295
 20
12716
 10
1289
 20
12708
 10
1284
 20
12699
 10
1280
 20
12689
 10
1276
 20
12678
 10
1275
 20
12667
 10
1274
 20
12657
 10
1274
 20
12646
 10
1276
 20
12634
 10
1279
 20
12623
 10
1283
 20
12611
 10
1288
 20
12599
 10
1294
 20
12587
 10
1308
 20
12563
 10
1328
 20
12537
 10
1280
 20
12532
 10
1228
 20
12525
 10
1177
 20
12518
 10
1125
 20
12508
 10
1075
 20
12497
 10
1025
 20
12484
 10
977
 20
12471
 10
930
 20
12455
 10
867
 20
12432
 10
876
 20
12414
 10
962
 20
12224
 10
995
 20
12152
 10
1029
 20
12084
 10
1060
 20
12026
 10
1078
 20
11995
 10
1097
 20
11965
 10
1116
 20
11936
 10
1134
 20
11911
 10
1152
 20
11887
 10
1171
 20
11863
 10
1190
 20
11841
 10
1211
 20
11819
 10
1236
 20
11795
 10
1258
 20
11775
 10
1286
 20
11754
 10
1313
 20
11734
 10
1342
 20
11716
 10
1371
 20
11700
 10
1402
 20
11684
 10
1436
 20
11669
 10
1468
 20
11657
 10
1500
 20
11646
 10
1533
 20
11637
 10
1566
 20
11629
 10
1597
 20
11623
 10
1618
 20
11620
 10
1597
 20
11617
 10
1566
 20
11612
 10
1533
 20
11604
 10
1500
 20
11595
 10
1468
 20
11584
 10
1436
 20
11572
 10
1401
 20
11557
 10
1371
 20
11542
 10
1341
 20
11526
 10
1313
 20
11508
 10
1285
 20
11489
 10
1257
 20
11467
 10
1235
 20
11448
 10
1210
 20
11424
 10
1189
 20
11402
 10
1169
 20
11380
 10
1150
 20
11356
 10
1132
 20
11332
 10
1114
 20
11308
 10
1095
 20
11279
 10
1076
 20
11248
 10
1058
 20
11218
 10
1026
 20
11160
 10
992
 20
11092
 10
958
 20
11020
 10
871
 20
10831
 10
862
 20
10813
 10
925
 20
10789
 10
972
 20
10774
 10
1020
 20
10760
 10
1069
 20
10747
 10
1119
 20
10736
 10
1171
 20
10726
 10
1222
 20
10717
 10
1274
 20
10711
 10
1322
 20
10705
 10
1303
 20
10679
 10
1288
 20
10656
 10
1282
 20
10644
 10
1277
 20
10632
 10
1273
 20
10619
 10
1270
 20
10609
 10
1268
 20
10597
 10
1268
 20
10586
 10
1268
 20
10575
 10
1270
 20
10565
 10
1273
 20
10554
 10
1277
 20
10544
 10
1283
 20
10534
 10
1288
 20
10527
 10
1296
 20
10519
 10
1304
 20
10512
 10
1314
 20
10507
 10
1324
 20
10502
 10
1343
 20
10496
 10
1367
 20
10491
 10
1394
 20
10488
 10
1434
 20
10486
 10
1481
 20
10484
 10
1480
 20
10478
 10
1480
 20
10465
 10
1480
 20
10453
 10
1482
 20
10442
 10
1484
 20
10433
 10
1488
 20
10424
 10
1492
 20
10416
 10
1498
 20
10408
 10
1505
 20
10402
 10
1510
 20
10397
 10
1469
 20
10351
 10
1421
 20
10298
 10
1335
 20
10205
 10
1092
 20
9949
 10
1014
 20
9866
 10
774
 20
9609
 10
699
 20
9530
 10
619
 20
9445
 10
485
 20
9303
 10
448
 20
9227
 10
301
 20
8922
 10
268
 20
8852
 10
239
 20
8786
 10
207
 20
8711
 10
188
 20
8661
 10
179
 20
8638
 10
153
 20
8565
 10
130
 20
8492
 10
114
 20
8437
 10
98
 20
8379
 10
83
 20
8320
 10
70
 20
8261
 10
58
 20
8203
 10
45
 20
8136
 10
34
 20
8077
 10
23
 20
8009
 10
13
 20
7941
 10
4
 20
7873
 10
0
 20
7835
  0
LWPOLYLINE
  5
38
100
AcDbEntity
  8
0
  6
BYLAYER
 62
  256
370
   -1
100
AcDbPolyline
 90
  811
 70
    0
 43
0
 10
0
 20
1259
 10
35
 20
1264
 10
105
 20
1273
 10
175
 20
1283
 10
245
 20
1295
 10
305
 20
1305
 10
374
 20
1319
 10
433
 20
1331
 10
493
 20
1345
 10
554
 20
1360
 10
614
 20
1376
 10
669
 20
1393
 10
748
 20
1418
 10
822
 20
1444
 10
894
 20
1472
 10
971
 20
1504
 10
1039
 20
1535
 10
1110
 20
1568
 10
1426
 20
1722
 10
1525
 20
1769
 10
1657
 20
1894
 10
1824
 20
2052
 10
2164
 20
2371
 10
2432
 20
2626
 10
2527
 20
2715
 10
2582
 20
2764
 10
2636
 20
2812
 10
2642
 20
2806
 10
2650
 20
2800
 10
2657
 20
2796
 10
2666
 20
2792
 10
2676
 20
2789
 10
2686
 20
2788
 10
2699
 20
2787
 10
2712
 20
2788
 10
2718
 20
2789
 10
2720
 20
2704
 10
2722
 20
2662
 10
2724
 20
2633
 10
2729
 20
2608
 10
2735
 20
2589
 10
2740
 20
2578
 10
2746
 20
2568
 10
2753
 20
2559
 10
2761
 20
2551
 10
2769
 20
2546
 10
2779
 20
2540
 10
2789
 20
2535
 10
2800
 20
2532
 10
2811
 20
2530
 10
2822
 20
2530
 10
2833
 20
2530
 10
2846
 20
2532
 10
2857
 20
2535
 10
2870
 20
2539
 10
2882
 20
2545
 10
2895
 20
2551
 10
2919
 20
2567
 10
2948
 20
2588
 10
2950
 20
2566
 10
2956
 20
2513
 10
2965
 20
2457
 10
2975
 20
2404
 10
2986
 20
2352
 10
2999
 20
2301
 10
3013
 20
2252
 10
3029
 20
2203
 10
3053
 20
2138
 10
3072
 20
2147
 10
3266
 20
2237
 10
3340
 20
2272
 10
3410
 20
2308
 10
3469
 20
2340
 10
3501
 20
2359
 10
3532
 20
2378
 10
3562
 20
2399
 10
3587
 20
2417
 10
3612
 20
2436
 10
3635
 20
2455
 10
3659
 20
2476
 10
3681
 20
2497
 10
3705
 20
2523
 10
3726
 20
2546
 10
3748
 20
2575
 10
3768
 20
2603
 10
3786
 20
2633
 10
3803
 20
2663
 10
3819
 20
2695
 10
3834
 20
2730
 10
3847
 20
2763
 10
3857
 20
2797
 10
3867
 20
2830
 10
3875
 20
2865
 10
3881
 20
2898
 10
3884
 20
2918
 10
3887
 20
2898
 10
3893
 20
2865
 10
3901
 20
2830
 10
3910
 20
2797
 10
3921
 20
2763
 10
3933
 20
2730
 10
3949
 20
2695
 10
3964
 20
2663
 10
3981
 20
2632
 10
3999
 20
2603
 10
4019
 20
2574
 10
4041
 20
2546
 10
4061
 20
2522
 10
4086
 20
2496
 10
4108
 20
2475
 10
4131
 20
2455
 10
4155
 20
2435
 10
4180
 20
2416
 10
4205
 20
2398
 10
4235
 20
2378
 10
4266
 20
2358
 10
4297
 20
2339
 10
4357
 20
2307
 10
4427
 20
2271
 10
4500
 20
2236
 10
4694
 20
2146
 10
4713
 20
2137
 10
4737
 20
2201
 10
4753
 20
2250
 10
4767
 20
2299
 10
4780
 20
2350
 10
4792
 20
2402
 10
4802
 20
2455
 10
4810
 20
2511
 10
4817
 20
2564
 10
4819
 20
2586
 10
4848
 20
2565
 10
4872
 20
2549
 10
4884
 20
2543
 10
4897
 20
2537
 10
4910
 20
2533
 10
4920
 20
2530
 10
4933
 20
2528
 10
4944
 20
2527
 10
4956
 20
2528
 10
4966
 20
2530
 10
4978
 20
2533
 10
4988
 20
2538
 10
4998
 20
2543
 10
5006
 20
2549
 10
5014
 20
2557
 10
5021
 20
2566
 10
5027
 20
2576
 10
5032
 20
2586
 10
5038
 20
2606
 10
5043
 20
2631
 10
5045
 20
2660
 10
5047
 20
2702
 10
5050
 20
2786
 10
5055
 20
2786
 10
5068
 20
2785
 10
5081
 20
2785
 10
5091
 20
2787
 10
5101
 20
2789
 10
5110
 20
2793
 10
5118
 20
2797
 10
5125
 20
2803
 10
5131
 20
2809
 10
5132
 20
2809
 10
5185
 20
2762
 10
5240
 20
2712
 10
5335
 20
2623
 10
5603
 20
2367
 10
5698
 20
2277
 10
5942
 20
2047
 10
6028
 20
1966
 10
6108
 20
1890
 10
6240
 20
1764
 10
6339
 20
1717
 10
6654
 20
1563
 10
6726
 20
1529
 10
6794
 20
1498
 10
6870
 20
1466
 10
6905
 20
1452
 10
6942
 20
1438
 10
7016
 20
1411
 10
7095
 20
1386
 10
7151
 20
1369
 10
7211
 20
1353
 10
7271
 20
1338
 10
7331
 20
1324
 10
7390
 20
1311
 10
7460
 20
1297
 10
7519
 20
1287
 10
7589
 20
1275
 10
7659
 20
1265
 10
7729
 20
1255
 10
7764
 20
1251
 10
7720
 20
1409
 10
7669
 20
1588
 10
7642
 20
1683
 10
7508
 20
2147
 10
7376
 20
2604
 10
7471
 20
2724
 10
7329
 20
2768
 10
7277
 20
2951
 10
7178
 20
3304
 10
7132
 20
3475
 10
7116
 20
3533
 10
7022
 20
3428
 10
6920
 20
3314
 10
6805
 20
3190
 10
6691
 20
3069
 10
6599
 20
2972
 10
6540
 20
2914
 10
6498
 20
2876
 10
6475
 20
2856
 10
6456
 20
2840
 10
6436
 20
2826
 10
6416
 20
2812
 10
6396
 20
2799
 10
6376
 20
2788
 10
6355
 20
2778
 10
6339
 20
2770
 10
6318
 20
2763
 10
6302
 20
2758
 10
6285
 20
2753
 10
6268
 20
2750
 10
6249
 20
2749
 10
6234
 20
2748
 10
6219
 20
2748
 10
6199
 20
2750
 10
6184
 20
2752
 10
6164
 20
2756
 10
6144
 20
2761
 10
6123
 20
2767
 10
6103
 20
2774
 10
6083
 20
2783
 10
6042
 20
2802
 10
6022
 20
2813
 10
5996
 20
2828
 10
5946
 20
2860
 10
5896
 20
2895
 10
5837
 20
2939
 10
5826
 20
2948
 10
5750
 20
3008
 10
5610
 20
3119
 10
5464
 20
3237
 10
5174
 20
3473
 10
5184
 20
3786
 10
5196
 20
4156
 10
5400
 20
4002
 10
5553
 20
3887
 10
5620
 20
3839
 10
5682
 20
3795
 10
5743
 20
3753
 10
5793
 20
3721
 10
5837
 20
3694
 10
5880
 20
3671
 10
5919
 20
3653
 10
5939
 20
3646
 10
5955
 20
3640
 10
5975
 20
3635
 10
5992
 20
3631
 10
6008
 20
3628
 10
6024
 20
3626
 10
6041
 20
3625
 10
6054
 20
3626
 10
6069
 20
3627
 10
6085
 20
3629
 10
6100
 20
3632
 10
6116
 20
3636
 10
6131
 20
3641
 10
6147
 20
3646
 10
6162
 20
3653
 10
6181
 20
3662
 10
6214
 20
3681
 10
6251
 20
3705
 10
6286
 20
3733
 10
6325
 20
3765
 10
6366
 20
3803
 10
6411
 20
3846
 10
6463
 20
3897
 10
6571
 20
4009
 10
6844
 20
4298
 10
6906
 20
4363
 10
6874
 20
4499
 10
6822
 20
4727
 10
6767
 20
4968
 10
6757
 20
5015
 10
6535
 20
4775
 10
6446
 20
4680
 10
6366
 20
4595
 10
6285
 20
4512
 10
6219
 20
4446
 10
6185
 20
4413
 10
6155
 20
4387
 10
6127
 20
4365
 10
6099
 20
4345
 10
6073
 20
4329
 10
6046
 20
4316
 10
6019
 20
4307
 10
5995
 20
4301
 10
5970
 20
4298
 10
5945
 20
4298
 10
5917
 20
4300
 10
5888
 20
4306
 10
5859
 20
4314
 10
5827
 20
4326
 10
5792
 20
4341
 10
5754
 20
4360
 10
5694
 20
4392
 10
5586
 20
4454
 10
5213
 20
4674
 10
5227
 20
5099
 10
5233
 20
5285
 10
5259
 20
5268
 10
5337
 20
5218
 10
5476
 20
5126
 10
5542
 20
5084
 10
5622
 20
5035
 10
5656
 20
5016
 10
5685
 20
5000
 10
5717
 20
4984
 10
5747
 20
4972
 10
5775
 20
4962
 10
5802
 20
4956
 10
5827
 20
4953
 10
5850
 20
4953
 10
5862
 20
4954
 10
5874
 20
4956
 10
5898
 20
4963
 10
5909
 20
4967
 10
5924
 20
4973
 10
5938
 20
4981
 10
5952
 20
4989
 10
5966
 20
4998
 10
5982
 20
5010
 10
6012
 20
5034
 10
6043
 20
5064
 10
6076
 20
5098
 10
6118
 20
5145
 10
6170
 20
5204
 10
6222
 20
5266
 10
6274
 20
5330
 10
6330
 20
5400
 10
6399
 20
5489
 10
6571
 20
5712
 10
6591
 20
5740
 10
6568
 20
5834
 10
6541
 20
5936
 10
6527
 20
5985
 10
6632
 20
6127
 10
6474
 20
6171
 10
6463
 20
6208
 10
6434
 20
6302
 10
6347
 20
6182
 10
6050
 20
5768
 10
5941
 20
5618
 10
5915
 20
5585
 10
5893
 20
5560
 10
5881
 20
5548
 10
5871
 20
5539
 10
5860
 20
5531
 10
5850
 20
5524
 10
5837
 20
5517
 10
5825
 20
5512
 10
5813
 20
5509
 10
5801
 20
5506
 10
5786
 20
5505
 10
5772
 20
5505
 10
5757
 20
5507
 10
5740
 20
5509
 10
5723
 20
5513
 10
5703
 20
5519
 10
5683
 20
5526
 10
5658
 20
5535
 10
5604
 20
5557
 10
5553
 20
5582
 10
5506
 20
5608
 10
5461
 20
5636
 10
5427
 20
5661
 10
5410
 20
5674
 10
5396
 20
5686
 10
5384
 20
5699
 10
5373
 20
5711
 10
5362
 20
5725
 10
5353
 20
5738
 10
5346
 20
5751
 10
5339
 20
5765
 10
5334
 20
5778
 10
5330
 20
5793
 10
5327
 20
5806
 10
5325
 20
5822
 10
5324
 20
5839
 10
5324
 20
5855
 10
5325
 20
5872
 10
5326
 20
5890
 10
5332
 20
5927
 10
5341
 20
5969
 10
5355
 20
6018
 10
5375
 20
6084
 10
5398
 20
6150
 10
5421
 20
6213
 10
5446
 20
6276
 10
5474
 20
6342
 10
5503
 20
6406
 10
5535
 20
6475
 10
5574
 20
6554
 10
5613
 20
6629
 10
5652
 20
6704
 10
5685
 20
6763
 10
5722
 20
6827
 10
5757
 20
6886
 10
5789
 20
6940
 10
5823
 20
6992
 10
5860
 20
7049
 10
5896
 20
7101
 10
5937
 20
7160
 10
5974
 20
7211
 10
6017
 20
7269
 10
6046
 20
7307
 10
6014
 20
7374
 10
5963
 20
7477
 10
5913
 20
7570
 10
5860
 20
7662
 10
5831
 20
7711
 10
5806
 20
7751
 10
5722
 20
7644
 10
5597
 20
7481
 10
5539
 20
7403
 10
5481
 20
7325
 10
5425
 20
7247
 10
5369
 20
7168
 10
5284
 20
7045
 10
5270
 20
7030
 10
5254
 20
7019
 10
5236
 20
7012
 10
5216
 20
7010
 10
5197
 20
7013
 10
5178
 20
7021
 10
5163
 20
7032
 10
5150
 20
7048
 10
5141
 20
7065
 10
5116
 20
7136
 10
5084
 20
7218
 10
5051
 20
7299
 10
5022
 20
7270
 10
5001
 20
7247
 10
4977
 20
7219
 10
4959
 20
7194
 10
4943
 20
7169
 10
4928
 20
7143
 10
4915
 20
7115
 10
4905
 20
7092
 10
4897
 20
7070
 10
4889
 20
7045
 10
4884
 20
7022
 10
4878
 20
6995
 10
4873
 20
6968
 10
4869
 20
6941
 10
4866
 20
6909
 10
4863
 20
6877
 10
4861
 20
6840
 10
4861
 20
6833
 10
4859
 20
6784
 10
4856
 20
6521
 10
4852
 20
6368
 10
4849
 20
6283
 10
4845
 20
6205
 10
4842
 20
6166
 10
4839
 20
6135
 10
4835
 20
6107
 10
4830
 20
6080
 10
4823
 20
6057
 10
4816
 20
6038
 10
4807
 20
6020
 10
4796
 20
6003
 10
4783
 20
5988
 10
4770
 20
5976
 10
4753
 20
5965
 10
4735
 20
5955
 10
4716
 20
5948
 10
4697
 20
5943
 10
4679
 20
5941
 10
4659
 20
5941
 10
4639
 20
5944
 10
4617
 20
5949
 10
4597
 20
5955
 10
4575
 20
5964
 10
4553
 20
5975
 10
4529
 20
5989
 10
4491
 20
6013
 10
4404
 20
6071
 10
4359
 20
6101
 10
4318
 20
6126
 10
4279
 20
6149
 10
4244
 20
6167
 10
4212
 20
6183
 10
4178
 20
6198
 10
4144
 20
6211
 10
4101
 20
6225
 10
4061
 20
6237
 10
4019
 20
6246
 10
3976
 20
6253
 10
3936
 20
6257
 10
3887
 20
6259
 10
3839
 20
6257
 10
3798
 20
6253
 10
3755
 20
6246
 10
3714
 20
6237
 10
3673
 20
6226
 10
3631
 20
6212
 10
3596
 20
6198
 10
3563
 20
6184
 10
3531
 20
6168
 10
3496
 20
6150
 10
3457
 20
6127
 10
3416
 20
6102
 10
3370
 20
6072
 10
3283
 20
6014
 10
3245
 20
5990
 10
3221
 20
5977
 10
3199
 20
5966
 10
3177
 20
5957
 10
3157
 20
5950
 10
3135
 20
5945
 10
3115
 20
5943
 10
3095
 20
5943
 10
3077
 20
5945
 10
3058
 20
5950
 10
3039
 20
5957
 10
3021
 20
5966
 10
3005
 20
5978
 10
2991
 20
5990
 10
2979
 20
6005
 10
2968
 20
6022
 10
2959
 20
6040
 10
2951
 20
6059
 10
2945
 20
6082
 10
2939
 20
6109
 10
2935
 20
6137
 10
2932
 20
6168
 10
2930
 20
6207
 10
2926
 20
6285
 10
2923
 20
6370
 10
2920
 20
6523
 10
2916
 20
6786
 10
2915
 20
6835
 10
2915
 20
6842
 10
2913
 20
6879
 10
2910
 20
6911
 10
2907
 20
6943
 10
2903
 20
6970
 10
2898
 20
6998
 10
2893
 20
7024
 10
2887
 20
7047
 10
2879
 20
7072
 10
2872
 20
7094
 10
2862
 20
7118
 10
2849
 20
7145
 10
2834
 20
7171
 10
2817
 20
7197
 10
2799
 20
7221
 10
2776
 20
7250
 10
2755
 20
7273
 10
2726
 20
7302
 10
2693
 20
7221
 10
2661
 20
7138
 10
2636
 20
7068
 10
2626
 20
7050
 10
2614
 20
7035
 10
2598
 20
7023
 10
2580
 20
7016
 10
2560
 20
7013
 10
2541
 20
7015
 10
2522
 20
7022
 10
2506
 20
7033
 10
2493
 20
7048
 10
2408
 20
7171
 10
2352
 20
7250
 10
2296
 20
7328
 10
2238
 20
7407
 10
2180
 20
7485
 10
2056
 20
7647
 10
1972
 20
7755
 10
1947
 20
7715
 10
1917
 20
7666
 10
1865
 20
7575
 10
1815
 20
7482
 10
1800
 20
7453
 10
1763
 20
7379
 10
1731
 20
7312
 10
1760
 20
7274
 10
1803
 20
7216
 10
1840
 20
7165
 10
1881
 20
7106
 10
1916
 20
7053
 10
1953
 20
6997
 10
1987
 20
6944
 10
2019
 20
6890
 10
2054
 20
6831
 10
2091
 20
6767
 10
2123
 20
6707
 10
2163
 20
6633
 10
2201
 20
6558
 10
2240
 20
6479
 10
2272
 20
6410
 10
2301
 20
6345
 10
2329
 20
6279
 10
2353
 20
6217
 10
2377
 20
6153
 10
2399
 20
6087
 10
2419
 20
6022
 10
2433
 20
5972
 10
2442
 20
5931
 10
2448
 20
5893
 10
2449
 20
5875
 10
2450
 20
5859
 10
2450
 20
5842
 10
2449
 20
5825
 10
2446
 20
5809
 10
2444
 20
5796
 10
2439
 20
5781
 10
2435
 20
5768
 10
2428
 20
5754
 10
2420
 20
5741
 10
2412
 20
5728
 10
2401
 20
5714
 10
2390
 20
5703
 10
2377
 20
5690
 10
2363
 20
5677
 10
2347
 20
5664
 10
2312
 20
5639
 10
2268
 20
5611
 10
2220
 20
5585
 10
2170
 20
5561
 10
2115
 20
5539
 10
2090
 20
5529
 10
2070
 20
5523
 10
2050
 20
5517
 10
2033
 20
5513
 10
2016
 20
5511
 10
2001
 20
5509
 10
1987
 20
5509
 10
1973
 20
5510
 10
1960
 20
5513
 10
1948
 20
5516
 10
1936
 20
5521
 10
1923
 20
5529
 10
1913
 20
5535
 10
1902
 20
5543
 10
1892
 20
5552
 10
1880
 20
5564
 10
1858
 20
5589
 10
1833
 20
5622
 10
1724
 20
5773
 10
1428
 20
6187
 10
1341
 20
6308
 10
1312
 20
6213
 10
1300
 20
6176
 10
1142
 20
6133
 10
1247
 20
5991
 10
1233
 20
5942
 10
1206
 20
5839
 10
1182
 20
5746
 10
1203
 20
5718
 10
1374
 20
5494
 10
1443
 20
5405
 10
1499
 20
5335
 10
1551
 20
5271
 10
1602
 20
5209
 10
1654
 20
5150
 10
1697
 20
5102
 10
1729
 20
5068
 10
1760
 20
5039
 10
1790
 20
5014
 10
1806
 20
5002
 10
1820
 20
4993
 10
1834
 20
4985
 10
1848
 20
4978
 10
1863
 20
4971
 10
1874
 20
4967
 10
1898
 20
4960
 10
1910
 20
4958
 10
1922
 20
4957
 10
1945
 20
4957
 10
1970
 20
4960
 10
1997
 20
4966
 10
2025
 20
4976
 10
2055
 20
4988
 10
2087
 20
5004
 10
2117
 20
5020
 10
2150
 20
5039
 10
2231
 20
5088
 10
2296
 20
5130
 10
2435
 20
5221
 10
2513
 20
5271
 10
2540
 20
5287
 10
2546
 20
5102
 10
2558
 20
4677
 10
2184
 20
4457
 10
2076
 20
4396
 10
2017
 20
4364
 10
1979
 20
4345
 10
1943
 20
4330
 10
1911
 20
4318
 10
1882
 20
4310
 10
1854
 20
4305
 10
1825
 20
4302
 10
1801
 20
4302
 10
1776
 20
4305
 10
1751
 20
4311
 10
1724
 20
4321
 10
1698
 20
4334
 10
1672
 20
4350
 10
1643
 20
4369
 10
1616
 20
4392
 10
1586
 20
4418
 10
1551
 20
4451
 10
1486
 20
4517
 10
1405
 20
4601
 10
1325
 20
4685
 10
1236
 20
4781
 10
1015
 20
5021
 10
1005
 20
4974
 10
950
 20
4733
 10
897
 20
4505
 10
864
 20
4370
 10
926
 20
4304
 10
1199
 20
4014
 10
1307
 20
3903
 10
1359
 20
3852
 10
1404
 20
3808
 10
1445
 20
3770
 10
1483
 20
3738
 10
1519
 20
3710
 10
1555
 20
3686
 10
1589
 20
3667
 10
1607
 20
3658
 10
1623
 20
3651
 10
1638
 20
3645
 10
1653
 20
3640
 10
1669
 20
3636
 10
1684
 20
3633
 10
1700
 20
3631
 10
1715
 20
3630
 10
1728
 20
3630
 10
1745
 20
3631
 10
1761
 20
3633
 10
1778
 20
3635
 10
1794
 20
3639
 10
1814
 20
3645
 10
1830
 20
3650
 10
1850
 20
3658
 10
1890
 20
3676
 10
1932
 20
3698
 10
1977
 20
3725
 10
2027
 20
3757
 10
2088
 20
3799
 10
2150
 20
3842
 10
2217
 20
3891
 10
2370
 20
4005
 10
2574
 20
4159
 10
2585
 20
3788
 10
2595
 20
3476
 10
2304
 20
3240
 10
2158
 20
3123
 10
2018
 20
3012
 10
1931
 20
2944
 10
1872
 20
2899
 10
1822
 20
2864
 10
1771
 20
2832
 10
1746
 20
2818
 10
1726
 20
2807
 10
1685
 20
2787
 10
1664
 20
2779
 10
1644
 20
2772
 10
1624
 20
2766
 10
1603
 20
2761
 10
1583
 20
2757
 10
1568
 20
2755
 10
1548
 20
2753
 10
1533
 20
2753
 10
1518
 20
2754
 10
1499
 20
2756
 10
1482
 20
2759
 10
1466
 20
2763
 10
1449
 20
2768
 10
1428
 20
2776
 10
1412
 20
2783
 10
1392
 20
2793
 10
1371
 20
2805
 10
1351
 20
2817
 10
1332
 20
2831
 10
1312
 20
2846
 10
1292
 20
2861
 10
1269
 20
2881
 10
1228
 20
2919
 10
1169
 20
2978
 10
1077
 20
3075
 10
964
 20
3196
 10
849
 20
3321
 10
746
 20
3434
 10
653
 20
3540
 10
637
 20
3482
 10
590
 20
3311
 10
491
 20
2958
 10
438
 20
2775
 10
297
 20
2732
 10
391
 20
2612
 10
258
 20
2154
 10
123
 20
1691
 10
96
 20
1596
 10
45
 20
1418
 10
0
 20
1259
  0
ENDSEC
  0
SECTION
  2
OBJECTS
  0
DICTIONARY
  5
C
330
0
100
AcDbDictionary
281
    1
  3
ACAD_GROUP
350
D
  0
DICTIONARY
  5
D
330
C
100
AcDbDictionary
281
    1
  0
ENDSEC
  0
EOF
