999
dxfrw 0.6.3
  0
SECTION
  2
HEADER
  9
$ACADVER
  1
AC1027
  9
$DWGCODEPAGE
  3
ANSI_1252
  9
$INSBASE
 10
0
 20
0
 30
0
  9
$EXTMIN
 10
1e+20
 20
1e+20
 30
1e+20
  9
$EXTMAX
 10
-1e+20
 20
-1e+20
 30
-1e+20
  9
$LIMMIN
 10
0
 20
0
  9
$LIMMAX
 10
420
 20
297
  9
$ORTHOMODE
 70
    0
  9
$REGENMODE
 70
    1
  9
$FILLMODE
 70
    1
  9
$QTEXTMODE
 70
    0
  9
$MIRRTEXT
 70
    0
  9
$LTSCALE
 40
1
  9
$ATTMODE
 70
    0
  9
$TEXTSIZE
 40
2.5
  9
$TRACEWID
 40
15.68
  9
$TEXTSTYLE
  7
STANDARD
  9
$CLAYER
  8
0
  9
$CELTYPE
  6
BYLAYER
  9
$CECOLOR
 62
  256
  9
$CELTSCALE
 40
1
  9
$DISPSILH
 70
    0
  9
$DIMSCALE
 40
2.5
  9
$DIMASZ
 40
2.5
  9
$DIMEXO
 40
0.625
  9
$DIMDLI
 40
3.75
  9
$DIMRND
 40
0
  9
$DIMDLE
 40
0
  9
$DIMEXE
 40
1.25
  9
$DIMTP
 40
0
  9
$DIMTM
 40
0
  9
$DIMTXT
 40
2.5
  9
$DIMCEN
 40
2.5
  9
$DIMTSZ
 40
0
  9
$DIMTOL
 70
    0
  9
$DIMLIM
 70
    0
  9
$DIMTIH
 70
    0
  9
$DIMTOH
 70
    0
  9
$DIMSE1
 70
    0
  9
$DIMSE2
 70
    0
  9
$DIMTAD
 70
    1
  9
$DIMZIN
 70
    8
  9
$DIMBLK
  1

  9
$DIMASO
 70
    1
  9
$DIMSHO
 70
    1
  9
$DIMPOST
  1

  9
$DIMAPOST
  1

  9
$DIMALT
 70
    0
  9
$DIMALTD
 70
    3
  9
$DIMALTF
 40
0.03937
  9
$DIMLFAC
 40
1
  9
$DIMTOFL
 70
    1
  9
$DIMTVP
 40
0
  9
$DIMTIX
 70
    0
  9
$DIMSOXD
 70
    0
  9
$DIMSAH
 70
    0
  9
$DIMBLK1
  1

  9
$DIMBLK2
  1

  9
$DIMSTYLE
  2
STANDARD
  9
$DIMCLRD
 70
    0
  9
$DIMCLRE
 70
    0
  9
$DIMCLRT
 70
    0
  9
$DIMTFAC
 40
1
  9
$DIMGAP
 40
0.625
  9
$DIMJUST
 70
    0
  9
$DIMSD1
 70
    0
  9
$DIMSD2
 70
    0
  9
$DIMTOLJ
 70
    0
  9
$DIMTZIN
 70
    8
  9
$DIMALTZ
 70
    0
  9
$DIMALTTZ
 70
    0
  9
$DIMUPT
 70
    0
  9
$DIMDEC
 70
    2
  9
$DIMTDEC
 70
    2
  9
$DIMALTU
 70
    2
  9
$DIMALTTD
 70
    3
  9
$DIMTXSTY
  7
STANDARD
  9
$DIMAUNIT
 70
    0
  9
$DIMADEC
 70
    0
  9
$DIMALTRND
 40
0
  9
$DIMAZIN
 70
    0
  9
$DIMDSEP
 70
   44
  9
$DIMATFIT
 70
    3
  9
$DIMFRAC
 70
    0
  9
$DIMLDRBLK
  1
STANDARD
  9
$DIMLUNIT
 70
    2
  9
$DIMLWD
 70
   -2
  9
$DIMLWE
 70
   -2
  9
$DIMTMOVE
 70
    0
  9
$DIMFXL
 40
1
  9
$DIMFXLON
 70
    0
  9
$DIMJOGANG
 40
0.7854
  9
$DIMTFILL
 70
    0
  9
$DIMTFILLCLR
 70
    0
  9
$DIMARCSYM
 70
    0
  9
$DIMLTYPE
  6

  9
$DIMLTEX1
  6

  9
$DIMLTEX2
  6

  9
$DIMTXTDIRECTION
 70
    0
  9
$LUNITS
 70
    2
  9
$LUPREC
 70
    4
  9
$SKETCHINC
 40
1
  9
$FILLETRAD
 40
0
  9
$AUNITS
 70
    0
  9
$AUPREC
 70
    2
  9
$MENU
  1
.
  9
$ELEVATION
 40
0
  9
$PELEVATION
 40
0
  9
$THICKNESS
 40
0
  9
$LIMCHECK
 70
    0
  9
$CHAMFERA
 40
0
  9
$CHAMFERB
 40
0
  9
$CHAMFERC
 40
0
  9
$CHAMFERD
 40
0
  9
$SKPOLY
 70
    0
  9
$USRTIMER
 70
    1
  9
$ANGBASE
 50
0
  9
$ANGDIR
 70
    0
  9
$PDMODE
 70
   34
  9
$PDSIZE
 40
0
  9
$PLINEWID
 40
0
  9
$SPLFRAME
 70
    0
  9
$SPLINETYPE
 70
    2
  9
$SPLINESEGS
 70
    8
  9
$HANDSEED
  5
20000
  9
$SURFTAB1
 70
    6
  9
$SURFTAB2
 70
    6
  9
$SURFTYPE
 70
    6
  9
$SURFU
 70
    6
  9
$SURFV
 70
    6
  9
$UCSBASE
  2

  9
$UCSNAME
  2

  9
$UCSORG
 10
0
 20
0
 30
0
  9
$UCSXDIR
 10
1
 20
0
 30
0
  9
$UCSYDIR
 10
0
 20
1
 30
0
  9
$UCSORTHOREF
  2

  9
$UCSORTHOVIEW
 70
    0
  9
$UCSORGTOP
 10
0
 20
0
 30
0
  9
$UCSORGBOTTOM
 10
0
 20
0
 30
0
  9
$UCSORGLEFT
 10
0
 20
0
 30
0
  9
$UCSORGRIGHT
 10
0
 20
0
 30
0
  9
$UCSORGFRONT
 10
0
 20
0
 30
0
  9
$UCSORGBACK
 10
0
 20
0
 30
0
  9
$PUCSBASE
  2

  9
$PUCSNAME
  2

  9
$PUCSORG
 10
0
 20
0
 30
0
  9
$PUCSXDIR
 10
1
 20
0
 30
0
  9
$PUCSYDIR
 10
0
 20
1
 30
0
  9
$PUCSORTHOREF
  2

  9
$PUCSORTHOVIEW
 70
    0
  9
$PUCSORGTOP
 10
0
 20
0
 30
0
  9
$PUCSORGBOTTOM
 10
0
 20
0
 30
0
  9
$PUCSORGLEFT
 10
0
 20
0
 30
0
  9
$PUCSORGRIGHT
 10
0
 20
0
 30
0
  9
$PUCSORGFRONT
 10
0
 20
0
 30
0
  9
$PUCSORGBACK
 10
0
 20
0
 30
0
  9
$USERI1
 70
    0
  9
$USERI2
 70
    0
  9
$USERI3
 70
    0
  9
$USERI4
 70
    0
  9
$USERI5
 70
    0
  9
$USERR1
 40
0
  9
$USERR2
 40
0
  9
$USERR3
 40
0
  9
$USERR4
 40
0
  9
$USERR5
 40
0
  9
$WORLDVIEW
 70
    1
  9
$SHADEDGE
 70
    3
  9
$SHADEDIF
 70
   70
  9
$TILEMODE
 70
    1
  9
$MAXACTVP
 70
   64
  9
$PINSBASE
 10
0
 20
0
 30
0
  9
$PLIMCHECK
 70
    0
  9
$PEXTMIN
 10
0
 20
0
 30
0
  9
$PEXTMAX
 10
0
 20
0
 30
0
  9
$PLIMMIN
 10
0
 20
0
  9
$PLIMMAX
 10
297
 20
210
  9
$UNITMODE
 70
    0
  9
$VISRETAIN
 70
    1
  9
$PLINEGEN
 70
    0
  9
$PSLTSCALE
 70
    1
  9
$TREEDEPTH
 70
 3020
  9
$CMLSTYLE
  2
Standard
  9
$CMLJUST
 70
    0
  9
$CMLSCALE
 40
20
  9
$PROXYGRAPHICS
 70
    1
  9
$MEASUREMENT
 70
    1
  9
$CELWEIGHT
370
   -1
  9
$ENDCAPS
280
    0
  9
$JOINSTYLE
280
    0
  9
$LWDISPLAY
290
    0
  9
$INSUNITS
 70
    0
  9
$HYPERLINKBASE
  1

  9
$STYLESHEET
  1

  9
$XEDIT
290
    1
  9
$CEPSNTYPE
380
    0
  9
$PSTYLEMODE
290
    1
  9
$EXTNAMES
290
    1
  9
$PSVPSCALE
 40
0
  9
$OLESTARTUP
290
    0
  9
$SORTENTS
280
  127
  9
$INDEXCTL
280
    0
  9
$HIDETEXT
280
    1
  9
$XCLIPFRAME
280
    0
  9
$HALOGAP
280
    0
  9
$OBSCOLOR
 70
  257
  9
$OBSLTYPE
280
    0
  9
$INTERSECTIONDISPLAY
280
    0
  9
$INTERSECTIONCOLOR
 70
  257
  9
$DIMASSOC
280
    1
  9
$PROJECTNAME
  1

  9
$CAMERADISPLAY
290
    0
  9
$LENSLENGTH
 40
50
  9
$CAMERAHEIGHT
 40
0
  9
$STEPSPERSEC
 40
2
  9
$STEPSIZE
 40
50
  9
$3DDWFPREC
 40
2
  9
$PSOLWIDTH
 40
5
  9
$PSOLHEIGHT
 40
80
  9
$LOFTANG1
 40
1.570796326794897
  9
$LOFTANG2
 40
1.570796326794897
  9
$LOFTMAG1
 40
0
  9
$LOFTMAG2
 40
0
  9
$LOFTPARAM
 70
    7
  9
$LOFTNORMALS
280
    1
  9
$LATITUDE
 40
1
  9
$LONGITUDE
 40
1
  9
$NORTHDIRECTION
 40
0
  9
$TIMEZONE
 70
-8000
  9
$LIGHTGLYPHDISPLAY
280
    1
  9
$TILEMODELIGHTSYNCH
280
    1
  9
$SOLIDHIST
280
    1
  9
$SHOWHIST
280
    1
  9
$DWFFRAME
280
    2
  9
$DGNFRAME
280
    0
  9
$REALWORLDSCALE
290
    1
  9
$INTERFERECOLOR
 62
    1
  9
$CSHADOW
280
    0
  9
$SHADOWPLANELOCATION
 40
0
  0
ENDSEC
  0
SECTION
  2
CLASSES
  0
ENDSEC
  0
SECTION
  2
TABLES
  0
TABLE
  2
VPORT
  5
8
330
0
100
AcDbSymbolTable
 70
    1
  0
VPORT
  5
31
330
2
100
AcDbSymbolTableRecord
100
AcDbViewportTableRecord
  2
*ACTIVE
 70
    0
 10
0
 20
0
 11
1
 21
1
 12
0.651828
 22
-0.16
 13
0
 23
0
 14
10
 24
10
 15
10
 25
10
 16
0
 26
0
 36
1
 17
0
 27
0
 37
0
 40
5.13732
 41
2.4426877
 42
50
 43
0
 44
0
 50
0
 51
0
 71
    0
 72
  100
 73
    1
 74
    3
 75
    0
 76
    0
 77
    0
 78
    0
281
    0
 65
    1
110
0
120
0
130
0
111
1
121
0
131
0
112
0
122
1
132
0
 79
    0
146
0
348
10020
 60
    7
 61
    5
292
1
282
    1
141
0
142
0
 63
  250
421
3358443
  0
ENDTAB
  0
TABLE
  2
LTYPE
  5
5
330
0
100
AcDbSymbolTable
 70
    4
  0
LTYPE
  5
14
330
5
100
AcDbSymbolTableRecord
100
AcDbLinetypeTableRecord
  2
ByBlock
 70
    0
  3

 72
   65
 73
    0
 40
0
  0
LTYPE
  5
15
330
5
100
AcDbSymbolTableRecord
100
AcDbLinetypeTableRecord
  2
ByLayer
 70
    0
  3

 72
   65
 73
    0
 40
0
  0
LTYPE
  5
16
330
5
100
AcDbSymbolTableRecord
100
AcDbLinetypeTableRecord
  2
Continuous
 70
    0
  3
Solid line
 72
   65
 73
    0
 40
0
  0
ENDTAB
  0
TABLE
  2
LAYER
  5
2
330
0
100
AcDbSymbolTable
 70
    1
  0
LAYER
  5
10
330
2
100
AcDbSymbolTableRecord
100
AcDbLayerTableRecord
  2
0
 70
    0
 62
    7
  6
CONTINUOUS
370
   -3
390
F
  0
ENDTAB
  0
TABLE
  2
STYLE
  5
3
330
0
100
AcDbSymbolTable
 70
    3
  0
STYLE
  5
32
330
2
100
AcDbSymbolTableRecord
100
AcDbTextStyleTableRecord
  2
Standard
 70
    0
 40
0
 41
1
 50
0
 71
    0
 42
1
  3
txt
  4

  0
ENDTAB
  0
TABLE
  2
VIEW
  5
6
330
0
100
AcDbSymbolTable
 70
    0
  0
ENDTAB
  0
TABLE
  2
UCS
  5
7
330
0
100
AcDbSymbolTable
 70
    0
  0
ENDTAB
  0
TABLE
  2
APPID
  5
9
330
0
100
AcDbSymbolTable
 70
    1
  0
APPID
  5
12
330
9
100
AcDbSymbolTableRecord
100
AcDbRegAppTableRecord
  2
ACAD
 70
    0
  0
ENDTAB
  0
TABLE
  2
DIMSTYLE
  5
A
330
0
100
AcDbSymbolTable
 70
    1
100
AcDbDimStyleTable
 71
    1
  0
DIMSTYLE
105
33
330
A
100
AcDbSymbolTableRecord
100
AcDbDimStyleTableRecord
  2
Standard
 70
    0
 40
1
 41
0.18
 42
0.0625
 43
0.38
 44
0.18
 45
0
 46
0
 47
0
 48
0
 49
1
140
0.18
141
0.09
142
0
143
25.4
144
1
145
0
146
1
147
0.09
148
0
 71
    0
 72
    0
 73
    0
 74
    1
 75
    0
 76
    0
 77
    0
 78
    0
 79
    0
170
    0
171
    2
172
    0
173
    0
174
    0
175
    0
176
    0
177
    0
178
    0
179
    0
271
    4
272
    4
273
    2
274
    2
275
    0
276
    0
277
    2
278
   46
279
    0
280
    0
281
    0
282
    0
283
    1
284
    0
285
    0
286
    0
288
    0
289
    3
340
32
  0
ENDTAB
  0
TABLE
  2
BLOCK_RECORD
  5
1
330
0
100
AcDbSymbolTable
 70
    2
  0
BLOCK_RECORD
  5
1F
330
1
100
AcDbSymbolTableRecord
100
AcDbBlockTableRecord
  2
*Model_Space
 70
    0
280
    1
281
    0
  0
BLOCK_RECORD
  5
1E
330
1
100
AcDbSymbolTableRecord
100
AcDbBlockTableRecord
  2
*Paper_Space
 70
    0
280
    1
281
    0
  0
ENDTAB
  0
ENDSEC
  0
SECTION
  2
BLOCKS
  0
BLOCK
  5
20
330
1F
100
AcDbEntity
  8
0
100
AcDbBlockBegin
  2
*Model_Space
 70
    0
 10
0
 20
0
 30
0
  3
*Model_Space
  1

  0
ENDBLK
  5
21
330
1F
100
AcDbEntity
  8
0
100
AcDbBlockEnd
  0
BLOCK
  5
1C
330
1B
100
AcDbEntity
  8
0
100
AcDbBlockBegin
  2
*Paper_Space
 70
    0
 10
0
 20
0
 30
0
  3
*Paper_Space
  1

  0
ENDBLK
  5
1D
330
1F
100
AcDbEntity
  8
0
100
AcDbBlockEnd
  0
ENDSEC
  0
SECTION
  2
ENTITIES
  0
LWPOLYLINE
  5
34
100
AcDbEntity
  8
0
  6
BYLAYER
 62
  256
420
  255
370
   -1
100
AcDbPolyline
 90
  794
 70
    1
 43
0
 10
0
 20
1259
 10
35
 20
1264
 10
105
 20
1273
 10
175
 20
1283
 10
245
 20
1295
 10
305
 20
1305
 10
374
 20
1319
 10
433
 20
1331
 10
493
 20
1345
 10
554
 20
1360
 10
614
 20
1376
 10
669
 20
1393
 10
748
 20
1418
 10
822
 20
1444
 10
894
 20
1472
 10
971
 20
1504
 10
1039
 20
1535
 10
1110
 20
1568
 10
1426
 20
1722
 10
1525
 20
1769
 10
1657
 20
1894
 10
1824
 20
2052
 10
2164
 20
2371
 10
2432
 20
2626
 10
2527
 20
2715
 10
2582
 20
2764
 10
2636
 20
2812
 10
2682
 20
2852
 10
2713
 20
2877
 10
2739
 20
2895
 10
2762
 20
2909
 10
2784
 20
2920
 10
2795
 20
2924
 10
2806
 20
2927
 10
2825
 20
2930
 10
2836
 20
2931
 10
2845
 20
2930
 10
2856
 20
2929
 10
2864
 20
2926
 10
2881
 20
2919
 10
2890
 20
2914
 10
2898
 20
2909
 10
2906
 20
2902
 10
2912
 20
2895
 10
2917
 20
2889
 10
2923
 20
2880
 10
2927
 20
2872
 10
2931
 20
2862
 10
2934
 20
2851
 10
2936
 20
2840
 10
2939
 20
2814
 10
2940
 20
2791
 10
2940
 20
2721
 10
2941
 20
2676
 10
2945
 20
2620
 10
2950
 20
2566
 10
2956
 20
2513
 10
2965
 20
2457
 10
2975
 20
2404
 10
2986
 20
2352
 10
2999
 20
2301
 10
3013
 20
2252
 10
3029
 20
2203
 10
3053
 20
2138
 10
3072
 20
2147
 10
3266
 20
2237
 10
3340
 20
2272
 10
3410
 20
2308
 10
3469
 20
2340
 10
3501
 20
2359
 10
3532
 20
2378
 10
3562
 20
2399
 10
3587
 20
2417
 10
3612
 20
2436
 10
3635
 20
2455
 10
3659
 20
2476
 10
3681
 20
2497
 10
3705
 20
2523
 10
3726
 20
2546
 10
3748
 20
2575
 10
3768
 20
2603
 10
3786
 20
2633
 10
3803
 20
2663
 10
3819
 20
2695
 10
3834
 20
2730
 10
3847
 20
2763
 10
3857
 20
2797
 10
3867
 20
2830
 10
3875
 20
2865
 10
3881
 20
2898
 10
3884
 20
2918
 10
3887
 20
2898
 10
3893
 20
2865
 10
3901
 20
2830
 10
3910
 20
2797
 10
3921
 20
2763
 10
3933
 20
2730
 10
3949
 20
2695
 10
3964
 20
2663
 10
3981
 20
2632
 10
3999
 20
2603
 10
4019
 20
2574
 10
4041
 20
2546
 10
4061
 20
2522
 10
4086
 20
2496
 10
4108
 20
2475
 10
4131
 20
2455
 10
4155
 20
2435
 10
4180
 20
2416
 10
4205
 20
2398
 10
4235
 20
2378
 10
4266
 20
2358
 10
4297
 20
2339
 10
4357
 20
2307
 10
4427
 20
2271
 10
4500
 20
2236
 10
4694
 20
2146
 10
4713
 20
2137
 10
4737
 20
2201
 10
4753
 20
2250
 10
4767
 20
2299
 10
4780
 20
2350
 10
4792
 20
2402
 10
4802
 20
2455
 10
4810
 20
2511
 10
4817
 20
2564
 10
4822
 20
2618
 10
4826
 20
2674
 10
4827
 20
2719
 10
4827
 20
2789
 10
4828
 20
2812
 10
4831
 20
2838
 10
4834
 20
2849
 10
4837
 20
2860
 10
4840
 20
2870
 10
4845
 20
2878
 10
4850
 20
2887
 10
4855
 20
2893
 10
4862
 20
2900
 10
4870
 20
2907
 10
4878
 20
2912
 10
4887
 20
2917
 10
4903
 20
2924
 10
4912
 20
2926
 10
4923
 20
2928
 10
4932
 20
2929
 10
4942
 20
2928
 10
4962
 20
2925
 10
4973
 20
2922
 10
4984
 20
2917
 10
5005
 20
2907
 10
5029
 20
2893
 10
5054
 20
2874
 10
5085
 20
2849
 10
5132
 20
2809
 10
5185
 20
2762
 10
5240
 20
2712
 10
5335
 20
2623
 10
5603
 20
2367
 10
5942
 20
2047
 10
6108
 20
1890
 10
6240
 20
1764
 10
6339
 20
1717
 10
6654
 20
1563
 10
6726
 20
1529
 10
6794
 20
1498
 10
6870
 20
1466
 10
6942
 20
1438
 10
7016
 20
1411
 10
7095
 20
1386
 10
7151
 20
1369
 10
7211
 20
1353
 10
7271
 20
1338
 10
7331
 20
1324
 10
7390
 20
1311
 10
7460
 20
1297
 10
7519
 20
1287
 10
7589
 20
1275
 10
7659
 20
1265
 10
7729
 20
1255
 10
7764
 20
1251
 10
7720
 20
1409
 10
7642
 20
1683
 10
7508
 20
2147
 10
7376
 20
2604
 10
7471
 20
2724
 10
7329
 20
2768
 10
7277
 20
2951
 10
7178
 20
3304
 10
7132
 20
3475
 10
7116
 20
3533
 10
7022
 20
3428
 10
6920
 20
3314
 10
6805
 20
3190
 10
6691
 20
3069
 10
6599
 20
2972
 10
6540
 20
2914
 10
6498
 20
2876
 10
6475
 20
2856
 10
6456
 20
2840
 10
6436
 20
2826
 10
6416
 20
2812
 10
6396
 20
2799
 10
6376
 20
2788
 10
6355
 20
2778
 10
6339
 20
2770
 10
6318
 20
2763
 10
6302
 20
2758
 10
6285
 20
2753
 10
6268
 20
2750
 10
6249
 20
2749
 10
6234
 20
2748
 10
6219
 20
2748
 10
6199
 20
2750
 10
6184
 20
2752
 10
6164
 20
2756
 10
6144
 20
2761
 10
6123
 20
2767
 10
6103
 20
2774
 10
6083
 20
2783
 10
6042
 20
2802
 10
6022
 20
2813
 10
5996
 20
2828
 10
5946
 20
2860
 10
5896
 20
2895
 10
5837
 20
2939
 10
5750
 20
3008
 10
5610
 20
3119
 10
5464
 20
3237
 10
5174
 20
3473
 10
5184
 20
3786
 10
5196
 20
4156
 10
5400
 20
4002
 10
5553
 20
3887
 10
5620
 20
3839
 10
5682
 20
3795
 10
5743
 20
3753
 10
5793
 20
3721
 10
5837
 20
3694
 10
5880
 20
3671
 10
5919
 20
3653
 10
5939
 20
3646
 10
5955
 20
3640
 10
5975
 20
3635
 10
5992
 20
3631
 10
6008
 20
3628
 10
6024
 20
3626
 10
6041
 20
3625
 10
6054
 20
3626
 10
6069
 20
3627
 10
6085
 20
3629
 10
6100
 20
3632
 10
6116
 20
3636
 10
6131
 20
3641
 10
6147
 20
3646
 10
6162
 20
3653
 10
6181
 20
3662
 10
6214
 20
3681
 10
6251
 20
3705
 10
6286
 20
3733
 10
6325
 20
3765
 10
6366
 20
3803
 10
6411
 20
3846
 10
6463
 20
3897
 10
6571
 20
4009
 10
6844
 20
4298
 10
6906
 20
4363
 10
6874
 20
4499
 10
6822
 20
4727
 10
6767
 20
4968
 10
6757
 20
5015
 10
6535
 20
4775
 10
6446
 20
4680
 10
6366
 20
4595
 10
6285
 20
4512
 10
6219
 20
4446
 10
6185
 20
4413
 10
6155
 20
4387
 10
6127
 20
4365
 10
6099
 20
4345
 10
6073
 20
4329
 10
6046
 20
4316
 10
6019
 20
4307
 10
5995
 20
4301
 10
5970
 20
4298
 10
5945
 20
4298
 10
5917
 20
4300
 10
5888
 20
4306
 10
5859
 20
4314
 10
5827
 20
4326
 10
5792
 20
4341
 10
5754
 20
4360
 10
5694
 20
4392
 10
5586
 20
4454
 10
5213
 20
4674
 10
5227
 20
5099
 10
5233
 20
5285
 10
5259
 20
5268
 10
5337
 20
5218
 10
5476
 20
5126
 10
5542
 20
5084
 10
5622
 20
5035
 10
5656
 20
5016
 10
5685
 20
5000
 10
5717
 20
4984
 10
5747
 20
4972
 10
5775
 20
4962
 10
5802
 20
4956
 10
5827
 20
4953
 10
5850
 20
4953
 10
5862
 20
4954
 10
5874
 20
4956
 10
5898
 20
4963
 10
5909
 20
4967
 10
5924
 20
4973
 10
5938
 20
4981
 10
5952
 20
4989
 10
5966
 20
4998
 10
5982
 20
5010
 10
6012
 20
5034
 10
6043
 20
5064
 10
6076
 20
5098
 10
6118
 20
5145
 10
6170
 20
5204
 10
6222
 20
5266
 10
6274
 20
5330
 10
6330
 20
5400
 10
6399
 20
5489
 10
6571
 20
5712
 10
6591
 20
5740
 10
6568
 20
5834
 10
6541
 20
5936
 10
6527
 20
5985
 10
6632
 20
6127
 10
6474
 20
6171
 10
6463
 20
6208
 10
6434
 20
6302
 10
6347
 20
6182
 10
6050
 20
5768
 10
5941
 20
5618
 10
5915
 20
5585
 10
5893
 20
5560
 10
5881
 20
5548
 10
5871
 20
5539
 10
5860
 20
5531
 10
5850
 20
5524
 10
5837
 20
5517
 10
5825
 20
5512
 10
5813
 20
5509
 10
5801
 20
5506
 10
5786
 20
5505
 10
5772
 20
5505
 10
5757
 20
5507
 10
5740
 20
5509
 10
5723
 20
5513
 10
5703
 20
5519
 10
5683
 20
5526
 10
5658
 20
5535
 10
5604
 20
5557
 10
5553
 20
5582
 10
5506
 20
5608
 10
5461
 20
5636
 10
5427
 20
5661
 10
5410
 20
5674
 10
5396
 20
5686
 10
5384
 20
5699
 10
5373
 20
5711
 10
5362
 20
5725
 10
5353
 20
5738
 10
5346
 20
5751
 10
5339
 20
5765
 10
5334
 20
5778
 10
5330
 20
5793
 10
5327
 20
5806
 10
5325
 20
5822
 10
5324
 20
5839
 10
5324
 20
5855
 10
5325
 20
5872
 10
5326
 20
5890
 10
5332
 20
5927
 10
5341
 20
5969
 10
5355
 20
6018
 10
5375
 20
6084
 10
5398
 20
6150
 10
5421
 20
6213
 10
5446
 20
6276
 10
5474
 20
6342
 10
5503
 20
6406
 10
5535
 20
6475
 10
5574
 20
6554
 10
5613
 20
6629
 10
5652
 20
6704
 10
5685
 20
6763
 10
5722
 20
6827
 10
5757
 20
6886
 10
5789
 20
6940
 10
5823
 20
6992
 10
5860
 20
7049
 10
5896
 20
7101
 10
5937
 20
7160
 10
5974
 20
7211
 10
6017
 20
7269
 10
6046
 20
7307
 10
6014
 20
7374
 10
5963
 20
7477
 10
5913
 20
7570
 10
5860
 20
7662
 10
5831
 20
7711
 10
5806
 20
7751
 10
5722
 20
7644
 10
5597
 20
7481
 10
5539
 20
7403
 10
5481
 20
7325
 10
5425
 20
7247
 10
5369
 20
7168
 10
5284
 20
7045
 10
5270
 20
7030
 10
5254
 20
7019
 10
5236
 20
7012
 10
5216
 20
7010
 10
5197
 20
7013
 10
5178
 20
7021
 10
5163
 20
7032
 10
5150
 20
7048
 10
5141
 20
7065
 10
5116
 20
7136
 10
5084
 20
7218
 10
5051
 20
7299
 10
5022
 20
7270
 10
5001
 20
7247
 10
4977
 20
7219
 10
4959
 20
7194
 10
4943
 20
7169
 10
4928
 20
7143
 10
4915
 20
7115
 10
4905
 20
7092
 10
4897
 20
7070
 10
4889
 20
7045
 10
4884
 20
7022
 10
4878
 20
6995
 10
4873
 20
6968
 10
4869
 20
6941
 10
4866
 20
6909
 10
4863
 20
6877
 10
4861
 20
6833
 10
4859
 20
6784
 10
4856
 20
6521
 10
4852
 20
6368
 10
4849
 20
6283
 10
4845
 20
6205
 10
4842
 20
6166
 10
4839
 20
6135
 10
4835
 20
6107
 10
4830
 20
6080
 10
4823
 20
6057
 10
4816
 20
6038
 10
4807
 20
6020
 10
4796
 20
6003
 10
4783
 20
5988
 10
4770
 20
5976
 10
4753
 20
5965
 10
4735
 20
5955
 10
4716
 20
5948
 10
4697
 20
5943
 10
4679
 20
5941
 10
4659
 20
5941
 10
4639
 20
5944
 10
4617
 20
5949
 10
4597
 20
5955
 10
4575
 20
5964
 10
4553
 20
5975
 10
4529
 20
5989
 10
4491
 20
6013
 10
4404
 20
6071
 10
4359
 20
6101
 10
4318
 20
6126
 10
4279
 20
6149
 10
4244
 20
6167
 10
4212
 20
6183
 10
4178
 20
6198
 10
4144
 20
6211
 10
4101
 20
6225
 10
4061
 20
6237
 10
4019
 20
6246
 10
3976
 20
6253
 10
3936
 20
6257
 10
3887
 20
6259
 10
3839
 20
6257
 10
3798
 20
6253
 10
3755
 20
6246
 10
3714
 20
6237
 10
3673
 20
6226
 10
3631
 20
6212
 10
3596
 20
6198
 10
3563
 20
6184
 10
3531
 20
6168
 10
3496
 20
6150
 10
3457
 20
6127
 10
3416
 20
6102
 10
3370
 20
6072
 10
3283
 20
6014
 10
3245
 20
5990
 10
3221
 20
5977
 10
3199
 20
5966
 10
3177
 20
5957
 10
3157
 20
5950
 10
3135
 20
5945
 10
3115
 20
5943
 10
3095
 20
5943
 10
3077
 20
5945
 10
3058
 20
5950
 10
3039
 20
5957
 10
3021
 20
5966
 10
3005
 20
5978
 10
2991
 20
5990
 10
2979
 20
6005
 10
2968
 20
6022
 10
2959
 20
6040
 10
2951
 20
6059
 10
2945
 20
6082
 10
2939
 20
6109
 10
2935
 20
6137
 10
2932
 20
6168
 10
2930
 20
6207
 10
2926
 20
6285
 10
2923
 20
6370
 10
2920
 20
6523
 10
2916
 20
6786
 10
2915
 20
6835
 10
2913
 20
6879
 10
2910
 20
6911
 10
2907
 20
6943
 10
2903
 20
6970
 10
2898
 20
6998
 10
2893
 20
7024
 10
2887
 20
7047
 10
2879
 20
7072
 10
2872
 20
7094
 10
2862
 20
7118
 10
2849
 20
7145
 10
2834
 20
7171
 10
2817
 20
7197
 10
2799
 20
7221
 10
2776
 20
7250
 10
2755
 20
7273
 10
2726
 20
7302
 10
2693
 20
7221
 10
2661
 20
7138
 10
2636
 20
7068
 10
2626
 20
7050
 10
2614
 20
7035
 10
2598
 20
7023
 10
2580
 20
7016
 10
2560
 20
7013
 10
2541
 20
7015
 10
2522
 20
7022
 10
2506
 20
7033
 10
2493
 20
7048
 10
2408
 20
7171
 10
2352
 20
7250
 10
2296
 20
7328
 10
2238
 20
7407
 10
2180
 20
7485
 10
2056
 20
7647
 10
1972
 20
7755
 10
1947
 20
7715
 10
1917
 20
7666
 10
1865
 20
7575
 10
1815
 20
7482
 10
1763
 20
7379
 10
1731
 20
7312
 10
1760
 20
7274
 10
1803
 20
7216
 10
1840
 20
7165
 10
1881
 20
7106
 10
1916
 20
7053
 10
1953
 20
6997
 10
1987
 20
6944
 10
2019
 20
6890
 10
2054
 20
6831
 10
2091
 20
6767
 10
2123
 20
6707
 10
2163
 20
6633
 10
2201
 20
6558
 10
2240
 20
6479
 10
2272
 20
6410
 10
2301
 20
6345
 10
2329
 20
6279
 10
2353
 20
6217
 10
2377
 20
6153
 10
2399
 20
6087
 10
2419
 20
6022
 10
2433
 20
5972
 10
2442
 20
5931
 10
2448
 20
5893
 10
2449
 20
5875
 10
2450
 20
5859
 10
2450
 20
5842
 10
2449
 20
5825
 10
2446
 20
5809
 10
2444
 20
5796
 10
2439
 20
5781
 10
2435
 20
5768
 10
2428
 20
5754
 10
2420
 20
5741
 10
2412
 20
5728
 10
2401
 20
5714
 10
2390
 20
5703
 10
2377
 20
5690
 10
2363
 20
5677
 10
2347
 20
5664
 10
2312
 20
5639
 10
2268
 20
5611
 10
2220
 20
5585
 10
2170
 20
5561
 10
2115
 20
5539
 10
2090
 20
5529
 10
2070
 20
5523
 10
2050
 20
5517
 10
2033
 20
5513
 10
2016
 20
5511
 10
2001
 20
5509
 10
1987
 20
5509
 10
1973
 20
5510
 10
1960
 20
5513
 10
1948
 20
5516
 10
1936
 20
5521
 10
1923
 20
5529
 10
1913
 20
5535
 10
1902
 20
5543
 10
1892
 20
5552
 10
1880
 20
5564
 10
1858
 20
5589
 10
1833
 20
5622
 10
1724
 20
5773
 10
1428
 20
6187
 10
1341
 20
6308
 10
1312
 20
6213
 10
1300
 20
6176
 10
1142
 20
6133
 10
1247
 20
5991
 10
1233
 20
5942
 10
1206
 20
5839
 10
1182
 20
5746
 10
1203
 20
5718
 10
1374
 20
5494
 10
1443
 20
5405
 10
1499
 20
5335
 10
1551
 20
5271
 10
1602
 20
5209
 10
1654
 20
5150
 10
1697
 20
5102
 10
1729
 20
5068
 10
1760
 20
5039
 10
1790
 20
5014
 10
1806
 20
5002
 10
1820
 20
4993
 10
1834
 20
4985
 10
1848
 20
4978
 10
1863
 20
4971
 10
1874
 20
4967
 10
1898
 20
4960
 10
1910
 20
4958
 10
1922
 20
4957
 10
1945
 20
4957
 10
1970
 20
4960
 10
1997
 20
4966
 10
2025
 20
4976
 10
2055
 20
4988
 10
2087
 20
5004
 10
2117
 20
5020
 10
2150
 20
5039
 10
2231
 20
5088
 10
2296
 20
5130
 10
2435
 20
5221
 10
2513
 20
5271
 10
2540
 20
5287
 10
2546
 20
5102
 10
2558
 20
4677
 10
2184
 20
4457
 10
2076
 20
4396
 10
2017
 20
4364
 10
1979
 20
4345
 10
1943
 20
4330
 10
1911
 20
4318
 10
1882
 20
4310
 10
1854
 20
4305
 10
1825
 20
4302
 10
1801
 20
4302
 10
1776
 20
4305
 10
1751
 20
4311
 10
1724
 20
4321
 10
1698
 20
4334
 10
1672
 20
4350
 10
1643
 20
4369
 10
1616
 20
4392
 10
1586
 20
4418
 10
1551
 20
4451
 10
1486
 20
4517
 10
1405
 20
4601
 10
1325
 20
4685
 10
1236
 20
4781
 10
1015
 20
5021
 10
1005
 20
4974
 10
950
 20
4733
 10
897
 20
4505
 10
864
 20
4370
 10
926
 20
4304
 10
1199
 20
4014
 10
1307
 20
3903
 10
1359
 20
3852
 10
1404
 20
3808
 10
1445
 20
3770
 10
1483
 20
3738
 10
1519
 20
3710
 10
1555
 20
3686
 10
1589
 20
3667
 10
1607
 20
3658
 10
1623
 20
3651
 10
1638
 20
3645
 10
1653
 20
3640
 10
1669
 20
3636
 10
1684
 20
3633
 10
1700
 20
3631
 10
1715
 20
3630
 10
1728
 20
3630
 10
1745
 20
3631
 10
1761
 20
3633
 10
1778
 20
3635
 10
1794
 20
3639
 10
1814
 20
3645
 10
1830
 20
3650
 10
1850
 20
3658
 10
1890
 20
3676
 10
1932
 20
3698
 10
1977
 20
3725
 10
2027
 20
3757
 10
2088
 20
3799
 10
2150
 20
3842
 10
2217
 20
3891
 10
2370
 20
4005
 10
2574
 20
4159
 10
2585
 20
3788
 10
2595
 20
3476
 10
2304
 20
3240
 10
2158
 20
3123
 10
2018
 20
3012
 10
1931
 20
2944
 10
1872
 20
2899
 10
1822
 20
2864
 10
1771
 20
2832
 10
1746
 20
2818
 10
1726
 20
2807
 10
1685
 20
2787
 10
1664
 20
2779
 10
1644
 20
2772
 10
1624
 20
2766
 10
1603
 20
2761
 10
1583
 20
2757
 10
1568
 20
2755
 10
1548
 20
2753
 10
1533
 20
2753
 10
1518
 20
2754
 10
1499
 20
2756
 10
1482
 20
2759
 10
1466
 20
2763
 10
1449
 20
2768
 10
1428
 20
2776
 10
1412
 20
2783
 10
1392
 20
2793
 10
1371
 20
2805
 10
1351
 20
2817
 10
1332
 20
2831
 10
1312
 20
2846
 10
1292
 20
2861
 10
1269
 20
2881
 10
1228
 20
2919
 10
1169
 20
2978
 10
1077
 20
3075
 10
964
 20
3196
 10
849
 20
3321
 10
746
 20
3434
 10
653
 20
3540
 10
637
 20
3482
 10
590
 20
3311
 10
491
 20
2958
 10
438
 20
2775
 10
297
 20
2732
 10
391
 20
2612
 10
258
 20
2154
 10
123
 20
1691
 10
45
 20
1418
 10
0
 20
1259
 10
0
 20
1259
  0
ENDSEC
  0
SECTION
  2
OBJECTS
  0
DICTIONARY
  5
C
330
0
100
AcDbDictionary
281
    1
  3
ACAD_GROUP
350
D
  0
DICTIONARY
  5
D
330
C
100
AcDbDictionary
281
    1
  0
ENDSEC
  0
EOF
