999
dxfrw 0.6.3
  0
SECTION
  2
HEADER
  9
$ACADVER
  1
AC1027
  9
$DWGCODEPAGE
  3
ANSI_1252
  9
$INSBASE
 10
0
 20
0
 30
0
  9
$EXTMIN
 10
1e+20
 20
1e+20
 30
1e+20
  9
$EXTMAX
 10
-1e+20
 20
-1e+20
 30
-1e+20
  9
$LIMMIN
 10
0
 20
0
  9
$LIMMAX
 10
420
 20
297
  9
$ORTHOMODE
 70
    0
  9
$REGENMODE
 70
    1
  9
$FILLMODE
 70
    1
  9
$QTEXTMODE
 70
    0
  9
$MIRRTEXT
 70
    0
  9
$LTSCALE
 40
1
  9
$ATTMODE
 70
    0
  9
$TEXTSIZE
 40
2.5
  9
$TRACEWID
 40
15.68
  9
$TEXTSTYLE
  7
STANDARD
  9
$CLAYER
  8
0
  9
$CELTYPE
  6
BYLAYER
  9
$CECOLOR
 62
  256
  9
$CELTSCALE
 40
1
  9
$DISPSILH
 70
    0
  9
$DIMSCALE
 40
2.5
  9
$DIMASZ
 40
2.5
  9
$DIMEXO
 40
0.625
  9
$DIMDLI
 40
3.75
  9
$DIMRND
 40
0
  9
$DIMDLE
 40
0
  9
$DIMEXE
 40
1.25
  9
$DIMTP
 40
0
  9
$DIMTM
 40
0
  9
$DIMTXT
 40
2.5
  9
$DIMCEN
 40
2.5
  9
$DIMTSZ
 40
0
  9
$DIMTOL
 70
    0
  9
$DIMLIM
 70
    0
  9
$DIMTIH
 70
    0
  9
$DIMTOH
 70
    0
  9
$DIMSE1
 70
    0
  9
$DIMSE2
 70
    0
  9
$DIMTAD
 70
    1
  9
$DIMZIN
 70
    8
  9
$DIMBLK
  1

  9
$DIMASO
 70
    1
  9
$DIMSHO
 70
    1
  9
$DIMPOST
  1

  9
$DIMAPOST
  1

  9
$DIMALT
 70
    0
  9
$DIMALTD
 70
    3
  9
$DIMALTF
 40
0.03937
  9
$DIMLFAC
 40
1
  9
$DIMTOFL
 70
    1
  9
$DIMTVP
 40
0
  9
$DIMTIX
 70
    0
  9
$DIMSOXD
 70
    0
  9
$DIMSAH
 70
    0
  9
$DIMBLK1
  1

  9
$DIMBLK2
  1

  9
$DIMSTYLE
  2
STANDARD
  9
$DIMCLRD
 70
    0
  9
$DIMCLRE
 70
    0
  9
$DIMCLRT
 70
    0
  9
$DIMTFAC
 40
1
  9
$DIMGAP
 40
0.625
  9
$DIMJUST
 70
    0
  9
$DIMSD1
 70
    0
  9
$DIMSD2
 70
    0
  9
$DIMTOLJ
 70
    0
  9
$DIMTZIN
 70
    8
  9
$DIMALTZ
 70
    0
  9
$DIMALTTZ
 70
    0
  9
$DIMUPT
 70
    0
  9
$DIMDEC
 70
    2
  9
$DIMTDEC
 70
    2
  9
$DIMALTU
 70
    2
  9
$DIMALTTD
 70
    3
  9
$DIMTXSTY
  7
STANDARD
  9
$DIMAUNIT
 70
    0
  9
$DIMADEC
 70
    0
  9
$DIMALTRND
 40
0
  9
$DIMAZIN
 70
    0
  9
$DIMDSEP
 70
   44
  9
$DIMATFIT
 70
    3
  9
$DIMFRAC
 70
    0
  9
$DIMLDRBLK
  1
STANDARD
  9
$DIMLUNIT
 70
    2
  9
$DIMLWD
 70
   -2
  9
$DIMLWE
 70
   -2
  9
$DIMTMOVE
 70
    0
  9
$DIMFXL
 40
1
  9
$DIMFXLON
 70
    0
  9
$DIMJOGANG
 40
0.7854
  9
$DIMTFILL
 70
    0
  9
$DIMTFILLCLR
 70
    0
  9
$DIMARCSYM
 70
    0
  9
$DIMLTYPE
  6

  9
$DIMLTEX1
  6

  9
$DIMLTEX2
  6

  9
$DIMTXTDIRECTION
 70
    0
  9
$LUNITS
 70
    2
  9
$LUPREC
 70
    4
  9
$SKETCHINC
 40
1
  9
$FILLETRAD
 40
0
  9
$AUNITS
 70
    0
  9
$AUPREC
 70
    2
  9
$MENU
  1
.
  9
$ELEVATION
 40
0
  9
$PELEVATION
 40
0
  9
$THICKNESS
 40
0
  9
$LIMCHECK
 70
    0
  9
$CHAMFERA
 40
0
  9
$CHAMFERB
 40
0
  9
$CHAMFERC
 40
0
  9
$CHAMFERD
 40
0
  9
$SKPOLY
 70
    0
  9
$USRTIMER
 70
    1
  9
$ANGBASE
 50
0
  9
$ANGDIR
 70
    0
  9
$PDMODE
 70
   34
  9
$PDSIZE
 40
0
  9
$PLINEWID
 40
0
  9
$SPLFRAME
 70
    0
  9
$SPLINETYPE
 70
    2
  9
$SPLINESEGS
 70
    8
  9
$HANDSEED
  5
20000
  9
$SURFTAB1
 70
    6
  9
$SURFTAB2
 70
    6
  9
$SURFTYPE
 70
    6
  9
$SURFU
 70
    6
  9
$SURFV
 70
    6
  9
$UCSBASE
  2

  9
$UCSNAME
  2

  9
$UCSORG
 10
0
 20
0
 30
0
  9
$UCSXDIR
 10
1
 20
0
 30
0
  9
$UCSYDIR
 10
0
 20
1
 30
0
  9
$UCSORTHOREF
  2

  9
$UCSORTHOVIEW
 70
    0
  9
$UCSORGTOP
 10
0
 20
0
 30
0
  9
$UCSORGBOTTOM
 10
0
 20
0
 30
0
  9
$UCSORGLEFT
 10
0
 20
0
 30
0
  9
$UCSORGRIGHT
 10
0
 20
0
 30
0
  9
$UCSORGFRONT
 10
0
 20
0
 30
0
  9
$UCSORGBACK
 10
0
 20
0
 30
0
  9
$PUCSBASE
  2

  9
$PUCSNAME
  2

  9
$PUCSORG
 10
0
 20
0
 30
0
  9
$PUCSXDIR
 10
1
 20
0
 30
0
  9
$PUCSYDIR
 10
0
 20
1
 30
0
  9
$PUCSORTHOREF
  2

  9
$PUCSORTHOVIEW
 70
    0
  9
$PUCSORGTOP
 10
0
 20
0
 30
0
  9
$PUCSORGBOTTOM
 10
0
 20
0
 30
0
  9
$PUCSORGLEFT
 10
0
 20
0
 30
0
  9
$PUCSORGRIGHT
 10
0
 20
0
 30
0
  9
$PUCSORGFRONT
 10
0
 20
0
 30
0
  9
$PUCSORGBACK
 10
0
 20
0
 30
0
  9
$USERI1
 70
    0
  9
$USERI2
 70
    0
  9
$USERI3
 70
    0
  9
$USERI4
 70
    0
  9
$USERI5
 70
    0
  9
$USERR1
 40
0
  9
$USERR2
 40
0
  9
$USERR3
 40
0
  9
$USERR4
 40
0
  9
$USERR5
 40
0
  9
$WORLDVIEW
 70
    1
  9
$SHADEDGE
 70
    3
  9
$SHADEDIF
 70
   70
  9
$TILEMODE
 70
    1
  9
$MAXACTVP
 70
   64
  9
$PINSBASE
 10
0
 20
0
 30
0
  9
$PLIMCHECK
 70
    0
  9
$PEXTMIN
 10
0
 20
0
 30
0
  9
$PEXTMAX
 10
0
 20
0
 30
0
  9
$PLIMMIN
 10
0
 20
0
  9
$PLIMMAX
 10
297
 20
210
  9
$UNITMODE
 70
    0
  9
$VISRETAIN
 70
    1
  9
$PLINEGEN
 70
    0
  9
$PSLTSCALE
 70
    1
  9
$TREEDEPTH
 70
 3020
  9
$CMLSTYLE
  2
Standard
  9
$CMLJUST
 70
    0
  9
$CMLSCALE
 40
20
  9
$PROXYGRAPHICS
 70
    1
  9
$MEASUREMENT
 70
    1
  9
$CELWEIGHT
370
   -1
  9
$ENDCAPS
280
    0
  9
$JOINSTYLE
280
    0
  9
$LWDISPLAY
290
    0
  9
$INSUNITS
 70
    0
  9
$HYPERLINKBASE
  1

  9
$STYLESHEET
  1

  9
$XEDIT
290
    1
  9
$CEPSNTYPE
380
    0
  9
$PSTYLEMODE
290
    1
  9
$EXTNAMES
290
    1
  9
$PSVPSCALE
 40
0
  9
$OLESTARTUP
290
    0
  9
$SORTENTS
280
  127
  9
$INDEXCTL
280
    0
  9
$HIDETEXT
280
    1
  9
$XCLIPFRAME
280
    0
  9
$HALOGAP
280
    0
  9
$OBSCOLOR
 70
  257
  9
$OBSLTYPE
280
    0
  9
$INTERSECTIONDISPLAY
280
    0
  9
$INTERSECTIONCOLOR
 70
  257
  9
$DIMASSOC
280
    1
  9
$PROJECTNAME
  1

  9
$CAMERADISPLAY
290
    0
  9
$LENSLENGTH
 40
50
  9
$CAMERAHEIGHT
 40
0
  9
$STEPSPERSEC
 40
2
  9
$STEPSIZE
 40
50
  9
$3DDWFPREC
 40
2
  9
$PSOLWIDTH
 40
5
  9
$PSOLHEIGHT
 40
80
  9
$LOFTANG1
 40
1.570796326794897
  9
$LOFTANG2
 40
1.570796326794897
  9
$LOFTMAG1
 40
0
  9
$LOFTMAG2
 40
0
  9
$LOFTPARAM
 70
    7
  9
$LOFTNORMALS
280
    1
  9
$LATITUDE
 40
1
  9
$LONGITUDE
 40
1
  9
$NORTHDIRECTION
 40
0
  9
$TIMEZONE
 70
-8000
  9
$LIGHTGLYPHDISPLAY
280
    1
  9
$TILEMODELIGHTSYNCH
280
    1
  9
$SOLIDHIST
280
    1
  9
$SHOWHIST
280
    1
  9
$DWFFRAME
280
    2
  9
$DGNFRAME
280
    0
  9
$REALWORLDSCALE
290
    1
  9
$INTERFERECOLOR
 62
    1
  9
$CSHADOW
280
    0
  9
$SHADOWPLANELOCATION
 40
0
  0
ENDSEC
  0
SECTION
  2
CLASSES
  0
ENDSEC
  0
SECTION
  2
TABLES
  0
TABLE
  2
VPORT
  5
8
330
0
100
AcDbSymbolTable
 70
    1
  0
VPORT
  5
31
330
2
100
AcDbSymbolTableRecord
100
AcDbViewportTableRecord
  2
*ACTIVE
 70
    0
 10
0
 20
0
 11
1
 21
1
 12
0.651828
 22
-0.16
 13
0
 23
0
 14
10
 24
10
 15
10
 25
10
 16
0
 26
0
 36
1
 17
0
 27
0
 37
0
 40
5.13732
 41
2.4426877
 42
50
 43
0
 44
0
 50
0
 51
0
 71
    0
 72
  100
 73
    1
 74
    3
 75
    0
 76
    0
 77
    0
 78
    0
281
    0
 65
    1
110
0
120
0
130
0
111
1
121
0
131
0
112
0
122
1
132
0
 79
    0
146
0
348
10020
 60
    7
 61
    5
292
1
282
    1
141
0
142
0
 63
  250
421
3358443
  0
ENDTAB
  0
TABLE
  2
LTYPE
  5
5
330
0
100
AcDbSymbolTable
 70
    4
  0
LTYPE
  5
14
330
5
100
AcDbSymbolTableRecord
100
AcDbLinetypeTableRecord
  2
ByBlock
 70
    0
  3

 72
   65
 73
    0
 40
0
  0
LTYPE
  5
15
330
5
100
AcDbSymbolTableRecord
100
AcDbLinetypeTableRecord
  2
ByLayer
 70
    0
  3

 72
   65
 73
    0
 40
0
  0
LTYPE
  5
16
330
5
100
AcDbSymbolTableRecord
100
AcDbLinetypeTableRecord
  2
Continuous
 70
    0
  3
Solid line
 72
   65
 73
    0
 40
0
  0
ENDTAB
  0
TABLE
  2
LAYER
  5
2
330
0
100
AcDbSymbolTable
 70
    1
  0
LAYER
  5
10
330
2
100
AcDbSymbolTableRecord
100
AcDbLayerTableRecord
  2
0
 70
    0
 62
    7
  6
CONTINUOUS
370
   -3
390
F
  0
ENDTAB
  0
TABLE
  2
STYLE
  5
3
330
0
100
AcDbSymbolTable
 70
    3
  0
STYLE
  5
32
330
2
100
AcDbSymbolTableRecord
100
AcDbTextStyleTableRecord
  2
Standard
 70
    0
 40
0
 41
1
 50
0
 71
    0
 42
1
  3
txt
  4

  0
ENDTAB
  0
TABLE
  2
VIEW
  5
6
330
0
100
AcDbSymbolTable
 70
    0
  0
ENDTAB
  0
TABLE
  2
UCS
  5
7
330
0
100
AcDbSymbolTable
 70
    0
  0
ENDTAB
  0
TABLE
  2
APPID
  5
9
330
0
100
AcDbSymbolTable
 70
    1
  0
APPID
  5
12
330
9
100
AcDbSymbolTableRecord
100
AcDbRegAppTableRecord
  2
ACAD
 70
    0
  0
ENDTAB
  0
TABLE
  2
DIMSTYLE
  5
A
330
0
100
AcDbSymbolTable
 70
    1
100
AcDbDimStyleTable
 71
    1
  0
DIMSTYLE
105
33
330
A
100
AcDbSymbolTableRecord
100
AcDbDimStyleTableRecord
  2
Standard
 70
    0
 40
1
 41
0.18
 42
0.0625
 43
0.38
 44
0.18
 45
0
 46
0
 47
0
 48
0
 49
1
140
0.18
141
0.09
142
0
143
25.4
144
1
145
0
146
1
147
0.09
148
0
 71
    0
 72
    0
 73
    0
 74
    1
 75
    0
 76
    0
 77
    0
 78
    0
 79
    0
170
    0
171
    2
172
    0
173
    0
174
    0
175
    0
176
    0
177
    0
178
    0
179
    0
271
    4
272
    4
273
    2
274
    2
275
    0
276
    0
277
    2
278
   46
279
    0
280
    0
281
    0
282
    0
283
    1
284
    0
285
    0
286
    0
288
    0
289
    3
340
32
  0
ENDTAB
  0
TABLE
  2
BLOCK_RECORD
  5
1
330
0
100
AcDbSymbolTable
 70
    2
  0
BLOCK_RECORD
  5
1F
330
1
100
AcDbSymbolTableRecord
100
AcDbBlockTableRecord
  2
*Model_Space
 70
    0
280
    1
281
    0
  0
BLOCK_RECORD
  5
1E
330
1
100
AcDbSymbolTableRecord
100
AcDbBlockTableRecord
  2
*Paper_Space
 70
    0
280
    1
281
    0
  0
ENDTAB
  0
ENDSEC
  0
SECTION
  2
BLOCKS
  0
BLOCK
  5
20
330
1F
100
AcDbEntity
  8
0
100
AcDbBlockBegin
  2
*Model_Space
 70
    0
 10
0
 20
0
 30
0
  3
*Model_Space
  1

  0
ENDBLK
  5
21
330
1F
100
AcDbEntity
  8
0
100
AcDbBlockEnd
  0
BLOCK
  5
1C
330
1B
100
AcDbEntity
  8
0
100
AcDbBlockBegin
  2
*Paper_Space
 70
    0
 10
0
 20
0
 30
0
  3
*Paper_Space
  1

  0
ENDBLK
  5
1D
330
1F
100
AcDbEntity
  8
0
100
AcDbBlockEnd
  0
ENDSEC
  0
SECTION
  2
ENTITIES
  0
LWPOLYLINE
  5
34
100
AcDbEntity
  8
0
  6
BYLAYER
 62
  256
370
   -1
100
AcDbPolyline
 90
   89
 70
    1
 43
0
 10
8189
 20
17539
 10
8232
 20
15874
 10
8259
 20
15238
 10
8292
 20
14656
 10
8338
 20
14054
 10
8394
 20
13458
 10
8461
 20
12867
 10
8540
 20
12282
 10
8621
 20
11756
 10
8709
 20
11248
 10
8805
 20
10757
 10
8910
 20
10281
 10
9047
 20
9721
 10
9206
 20
9138
 10
9389
 20
8525
 10
9598
 20
7870
 10
9951
 20
6844
 10
10317
 20
5873
 10
10533
 20
5340
 10
10766
 20
4790
 10
11018
 20
4218
 10
11294
 20
3615
 10
11868
 20
2410
 10
12677
 20
774
 10
14888
 20
1915
 10
13844
 20
4108
 10
13336
 20
5202
 10
12949
 20
6082
 10
12736
 20
6597
 10
12542
 20
7090
 10
12368
 20
7567
 10
12210
 20
8030
 10
12000
 20
8707
 10
11728
 20
9657
 10
11556
 20
10275
 10
11440
 20
10722
 10
11318
 20
11246
 10
11207
 20
11788
 10
11108
 20
12348
 10
11020
 20
12930
 10
10914
 20
13795
 10
10817
 20
14794
 10
10747
 20
15694
 10
10708
 20
16462
 10
10686
 20
17538
 10
10708
 20
18614
 10
10748
 20
19381
 10
10818
 20
20282
 10
10915
 20
21283
 10
11022
 20
22147
 10
11110
 20
22728
 10
11209
 20
23288
 10
11320
 20
23830
 10
11442
 20
24355
 10
11560
 20
24804
 10
11731
 20
25420
 10
12002
 20
26366
 10
12213
 20
27046
 10
12371
 20
27509
 10
12546
 20
27985
 10
12740
 20
28479
 10
12953
 20
28994
 10
13342
 20
29877
 10
13848
 20
30968
 10
14892
 20
33160
 10
12660
 20
34302
 10
11866
 20
32666
 10
11299
 20
31462
 10
10762
 20
30264
 10
10532
 20
29722
 10
10321
 20
29204
 10
9956
 20
28236
 10
9601
 20
27207
 10
9391
 20
26551
 10
9209
 20
25938
 10
9050
 20
25356
 10
8912
 20
24797
 10
8808
 20
24321
 10
8711
 20
23830
 10
8622
 20
23322
 10
8541
 20
22795
 10
8463
 20
22210
 10
8395
 20
21620
 10
8339
 20
21024
 10
8293
 20
20422
 10
8260
 20
19840
 10
8233
 20
19204
 10
8189
 20
17539
 10
8189
 20
17539
  0
LWPOLYLINE
  5
35
100
AcDbEntity
  8
0
  6
BYLAYER
 62
  256
370
   -1
100
AcDbPolyline
 90
    2
 70
    1
 43
0
 10
0
 20
0
 10
0
 20
0
  0
LWPOLYLINE
  5
36
100
AcDbEntity
  8
0
  6
BYLAYER
 62
  256
370
   -1
100
AcDbPolyline
 90
    6
 70
    1
 43
0
 10
114675
 20
390
 10
114680
 20
385
 10
114685
 20
390
 10
114680
 20
395
 10
114675
 20
390
 10
114675
 20
390
  0
LWPOLYLINE
  5
37
100
AcDbEntity
  8
0
  6
BYLAYER
 62
  256
370
   -1
100
AcDbPolyline
 90
   71
 70
    1
 43
0
 10
66970
 20
5572
 10
66979
 20
4911
 10
67009
 20
4363
 10
67033
 20
4123
 10
67064
 20
3898
 10
67102
 20
3684
 10
67147
 20
3482
 10
67200
 20
3289
 10
67261
 20
3106
 10
67383
 20
2811
 10
67543
 20
2494
 10
67736
 20
2160
 10
68072
 20
1619
 10
68479
 20
939
 10
69013
 20
4
 10
69689
 20
15
 10
70300
 20
53
 10
70747
 20
88
 10
71233
 20
137
 10
71896
 20
215
 10
72938
 20
360
 10
74361
 20
579
 10
74202
 20
1738
 10
74094
 20
2588
 10
73984
 20
3590
 10
73910
 20
4479
 10
73886
 20
4880
 10
73855
 20
5551
 10
73824
 20
6468
 10
73851
 20
7345
 10
73882
 20
7987
 10
73886
 20
8052
 10
73458
 20
8136
 10
73131
 20
8214
 10
72804
 20
8309
 10
72546
 20
8398
 10
72345
 20
8487
 10
72177
 20
8587
 10
72039
 20
8699
 10
71928
 20
8824
 10
71831
 20
8972
 10
71750
 20
9141
 10
71687
 20
9326
 10
71652
 20
9476
 10
71627
 20
9634
 10
71613
 20
9804
 10
71609
 20
9988
 10
71622
 20
10306
 10
71663
 20
10731
 10
71759
 20
11596
 10
71904
 20
12868
 10
70763
 20
12915
 10
69629
 20
12928
 10
69012
 20
12932
 10
68478
 20
11997
 10
68070
 20
11317
 10
67735
 20
10776
 10
67542
 20
10442
 10
67383
 20
10125
 10
67261
 20
9830
 10
67200
 20
9646
 10
67147
 20
9454
 10
67102
 20
9252
 10
67064
 20
9038
 10
67033
 20
8813
 10
67009
 20
8573
 10
66979
 20
8025
 10
66970
 20
7364
 10
66983
 20
6468
 10
66970
 20
5572
 10
66970
 20
5572
  0
LWPOLYLINE
  5
38
100
AcDbEntity
  8
0
  6
BYLAYER
 62
  256
370
   -1
100
AcDbPolyline
 90
   92
 70
    1
 43
0
 10
4
 20
17530
 10
41
 20
15778
 10
66
 20
15109
 10
98
 20
14497
 10
142
 20
13867
 10
198
 20
13240
 10
266
 20
12618
 10
346
 20
11999
 10
429
 20
11434
 10
520
 20
10897
 10
618
 20
10384
 10
724
 20
9891
 10
865
 20
9317
 10
1030
 20
8716
 10
1221
 20
8078
 10
1446
 20
7384
 10
1818
 20
6309
 10
2007
 20
5800
 10
2198
 20
5306
 10
2423
 20
4754
 10
2666
 20
4182
 10
2930
 20
3586
 10
3219
 20
2958
 10
3820
 20
1704
 10
4664
 20
4
 10
6875
 20
1144
 10
5780
 20
3432
 10
5248
 20
4572
 10
4841
 20
5491
 10
4616
 20
6030
 10
4414
 20
6545
 10
4230
 20
7042
 10
4064
 20
7524
 10
3847
 20
8221
 10
3558
 20
9221
 10
3376
 20
9870
 10
3255
 20
10332
 10
3129
 20
10873
 10
3016
 20
11440
 10
2915
 20
12035
 10
2825
 20
12665
 10
2718
 20
13584
 10
2622
 20
14634
 10
2554
 20
15583
 10
2517
 20
16395
 10
2501
 20
17530
 10
2517
 20
18666
 10
2555
 20
19477
 10
2623
 20
20426
 10
2720
 20
21476
 10
2827
 20
22395
 10
2918
 20
23025
 10
3019
 20
23620
 10
3132
 20
24186
 10
3257
 20
24728
 10
3379
 20
25192
 10
3561
 20
25839
 10
3848
 20
26835
 10
4068
 20
27535
 10
4233
 20
28017
 10
4417
 20
28514
 10
4620
 20
29029
 10
4845
 20
29568
 10
5253
 20
30490
 10
5784
 20
31628
 10
6880
 20
33914
 10
4647
 20
35055
 10
3818
 20
33354
 10
3225
 20
32102
 10
2927
 20
31452
 10
2662
 20
30855
 10
2422
 20
30292
 10
2202
 20
29754
 10
2012
 20
29262
 10
1823
 20
28754
 10
1449
 20
27676
 10
1224
 20
26982
 10
1033
 20
26344
 10
868
 20
25743
 10
727
 20
25170
 10
620
 20
24676
 10
521
 20
24163
 10
430
 20
23627
 10
347
 20
23062
 10
267
 20
22443
 10
199
 20
21820
 10
143
 20
21194
 10
98
 20
20564
 10
66
 20
19952
 10
41
 20
19282
 10
4
 20
17530
 10
4
 20
17530
  0
LWPOLYLINE
  5
39
100
AcDbEntity
  8
0
  6
BYLAYER
 62
  256
370
   -1
100
AcDbPolyline
 90
   71
 70
    1
 43
0
 10
26251
 20
46258
 10
27748
 20
46014
 10
28843
 20
45853
 10
29506
 20
45768
 10
29992
 20
45715
 10
30438
 20
45677
 10
31050
 20
45634
 10
31726
 20
45617
 10
32268
 20
46582
 10
32682
 20
47283
 10
33024
 20
47842
 10
33219
 20
48186
 10
33381
 20
48513
 10
33504
 20
48817
 10
33566
 20
49006
 10
33619
 20
49204
 10
33664
 20
49413
 10
33702
 20
49633
 10
33732
 20
49864
 10
33755
 20
50111
 10
33782
 20
50674
 10
33786
 20
51353
 10
33766
 20
52274
 10
33786
 20
53195
 10
33782
 20
53874
 10
33755
 20
54437
 10
33732
 20
54684
 10
33702
 20
54916
 10
33664
 20
55136
 10
33619
 20
55344
 10
33566
 20
55542
 10
33505
 20
55731
 10
33382
 20
56036
 10
33220
 20
56362
 10
33024
 20
56707
 10
32684
 20
57265
 10
32270
 20
57967
 10
31727
 20
58932
 10
31110
 20
58922
 10
29976
 20
58898
 10
28835
 20
58840
 10
28980
 20
57551
 10
29076
 20
56674
 10
29116
 20
56246
 10
29130
 20
55922
 10
29127
 20
55726
 10
29112
 20
55546
 10
29088
 20
55378
 10
29051
 20
55220
 10
28986
 20
55024
 10
28901
 20
54844
 10
28799
 20
54687
 10
28682
 20
54554
 10
28536
 20
54434
 10
28359
 20
54327
 10
28146
 20
54232
 10
27874
 20
54136
 10
27529
 20
54034
 10
27182
 20
53949
 10
26729
 20
53858
 10
26733
 20
53792
 10
26761
 20
53151
 10
26788
 20
52275
 10
26758
 20
51338
 10
26728
 20
50652
 10
26704
 20
50243
 10
26630
 20
49330
 10
26520
 20
48310
 10
26412
 20
47442
 10
26251
 20
46258
 10
26251
 20
46258
  0
LWPOLYLINE
  5
3A
100
AcDbEntity
  8
0
  6
BYLAYER
 62
  256
370
   -1
100
AcDbPolyline
 90
   71
 70
    1
 43
0
 10
87844
 20
5400
 10
87857
 20
4759
 10
87890
 20
4228
 10
87916
 20
3994
 10
87947
 20
3776
 10
87986
 20
3569
 10
88031
 20
3372
 10
88084
 20
3186
 10
88145
 20
3008
 10
88266
 20
2722
 10
88423
 20
2416
 10
88613
 20
2092
 10
88942
 20
1570
 10
89343
 20
913
 10
89869
 20
8
 10
90486
 20
6
 10
91619
 20
4
 10
92761
 20
37
 10
92616
 20
1291
 10
92520
 20
2145
 10
92479
 20
2567
 10
92466
 20
2878
 10
92470
 20
3050
 10
92484
 20
3209
 10
92509
 20
3359
 10
92543
 20
3500
 10
92604
 20
3673
 10
92681
 20
3832
 10
92773
 20
3970
 10
92878
 20
4087
 10
93009
 20
4192
 10
93168
 20
4285
 10
93358
 20
4368
 10
93600
 20
4450
 10
93907
 20
4537
 10
94216
 20
4609
 10
94620
 20
4685
 10
94616
 20
4750
 10
94584
 20
5392
 10
94553
 20
6270
 10
94586
 20
7168
 10
94617
 20
7824
 10
94642
 20
8216
 10
94716
 20
9090
 10
94825
 20
10067
 10
94932
 20
10898
 10
95090
 20
12032
 10
93741
 20
12227
 10
92753
 20
12354
 10
92090
 20
12425
 10
91604
 20
12469
 10
91157
 20
12498
 10
90546
 20
12529
 10
89870
 20
12532
 10
89344
 20
11628
 10
88943
 20
10971
 10
88613
 20
10448
 10
88424
 20
10125
 10
88266
 20
9819
 10
88145
 20
9533
 10
88085
 20
9356
 10
88032
 20
9169
 10
87986
 20
8973
 10
87948
 20
8766
 10
87916
 20
8547
 10
87891
 20
8314
 10
87858
 20
7782
 10
87844
 20
7141
 10
87850
 20
6270
 10
87844
 20
5400
 10
87844
 20
5400
  0
LWPOLYLINE
  5
3B
100
AcDbEntity
  8
0
  6
BYLAYER
 62
  256
370
   -1
100
AcDbPolyline
 90
   92
 70
    1
 43
0
 10
107510
 20
25015
 10
109743
 20
23874
 10
110572
 20
25575
 10
111165
 20
26827
 10
111463
 20
27477
 10
111728
 20
28074
 10
111968
 20
28638
 10
112188
 20
29176
 10
112378
 20
29667
 10
112567
 20
30176
 10
112941
 20
31253
 10
113166
 20
31948
 10
113357
 20
32585
 10
113522
 20
33186
 10
113663
 20
33760
 10
113770
 20
34253
 10
113869
 20
34766
 10
113960
 20
35302
 10
114043
 20
35868
 10
114123
 20
36486
 10
114191
 20
37109
 10
114247
 20
37736
 10
114292
 20
38366
 10
114324
 20
38978
 10
114349
 20
39647
 10
114386
 20
41399
 10
114349
 20
43151
 10
114324
 20
43820
 10
114292
 20
44432
 10
114248
 20
45062
 10
114192
 20
45689
 10
114124
 20
46312
 10
114044
 20
46930
 10
113961
 20
47496
 10
113870
 20
48032
 10
113772
 20
48545
 10
113666
 20
49038
 10
113525
 20
49612
 10
113360
 20
50213
 10
113169
 20
50851
 10
112944
 20
51546
 10
112572
 20
52620
 10
112383
 20
53129
 10
112192
 20
53623
 10
111967
 20
54176
 10
111724
 20
54747
 10
111460
 20
55343
 10
111171
 20
55971
 10
110570
 20
57225
 10
109726
 20
58925
 10
107515
 20
57785
 10
108610
 20
55498
 10
109142
 20
54358
 10
109549
 20
53438
 10
109774
 20
52900
 10
109976
 20
52384
 10
110160
 20
51888
 10
110326
 20
51405
 10
110543
 20
50708
 10
110832
 20
49708
 10
111014
 20
49059
 10
111135
 20
48597
 10
111261
 20
48056
 10
111374
 20
47490
 10
111475
 20
46894
 10
111565
 20
46264
 10
111672
 20
45345
 10
111768
 20
44295
 10
111836
 20
43346
 10
111873
 20
42534
 10
111889
 20
41399
 10
111873
 20
40264
 10
111835
 20
39452
 10
111767
 20
38503
 10
111670
 20
37453
 10
111563
 20
36534
 10
111472
 20
35904
 10
111371
 20
35309
 10
111258
 20
34743
 10
111133
 20
34201
 10
111011
 20
33738
 10
110829
 20
33090
 10
110542
 20
32094
 10
110322
 20
31394
 10
110157
 20
30912
 10
109973
 20
30415
 10
109770
 20
29900
 10
109545
 20
29361
 10
109137
 20
28439
 10
108606
 20
27302
 10
107510
 20
25015
 10
107510
 20
25015
  0
LWPOLYLINE
  5
3C
100
AcDbEntity
  8
0
  6
BYLAYER
 62
  256
370
   -1
100
AcDbPolyline
 90
   92
 70
    1
 43
0
 10
2798
 20
17530
 10
2834
 20
15778
 10
2860
 20
15109
 10
2892
 20
14497
 10
2936
 20
13867
 10
2992
 20
13240
 10
3060
 20
12618
 10
3139
 20
11999
 10
3223
 20
11434
 10
3313
 20
10897
 10
3411
 20
10384
 10
3518
 20
9891
 10
3659
 20
9317
 10
3824
 20
8716
 10
4015
 20
8078
 10
4239
 20
7384
 10
4612
 20
6309
 10
4800
 20
5800
 10
4992
 20
5306
 10
5216
 20
4754
 10
5460
 20
4182
 10
5724
 20
3586
 10
6013
 20
2958
 10
6613
 20
1704
 10
7458
 20
4
 10
9669
 20
1144
 10
8573
 20
3432
 10
8042
 20
4572
 10
7635
 20
5491
 10
7410
 20
6030
 10
7207
 20
6545
 10
7024
 20
7042
 10
6858
 20
7524
 10
6640
 20
8221
 10
6352
 20
9221
 10
6170
 20
9870
 10
6048
 20
10332
 10
5923
 20
10873
 10
5810
 20
11440
 10
5709
 20
12035
 10
5618
 20
12665
 10
5511
 20
13584
 10
5416
 20
14634
 10
5348
 20
15583
 10
5310
 20
16395
 10
5295
 20
17530
 10
5311
 20
18666
 10
5348
 20
19477
 10
5417
 20
20426
 10
5513
 20
21476
 10
5620
 20
22395
 10
5711
 20
23025
 10
5812
 20
23620
 10
5925
 20
24186
 10
6051
 20
24728
 10
6172
 20
25192
 10
6354
 20
25839
 10
6642
 20
26835
 10
6861
 20
27535
 10
7027
 20
28017
 10
7211
 20
28514
 10
7414
 20
29029
 10
7639
 20
29568
 10
8047
 20
30490
 10
8577
 20
31628
 10
9674
 20
33914
 10
7441
 20
35055
 10
6612
 20
33354
 10
6018
 20
32102
 10
5720
 20
31452
 10
5456
 20
30855
 10
5215
 20
30292
 10
4996
 20
29754
 10
4805
 20
29262
 10
4616
 20
28754
 10
4242
 20
27676
 10
4018
 20
26982
 10
3826
 20
26344
 10
3661
 20
25743
 10
3520
 20
25170
 10
3413
 20
24676
 10
3315
 20
24163
 10
3224
 20
23627
 10
3140
 20
23062
 10
3061
 20
22443
 10
2993
 20
21820
 10
2936
 20
21194
 10
2892
 20
20564
 10
2860
 20
19952
 10
2834
 20
19282
 10
2798
 20
17530
 10
2798
 20
17530
  0
LWPOLYLINE
  5
3D
100
AcDbEntity
  8
0
  6
BYLAYER
 62
  256
370
   -1
100
AcDbPolyline
 90
   69
 70
    1
 43
0
 10
107108
 20
23589
 10
107263
 20
22531
 10
107368
 20
21755
 10
107476
 20
20847
 10
107551
 20
20028
 10
107576
 20
19661
 10
107610
 20
19048
 10
107646
 20
18210
 10
107607
 20
17331
 10
107571
 20
16689
 10
107566
 20
16623
 10
107896
 20
16569
 10
108148
 20
16517
 10
108399
 20
16453
 10
108598
 20
16391
 10
108753
 20
16328
 10
108884
 20
16256
 10
108992
 20
16173
 10
109080
 20
16080
 10
109157
 20
15970
 10
109223
 20
15843
 10
109276
 20
15703
 10
109307
 20
15588
 10
109330
 20
15466
 10
109345
 20
15337
 10
109351
 20
15200
 10
109341
 20
14904
 10
109296
 20
14489
 10
109201
 20
13662
 10
109056
 20
12447
 10
110199
 20
12452
 10
111332
 20
12492
 10
111948
 20
12515
 10
112453
 20
13332
 10
112838
 20
13925
 10
113153
 20
14396
 10
113335
 20
14688
 10
113487
 20
14965
 10
113605
 20
15224
 10
113665
 20
15386
 10
113718
 20
15556
 10
113765
 20
15735
 10
113806
 20
15924
 10
113869
 20
16337
 10
113913
 20
16823
 10
113941
 20
17411
 10
113957
 20
18210
 10
113941
 20
19009
 10
113912
 20
19597
 10
113868
 20
20084
 10
113805
 20
20497
 10
113765
 20
20686
 10
113718
 20
20865
 10
113665
 20
21035
 10
113605
 20
21196
 10
113487
 20
21455
 10
113335
 20
21732
 10
113153
 20
22024
 10
112836
 20
22496
 10
112452
 20
23088
 10
111948
 20
23905
 10
111273
 20
23922
 10
110662
 20
23910
 10
110215
 20
23895
 10
109728
 20
23866
 10
109064
 20
23816
 10
108238
 20
23728
 10
107108
 20
23589
 10
107108
 20
23589
  0
LWPOLYLINE
  5
3E
100
AcDbEntity
  8
0
  6
BYLAYER
 62
  256
370
   -1
100
AcDbPolyline
 90
   71
 70
    1
 43
0
 10
61050
 20
51572
 10
61059
 20
50911
 10
61089
 20
50363
 10
61113
 20
50123
 10
61143
 20
49898
 10
61181
 20
49684
 10
61226
 20
49482
 10
61280
 20
49290
 10
61340
 20
49106
 10
61462
 20
48811
 10
61622
 20
48494
 10
61815
 20
48160
 10
62150
 20
47619
 10
62558
 20
46939
 10
63092
 20
46004
 10
63709
 20
46008
 10
64842
 20
46021
 10
65984
 20
46068
 10
65839
 20
47340
 10
65743
 20
48205
 10
65702
 20
48630
 10
65689
 20
48948
 10
65693
 20
49132
 10
65707
 20
49302
 10
65732
 20
49460
 10
65767
 20
49610
 10
65830
 20
49795
 10
65911
 20
49964
 10
66008
 20
50112
 10
66118
 20
50237
 10
66257
 20
50349
 10
66425
 20
50449
 10
66626
 20
50538
 10
66884
 20
50627
 10
67210
 20
50722
 10
67537
 20
50800
 10
67966
 20
50884
 10
67962
 20
50949
 10
67931
 20
51591
 10
67903
 20
52468
 10
67935
 20
53385
 10
67966
 20
54056
 10
67990
 20
54457
 10
68063
 20
55346
 10
68173
 20
56348
 10
68282
 20
57198
 10
68440
 20
58357
 10
67018
 20
58576
 10
65976
 20
58721
 10
65313
 20
58799
 10
64827
 20
58848
 10
64380
 20
58883
 10
63769
 20
58921
 10
63092
 20
58932
 10
62559
 20
57997
 10
62151
 20
57317
 10
61815
 20
56776
 10
61622
 20
56442
 10
61463
 20
56125
 10
61341
 20
55830
 10
61280
 20
55647
 10
61227
 20
55454
 10
61182
 20
55252
 10
61144
 20
55038
 10
61113
 20
54813
 10
61089
 20
54573
 10
61059
 20
54025
 10
61050
 20
53364
 10
61063
 20
52468
 10
61050
 20
51572
 10
61050
 20
51572
  0
LWPOLYLINE
  5
3F
100
AcDbEntity
  8
0
  6
BYLAYER
 62
  256
370
   -1
100
AcDbPolyline
 90
   71
 70
    1
 43
0
 10
40216
 20
58357
 10
40374
 20
57198
 10
40483
 20
56348
 10
40593
 20
55346
 10
40666
 20
54457
 10
40690
 20
54056
 10
40721
 20
53385
 10
40753
 20
52468
 10
40725
 20
51591
 10
40694
 20
50949
 10
40690
 20
50884
 10
41119
 20
50800
 10
41446
 20
50722
 10
41772
 20
50627
 10
42030
 20
50538
 10
42231
 20
50449
 10
42399
 20
50349
 10
42538
 20
50237
 10
42648
 20
50112
 10
42745
 20
49964
 10
42826
 20
49795
 10
42889
 20
49610
 10
42924
 20
49460
 10
42949
 20
49302
 10
42963
 20
49132
 10
42967
 20
48948
 10
42954
 20
48630
 10
42913
 20
48205
 10
42817
 20
47340
 10
42672
 20
46068
 10
43814
 20
46021
 10
44947
 20
46008
 10
45564
 20
46004
 10
46098
 20
46939
 10
46506
 20
47619
 10
46841
 20
48160
 10
47034
 20
48494
 10
47194
 20
48811
 10
47316
 20
49106
 10
47376
 20
49290
 10
47430
 20
49482
 10
47475
 20
49684
 10
47513
 20
49898
 10
47543
 20
50123
 10
47567
 20
50363
 10
47597
 20
50911
 10
47606
 20
51572
 10
47593
 20
52468
 10
47606
 20
53364
 10
47597
 20
54025
 10
47567
 20
54573
 10
47543
 20
54813
 10
47512
 20
55038
 10
47474
 20
55252
 10
47429
 20
55454
 10
47376
 20
55647
 10
47315
 20
55830
 10
47193
 20
56125
 10
47034
 20
56442
 10
46841
 20
56776
 10
46505
 20
57317
 10
46097
 20
57997
 10
45564
 20
58932
 10
44887
 20
58921
 10
44276
 20
58883
 10
43829
 20
58848
 10
43343
 20
58799
 10
42680
 20
58721
 10
41638
 20
58576
 10
40216
 20
58357
 10
40216
 20
58357
  0
LWPOLYLINE
  5
40
100
AcDbEntity
  8
0
  6
BYLAYER
 62
  256
370
   -1
100
AcDbPolyline
 90
   69
 70
    1
 43
0
 10
40780
 20
32704
 10
40936
 20
31621
 10
41042
 20
30826
 10
41150
 20
29896
 10
41225
 20
29058
 10
41250
 20
28682
 10
41283
 20
28055
 10
41318
 20
27197
 10
41283
 20
26318
 10
41247
 20
25676
 10
41243
 20
25610
 10
41597
 20
25549
 10
41868
 20
25490
 10
42138
 20
25418
 10
42351
 20
25350
 10
42518
 20
25280
 10
42658
 20
25202
 10
42774
 20
25111
 10
42867
 20
25010
 10
42949
 20
24890
 10
43019
 20
24753
 10
43074
 20
24602
 10
43107
 20
24478
 10
43130
 20
24346
 10
43145
 20
24208
 10
43150
 20
24059
 10
43139
 20
23759
 10
43096
 20
23342
 10
43000
 20
22508
 10
42856
 20
21281
 10
43998
 20
21275
 10
45131
 20
21302
 10
45748
 20
21320
 10
46259
 20
22164
 10
46648
 20
22778
 10
46968
 20
23266
 10
47152
 20
23568
 10
47306
 20
23855
 10
47424
 20
24123
 10
47484
 20
24289
 10
47538
 20
24465
 10
47584
 20
24649
 10
47624
 20
24844
 10
47685
 20
25270
 10
47725
 20
25770
 10
47748
 20
26376
 10
47756
 20
27197
 10
47748
 20
28019
 10
47724
 20
28624
 10
47684
 20
29126
 10
47623
 20
29550
 10
47584
 20
29746
 10
47537
 20
29930
 10
47484
 20
30106
 10
47424
 20
30272
 10
47305
 20
30540
 10
47152
 20
30826
 10
46967
 20
31128
 10
46647
 20
31616
 10
46258
 20
32230
 10
45747
 20
33075
 10
45072
 20
33086
 10
44460
 20
33068
 10
44014
 20
33048
 10
43527
 20
33016
 10
42863
 20
32959
 10
41983
 20
32859
 10
40780
 20
32704
 10
40780
 20
32704
  0
LWPOLYLINE
  5
41
100
AcDbEntity
  8
0
  6
BYLAYER
 62
  256
370
   -1
100
AcDbPolyline
 90
   69
 70
    1
 43
0
 10
4
 20
40838
 10
20
 20
40039
 10
49
 20
39451
 10
93
 20
38964
 10
156
 20
38551
 10
196
 20
38362
 10
243
 20
38183
 10
296
 20
38013
 10
356
 20
37852
 10
474
 20
37593
 10
626
 20
37316
 10
808
 20
37024
 10
1125
 20
36552
 10
1509
 20
35960
 10
2014
 20
35143
 10
2688
 20
35126
 10
3300
 20
35138
 10
3746
 20
35153
 10
4233
 20
35182
 10
4897
 20
35232
 10
5724
 20
35320
 10
6853
 20
35459
 10
6698
 20
36517
 10
6593
 20
37293
 10
6486
 20
38201
 10
6410
 20
39020
 10
6385
 20
39387
 10
6351
 20
40000
 10
6316
 20
40838
 10
6354
 20
41717
 10
6390
 20
42359
 10
6395
 20
42425
 10
6066
 20
42479
 10
5814
 20
42531
 10
5562
 20
42595
 10
5364
 20
42657
 10
5208
 20
42720
 10
5077
 20
42792
 10
4969
 20
42875
 10
4882
 20
42968
 10
4804
 20
43078
 10
4738
 20
43205
 10
4685
 20
43345
 10
4654
 20
43460
 10
4631
 20
43582
 10
4616
 20
43711
 10
4610
 20
43848
 10
4620
 20
44144
 10
4665
 20
44559
 10
4760
 20
45386
 10
4905
 20
46601
 10
3762
 20
46596
 10
2630
 20
46556
 10
2013
 20
46533
 10
1508
 20
45716
 10
1124
 20
45123
 10
808
 20
44652
 10
626
 20
44360
 10
474
 20
44083
 10
356
 20
43824
 10
296
 20
43662
 10
243
 20
43492
 10
196
 20
43313
 10
156
 20
43124
 10
92
 20
42711
 10
48
 20
42225
 10
20
 20
41637
 10
4
 20
40838
 10
4
 20
40838
  0
LWPOLYLINE
  5
42
100
AcDbEntity
  8
0
  6
BYLAYER
 62
  256
370
   -1
100
AcDbPolyline
 90
   69
 70
    1
 43
0
 10
107375
 20
431
 10
108652
 20
260
 10
109585
 20
150
 10
110249
 20
88
 10
110736
 20
50
 10
111182
 20
27
 10
111794
 20
4
 10
112469
 20
10
 10
112986
 20
882
 10
113380
 20
1516
 10
113704
 20
2021
 10
113891
 20
2332
 10
114046
 20
2628
 10
114166
 20
2904
 10
114226
 20
3076
 10
114279
 20
3256
 10
114324
 20
3446
 10
114364
 20
3647
 10
114422
 20
4084
 10
114459
 20
4599
 10
114477
 20
5221
 10
114478
 20
6065
 10
114477
 20
6909
 10
114459
 20
7531
 10
114422
 20
8046
 10
114364
 20
8483
 10
114324
 20
8684
 10
114279
 20
8874
 10
114226
 20
9055
 10
114166
 20
9226
 10
114046
 20
9503
 10
113891
 20
9799
 10
113704
 20
10110
 10
113381
 20
10614
 10
112987
 20
11248
 10
112470
 20
12121
 10
111852
 20
12132
 10
110719
 20
12150
 10
109578
 20
12133
 10
109722
 20
10895
 10
109818
 20
10054
 10
109860
 20
9635
 10
109872
 20
9331
 10
109867
 20
9170
 10
109853
 20
9021
 10
109829
 20
8881
 10
109796
 20
8748
 10
109738
 20
8586
 10
109664
 20
8438
 10
109577
 20
8308
 10
109478
 20
8200
 10
109355
 20
8102
 10
109205
 20
8016
 10
109027
 20
7940
 10
108799
 20
7865
 10
108510
 20
7785
 10
108220
 20
7720
 10
107842
 20
7652
 10
107846
 20
7586
 10
107881
 20
6944
 10
107912
 20
6066
 10
107879
 20
5188
 10
107846
 20
4546
 10
107822
 20
4162
 10
107747
 20
3306
 10
107639
 20
2352
 10
107532
 20
1539
 10
107375
 20
431
 10
107375
 20
431
  0
LWPOLYLINE
  5
43
100
AcDbEntity
  8
0
  6
BYLAYER
 62
  256
370
   -1
100
AcDbPolyline
 90
   69
 70
    1
 43
0
 10
13
 20
52871
 10
14
 20
52027
 10
32
 20
51405
 10
69
 20
50890
 10
128
 20
50453
 10
167
 20
50252
 10
212
 20
50062
 10
266
 20
49881
 10
326
 20
49710
 10
445
 20
49433
 10
600
 20
49137
 10
787
 20
48826
 10
1110
 20
48322
 10
1504
 20
47688
 10
2022
 20
46815
 10
2639
 20
46804
 10
3772
 20
46786
 10
4914
 20
46803
 10
4769
 20
48041
 10
4673
 20
48882
 10
4631
 20
49301
 10
4619
 20
49605
 10
4624
 20
49766
 10
4638
 20
49915
 10
4662
 20
50055
 10
4696
 20
50188
 10
4754
 20
50350
 10
4827
 20
50498
 10
4914
 20
50628
 10
5013
 20
50736
 10
5136
 20
50834
 10
5286
 20
50920
 10
5464
 20
50996
 10
5692
 20
51071
 10
5982
 20
51151
 10
6271
 20
51216
 10
6649
 20
51284
 10
6645
 20
51350
 10
6610
 20
51992
 10
6579
 20
52870
 10
6612
 20
53748
 10
6645
 20
54390
 10
6670
 20
54774
 10
6744
 20
55630
 10
6852
 20
56584
 10
6959
 20
57397
 10
7116
 20
58505
 10
5840
 20
58676
 10
4906
 20
58786
 10
4242
 20
58848
 10
3756
 20
58886
 10
3309
 20
58909
 10
2698
 20
58932
 10
2022
 20
58926
 10
1505
 20
58054
 10
1111
 20
57420
 10
787
 20
56915
 10
600
 20
56604
 10
445
 20
56308
 10
326
 20
56032
 10
266
 20
55860
 10
212
 20
55680
 10
167
 20
55490
 10
128
 20
55289
 10
69
 20
54852
 10
32
 20
54337
 10
14
 20
53715
 10
13
 20
52871
 10
13
 20
52871
  0
LWPOLYLINE
  5
44
100
AcDbEntity
  8
0
  6
BYLAYER
 62
  256
370
   -1
100
AcDbPolyline
 90
   93
 70
    1
 43
0
 10
99502
 20
25777
 10
100000
 20
25522
 10
101734
 20
24636
 10
102528
 20
26271
 10
103095
 20
27475
 10
103632
 20
28673
 10
103862
 20
29215
 10
104073
 20
29734
 10
104438
 20
30701
 10
104793
 20
31730
 10
105003
 20
32386
 10
105185
 20
32999
 10
105344
 20
33581
 10
105482
 20
34140
 10
105586
 20
34616
 10
105683
 20
35107
 10
105772
 20
35615
 10
105853
 20
36142
 10
105931
 20
36727
 10
105999
 20
37317
 10
106055
 20
37914
 10
106101
 20
38516
 10
106134
 20
39097
 10
106161
 20
39733
 10
106205
 20
41398
 10
106162
 20
43064
 10
106135
 20
43700
 10
106102
 20
44281
 10
106056
 20
44883
 10
106000
 20
45480
 10
105933
 20
46070
 10
105854
 20
46655
 10
105773
 20
47182
 10
105685
 20
47690
 10
105589
 20
48180
 10
105484
 20
48656
 10
105347
 20
49216
 10
105188
 20
49800
 10
105005
 20
50412
 10
104796
 20
51067
 10
104443
 20
52093
 10
104077
 20
53064
 10
103861
 20
53597
 10
103628
 20
54147
 10
103376
 20
54720
 10
103100
 20
55322
 10
102526
 20
56528
 10
101717
 20
58163
 10
100000
 20
57277
 10
99506
 20
57022
 10
100000
 20
55985
 10
100550
 20
54830
 10
101058
 20
53735
 10
101445
 20
52856
 10
101658
 20
52340
 10
101852
 20
51847
 10
102026
 20
51370
 10
102184
 20
50907
 10
102394
 20
50230
 10
102666
 20
49280
 10
102838
 20
48662
 10
102954
 20
48216
 10
103076
 20
47692
 10
103187
 20
47150
 10
103286
 20
46589
 10
103374
 20
46007
 10
103480
 20
45142
 10
103577
 20
44143
 10
103647
 20
43243
 10
103686
 20
42475
 10
103708
 20
41399
 10
103686
 20
40323
 10
103646
 20
39556
 10
103576
 20
38655
 10
103479
 20
37654
 10
103372
 20
36790
 10
103284
 20
36210
 10
103185
 20
35649
 10
103074
 20
35107
 10
102952
 20
34582
 10
102834
 20
34134
 10
102663
 20
33517
 10
102392
 20
32572
 10
102181
 20
31892
 10
102023
 20
31428
 10
101848
 20
30952
 10
101654
 20
30458
 10
101441
 20
29943
 10
101052
 20
29060
 10
100546
 20
27969
 10
100000
 20
26823
 10
99502
 20
25777
 10
99502
 20
25777
  0
LWPOLYLINE
  5
45
100
AcDbEntity
  8
0
  6
BYLAYER
 62
  256
370
   -1
100
AcDbPolyline
 90
   88
 70
    1
 43
0
 10
74046
 20
27034
 10
76280
 20
25893
 10
77013
 20
27420
 10
77538
 20
28544
 10
78033
 20
29660
 10
78246
 20
30167
 10
78440
 20
30652
 10
78782
 20
31565
 10
79104
 20
32515
 10
79288
 20
33102
 10
79454
 20
33670
 10
79604
 20
34223
 10
79737
 20
34763
 10
79839
 20
35214
 10
79932
 20
35669
 10
80000
 20
36035
 10
80017
 20
36127
 10
80093
 20
36588
 10
80170
 20
37116
 10
80237
 20
37652
 10
80294
 20
38198
 10
80340
 20
38754
 10
80376
 20
39284
 10
80406
 20
39865
 10
80460
 20
41385
 10
80406
 20
42906
 10
80376
 20
43486
 10
80341
 20
44017
 10
80294
 20
44572
 10
80237
 20
45118
 10
80171
 20
45655
 10
80094
 20
46183
 10
80018
 20
46644
 10
80000
 20
46742
 10
79934
 20
47102
 10
79841
 20
47557
 10
79740
 20
48007
 10
79606
 20
48548
 10
79456
 20
49102
 10
79290
 20
49670
 10
79107
 20
50256
 10
78786
 20
51202
 10
78443
 20
52119
 10
78243
 20
52618
 10
78027
 20
53133
 10
77541
 20
54227
 10
77010
 20
55352
 10
76262
 20
56879
 10
74050
 20
55739
 10
75009
 20
53703
 10
75475
 20
52686
 10
75830
 20
51871
 10
76024
 20
51394
 10
76202
 20
50936
 10
76362
 20
50493
 10
76507
 20
50062
 10
76702
 20
49422
 10
76946
 20
48554
 10
77209
 20
47566
 10
77329
 20
47063
 10
77436
 20
46562
 10
77531
 20
46062
 10
77613
 20
45566
 10
77718
 20
44793
 10
77816
 20
43875
 10
77889
 20
43054
 10
77933
 20
42362
 10
77963
 20
41386
 10
77932
 20
40409
 10
77889
 20
39717
 10
77816
 20
38896
 10
77716
 20
37978
 10
77612
 20
37205
 10
77530
 20
36709
 10
77435
 20
36210
 10
77327
 20
35709
 10
77207
 20
35205
 10
76944
 20
34218
 10
76702
 20
33353
 10
76504
 20
32710
 10
76359
 20
32280
 10
76199
 20
31837
 10
76022
 20
31379
 10
75826
 20
30901
 10
75470
 20
30082
 10
75005
 20
29069
 10
74046
 20
27034
 10
74046
 20
27034
  0
LWPOLYLINE
  5
46
100
AcDbEntity
  8
0
  6
BYLAYER
 62
  256
370
   -1
100
AcDbPolyline
 90
   90
 70
    1
 43
0
 10
76941
 20
26786
 10
79176
 20
25645
 10
79909
 20
27172
 10
80000
 20
27367
 10
80433
 20
28296
 10
80928
 20
29412
 10
81141
 20
29919
 10
81336
 20
30404
 10
81677
 20
31317
 10
82000
 20
32267
 10
82184
 20
32854
 10
82350
 20
33422
 10
82499
 20
33975
 10
82633
 20
34515
 10
82734
 20
34966
 10
82828
 20
35421
 10
82912
 20
35879
 10
82989
 20
36340
 10
83066
 20
36868
 10
83132
 20
37404
 10
83189
 20
37950
 10
83236
 20
38506
 10
83271
 20
39036
 10
83302
 20
39617
 10
83356
 20
41137
 10
83302
 20
42658
 10
83272
 20
43238
 10
83236
 20
43769
 10
83190
 20
44324
 10
83133
 20
44870
 10
83066
 20
45407
 10
82990
 20
45935
 10
82914
 20
46396
 10
82829
 20
46854
 10
82736
 20
47309
 10
82635
 20
47759
 10
82502
 20
48300
 10
82352
 20
48854
 10
82186
 20
49422
 10
82002
 20
50008
 10
81681
 20
50954
 10
81339
 20
51871
 10
81139
 20
52370
 10
80923
 20
52885
 10
80436
 20
53979
 10
80000
 20
54903
 10
79905
 20
55104
 10
79158
 20
56631
 10
76946
 20
55491
 10
77904
 20
53455
 10
78371
 20
52438
 10
78725
 20
51623
 10
78920
 20
51146
 10
79097
 20
50688
 10
79258
 20
50245
 10
79402
 20
49814
 10
79598
 20
49174
 10
79842
 20
48306
 10
80000
 20
47710
 10
80104
 20
47318
 10
80224
 20
46815
 10
80332
 20
46314
 10
80426
 20
45814
 10
80508
 20
45318
 10
80613
 20
44545
 10
80712
 20
43627
 10
80785
 20
42806
 10
80828
 20
42114
 10
80858
 20
41138
 10
80828
 20
40161
 10
80784
 20
39469
 10
80711
 20
38648
 10
80612
 20
37730
 10
80507
 20
36957
 10
80425
 20
36461
 10
80330
 20
35962
 10
80223
 20
35461
 10
80103
 20
34957
 10
80000
 20
34570
 10
79840
 20
33970
 10
79597
 20
33105
 10
79400
 20
32462
 10
79255
 20
32032
 10
79094
 20
31589
 10
78917
 20
31131
 10
78722
 20
30653
 10
78365
 20
29834
 10
77901
 20
28821
 10
76941
 20
26786
 10
76941
 20
26786
  0
LWPOLYLINE
  5
47
100
AcDbEntity
  8
0
  6
BYLAYER
 62
  256
370
   -1
100
AcDbPolyline
 90
   96
 70
    1
 43
0
 10
78808
 20
23498
 10
80000
 20
22888
 10
81041
 20
22356
 10
81906
 20
24123
 10
82525
 20
25423
 10
82836
 20
26098
 10
83112
 20
26718
 10
83363
 20
27303
 10
83592
 20
27862
 10
83790
 20
28368
 10
83986
 20
28894
 10
84379
 20
30019
 10
84618
 20
30752
 10
84819
 20
31414
 10
84990
 20
32034
 10
85134
 20
32623
 10
85244
 20
33133
 10
85344
 20
33668
 10
85437
 20
34233
 10
85523
 20
34837
 10
85604
 20
35491
 10
85672
 20
36146
 10
85729
 20
36803
 10
85772
 20
37460
 10
85804
 20
38102
 10
85827
 20
38804
 10
85857
 20
40643
 10
85827
 20
42482
 10
85804
 20
43185
 10
85773
 20
43827
 10
85729
 20
44484
 10
85673
 20
45140
 10
85605
 20
45796
 10
85524
 20
46450
 10
85438
 20
47054
 10
85346
 20
47618
 10
85246
 20
48154
 10
85137
 20
48664
 10
84992
 20
49253
 10
84822
 20
49874
 10
84621
 20
50536
 10
84383
 20
51268
 10
83992
 20
52389
 10
83795
 20
52916
 10
83597
 20
53426
 10
83362
 20
53999
 10
83109
 20
54592
 10
82833
 20
55211
 10
82531
 20
55864
 10
81905
 20
57166
 10
81024
 20
58932
 10
80000
 20
58404
 10
78813
 20
57791
 10
79960
 20
55410
 10
80000
 20
55325
 10
80516
 20
54223
 10
80942
 20
53265
 10
81178
 20
52703
 10
81391
 20
52167
 10
81583
 20
51650
 10
81756
 20
51148
 10
81983
 20
50428
 10
82288
 20
49380
 10
82480
 20
48702
 10
82606
 20
48223
 10
82735
 20
47663
 10
82850
 20
47072
 10
82953
 20
46444
 10
83046
 20
45765
 10
83154
 20
44790
 10
83249
 20
43692
 10
83315
 20
42695
 10
83350
 20
41838
 10
83360
 20
40644
 10
83350
 20
39448
 10
83314
 20
38592
 10
83248
 20
37595
 10
83152
 20
36496
 10
83044
 20
35522
 10
82951
 20
34843
 10
82848
 20
34215
 10
82733
 20
33624
 10
82604
 20
33064
 10
82478
 20
32584
 10
82285
 20
31907
 10
81981
 20
30863
 10
81753
 20
30140
 10
81580
 20
29638
 10
81387
 20
29122
 10
81174
 20
28585
 10
80938
 20
28023
 10
80511
 20
27062
 10
80000
 20
25972
 10
79956
 20
25878
 10
78808
 20
23498
 10
78808
 20
23498
  0
LWPOLYLINE
  5
48
100
AcDbEntity
  8
0
  6
BYLAYER
 62
  256
370
   -1
100
AcDbPolyline
 90
    4
 70
    1
 43
0
 10
114566
 20
1085
 10
114590
 20
1085
 10
114566
 20
1085
 10
114566
 20
1085
  0
LWPOLYLINE
  5
49
100
AcDbEntity
  8
0
  6
BYLAYER
 62
  256
370
   -1
100
AcDbPolyline
 90
    4
 70
    1
 43
0
 10
114582
 20
1425
 10
114587
 20
1416
 10
114582
 20
1425
 10
114582
 20
1425
  0
LWPOLYLINE
  5
4A
100
AcDbEntity
  8
0
  6
BYLAYER
 62
  256
370
   -1
100
AcDbPolyline
 90
    4
 70
    1
 43
0
 10
114675
 20
1714
 10
114680
 20
1709
 10
114675
 20
1714
 10
114675
 20
1714
  0
LWPOLYLINE
  5
4B
100
AcDbEntity
  8
0
  6
BYLAYER
 62
  256
370
   -1
100
AcDbPolyline
 90
    4
 70
    1
 43
0
 10
114582
 20
1787
 10
114597
 20
1772
 10
114582
 20
1787
 10
114582
 20
1787
  0
LWPOLYLINE
  5
4C
100
AcDbEntity
  8
0
  6
BYLAYER
 62
  256
370
   -1
100
AcDbPolyline
 90
   17
 70
    1
 43
0
 10
114582
 20
1875
 10
114587
 20
1860
 10
114597
 20
1850
 10
114612
 20
1846
 10
114617
 20
1846
 10
114631
 20
1850
 10
114641
 20
1860
 10
114646
 20
1875
 10
114646
 20
1880
 10
114641
 20
1894
 10
114631
 20
1904
 10
114617
 20
1909
 10
114597
 20
1904
 10
114587
 20
1894
 10
114582
 20
1880
 10
114582
 20
1875
 10
114582
 20
1875
  0
LWPOLYLINE
  5
4D
100
AcDbEntity
  8
0
  6
BYLAYER
 62
  256
370
   -1
100
AcDbPolyline
 90
    4
 70
    1
 43
0
 10
114566
 20
2131
 10
114614
 20
2131
 10
114566
 20
2131
 10
114566
 20
2131
  0
LWPOLYLINE
  5
4E
100
AcDbEntity
  8
0
  6
BYLAYER
 62
  256
370
   -1
100
AcDbPolyline
 90
    4
 70
    1
 43
0
 10
114566
 20
2291
 10
114590
 20
2291
 10
114566
 20
2291
 10
114566
 20
2291
  0
LWPOLYLINE
  5
4F
100
AcDbEntity
  8
0
  6
BYLAYER
 62
  256
370
   -1
100
AcDbPolyline
 90
    4
 70
    1
 43
0
 10
114582
 20
2632
 10
114597
 20
2617
 10
114582
 20
2632
 10
114582
 20
2632
  0
LWPOLYLINE
  5
50
100
AcDbEntity
  8
0
  6
BYLAYER
 62
  256
370
   -1
100
AcDbPolyline
 90
    5
 70
    1
 43
0
 10
114582
 20
2739
 10
114651
 20
2691
 10
114651
 20
2739
 10
114582
 20
2739
 10
114582
 20
2739
  0
LWPOLYLINE
  5
51
100
AcDbEntity
  8
0
  6
BYLAYER
 62
  256
370
   -1
100
AcDbPolyline
 90
    4
 70
    1
 43
0
 10
114582
 20
2793
 10
114582
 20
2862
 10
114582
 20
2793
 10
114582
 20
2793
  0
LWPOLYLINE
  5
52
100
AcDbEntity
  8
0
  6
BYLAYER
 62
  256
370
   -1
100
AcDbPolyline
 90
    4
 70
    1
 43
0
 10
114582
 20
2959
 10
114582
 20
3013
 10
114582
 20
2959
 10
114582
 20
2959
  0
LWPOLYLINE
  5
53
100
AcDbEntity
  8
0
  6
BYLAYER
 62
  256
370
   -1
100
AcDbPolyline
 90
    4
 70
    1
 43
0
 10
114566
 20
3337
 10
114614
 20
3337
 10
114566
 20
3337
 10
114566
 20
3337
  0
LWPOLYLINE
  5
54
100
AcDbEntity
  8
0
  6
BYLAYER
 62
  256
370
   -1
100
AcDbPolyline
 90
   92
 70
    1
 43
0
 10
92136
 20
21968
 10
94369
 20
20827
 10
95270
 20
22658
 10
95915
 20
24006
 10
96239
 20
24708
 10
96527
 20
25351
 10
96788
 20
25957
 10
97026
 20
26536
 10
97231
 20
27057
 10
97435
 20
27600
 10
97847
 20
28773
 10
98101
 20
29544
 10
98311
 20
30230
 10
98488
 20
30869
 10
98636
 20
31474
 10
98748
 20
32002
 10
98851
 20
32559
 10
98945
 20
33152
 10
99034
 20
33794
 10
99116
 20
34484
 10
99185
 20
35172
 10
99241
 20
35858
 10
99284
 20
36542
 10
99314
 20
37214
 10
99335
 20
37950
 10
99359
 20
39876
 10
99335
 20
41802
 10
99314
 20
42537
 10
99284
 20
43210
 10
99241
 20
43894
 10
99186
 20
44580
 10
99117
 20
45268
 10
99035
 20
45958
 10
98947
 20
46599
 10
98853
 20
47192
 10
98750
 20
47749
 10
98638
 20
48277
 10
98490
 20
48884
 10
98313
 20
49524
 10
98104
 20
50210
 10
97852
 20
50979
 10
97442
 20
52146
 10
97238
 20
52691
 10
97032
 20
53216
 10
96788
 20
53812
 10
96524
 20
54427
 10
96236
 20
55069
 10
95922
 20
55746
 10
95270
 20
57095
 10
94353
 20
58926
 10
92141
 20
57786
 10
93339
 20
55310
 10
93921
 20
54075
 10
94366
 20
53080
 10
94613
 20
52496
 10
94835
 20
51938
 10
95036
 20
51400
 10
95218
 20
50878
 10
95453
 20
50136
 10
95774
 20
49040
 10
95977
 20
48333
 10
96108
 20
47836
 10
96240
 20
47258
 10
96358
 20
46642
 10
96462
 20
45982
 10
96557
 20
45254
 10
96666
 20
44220
 10
96760
 20
43077
 10
96825
 20
42034
 10
96857
 20
41130
 10
96862
 20
39876
 10
96856
 20
38621
 10
96824
 20
37718
 10
96759
 20
36675
 10
96665
 20
35531
 10
96555
 20
34498
 10
96460
 20
33770
 10
96355
 20
33110
 10
96238
 20
32494
 10
96106
 20
31916
 10
95974
 20
31418
 10
95772
 20
30712
 10
95451
 20
29620
 10
95214
 20
28874
 10
95033
 20
28353
 10
94832
 20
27815
 10
94609
 20
27258
 10
94362
 20
26672
 10
93916
 20
25674
 10
93335
 20
24443
 10
92136
 20
21968
 10
92136
 20
21968
  0
LWPOLYLINE
  5
55
100
AcDbEntity
  8
0
  6
BYLAYER
 62
  256
370
   -1
100
AcDbPolyline
 90
   90
 70
    1
 43
0
 10
34119
 20
17552
 10
34173
 20
16032
 10
34203
 20
15451
 10
34238
 20
14920
 10
34285
 20
14365
 10
34342
 20
13819
 10
34408
 20
13282
 10
34484
 20
12755
 10
34561
 20
12293
 10
34645
 20
11835
 10
34738
 20
11381
 10
34839
 20
10930
 10
34973
 20
10389
 10
35122
 20
9836
 10
35288
 20
9268
 10
35472
 20
8682
 10
35793
 20
7735
 10
36136
 20
6818
 10
36336
 20
6319
 10
36552
 20
5804
 10
37038
 20
4710
 10
37569
 20
3585
 10
38317
 20
2058
 10
40000
 20
2927
 10
40528
 20
3199
 10
40000
 20
4321
 10
39570
 20
5234
 10
39104
 20
6251
 10
38749
 20
7067
 10
38554
 20
7544
 10
38377
 20
8001
 10
38217
 20
8444
 10
38072
 20
8875
 10
37876
 20
9516
 10
37633
 20
10384
 10
37370
 20
11371
 10
37250
 20
11874
 10
37143
 20
12376
 10
37048
 20
12875
 10
36966
 20
13372
 10
36861
 20
14145
 10
36762
 20
15062
 10
36690
 20
15884
 10
36646
 20
16576
 10
36616
 20
17552
 10
36646
 20
18529
 10
36690
 20
19220
 10
36763
 20
20042
 10
36862
 20
20960
 10
36967
 20
21732
 10
37049
 20
22228
 10
37144
 20
22727
 10
37252
 20
23229
 10
37372
 20
23733
 10
37634
 20
24720
 10
37877
 20
25585
 10
38074
 20
26228
 10
38220
 20
26658
 10
38380
 20
27101
 10
38557
 20
27559
 10
38753
 20
28036
 10
39109
 20
28856
 10
39574
 20
29869
 10
40000
 20
30773
 10
40533
 20
31904
 10
40000
 20
32176
 10
38299
 20
33045
 10
37566
 20
31518
 10
37041
 20
30394
 10
36546
 20
29278
 10
36333
 20
28771
 10
36138
 20
28286
 10
35797
 20
27373
 10
35475
 20
26422
 10
35291
 20
25836
 10
35125
 20
25268
 10
34975
 20
24714
 10
34842
 20
24174
 10
34740
 20
23724
 10
34647
 20
23269
 10
34562
 20
22811
 10
34486
 20
22350
 10
34409
 20
21822
 10
34342
 20
21286
 10
34285
 20
20740
 10
34238
 20
20184
 10
34203
 20
19653
 10
34173
 20
19073
 10
34119
 20
17552
 10
34119
 20
17552
  0
LWPOLYLINE
  5
56
100
AcDbEntity
  8
0
  6
BYLAYER
 62
  256
370
   -1
100
AcDbPolyline
 90
   92
 70
    1
 43
0
 10
28722
 20
18292
 10
28752
 20
16453
 10
28776
 20
15751
 10
28807
 20
15108
 10
28850
 20
14452
 10
28906
 20
13795
 10
28975
 20
13140
 10
29055
 20
12486
 10
29141
 20
11882
 10
29233
 20
11317
 10
29334
 20
10782
 10
29443
 20
10272
 10
29587
 20
9682
 10
29758
 20
9062
 10
29958
 20
8400
 10
30197
 20
7667
 10
30588
 20
6546
 10
30784
 20
6019
 10
30983
 20
5510
 10
31217
 20
4936
 10
31471
 20
4343
 10
31747
 20
3724
 10
32048
 20
3071
 10
32675
 20
1770
 10
33556
 20
4
 10
35766
 20
1144
 10
34620
 20
3526
 10
34064
 20
4712
 10
33637
 20
5670
 10
33402
 20
6232
 10
33189
 20
6769
 10
32996
 20
7286
 10
32823
 20
7788
 10
32597
 20
8507
 10
32292
 20
9556
 10
32099
 20
10234
 10
31973
 20
10713
 10
31844
 20
11272
 10
31730
 20
11863
 10
31626
 20
12491
 10
31534
 20
13170
 10
31426
 20
14145
 10
31331
 20
15244
 10
31264
 20
16241
 10
31230
 20
17097
 10
31220
 20
18292
 10
31230
 20
19487
 10
31265
 20
20343
 10
31332
 20
21341
 10
31427
 20
22439
 10
31536
 20
23414
 10
31629
 20
24093
 10
31732
 20
24721
 10
31847
 20
25312
 10
31976
 20
25871
 10
32102
 20
26352
 10
32294
 20
27028
 10
32599
 20
28073
 10
32826
 20
28796
 10
33000
 20
29297
 10
33192
 20
29814
 10
33405
 20
30350
 10
33641
 20
30913
 10
34069
 20
31874
 10
34624
 20
33057
 10
35771
 20
35438
 10
33538
 20
36579
 10
32673
 20
34813
 10
32054
 20
33513
 10
31744
 20
32837
 10
31467
 20
32218
 10
31216
 20
31632
 10
30988
 20
31074
 10
30790
 20
30567
 10
30594
 20
30041
 10
30200
 20
28917
 10
29961
 20
28184
 10
29761
 20
27522
 10
29590
 20
26902
 10
29445
 20
26313
 10
29336
 20
25802
 10
29235
 20
25267
 10
29142
 20
24702
 10
29056
 20
24099
 10
28976
 20
23444
 10
28907
 20
22789
 10
28851
 20
22133
 10
28807
 20
21476
 10
28776
 20
20834
 10
28753
 20
20131
 10
28722
 20
18292
 10
28722
 20
18292
  0
LWPOLYLINE
  5
57
100
AcDbEntity
  8
0
  6
BYLAYER
 62
  256
370
   -1
100
AcDbPolyline
 90
   73
 70
    1
 43
0
 10
33498
 20
45070
 10
33656
 20
43937
 10
33764
 20
43106
 10
33873
 20
42128
 10
33947
 20
41255
 10
33971
 20
40862
 10
34003
 20
40206
 10
34035
 20
39308
 10
34005
 20
38431
 10
33973
 20
37789
 10
33969
 20
37723
 10
34372
 20
37647
 10
34681
 20
37575
 10
34988
 20
37488
 10
35231
 20
37406
 10
35420
 20
37324
 10
35580
 20
37231
 10
35710
 20
37126
 10
35815
 20
37008
 10
35907
 20
36870
 10
35984
 20
36712
 10
36045
 20
36538
 10
36080
 20
36397
 10
36104
 20
36248
 10
36118
 20
36088
 10
36122
 20
35916
 10
36110
 20
35605
 10
36068
 20
35183
 10
35972
 20
34330
 10
35828
 20
33075
 10
36969
 20
33042
 10
38102
 20
33044
 10
38720
 20
33047
 10
39246
 20
33951
 10
39646
 20
34608
 10
39976
 20
35131
 10
40000
 20
35172
 10
40166
 20
35454
 10
40323
 20
35760
 10
40444
 20
36046
 10
40504
 20
36224
 10
40557
 20
36410
 10
40603
 20
36607
 10
40641
 20
36814
 10
40673
 20
37033
 10
40698
 20
37266
 10
40731
 20
37797
 10
40744
 20
38438
 10
40738
 20
39309
 10
40744
 20
40179
 10
40731
 20
40821
 10
40698
 20
41352
 10
40672
 20
41586
 10
40641
 20
41804
 10
40602
 20
42011
 10
40557
 20
42208
 10
40504
 20
42394
 10
40443
 20
42572
 10
40322
 20
42857
 10
40165
 20
43164
 10
40000
 20
43444
 10
39975
 20
43486
 10
39645
 20
44010
 10
39244
 20
44667
 10
38719
 20
45571
 10
38043
 20
45568
 10
37432
 20
45537
 10
36985
 20
45507
 10
36498
 20
45464
 10
35835
 20
45393
 10
34848
 20
45266
 10
33498
 20
45070
 10
33498
 20
45070
  0
LWPOLYLINE
  5
58
100
AcDbEntity
  8
0
  6
BYLAYER
 62
  256
370
   -1
100
AcDbPolyline
 90
   73
 70
    1
 43
0
 10
73878
 20
5601
 10
73887
 20
4940
 10
73917
 20
4392
 10
73941
 20
4152
 10
73972
 20
3928
 10
74010
 20
3714
 10
74055
 20
3511
 10
74108
 20
3319
 10
74169
 20
3136
 10
74291
 20
2840
 10
74451
 20
2524
 10
74644
 20
2190
 10
74980
 20
1648
 10
75387
 20
969
 10
75921
 20
34
 10
76597
 20
45
 10
77208
 20
82
 10
77655
 20
117
 10
78141
 20
166
 10
78804
 20
245
 10
79846
 20
389
 10
80000
 20
413
 10
81269
 20
609
 10
81110
 20
1768
 10
81002
 20
2617
 10
80892
 20
3619
 10
80818
 20
4509
 10
80794
 20
4910
 10
80763
 20
5581
 10
80732
 20
6498
 10
80759
 20
7375
 10
80790
 20
8016
 10
80794
 20
8082
 10
80366
 20
8166
 10
80039
 20
8244
 10
80000
 20
8255
 10
79712
 20
8339
 10
79454
 20
8428
 10
79253
 20
8516
 10
79085
 20
8616
 10
78947
 20
8729
 10
78836
 20
8854
 10
78739
 20
9002
 10
78658
 20
9171
 10
78595
 20
9356
 10
78560
 20
9506
 10
78535
 20
9664
 10
78521
 20
9834
 10
78517
 20
10018
 10
78530
 20
10335
 10
78571
 20
10760
 10
78667
 20
11626
 10
78812
 20
12897
 10
77671
 20
12945
 10
76537
 20
12957
 10
75920
 20
12962
 10
75386
 20
12026
 10
74978
 20
11346
 10
74643
 20
10806
 10
74450
 20
10471
 10
74291
 20
10154
 10
74169
 20
9859
 10
74108
 20
9676
 10
74055
 20
9484
 10
74010
 20
9281
 10
73972
 20
9067
 10
73941
 20
8842
 10
73917
 20
8602
 10
73887
 20
8054
 10
73878
 20
7394
 10
73891
 20
6498
 10
73878
 20
5601
 10
73878
 20
5601
  0
LWPOLYLINE
  5
59
100
AcDbEntity
  8
0
  6
BYLAYER
 62
  256
370
   -1
100
AcDbPolyline
 90
   71
 70
    1
 43
0
 10
40304
 20
33652
 10
41727
 20
33432
 10
42768
 20
33288
 10
43432
 20
33209
 10
43918
 20
33160
 10
44364
 20
33125
 10
44976
 20
33088
 10
45652
 20
33076
 10
46186
 20
34012
 10
46593
 20
34691
 10
46929
 20
35233
 10
47122
 20
35567
 10
47282
 20
35883
 10
47404
 20
36178
 10
47464
 20
36362
 10
47518
 20
36554
 10
47563
 20
36756
 10
47601
 20
36970
 10
47632
 20
37195
 10
47656
 20
37435
 10
47686
 20
37983
 10
47694
 20
38644
 10
47682
 20
39540
 10
47694
 20
40437
 10
47686
 20
41097
 10
47656
 20
41645
 10
47632
 20
41885
 10
47601
 20
42110
 10
47563
 20
42324
 10
47518
 20
42526
 10
47465
 20
42719
 10
47404
 20
42902
 10
47282
 20
43197
 10
47122
 20
43514
 10
46930
 20
43848
 10
46594
 20
44389
 10
46187
 20
45069
 10
45653
 20
46004
 10
45036
 20
46000
 10
43902
 20
45988
 10
42761
 20
45940
 10
42906
 20
44668
 10
43002
 20
43803
 10
43042
 20
43378
 10
43056
 20
43060
 10
43052
 20
42876
 10
43038
 20
42707
 10
43013
 20
42548
 10
42978
 20
42398
 10
42914
 20
42214
 10
42834
 20
42045
 10
42737
 20
41897
 10
42626
 20
41772
 10
42488
 20
41659
 10
42320
 20
41559
 10
42118
 20
41470
 10
41861
 20
41382
 10
41534
 20
41287
 10
41207
 20
41208
 10
40779
 20
41125
 10
40783
 20
41059
 10
40814
 20
40418
 10
40841
 20
39541
 10
40810
 20
38624
 10
40779
 20
37953
 10
40755
 20
37552
 10
40681
 20
36662
 10
40571
 20
35660
 10
40463
 20
34810
 10
40304
 20
33652
 10
40304
 20
33652
  0
LWPOLYLINE
  5
5A
100
AcDbEntity
  8
0
  6
BYLAYER
 62
  256
370
   -1
100
AcDbPolyline
 90
   69
 70
    1
 43
0
 10
101147
 20
18580
 10
101164
 20
17781
 10
101192
 20
17192
 10
101236
 20
16706
 10
101299
 20
16293
 10
101340
 20
16104
 10
101386
 20
15925
 10
101440
 20
15755
 10
101500
 20
15594
 10
101618
 20
15334
 10
101770
 20
15058
 10
101952
 20
14766
 10
102268
 20
14294
 10
102652
 20
13701
 10
103157
 20
12885
 10
103832
 20
12867
 10
104443
 20
12879
 10
104890
 20
12895
 10
105376
 20
12923
 10
106040
 20
12974
 10
106867
 20
13062
 10
107996
 20
13200
 10
107842
 20
14259
 10
107736
 20
15034
 10
107629
 20
15943
 10
107554
 20
16762
 10
107528
 20
17129
 10
107494
 20
17742
 10
107459
 20
18580
 10
107497
 20
19458
 10
107534
 20
20101
 10
107538
 20
20167
 10
107209
 20
20220
 10
106957
 20
20272
 10
106706
 20
20337
 10
106507
 20
20398
 10
106351
 20
20462
 10
106220
 20
20534
 10
106112
 20
20616
 10
106025
 20
20709
 10
105947
 20
20820
 10
105882
 20
20946
 10
105828
 20
21086
 10
105797
 20
21202
 10
105774
 20
21324
 10
105760
 20
21452
 10
105753
 20
21590
 10
105764
 20
21885
 10
105808
 20
22300
 10
105904
 20
23127
 10
106048
 20
24343
 10
104906
 20
24338
 10
103773
 20
24298
 10
103156
 20
24274
 10
102651
 20
23458
 10
102267
 20
22865
 10
101951
 20
22394
 10
101769
 20
22102
 10
101617
 20
21824
 10
101499
 20
21565
 10
101439
 20
21404
 10
101386
 20
21234
 10
101339
 20
21055
 10
101299
 20
20866
 10
101236
 20
20453
 10
101192
 20
19966
 10
101164
 20
19378
 10
101147
 20
18580
 10
101147
 20
18580
  0
LWPOLYLINE
  5
5B
100
AcDbEntity
  8
0
  6
BYLAYER
 62
  256
370
   -1
100
AcDbPolyline
 90
   69
 70
    1
 43
0
 10
12369
 20
35074
 10
13645
 20
34904
 10
14579
 20
34794
 10
15243
 20
34731
 10
15729
 20
34694
 10
16176
 20
34670
 10
16787
 20
34648
 10
17462
 20
34653
 10
17980
 20
35526
 10
18374
 20
36160
 10
18698
 20
36664
 10
18884
 20
36976
 10
19040
 20
37272
 10
19159
 20
37548
 10
19219
 20
37719
 10
19272
 20
37900
 10
19318
 20
38090
 10
19357
 20
38290
 10
19416
 20
38728
 10
19452
 20
39243
 10
19470
 20
39865
 10
19472
 20
40709
 10
19470
 20
41553
 10
19452
 20
42175
 10
19416
 20
42690
 10
19357
 20
43127
 10
19318
 20
43328
 10
19272
 20
43518
 10
19219
 20
43698
 10
19159
 20
43870
 10
19040
 20
44146
 10
18885
 20
44442
 10
18698
 20
44754
 10
18374
 20
45258
 10
17980
 20
45892
 10
17463
 20
46764
 10
16846
 20
46776
 10
15713
 20
46794
 10
14571
 20
46776
 10
14716
 20
45539
 10
14812
 20
44697
 10
14854
 20
44279
 10
14866
 20
43974
 10
14861
 20
43814
 10
14846
 20
43665
 10
14823
 20
43524
 10
14789
 20
43392
 10
14731
 20
43229
 10
14658
 20
43082
 10
14571
 20
42952
 10
14472
 20
42843
 10
14348
 20
42746
 10
14199
 20
42660
 10
14020
 20
42584
 10
13792
 20
42508
 10
13503
 20
42429
 10
13214
 20
42364
 10
12836
 20
42295
 10
12840
 20
42229
 10
12874
 20
41587
 10
12906
 20
40709
 10
12872
 20
39832
 10
12840
 20
39189
 10
12815
 20
38805
 10
12741
 20
37950
 10
12632
 20
36996
 10
12526
 20
36183
 10
12369
 20
35074
 10
12369
 20
35074
  0
LWPOLYLINE
  5
5C
100
AcDbEntity
  8
0
  6
BYLAYER
 62
  256
370
   -1
100
AcDbPolyline
 90
   87
 70
    1
 43
0
 10
83056
 20
26591
 10
85290
 20
25450
 10
86053
 20
27031
 10
86599
 20
28195
 10
87116
 20
29353
 10
87337
 20
29877
 10
87539
 20
30378
 10
87892
 20
31318
 10
88231
 20
32308
 10
88428
 20
32930
 10
88602
 20
33521
 10
88757
 20
34089
 10
88892
 20
34637
 10
88995
 20
35100
 10
89090
 20
35573
 10
89177
 20
36056
 10
89256
 20
36550
 10
89333
 20
37106
 10
89400
 20
37670
 10
89457
 20
38241
 10
89503
 20
38820
 10
89538
 20
39376
 10
89566
 20
39984
 10
89615
 20
41577
 10
89566
 20
43170
 10
89538
 20
43778
 10
89504
 20
44335
 10
89458
 20
44914
 10
89401
 20
45485
 10
89334
 20
46048
 10
89257
 20
46604
 10
89178
 20
47099
 10
89092
 20
47582
 10
88997
 20
48055
 10
88894
 20
48517
 10
88759
 20
49066
 10
88605
 20
49634
 10
88430
 20
50225
 10
88234
 20
50847
 10
87896
 20
51834
 10
87542
 20
52777
 10
87335
 20
53292
 10
87110
 20
53825
 10
86867
 20
54378
 10
86603
 20
54960
 10
86050
 20
56126
 10
85272
 20
57706
 10
83061
 20
56566
 10
84062
 20
54452
 10
84548
 20
53398
 10
84920
 20
52548
 10
85124
 20
52051
 10
85310
 20
51575
 10
85477
 20
51116
 10
85628
 20
50670
 10
85831
 20
50012
 10
86088
 20
49102
 10
86364
 20
48076
 10
86485
 20
47564
 10
86594
 20
47043
 10
86691
 20
46512
 10
86776
 20
45972
 10
86882
 20
45151
 10
86980
 20
44194
 10
87050
 20
43336
 10
87092
 20
42604
 10
87118
 20
41578
 10
87092
 20
40551
 10
87050
 20
39820
 10
86978
 20
38960
 10
86880
 20
38004
 10
86774
 20
37183
 10
86689
 20
36643
 10
86591
 20
36112
 10
86482
 20
35591
 10
86362
 20
35079
 10
86086
 20
34053
 10
85829
 20
33146
 10
85625
 20
32486
 10
85474
 20
32040
 10
85306
 20
31581
 10
85121
 20
31106
 10
84916
 20
30608
 10
84542
 20
29754
 10
84058
 20
28704
 10
83056
 20
26591
 10
83056
 20
26591
  0
LWPOLYLINE
  5
5D
100
AcDbEntity
  8
0
  6
BYLAYER
 62
  256
370
   -1
100
AcDbPolyline
 90
   69
 70
    1
 43
0
 10
101244
 20
6806
 10
101245
 20
5962
 10
101263
 20
5340
 10
101300
 20
4825
 10
101358
 20
4388
 10
101398
 20
4187
 10
101443
 20
3997
 10
101496
 20
3816
 10
101556
 20
3645
 10
101676
 20
3368
 10
101831
 20
3072
 10
102018
 20
2761
 10
102341
 20
2257
 10
102735
 20
1623
 10
103252
 20
750
 10
103870
 20
739
 10
105003
 20
721
 10
106144
 20
738
 10
106000
 20
1976
 10
105904
 20
2818
 10
105862
 20
3236
 10
105850
 20
3540
 10
105855
 20
3701
 10
105869
 20
3850
 10
105893
 20
3990
 10
105926
 20
4123
 10
105984
 20
4286
 10
106058
 20
4433
 10
106145
 20
4563
 10
106244
 20
4672
 10
106367
 20
4769
 10
106517
 20
4855
 10
106695
 20
4931
 10
106923
 20
5006
 10
107212
 20
5086
 10
107502
 20
5151
 10
107880
 20
5220
 10
107876
 20
5286
 10
107841
 20
5928
 10
107810
 20
6806
 10
107843
 20
7683
 10
107876
 20
8326
 10
107900
 20
8710
 10
107975
 20
9565
 10
108083
 20
10519
 10
108190
 20
11332
 10
108347
 20
12440
 10
107070
 20
12611
 10
106137
 20
12721
 10
105473
 20
12784
 10
104986
 20
12821
 10
104540
 20
12844
 10
103928
 20
12867
 10
103253
 20
12862
 10
102736
 20
11989
 10
102342
 20
11355
 10
102018
 20
10850
 10
101831
 20
10539
 10
101676
 20
10243
 10
101556
 20
9967
 10
101496
 20
9796
 10
101443
 20
9615
 10
101398
 20
9425
 10
101358
 20
9224
 10
101300
 20
8787
 10
101263
 20
8272
 10
101245
 20
7650
 10
101244
 20
6806
 10
101244
 20
6806
  0
LWPOLYLINE
  5
5E
100
AcDbEntity
  8
0
  6
BYLAYER
 62
  256
370
   -1
100
AcDbPolyline
 90
   69
 70
    1
 43
0
 10
43978
 20
16013
 10
43995
 20
15214
 10
44023
 20
14626
 10
44067
 20
14140
 10
44130
 20
13727
 10
44170
 20
13538
 10
44217
 20
13359
 10
44270
 20
13189
 10
44330
 20
13028
 10
44448
 20
12768
 10
44600
 20
12491
 10
44782
 20
12199
 10
45098
 20
11728
 10
45482
 20
11135
 10
45987
 20
10318
 10
46604
 20
10295
 10
47737
 20
10255
 10
48879
 20
10250
 10
48735
 20
11466
 10
48639
 20
12292
 10
48595
 20
12708
 10
48584
 20
13003
 10
48591
 20
13140
 10
48605
 20
13269
 10
48628
 20
13391
 10
48660
 20
13506
 10
48713
 20
13646
 10
48778
 20
13773
 10
48856
 20
13884
 10
48943
 20
13976
 10
49052
 20
14059
 10
49182
 20
14131
 10
49338
 20
14194
 10
49537
 20
14256
 10
49788
 20
14320
 10
50040
 20
14372
 10
50369
 20
14426
 10
50365
 20
14492
 10
50328
 20
15134
 10
50290
 20
16013
 10
50326
 20
16851
 10
50359
 20
17464
 10
50385
 20
17831
 10
50460
 20
18650
 10
50567
 20
19558
 10
50673
 20
20334
 10
50827
 20
21392
 10
49698
 20
21531
 10
48872
 20
21619
 10
48208
 20
21670
 10
47721
 20
21698
 10
47274
 20
21714
 10
46663
 20
21726
 10
45988
 20
21708
 10
45483
 20
20892
 10
45099
 20
20299
 10
44783
 20
19827
 10
44601
 20
19535
 10
44449
 20
19258
 10
44331
 20
18999
 10
44271
 20
18838
 10
44218
 20
18668
 10
44171
 20
18489
 10
44130
 20
18300
 10
44067
 20
17887
 10
44023
 20
17400
 10
43995
 20
16812
 10
43978
 20
16013
 10
43978
 20
16013
  0
LWPOLYLINE
  5
5F
100
AcDbEntity
  8
0
  6
BYLAYER
 62
  256
370
   -1
100
AcDbPolyline
 90
   71
 70
    1
 43
0
 10
47136
 20
58290
 10
47297
 20
57106
 10
47406
 20
56238
 10
47515
 20
55219
 10
47589
 20
54306
 10
47613
 20
53896
 10
47644
 20
53211
 10
47674
 20
52274
 10
47646
 20
51398
 10
47618
 20
50757
 10
47614
 20
50691
 10
48068
 20
50600
 10
48414
 20
50515
 10
48759
 20
50413
 10
49032
 20
50317
 10
49244
 20
50222
 10
49422
 20
50115
 10
49568
 20
49995
 10
49684
 20
49862
 10
49786
 20
49704
 10
49871
 20
49525
 10
49936
 20
49329
 10
49973
 20
49170
 10
49998
 20
49003
 10
50012
 20
48823
 10
50015
 20
48627
 10
50001
 20
48303
 10
49962
 20
47874
 10
49866
 20
46998
 10
49720
 20
45709
 10
50862
 20
45650
 10
51995
 20
45627
 10
52612
 20
45617
 10
53155
 20
46582
 10
53569
 20
47284
 10
53909
 20
47842
 10
54105
 20
48186
 10
54267
 20
48513
 10
54390
 20
48818
 10
54451
 20
49006
 10
54504
 20
49204
 10
54550
 20
49413
 10
54587
 20
49633
 10
54617
 20
49865
 10
54640
 20
50112
 10
54667
 20
50675
 10
54671
 20
51354
 10
54651
 20
52274
 10
54671
 20
53196
 10
54667
 20
53874
 10
54640
 20
54438
 10
54617
 20
54684
 10
54587
 20
54916
 10
54549
 20
55136
 10
54504
 20
55345
 10
54451
 20
55543
 10
54390
 20
55732
 10
54266
 20
56036
 10
54104
 20
56362
 10
53909
 20
56707
 10
53568
 20
57266
 10
53154
 20
57967
 10
52612
 20
58932
 10
51935
 20
58915
 10
51324
 20
58872
 10
50877
 20
58834
 10
50391
 20
58780
 10
49728
 20
58696
 10
48633
 20
58535
 10
47136
 20
58290
 10
47136
 20
58290
  0
LWPOLYLINE
  5
60
100
AcDbEntity
  8
0
  6
BYLAYER
 62
  256
370
   -1
100
AcDbPolyline
 90
   69
 70
    1
 43
0
 10
67964
 20
52509
 10
67965
 20
51665
 10
67983
 20
51043
 10
68020
 20
50528
 10
68078
 20
50090
 10
68118
 20
49890
 10
68163
 20
49700
 10
68216
 20
49519
 10
68276
 20
49348
 10
68396
 20
49072
 10
68551
 20
48776
 10
68738
 20
48464
 10
69062
 20
47960
 10
69456
 20
47326
 10
69973
 20
46453
 10
70648
 20
46448
 10
71260
 20
46470
 10
71706
 20
46494
 10
72193
 20
46531
 10
72857
 20
46594
 10
73790
 20
46704
 10
75067
 20
46874
 10
74910
 20
47983
 10
74803
 20
48796
 10
74695
 20
49750
 10
74620
 20
50605
 10
74596
 20
50989
 10
74563
 20
51632
 10
74530
 20
52509
 10
74561
 20
53387
 10
74596
 20
54029
 10
74600
 20
54095
 10
74222
 20
54164
 10
73932
 20
54229
 10
73643
 20
54308
 10
73415
 20
54384
 10
73237
 20
54460
 10
73087
 20
54546
 10
72964
 20
54643
 10
72865
 20
54752
 10
72778
 20
54882
 10
72704
 20
55029
 10
72646
 20
55192
 10
72613
 20
55324
 10
72589
 20
55465
 10
72575
 20
55614
 10
72570
 20
55774
 10
72582
 20
56079
 10
72624
 20
56497
 10
72720
 20
57339
 10
72864
 20
58576
 10
71723
 20
58594
 10
70590
 20
58576
 10
69972
 20
58564
 10
69455
 20
57692
 10
69061
 20
57058
 10
68738
 20
56554
 10
68551
 20
56242
 10
68396
 20
55946
 10
68276
 20
55670
 10
68216
 20
55498
 10
68163
 20
55318
 10
68118
 20
55128
 10
68078
 20
54927
 10
68020
 20
54490
 10
67983
 20
53975
 10
67965
 20
53353
 10
67964
 20
52509
 10
67964
 20
52509
  0
LWPOLYLINE
  5
61
100
AcDbEntity
  8
0
  6
BYLAYER
 62
  256
370
   -1
100
AcDbPolyline
 90
   71
 70
    1
 43
0
 10
71418
 20
18466
 10
71431
 20
17825
 10
71464
 20
17293
 10
71490
 20
17060
 10
71521
 20
16842
 10
71560
 20
16634
 10
71605
 20
16438
 10
71658
 20
16252
 10
71719
 20
16074
 10
71840
 20
15788
 10
71997
 20
15482
 10
72187
 20
15159
 10
72517
 20
14636
 10
72918
 20
13979
 10
73443
 20
13075
 10
74119
 20
13078
 10
74730
 20
13109
 10
75177
 20
13138
 10
75664
 20
13182
 10
76327
 20
13253
 10
77314
 20
13380
 10
78664
 20
13575
 10
78506
 20
14709
 10
78398
 20
15540
 10
78289
 20
16518
 10
78215
 20
17391
 10
78191
 20
17783
 10
78159
 20
18440
 10
78127
 20
19337
 10
78157
 20
20215
 10
78189
 20
20857
 10
78193
 20
20922
 10
77790
 20
20998
 10
77481
 20
21070
 10
77174
 20
21157
 10
76931
 20
21239
 10
76742
 20
21322
 10
76582
 20
21415
 10
76452
 20
21520
 10
76347
 20
21637
 10
76255
 20
21776
 10
76178
 20
21934
 10
76117
 20
22107
 10
76082
 20
22248
 10
76058
 20
22398
 10
76044
 20
22557
 10
76040
 20
22730
 10
76052
 20
23040
 10
76094
 20
23462
 10
76190
 20
24316
 10
76334
 20
25570
 10
75193
 20
25603
 10
74060
 20
25602
 10
73442
 20
25599
 10
72916
 20
24694
 10
72516
 20
24037
 10
72186
 20
23515
 10
71996
 20
23192
 10
71839
 20
22885
 10
71718
 20
22599
 10
71658
 20
22422
 10
71605
 20
22235
 10
71559
 20
22038
 10
71521
 20
21831
 10
71489
 20
21613
 10
71464
 20
21380
 10
71431
 20
20848
 10
71418
 20
20207
 10
71424
 20
19337
 10
71418
 20
18466
 10
71418
 20
18466
  0
LWPOLYLINE
  5
62
100
AcDbEntity
  8
0
  6
BYLAYER
 62
  256
370
   -1
100
AcDbPolyline
 90
    4
 70
    1
 43
0
 10
114675
 20
468
 10
114680
 20
463
 10
114675
 20
468
 10
114675
 20
468
  0
LWPOLYLINE
  5
63
100
AcDbEntity
  8
0
  6
BYLAYER
 62
  256
370
   -1
100
AcDbPolyline
 90
    4
 70
    1
 43
0
 10
114566
 20
592
 10
114574
 20
592
 10
114566
 20
592
 10
114566
 20
592
  0
LWPOLYLINE
  5
64
100
AcDbEntity
  8
0
  6
BYLAYER
 62
  256
370
   -1
100
AcDbPolyline
 90
    4
 70
    1
 43
0
 10
114675
 20
1000
 10
114680
 20
996
 10
114675
 20
1000
 10
114675
 20
1000
  0
LWPOLYLINE
  5
65
100
AcDbEntity
  8
0
  6
BYLAYER
 62
  256
370
   -1
100
AcDbPolyline
 90
   89
 70
    1
 43
0
 10
102289
 20
25771
 10
104522
 20
24630
 10
105315
 20
26265
 10
105883
 20
27469
 10
106420
 20
28667
 10
106650
 20
29209
 10
106860
 20
29728
 10
107226
 20
30695
 10
107580
 20
31724
 10
107790
 20
32380
 10
107973
 20
32993
 10
108132
 20
33575
 10
108270
 20
34134
 10
108374
 20
34610
 10
108470
 20
35101
 10
108559
 20
35609
 10
108640
 20
36136
 10
108719
 20
36721
 10
108786
 20
37311
 10
108843
 20
37908
 10
108888
 20
38510
 10
108922
 20
39091
 10
108949
 20
39727
 10
108992
 20
41392
 10
108949
 20
43058
 10
108922
 20
43694
 10
108889
 20
44275
 10
108844
 20
44877
 10
108788
 20
45474
 10
108720
 20
46064
 10
108642
 20
46649
 10
108561
 20
47176
 10
108472
 20
47684
 10
108376
 20
48174
 10
108272
 20
48650
 10
108134
 20
49210
 10
107975
 20
49794
 10
107793
 20
50406
 10
107584
 20
51061
 10
107230
 20
52087
 10
106864
 20
53058
 10
106649
 20
53591
 10
106416
 20
54141
 10
106163
 20
54714
 10
105888
 20
55316
 10
105313
 20
56522
 10
104505
 20
58157
 10
102294
 20
57016
 10
103338
 20
54824
 10
103846
 20
53729
 10
104232
 20
52850
 10
104446
 20
52334
 10
104639
 20
51841
 10
104814
 20
51364
 10
104972
 20
50901
 10
105182
 20
50224
 10
105453
 20
49274
 10
105625
 20
48656
 10
105742
 20
48210
 10
105864
 20
47686
 10
105975
 20
47144
 10
106074
 20
46583
 10
106162
 20
46001
 10
106268
 20
45136
 10
106365
 20
44137
 10
106434
 20
43237
 10
106474
 20
42469
 10
106495
 20
41393
 10
106474
 20
40317
 10
106434
 20
39550
 10
106364
 20
38649
 10
106267
 20
37648
 10
106160
 20
36784
 10
106072
 20
36204
 10
105973
 20
35643
 10
105862
 20
35101
 10
105739
 20
34576
 10
105622
 20
34128
 10
105451
 20
33511
 10
105180
 20
32566
 10
104969
 20
31886
 10
104811
 20
31422
 10
104636
 20
30946
 10
104442
 20
30452
 10
104228
 20
29937
 10
103840
 20
29054
 10
103334
 20
27963
 10
102289
 20
25771
 10
102289
 20
25771
  0
LWPOLYLINE
  5
66
100
AcDbEntity
  8
0
  6
BYLAYER
 62
  256
370
   -1
100
AcDbPolyline
 90
   69
 70
    1
 43
0
 10
70732
 20
44848
 10
70888
 20
43765
 10
70994
 20
42970
 10
71102
 20
42040
 10
71177
 20
41202
 10
71202
 20
40826
 10
71235
 20
40199
 10
71270
 20
39341
 10
71235
 20
38462
 10
71199
 20
37820
 10
71195
 20
37754
 10
71549
 20
37693
 10
71820
 20
37634
 10
72090
 20
37562
 10
72303
 20
37494
 10
72470
 20
37424
 10
72610
 20
37346
 10
72726
 20
37255
 10
72819
 20
37154
 10
72901
 20
37034
 10
72971
 20
36897
 10
73026
 20
36746
 10
73059
 20
36622
 10
73082
 20
36490
 10
73097
 20
36352
 10
73102
 20
36203
 10
73091
 20
35903
 10
73048
 20
35486
 10
72952
 20
34652
 10
72808
 20
33425
 10
73950
 20
33419
 10
75083
 20
33446
 10
75700
 20
33464
 10
76211
 20
34308
 10
76600
 20
34922
 10
76920
 20
35410
 10
77104
 20
35712
 10
77258
 20
35999
 10
77376
 20
36267
 10
77436
 20
36433
 10
77490
 20
36609
 10
77536
 20
36793
 10
77576
 20
36988
 10
77637
 20
37414
 10
77677
 20
37914
 10
77700
 20
38520
 10
77708
 20
39341
 10
77700
 20
40163
 10
77676
 20
40768
 10
77636
 20
41270
 10
77575
 20
41694
 10
77536
 20
41890
 10
77489
 20
42074
 10
77436
 20
42250
 10
77376
 20
42416
 10
77257
 20
42684
 10
77104
 20
42970
 10
76919
 20
43272
 10
76599
 20
43760
 10
76210
 20
44374
 10
75699
 20
45219
 10
75024
 20
45230
 10
74412
 20
45212
 10
73966
 20
45192
 10
73479
 20
45160
 10
72815
 20
45103
 10
71935
 20
45003
 10
70732
 20
44848
 10
70732
 20
44848
  0
LWPOLYLINE
  5
67
100
AcDbEntity
  8
0
  6
BYLAYER
 62
  256
370
   -1
100
AcDbPolyline
 90
   71
 70
    1
 43
0
 10
94612
 20
6161
 10
94613
 20
5317
 10
94631
 20
4695
 10
94668
 20
4180
 10
94726
 20
3743
 10
94766
 20
3542
 10
94811
 20
3352
 10
94864
 20
3172
 10
94924
 20
3000
 10
95044
 20
2724
 10
95199
 20
2428
 10
95386
 20
2117
 10
95710
 20
1612
 10
96104
 20
978
 10
96621
 20
106
 10
97296
 20
100
 10
97908
 20
123
 10
98354
 20
146
 10
98841
 20
184
 10
99505
 20
246
 10
100000
 20
304
 10
100438
 20
356
 10
101715
 20
527
 10
101558
 20
1635
 10
101451
 20
2448
 10
101343
 20
3402
 10
101268
 20
4258
 10
101244
 20
4642
 10
101211
 20
5284
 10
101178
 20
6162
 10
101209
 20
7040
 10
101244
 20
7682
 10
101248
 20
7748
 10
100870
 20
7816
 10
100580
 20
7881
 10
100291
 20
7961
 10
100063
 20
8036
 10
100000
 20
8063
 10
99885
 20
8112
 10
99735
 20
8198
 10
99612
 20
8296
 10
99513
 20
8404
 10
99426
 20
8534
 10
99352
 20
8682
 10
99294
 20
8844
 10
99261
 20
8977
 10
99237
 20
9117
 10
99223
 20
9266
 10
99218
 20
9427
 10
99230
 20
9731
 10
99272
 20
10150
 10
99368
 20
10991
 10
99512
 20
12229
 10
98371
 20
12246
 10
97238
 20
12228
 10
96620
 20
12217
 10
96103
 20
11344
 10
95709
 20
10710
 10
95386
 20
10206
 10
95199
 20
9895
 10
95044
 20
9599
 10
94924
 20
9322
 10
94864
 20
9151
 10
94811
 20
8970
 10
94766
 20
8780
 10
94726
 20
8579
 10
94668
 20
8142
 10
94631
 20
7627
 10
94613
 20
7005
 10
94612
 20
6161
 10
94612
 20
6161
  0
LWPOLYLINE
  5
68
100
AcDbEntity
  8
0
  6
BYLAYER
 62
  256
370
   -1
100
AcDbPolyline
 90
   71
 70
    1
 43
0
 10
94562
 20
18661
 10
94564
 20
17817
 10
94582
 20
17195
 10
94619
 20
16680
 10
94677
 20
16243
 10
94716
 20
16042
 10
94762
 20
15852
 10
94815
 20
15671
 10
94875
 20
15500
 10
94994
 20
15223
 10
95150
 20
14927
 10
95336
 20
14616
 10
95660
 20
14112
 10
96054
 20
13478
 10
96571
 20
12605
 10
97188
 20
12594
 10
98322
 20
12576
 10
99463
 20
12593
 10
99318
 20
13831
 10
99223
 20
14672
 10
99180
 20
15091
 10
99168
 20
15395
 10
99174
 20
15556
 10
99188
 20
15705
 10
99212
 20
15845
 10
99245
 20
15978
 10
99303
 20
16140
 10
99377
 20
16288
 10
99464
 20
16418
 10
99563
 20
16526
 10
99686
 20
16624
 10
99836
 20
16710
 10
100000
 20
16780
 10
100014
 20
16786
 10
100242
 20
16861
 10
100531
 20
16941
 10
100820
 20
17006
 10
101199
 20
17074
 10
101194
 20
17140
 10
101160
 20
17782
 10
101128
 20
18660
 10
101162
 20
19538
 10
101194
 20
20180
 10
101219
 20
20564
 10
101294
 20
21420
 10
101402
 20
22374
 10
101509
 20
23187
 10
101666
 20
24295
 10
100389
 20
24466
 10
100000
 20
24512
 10
99456
 20
24576
 10
98792
 20
24638
 10
98305
 20
24676
 10
97858
 20
24699
 10
97247
 20
24722
 10
96572
 20
24716
 10
96055
 20
23844
 10
95661
 20
23210
 10
95336
 20
22705
 10
95150
 20
22394
 10
94994
 20
22098
 10
94875
 20
21822
 10
94815
 20
21650
 10
94762
 20
21470
 10
94716
 20
21280
 10
94677
 20
21079
 10
94619
 20
20642
 10
94582
 20
20127
 10
94564
 20
19505
 10
94562
 20
18661
 10
94562
 20
18661
  0
LWPOLYLINE
  5
69
100
AcDbEntity
  8
0
  6
BYLAYER
 62
  256
370
   -1
100
AcDbPolyline
 90
   69
 70
    1
 43
0
 10
66823
 20
31739
 10
66832
 20
30917
 10
66855
 20
30312
 10
66895
 20
29810
 10
66956
 20
29386
 10
66996
 20
29190
 10
67042
 20
29006
 10
67096
 20
28830
 10
67156
 20
28664
 10
67274
 20
28396
 10
67428
 20
28110
 10
67612
 20
27808
 10
67933
 20
27320
 10
68322
 20
26706
 10
68833
 20
25861
 10
69508
 20
25850
 10
70119
 20
25868
 10
70566
 20
25888
 10
71052
 20
25920
 10
71716
 20
25977
 10
72596
 20
26077
 10
73799
 20
26232
 10
73644
 20
27315
 10
73537
 20
28110
 10
73430
 20
29040
 10
73355
 20
29878
 10
73330
 20
30254
 10
73297
 20
30881
 10
73262
 20
31739
 10
73297
 20
32618
 10
73332
 20
33260
 10
73337
 20
33326
 10
72983
 20
33387
 10
72712
 20
33446
 10
72442
 20
33518
 10
72229
 20
33586
 10
72062
 20
33656
 10
71921
 20
33734
 10
71806
 20
33825
 10
71712
 20
33926
 10
71630
 20
34046
 10
71561
 20
34183
 10
71505
 20
34334
 10
71473
 20
34458
 10
71449
 20
34590
 10
71435
 20
34728
 10
71429
 20
34877
 10
71440
 20
35177
 10
71484
 20
35594
 10
71580
 20
36428
 10
71724
 20
37655
 10
70582
 20
37661
 10
69449
 20
37634
 10
68832
 20
37616
 10
68321
 20
36772
 10
67932
 20
36158
 10
67612
 20
35670
 10
67428
 20
35368
 10
67274
 20
35081
 10
67155
 20
34813
 10
67095
 20
34647
 10
67042
 20
34471
 10
66996
 20
34287
 10
66956
 20
34092
 10
66895
 20
33666
 10
66855
 20
33166
 10
66832
 20
32560
 10
66823
 20
31739
 10
66823
 20
31739
  0
LWPOLYLINE
  5
6A
100
AcDbEntity
  8
0
  6
BYLAYER
 62
  256
370
   -1
100
AcDbPolyline
 90
    6
 70
    1
 43
0
 10
114617
 20
468
 10
114621
 20
463
 10
114626
 20
468
 10
114621
 20
473
 10
114617
 20
468
 10
114617
 20
468
  0
LWPOLYLINE
  5
6B
100
AcDbEntity
  8
0
  6
BYLAYER
 62
  256
370
   -1
100
AcDbPolyline
 90
    6
 70
    1
 43
0
 10
114617
 20
1000
 10
114621
 20
996
 10
114626
 20
1000
 10
114621
 20
1005
 10
114617
 20
1000
 10
114617
 20
1000
  0
LWPOLYLINE
  5
6C
100
AcDbEntity
  8
0
  6
BYLAYER
 62
  256
370
   -1
100
AcDbPolyline
 90
   69
 70
    1
 43
0
 10
6031
 20
46304
 10
6185
 20
45245
 10
6291
 20
44470
 10
6398
 20
43561
 10
6473
 20
42742
 10
6499
 20
42375
 10
6532
 20
41762
 10
6568
 20
40924
 10
6530
 20
40046
 10
6493
 20
39403
 10
6489
 20
39337
 10
6818
 20
39284
 10
7070
 20
39232
 10
7321
 20
39167
 10
7520
 20
39106
 10
7676
 20
39042
 10
7806
 20
38970
 10
7915
 20
38888
 10
8002
 20
38795
 10
8080
 20
38684
 10
8145
 20
38558
 10
8198
 20
38418
 10
8230
 20
38302
 10
8253
 20
38180
 10
8267
 20
38052
 10
8274
 20
37914
 10
8263
 20
37619
 10
8219
 20
37204
 10
8123
 20
36377
 10
7979
 20
35161
 10
9121
 20
35166
 10
10254
 20
35206
 10
10871
 20
35230
 10
11376
 20
36046
 10
11760
 20
36639
 10
12076
 20
37110
 10
12258
 20
37402
 10
12410
 20
37680
 10
12528
 20
37939
 10
12588
 20
38100
 10
12641
 20
38270
 10
12688
 20
38449
 10
12728
 20
38638
 10
12791
 20
39051
 10
12835
 20
39538
 10
12863
 20
40126
 10
12880
 20
40924
 10
12863
 20
41723
 10
12835
 20
42312
 10
12791
 20
42798
 10
12728
 20
43211
 10
12687
 20
43400
 10
12640
 20
43579
 10
12587
 20
43749
 10
12527
 20
43910
 10
12409
 20
44170
 10
12257
 20
44446
 10
12075
 20
44738
 10
11759
 20
45210
 10
11375
 20
45803
 10
10870
 20
46619
 10
10195
 20
46637
 10
9584
 20
46625
 10
9137
 20
46609
 10
8650
 20
46581
 10
7986
 20
46530
 10
7160
 20
46442
 10
6031
 20
46304
 10
6031
 20
46304
  0
LWPOLYLINE
  5
6D
100
AcDbEntity
  8
0
  6
BYLAYER
 62
  256
370
   -1
100
AcDbPolyline
 90
   71
 70
    1
 43
0
 10
57995
 20
19241
 10
58004
 20
18419
 10
58026
 20
17814
 10
58066
 20
17313
 10
58128
 20
16888
 10
58167
 20
16693
 10
58214
 20
16508
 10
58267
 20
16333
 10
58327
 20
16166
 10
58446
 20
15898
 10
58599
 20
15612
 10
58784
 20
15310
 10
59103
 20
14822
 10
59492
 20
14208
 10
60000
 20
13370
 10
60004
 20
13363
 10
60620
 20
13346
 10
61754
 20
13318
 10
62896
 20
13325
 10
62751
 20
14552
 10
62656
 20
15386
 10
62612
 20
15802
 10
62601
 20
16102
 10
62606
 20
16251
 10
62621
 20
16390
 10
62644
 20
16521
 10
62677
 20
16646
 10
62732
 20
16797
 10
62802
 20
16934
 10
62884
 20
17054
 10
62977
 20
17155
 10
63093
 20
17245
 10
63233
 20
17324
 10
63400
 20
17394
 10
63614
 20
17462
 10
63883
 20
17534
 10
64154
 20
17592
 10
64508
 20
17654
 10
64504
 20
17720
 10
64468
 20
18362
 10
64434
 20
19240
 10
64468
 20
20098
 10
64501
 20
20726
 10
64526
 20
21102
 10
64601
 20
21939
 10
64709
 20
22870
 10
64815
 20
23664
 10
64971
 20
24748
 10
63768
 20
24903
 10
62888
 20
25002
 10
62224
 20
25059
 10
61738
 20
25092
 10
61291
 20
25112
 10
60680
 20
25130
 10
60004
 20
25118
 10
60000
 20
25111
 10
59494
 20
24274
 10
59104
 20
23660
 10
58784
 20
23171
 10
58600
 20
22870
 10
58446
 20
22583
 10
58327
 20
22316
 10
58267
 20
22149
 10
58214
 20
21974
 10
58168
 20
21789
 10
58128
 20
21594
 10
58067
 20
21169
 10
58027
 20
20668
 10
58004
 20
20063
 10
57995
 20
19241
 10
57995
 20
19241
  0
LWPOLYLINE
  5
6E
100
AcDbEntity
  8
0
  6
BYLAYER
 62
  256
370
   -1
100
AcDbPolyline
 90
   71
 70
    1
 43
0
 10
59178
 20
26055
 10
60000
 20
25949
 10
60381
 20
25900
 10
61261
 20
25801
 10
61925
 20
25744
 10
62411
 20
25711
 10
62858
 20
25691
 10
63469
 20
25674
 10
64144
 20
25685
 10
64655
 20
26530
 10
65044
 20
27143
 10
65365
 20
27632
 10
65549
 20
27934
 10
65703
 20
28220
 10
65822
 20
28488
 10
65882
 20
28654
 10
65935
 20
28829
 10
65981
 20
29014
 10
66021
 20
29209
 10
66082
 20
29634
 10
66122
 20
30135
 10
66145
 20
30740
 10
66154
 20
31562
 10
66145
 20
32384
 10
66122
 20
32989
 10
66082
 20
33490
 10
66021
 20
33915
 10
65982
 20
34110
 10
65935
 20
34295
 10
65882
 20
34470
 10
65822
 20
34637
 10
65703
 20
34905
 10
65550
 20
35191
 10
65365
 20
35493
 10
65046
 20
35981
 10
64656
 20
36595
 10
64145
 20
37440
 10
63528
 20
37457
 10
62395
 20
37485
 10
61253
 20
37478
 10
61398
 20
36252
 10
61493
 20
35418
 10
61537
 20
35001
 10
61548
 20
34701
 10
61542
 20
34552
 10
61528
 20
34413
 10
61504
 20
34282
 10
61472
 20
34158
 10
61416
 20
34006
 10
61347
 20
33869
 10
61265
 20
33749
 10
61172
 20
33648
 10
61056
 20
33558
 10
60916
 20
33479
 10
60748
 20
33410
 10
60535
 20
33341
 10
60266
 20
33270
 10
60000
 20
33212
 10
59994
 20
33211
 10
59640
 20
33150
 10
59645
 20
33084
 10
59680
 20
32441
 10
59715
 20
31563
 10
59680
 20
30705
 10
59648
 20
30077
 10
59622
 20
29702
 10
59548
 20
28864
 10
59440
 20
27933
 10
59334
 20
27139
 10
59178
 20
26055
 10
59178
 20
26055
  0
LWPOLYLINE
  5
6F
100
AcDbEntity
  8
0
  6
BYLAYER
 62
  256
370
   -1
100
AcDbPolyline
 90
   92
 70
    1
 43
0
 10
21828
 20
18292
 10
21858
 20
16453
 10
21881
 20
15751
 10
21912
 20
15108
 10
21956
 20
14452
 10
22012
 20
13795
 10
22080
 20
13140
 10
22161
 20
12486
 10
22247
 20
11882
 10
22339
 20
11317
 10
22439
 20
10782
 10
22548
 20
10272
 10
22693
 20
9682
 10
22864
 20
9062
 10
23064
 20
8400
 10
23302
 20
7667
 10
23694
 20
6546
 10
23890
 20
6019
 10
24088
 20
5510
 10
24323
 20
4936
 10
24576
 20
4343
 10
24852
 20
3724
 10
25154
 20
3071
 10
25780
 20
1770
 10
26661
 20
4
 10
28872
 20
1144
 10
27725
 20
3526
 10
27169
 20
4712
 10
26743
 20
5670
 10
26507
 20
6232
 10
26294
 20
6769
 10
26102
 20
7286
 10
25929
 20
7788
 10
25702
 20
8507
 10
25398
 20
9556
 10
25205
 20
10234
 10
25079
 20
10713
 10
24950
 20
11272
 10
24835
 20
11863
 10
24732
 20
12491
 10
24639
 20
13170
 10
24531
 20
14145
 10
24436
 20
15244
 10
24370
 20
16241
 10
24335
 20
17097
 10
24325
 20
18292
 10
24336
 20
19487
 10
24371
 20
20343
 10
24438
 20
21341
 10
24533
 20
22439
 10
24641
 20
23414
 10
24734
 20
24093
 10
24837
 20
24721
 10
24952
 20
25312
 10
25081
 20
25871
 10
25208
 20
26352
 10
25400
 20
27028
 10
25704
 20
28073
 10
25932
 20
28796
 10
26106
 20
29297
 10
26298
 20
29814
 10
26511
 20
30350
 10
26747
 20
30913
 10
27174
 20
31874
 10
27729
 20
33057
 10
28877
 20
35438
 10
26644
 20
36579
 10
25779
 20
34813
 10
25160
 20
33513
 10
24849
 20
32837
 10
24573
 20
32218
 10
24322
 20
31632
 10
24093
 20
31074
 10
23895
 20
30567
 10
23699
 20
30041
 10
23306
 20
28917
 10
23067
 20
28184
 10
22866
 20
27522
 10
22695
 20
26902
 10
22551
 20
26313
 10
22441
 20
25802
 10
22341
 20
25267
 10
22248
 20
24702
 10
22162
 20
24099
 10
22081
 20
23444
 10
22013
 20
22789
 10
21956
 20
22133
 10
21913
 20
21476
 10
21882
 20
20834
 10
21858
 20
20131
 10
21828
 20
18292
 10
21828
 20
18292
  0
LWPOLYLINE
  5
70
100
AcDbEntity
  8
0
  6
BYLAYER
 62
  256
370
   -1
100
AcDbPolyline
 90
   87
 70
    1
 43
0
 10
89761
 20
26254
 10
91995
 20
25113
 10
92758
 20
26695
 10
93304
 20
27859
 10
93821
 20
29016
 10
94042
 20
29541
 10
94244
 20
30042
 10
94597
 20
30981
 10
94936
 20
31972
 10
95133
 20
32594
 10
95308
 20
33185
 10
95462
 20
33752
 10
95597
 20
34301
 10
95700
 20
34764
 10
95795
 20
35237
 10
95882
 20
35720
 10
95961
 20
36214
 10
96038
 20
36770
 10
96106
 20
37334
 10
96162
 20
37905
 10
96208
 20
38484
 10
96243
 20
39040
 10
96271
 20
39648
 10
96320
 20
41241
 10
96272
 20
42834
 10
96243
 20
43442
 10
96209
 20
43998
 10
96163
 20
44577
 10
96106
 20
45148
 10
96039
 20
45712
 10
95962
 20
46268
 10
95883
 20
46762
 10
95797
 20
47246
 10
95702
 20
47718
 10
95600
 20
48181
 10
95464
 20
48730
 10
95310
 20
49298
 10
95136
 20
49888
 10
94939
 20
50510
 10
94601
 20
51497
 10
94248
 20
52440
 10
94040
 20
52956
 10
93816
 20
53489
 10
93572
 20
54042
 10
93308
 20
54624
 10
92755
 20
55789
 10
91977
 20
57370
 10
89766
 20
56230
 10
90768
 20
54115
 10
91253
 20
53062
 10
91625
 20
52212
 10
91830
 20
51714
 10
92015
 20
51239
 10
92182
 20
50780
 10
92334
 20
50334
 10
92536
 20
49676
 10
92794
 20
48766
 10
93069
 20
47740
 10
93190
 20
47228
 10
93299
 20
46706
 10
93396
 20
46176
 10
93481
 20
45635
 10
93587
 20
44814
 10
93685
 20
43858
 10
93756
 20
42999
 10
93797
 20
42267
 10
93823
 20
41241
 10
93797
 20
40215
 10
93755
 20
39483
 10
93684
 20
38624
 10
93586
 20
37667
 10
93479
 20
36847
 10
93394
 20
36307
 10
93296
 20
35776
 10
93188
 20
35254
 10
93067
 20
34742
 10
92791
 20
33716
 10
92534
 20
32810
 10
92330
 20
32150
 10
92179
 20
31704
 10
92011
 20
31245
 10
91826
 20
30769
 10
91621
 20
30271
 10
91248
 20
29418
 10
90764
 20
28368
 10
89761
 20
26254
 10
89761
 20
26254
  0
LWPOLYLINE
  5
71
100
AcDbEntity
  8
0
  6
BYLAYER
 62
  256
370
   -1
100
AcDbPolyline
 90
   71
 70
    1
 43
0
 10
64519
 20
18454
 10
64528
 20
17793
 10
64558
 20
17245
 10
64582
 20
17005
 10
64612
 20
16780
 10
64650
 20
16566
 10
64696
 20
16364
 10
64749
 20
16172
 10
64810
 20
15988
 10
64932
 20
15693
 10
65091
 20
15376
 10
65284
 20
15042
 10
65619
 20
14501
 10
66027
 20
13821
 10
66561
 20
12886
 10
67178
 20
12890
 10
68312
 20
12903
 10
69453
 20
12950
 10
69308
 20
14222
 10
69212
 20
15087
 10
69171
 20
15512
 10
69158
 20
15830
 10
69162
 20
16014
 10
69176
 20
16184
 10
69201
 20
16342
 10
69236
 20
16492
 10
69299
 20
16677
 10
69380
 20
16846
 10
69477
 20
16994
 10
69588
 20
17119
 10
69726
 20
17231
 10
69894
 20
17331
 10
70095
 20
17420
 10
70353
 20
17509
 10
70680
 20
17604
 10
71006
 20
17682
 10
71435
 20
17766
 10
71431
 20
17831
 10
71400
 20
18473
 10
71372
 20
19350
 10
71404
 20
20267
 10
71435
 20
20938
 10
71459
 20
21339
 10
71532
 20
22228
 10
71642
 20
23230
 10
71751
 20
24080
 10
71910
 20
25239
 10
70487
 20
25458
 10
69445
 20
25603
 10
68782
 20
25681
 10
68296
 20
25730
 10
67849
 20
25765
 10
67238
 20
25803
 10
66562
 20
25814
 10
66028
 20
24879
 10
65620
 20
24199
 10
65284
 20
23658
 10
65092
 20
23324
 10
64932
 20
23007
 10
64810
 20
22712
 10
64749
 20
22529
 10
64696
 20
22336
 10
64651
 20
22134
 10
64613
 20
21920
 10
64582
 20
21695
 10
64558
 20
21455
 10
64528
 20
20907
 10
64519
 20
20246
 10
64532
 20
19350
 10
64519
 20
18454
 10
64519
 20
18454
  0
LWPOLYLINE
  5
72
100
AcDbEntity
  8
0
  6
BYLAYER
 62
  256
370
   -1
100
AcDbPolyline
 90
   87
 70
    1
 43
0
 10
24579
 20
17206
 10
24627
 20
15613
 10
24656
 20
15004
 10
24690
 20
14448
 10
24736
 20
13869
 10
24792
 20
13298
 10
24860
 20
12734
 10
24937
 20
12178
 10
25016
 20
11684
 10
25102
 20
11200
 10
25197
 20
10728
 10
25299
 20
10266
 10
25434
 20
9716
 10
25589
 20
9149
 10
25763
 20
8558
 10
25960
 20
7936
 10
26298
 20
6949
 10
26651
 20
6006
 10
26859
 20
5490
 10
27083
 20
4958
 10
27326
 20
4404
 10
27591
 20
3823
 10
28144
 20
2657
 10
28922
 20
1076
 10
31133
 20
2217
 10
30131
 20
4331
 10
29646
 20
5384
 10
29274
 20
6234
 10
29069
 20
6732
 10
28884
 20
7208
 10
28716
 20
7667
 10
28565
 20
8113
 10
28363
 20
8770
 10
28105
 20
9680
 10
27830
 20
10706
 10
27709
 20
11218
 10
27600
 20
11740
 10
27503
 20
12271
 10
27418
 20
12811
 10
27312
 20
13632
 10
27214
 20
14588
 10
27143
 20
15447
 10
27102
 20
16179
 10
27076
 20
17205
 10
27102
 20
18232
 10
27144
 20
18963
 10
27215
 20
19822
 10
27313
 20
20779
 10
27420
 20
21600
 10
27505
 20
22140
 10
27602
 20
22670
 10
27711
 20
23192
 10
27832
 20
23704
 10
28108
 20
24730
 10
28365
 20
25636
 10
28568
 20
26297
 10
28720
 20
26742
 10
28888
 20
27202
 10
29073
 20
27677
 10
29278
 20
28175
 10
29651
 20
29028
 10
30135
 20
30078
 10
31138
 20
32192
 10
28904
 20
33333
 10
28141
 20
31752
 10
27595
 20
30588
 10
27078
 20
29430
 10
26857
 20
28906
 10
26654
 20
28404
 10
26302
 20
27465
 10
25963
 20
26474
 10
25766
 20
25852
 10
25591
 20
25262
 10
25437
 20
24694
 10
25302
 20
24146
 10
25199
 20
23683
 10
25104
 20
23210
 10
25017
 20
22726
 10
24938
 20
22232
 10
24860
 20
21676
 10
24793
 20
21113
 10
24736
 20
20542
 10
24690
 20
19963
 10
24656
 20
19407
 10
24628
 20
18798
 10
24579
 20
17206
 10
24579
 20
17206
  0
LWPOLYLINE
  5
73
100
AcDbEntity
  8
0
  6
BYLAYER
 62
  256
370
   -1
100
AcDbPolyline
 90
   69
 70
    1
 43
0
 10
47251
 20
34230
 10
48454
 20
34075
 10
49334
 20
33976
 10
49998
 20
33919
 10
50484
 20
33886
 10
50931
 20
33866
 10
51542
 20
33848
 10
52217
 20
33860
 10
52728
 20
34704
 10
53117
 20
35318
 10
53438
 20
35807
 10
53622
 20
36108
 10
53776
 20
36395
 10
53894
 20
36662
 10
53954
 20
36829
 10
54008
 20
37004
 10
54054
 20
37189
 10
54094
 20
37384
 10
54155
 20
37809
 10
54195
 20
38310
 10
54218
 20
38915
 10
54227
 20
39737
 10
54218
 20
40559
 10
54195
 20
41164
 10
54155
 20
41665
 10
54094
 20
42090
 10
54054
 20
42285
 10
54008
 20
42470
 10
53955
 20
42645
 10
53895
 20
42812
 10
53776
 20
43080
 10
53622
 20
43366
 10
53438
 20
43668
 10
53118
 20
44156
 10
52729
 20
44770
 10
52218
 20
45615
 10
51601
 20
45632
 10
50468
 20
45660
 10
49326
 20
45653
 10
49470
 20
44426
 10
49566
 20
43592
 10
49610
 20
43176
 10
49621
 20
42876
 10
49615
 20
42727
 10
49601
 20
42588
 10
49577
 20
42457
 10
49545
 20
42332
 10
49489
 20
42181
 10
49420
 20
42044
 10
49338
 20
41924
 10
49244
 20
41823
 10
49129
 20
41733
 10
48988
 20
41654
 10
48821
 20
41584
 10
48608
 20
41516
 10
48338
 20
41444
 10
48067
 20
41386
 10
47713
 20
41324
 10
47718
 20
41258
 10
47753
 20
40616
 10
47788
 20
39738
 10
47753
 20
38880
 10
47720
 20
38252
 10
47695
 20
37876
 10
47620
 20
37039
 10
47513
 20
36108
 10
47406
 20
35314
 10
47251
 20
34230
 10
47251
 20
34230
  0
LWPOLYLINE
  5
74
100
AcDbEntity
  8
0
  6
BYLAYER
 62
  256
370
   -1
100
AcDbPolyline
 90
   73
 70
    1
 43
0
 10
54496
 20
37832
 10
54509
 20
37191
 10
54542
 20
36660
 10
54568
 20
36426
 10
54599
 20
36208
 10
54638
 20
36001
 10
54683
 20
35804
 10
54736
 20
35618
 10
54797
 20
35440
 10
54918
 20
35154
 10
55075
 20
34848
 10
55265
 20
34524
 10
55594
 20
34002
 10
55995
 20
33345
 10
56521
 20
32440
 10
57138
 20
32438
 10
58271
 20
32436
 10
59413
 20
32469
 10
59268
 20
33723
 10
59172
 20
34577
 10
59131
 20
34999
 10
59118
 20
35310
 10
59122
 20
35482
 10
59136
 20
35641
 10
59161
 20
35791
 10
59195
 20
35932
 10
59256
 20
36105
 10
59333
 20
36264
 10
59425
 20
36402
 10
59530
 20
36519
 10
59661
 20
36624
 10
59820
 20
36717
 10
60000
 20
36796
 10
60010
 20
36800
 10
60252
 20
36882
 10
60559
 20
36969
 10
60868
 20
37041
 10
61272
 20
37117
 10
61268
 20
37182
 10
61236
 20
37824
 10
61205
 20
38702
 10
61238
 20
39600
 10
61269
 20
40256
 10
61294
 20
40648
 10
61368
 20
41522
 10
61477
 20
42499
 10
61584
 20
43330
 10
61742
 20
44464
 10
60393
 20
44659
 10
60000
 20
44710
 10
59405
 20
44786
 10
58742
 20
44857
 10
58256
 20
44901
 10
57809
 20
44930
 10
57198
 20
44961
 10
56522
 20
44964
 10
55996
 20
44060
 10
55595
 20
43403
 10
55265
 20
42880
 10
55076
 20
42557
 10
54918
 20
42251
 10
54797
 20
41965
 10
54737
 20
41788
 10
54684
 20
41601
 10
54638
 20
41405
 10
54600
 20
41198
 10
54568
 20
40979
 10
54543
 20
40746
 10
54510
 20
40214
 10
54496
 20
39573
 10
54502
 20
38702
 10
54496
 20
37832
 10
54496
 20
37832
  0
LWPOLYLINE
  5
75
100
AcDbEntity
  8
0
  6
BYLAYER
 62
  256
370
   -1
100
AcDbPolyline
 90
   69
 70
    1
 43
0
 10
26644
 20
45195
 10
26800
 20
44087
 10
26907
 20
43274
 10
27016
 20
42320
 10
27090
 20
41464
 10
27115
 20
41080
 10
27147
 20
40438
 10
27181
 20
39560
 10
27149
 20
38682
 10
27115
 20
38040
 10
27110
 20
37974
 10
27489
 20
37906
 10
27778
 20
37841
 10
28067
 20
37761
 10
28295
 20
37686
 10
28474
 20
37610
 10
28623
 20
37524
 10
28746
 20
37426
 10
28846
 20
37318
 10
28932
 20
37188
 10
29006
 20
37040
 10
29064
 20
36878
 10
29098
 20
36745
 10
29121
 20
36605
 10
29136
 20
36456
 10
29141
 20
36295
 10
29129
 20
35991
 10
29086
 20
35572
 10
28991
 20
34731
 10
28846
 20
33493
 10
29988
 20
33476
 10
31121
 20
33494
 10
31738
 20
33505
 10
32255
 20
34378
 10
32649
 20
35012
 10
32973
 20
35516
 10
33160
 20
35827
 10
33315
 20
36123
 10
33434
 20
36400
 10
33494
 20
36571
 10
33547
 20
36752
 10
33593
 20
36942
 10
33632
 20
37143
 10
33690
 20
37580
 10
33727
 20
38095
 10
33745
 20
38717
 10
33747
 20
39561
 10
33745
 20
40405
 10
33727
 20
41027
 10
33690
 20
41542
 10
33632
 20
41979
 10
33593
 20
42180
 10
33547
 20
42370
 10
33494
 20
42550
 10
33434
 20
42722
 10
33315
 20
42998
 10
33159
 20
43294
 10
32973
 20
43605
 10
32648
 20
44110
 10
32254
 20
44744
 10
31737
 20
45616
 10
31062
 20
45622
 10
30451
 20
45599
 10
30004
 20
45576
 10
29518
 20
45538
 10
28854
 20
45476
 10
27920
 20
45366
 10
26644
 20
45195
 10
26644
 20
45195
  0
LWPOLYLINE
  5
76
100
AcDbEntity
  8
0
  6
BYLAYER
 62
  256
370
   -1
100
AcDbPolyline
 90
   71
 70
    1
 43
0
 10
54657
 20
52533
 10
54674
 20
51734
 10
54702
 20
51146
 10
54746
 20
50660
 10
54809
 20
50247
 10
54849
 20
50058
 10
54896
 20
49878
 10
54949
 20
49708
 10
55009
 20
49547
 10
55127
 20
49288
 10
55279
 20
49011
 10
55461
 20
48719
 10
55777
 20
48248
 10
56161
 20
47654
 10
56666
 20
46838
 10
57283
 20
46814
 10
58416
 20
46775
 10
59558
 20
46770
 10
59414
 20
47985
 10
59318
 20
48812
 10
59274
 20
49227
 10
59263
 20
49522
 10
59270
 20
49660
 10
59284
 20
49789
 10
59307
 20
49910
 10
59338
 20
50026
 10
59392
 20
50166
 10
59457
 20
50293
 10
59535
 20
50403
 10
59622
 20
50496
 10
59730
 20
50579
 10
59861
 20
50651
 10
60000
 20
50707
 10
60017
 20
50714
 10
60216
 20
50776
 10
60467
 20
50840
 10
60719
 20
50892
 10
61048
 20
50946
 10
61044
 20
51012
 10
61007
 20
51654
 10
60969
 20
52532
 10
61004
 20
53370
 10
61038
 20
53984
 10
61064
 20
54350
 10
61139
 20
55170
 10
61246
 20
56078
 10
61352
 20
56854
 10
61506
 20
57912
 10
60377
 20
58050
 10
60000
 20
58091
 10
59550
 20
58139
 10
58886
 20
58189
 10
58400
 20
58218
 10
57953
 20
58233
 10
57342
 20
58245
 10
56667
 20
58228
 10
56162
 20
57411
 10
55778
 20
56818
 10
55462
 20
56346
 10
55280
 20
56055
 10
55128
 20
55778
 10
55010
 20
55519
 10
54950
 20
55358
 10
54896
 20
55188
 10
54850
 20
55009
 10
54809
 20
54820
 10
54746
 20
54407
 10
54702
 20
53920
 10
54674
 20
53332
 10
54657
 20
52533
 10
54657
 20
52533
  0
LWPOLYLINE
  5
77
100
AcDbEntity
  8
0
  6
BYLAYER
 62
  256
370
   -1
100
AcDbPolyline
 90
   73
 70
    1
 43
0
 10
19827
 20
45905
 10
19985
 20
44771
 10
20000
 20
44656
 10
20093
 20
43940
 10
20202
 20
42962
 10
20276
 20
42089
 10
20300
 20
41697
 10
20332
 20
41040
 10
20364
 20
40143
 10
20334
 20
39265
 10
20302
 20
38623
 10
20298
 20
38558
 10
20702
 20
38482
 10
21010
 20
38410
 10
21318
 20
38323
 10
21560
 20
38241
 10
21750
 20
38158
 10
21909
 20
38065
 10
22040
 20
37960
 10
22144
 20
37843
 10
22236
 20
37704
 10
22314
 20
37546
 10
22374
 20
37373
 10
22409
 20
37232
 10
22433
 20
37082
 10
22447
 20
36923
 10
22452
 20
36750
 10
22439
 20
36440
 10
22397
 20
36018
 10
22302
 20
35164
 10
22157
 20
33910
 10
23298
 20
33877
 10
24432
 20
33878
 10
25049
 20
33881
 10
25575
 20
34786
 10
25976
 20
35443
 10
26305
 20
35965
 10
26495
 20
36288
 10
26652
 20
36595
 10
26773
 20
36881
 10
26833
 20
37058
 10
26886
 20
37245
 10
26932
 20
37442
 10
26970
 20
37649
 10
27002
 20
37867
 10
27027
 20
38100
 10
27060
 20
38632
 10
27074
 20
39273
 10
27068
 20
40143
 10
27073
 20
41014
 10
27060
 20
41655
 10
27027
 20
42187
 10
27002
 20
42420
 10
26970
 20
42638
 10
26932
 20
42846
 10
26886
 20
43042
 10
26833
 20
43228
 10
26772
 20
43406
 10
26652
 20
43692
 10
26494
 20
43998
 10
26304
 20
44321
 10
25974
 20
44844
 10
25574
 20
45501
 10
25048
 20
46405
 10
24372
 20
46402
 10
23761
 20
46371
 10
23314
 20
46342
 10
22828
 20
46298
 10
22164
 20
46227
 10
21177
 20
46100
 10
20000
 20
45930
 10
19827
 20
45905
 10
19827
 20
45905
  0
LWPOLYLINE
  5
78
100
AcDbEntity
  8
0
  6
BYLAYER
 62
  256
370
   -1
100
AcDbPolyline
 90
   75
 70
    1
 43
0
 10
19489
 20
46904
 10
20000
 20
46830
 10
20839
 20
46709
 10
21826
 20
46582
 10
22490
 20
46511
 10
22976
 20
46467
 10
23423
 20
46438
 10
24034
 20
46407
 10
24710
 20
46404
 10
25236
 20
47308
 10
25636
 20
47965
 10
25966
 20
48488
 10
26156
 20
48811
 10
26314
 20
49117
 10
26434
 20
49403
 10
26495
 20
49580
 10
26548
 20
49767
 10
26594
 20
49963
 10
26632
 20
50170
 10
26664
 20
50389
 10
26689
 20
50622
 10
26722
 20
51154
 10
26735
 20
51795
 10
26730
 20
52666
 10
26736
 20
53536
 10
26722
 20
54177
 10
26689
 20
54708
 10
26664
 20
54942
 10
26632
 20
55160
 10
26594
 20
55367
 10
26548
 20
55564
 10
26495
 20
55750
 10
26435
 20
55928
 10
26314
 20
56214
 10
26157
 20
56520
 10
25967
 20
56844
 10
25638
 20
57366
 10
25237
 20
58023
 10
24711
 20
58928
 10
24094
 20
58930
 10
22960
 20
58932
 10
21819
 20
58899
 10
21964
 20
57645
 10
22059
 20
56791
 10
22101
 20
56369
 10
22114
 20
56058
 10
22109
 20
55886
 10
22095
 20
55727
 10
22071
 20
55577
 10
22036
 20
55436
 10
21976
 20
55263
 10
21898
 20
55104
 10
21806
 20
54966
 10
21702
 20
54849
 10
21571
 20
54744
 10
21412
 20
54651
 10
21222
 20
54568
 10
20980
 20
54486
 10
20672
 20
54399
 10
20364
 20
54327
 10
20000
 20
54259
 10
19960
 20
54251
 10
19964
 20
54186
 10
19996
 20
53544
 10
20000
 20
53427
 10
20026
 20
52666
 10
20000
 20
51936
 10
19994
 20
51768
 10
19962
 20
51112
 10
19938
 20
50720
 10
19864
 20
49846
 10
19755
 20
48869
 10
19647
 20
48038
 10
19489
 20
46904
 10
19489
 20
46904
  0
LWPOLYLINE
  5
79
100
AcDbEntity
  8
0
  6
BYLAYER
 62
  256
370
   -1
100
AcDbPolyline
 90
   71
 70
    1
 43
0
 10
36870
 20
19595
 10
36879
 20
18773
 10
36902
 20
18168
 10
36942
 20
17666
 10
37003
 20
17242
 10
37043
 20
17046
 10
37089
 20
16862
 10
37142
 20
16686
 10
37202
 20
16520
 10
37321
 20
16252
 10
37475
 20
15966
 10
37659
 20
15664
 10
37980
 20
15176
 10
38369
 20
14562
 10
38880
 20
13717
 10
39555
 20
13706
 10
40000
 20
13719
 10
40166
 20
13724
 10
40613
 20
13744
 10
41099
 20
13776
 10
41763
 20
13833
 10
42643
 20
13933
 10
43846
 20
14088
 10
43690
 20
15171
 10
43584
 20
15966
 10
43476
 20
16896
 10
43402
 20
17734
 10
43376
 20
18110
 10
43344
 20
18737
 10
43309
 20
19595
 10
43344
 20
20474
 10
43379
 20
21116
 10
43384
 20
21182
 10
43030
 20
21243
 10
42758
 20
21302
 10
42489
 20
21374
 10
42276
 20
21442
 10
42108
 20
21512
 10
41968
 20
21590
 10
41852
 20
21681
 10
41759
 20
21782
 10
41677
 20
21902
 10
41608
 20
22039
 10
41552
 20
22190
 10
41520
 20
22314
 10
41496
 20
22446
 10
41482
 20
22584
 10
41476
 20
22733
 10
41487
 20
23033
 10
41531
 20
23450
 10
41626
 20
24284
 10
41771
 20
25511
 10
40629
 20
25517
 10
40000
 20
25502
 10
39496
 20
25490
 10
38879
 20
25472
 10
38368
 20
24628
 10
37978
 20
24014
 10
37659
 20
23526
 10
37474
 20
23224
 10
37321
 20
22937
 10
37202
 20
22669
 10
37142
 20
22503
 10
37089
 20
22327
 10
37042
 20
22143
 10
37003
 20
21948
 10
36942
 20
21522
 10
36902
 20
21022
 10
36879
 20
20416
 10
36870
 20
19595
 10
36870
 20
19595
  0
LWPOLYLINE
  5
7A
100
AcDbEntity
  8
0
  6
BYLAYER
 62
  256
370
   -1
100
AcDbPolyline
 90
   69
 70
    1
 43
0
 10
6181
 20
47213
 10
7457
 20
47042
 10
8391
 20
46932
 10
9055
 20
46870
 10
9541
 20
46832
 10
9988
 20
46809
 10
10599
 20
46786
 10
11274
 20
46792
 10
11792
 20
47664
 10
12186
 20
48298
 10
12510
 20
48803
 10
12696
 20
49114
 10
12852
 20
49410
 10
12971
 20
49686
 10
13031
 20
49858
 10
13084
 20
50038
 10
13130
 20
50228
 10
13169
 20
50429
 10
13228
 20
50866
 10
13264
 20
51381
 10
13282
 20
52003
 10
13284
 20
52847
 10
13282
 20
53691
 10
13264
 20
54313
 10
13228
 20
54828
 10
13169
 20
55265
 10
13130
 20
55466
 10
13084
 20
55656
 10
13031
 20
55837
 10
12971
 20
56008
 10
12852
 20
56285
 10
12697
 20
56581
 10
12510
 20
56892
 10
12186
 20
57396
 10
11792
 20
58030
 10
11275
 20
58903
 10
10658
 20
58914
 10
9525
 20
58932
 10
8383
 20
58915
 10
8528
 20
57677
 10
8624
 20
56836
 10
8666
 20
56417
 10
8678
 20
56113
 10
8673
 20
55952
 10
8658
 20
55803
 10
8635
 20
55663
 10
8601
 20
55530
 10
8543
 20
55368
 10
8470
 20
55220
 10
8383
 20
55090
 10
8284
 20
54982
 10
8160
 20
54884
 10
8011
 20
54798
 10
7832
 20
54722
 10
7604
 20
54647
 10
7315
 20
54567
 10
7026
 20
54502
 10
6648
 20
54434
 10
6652
 20
54368
 10
6686
 20
53726
 10
6718
 20
52848
 10
6684
 20
51970
 10
6652
 20
51328
 10
6627
 20
50944
 10
6553
 20
50088
 10
6444
 20
49134
 10
6338
 20
48321
 10
6181
 20
47213
 10
6181
 20
47213
  0
LWPOLYLINE
  5
7B
100
AcDbEntity
  8
0
  6
BYLAYER
 62
  256
370
   -1
100
AcDbPolyline
 90
   89
 70
    1
 43
0
 10
5402
 20
17546
 10
5445
 20
15880
 10
5472
 20
15244
 10
5505
 20
14663
 10
5550
 20
14061
 10
5606
 20
13464
 10
5674
 20
12874
 10
5752
 20
12289
 10
5833
 20
11762
 10
5922
 20
11254
 10
6018
 20
10764
 10
6122
 20
10288
 10
6260
 20
9728
 10
6419
 20
9144
 10
6601
 20
8532
 10
6810
 20
7877
 10
7164
 20
6851
 10
7530
 20
5880
 10
7745
 20
5347
 10
7978
 20
4797
 10
8231
 20
4224
 10
8506
 20
3622
 10
9081
 20
2416
 10
9889
 20
781
 10
12100
 20
1922
 10
11056
 20
4114
 10
10548
 20
5209
 10
10162
 20
6088
 10
9948
 20
6604
 10
9755
 20
7097
 10
9580
 20
7574
 10
9422
 20
8037
 10
9212
 20
8714
 10
8941
 20
9664
 10
8769
 20
10282
 10
8652
 20
10728
 10
8530
 20
11252
 10
8419
 20
11794
 10
8320
 20
12355
 10
8232
 20
12937
 10
8126
 20
13802
 10
8029
 20
14801
 10
7960
 20
15701
 10
7920
 20
16469
 10
7899
 20
17545
 10
7920
 20
18621
 10
7960
 20
19388
 10
8030
 20
20289
 10
8127
 20
21290
 10
8234
 20
22154
 10
8322
 20
22734
 10
8421
 20
23295
 10
8532
 20
23837
 10
8655
 20
24362
 10
8772
 20
24810
 10
8943
 20
25427
 10
9214
 20
26372
 10
9425
 20
27052
 10
9583
 20
27516
 10
9758
 20
27992
 10
9952
 20
28486
 10
10166
 20
29001
 10
10554
 20
29884
 10
11060
 20
30975
 10
12105
 20
33167
 10
9872
 20
34308
 10
9079
 20
32673
 10
8511
 20
31469
 10
7974
 20
30271
 10
7744
 20
29729
 10
7534
 20
29210
 10
7168
 20
28243
 10
6814
 20
27214
 10
6604
 20
26558
 10
6421
 20
25945
 10
6262
 20
25363
 10
6124
 20
24804
 10
6020
 20
24328
 10
5924
 20
23837
 10
5835
 20
23329
 10
5754
 20
22802
 10
5675
 20
22217
 10
5608
 20
21627
 10
5551
 20
21030
 10
5506
 20
20428
 10
5472
 20
19847
 10
5445
 20
19211
 10
5402
 20
17546
 10
5402
 20
17546
  0
LWPOLYLINE
  5
7C
100
AcDbEntity
  8
0
  6
BYLAYER
 62
  256
370
   -1
100
AcDbPolyline
 90
   89
 70
    1
 43
0
 10
17625
 20
17888
 10
17673
 20
16295
 10
17702
 20
15686
 10
17736
 20
15130
 10
17782
 20
14551
 10
17838
 20
13980
 10
17906
 20
13416
 10
17983
 20
12860
 10
18062
 20
12366
 10
18148
 20
11882
 10
18243
 20
11410
 10
18345
 20
10948
 10
18480
 20
10398
 10
18635
 20
9831
 10
18809
 20
9240
 10
19006
 20
8618
 10
19344
 20
7631
 10
19697
 20
6688
 10
19905
 20
6172
 10
20000
 20
5946
 10
20129
 20
5640
 10
20372
 20
5086
 10
20637
 20
4505
 10
21190
 20
3339
 10
21968
 20
1758
 10
24179
 20
2899
 10
23177
 20
5013
 10
22692
 20
6066
 10
22320
 20
6916
 10
22115
 20
7414
 10
21930
 20
7890
 10
21762
 20
8349
 10
21611
 20
8795
 10
21409
 20
9452
 10
21151
 20
10362
 10
20876
 20
11388
 10
20755
 20
11900
 10
20646
 20
12422
 10
20549
 20
12953
 10
20464
 20
13493
 10
20358
 20
14314
 10
20260
 20
15270
 10
20189
 20
16129
 10
20148
 20
16861
 10
20122
 20
17887
 10
20148
 20
18914
 10
20190
 20
19645
 10
20261
 20
20504
 10
20359
 20
21461
 10
20466
 20
22282
 10
20551
 20
22822
 10
20648
 20
23352
 10
20757
 20
23874
 10
20878
 20
24386
 10
21154
 20
25412
 10
21411
 20
26318
 10
21614
 20
26979
 10
21766
 20
27424
 10
21934
 20
27884
 10
22119
 20
28359
 10
22324
 20
28857
 10
22697
 20
29710
 10
23181
 20
30760
 10
24184
 20
32874
 10
21950
 20
34015
 10
21187
 20
32434
 10
20641
 20
31270
 10
20124
 20
30112
 10
20000
 20
29818
 10
19903
 20
29588
 10
19700
 20
29086
 10
19348
 20
28147
 10
19009
 20
27156
 10
18812
 20
26534
 10
18637
 20
25944
 10
18483
 20
25376
 10
18348
 20
24828
 10
18245
 20
24365
 10
18150
 20
23892
 10
18063
 20
23408
 10
17984
 20
22914
 10
17906
 20
22358
 10
17839
 20
21795
 10
17782
 20
21224
 10
17736
 20
20645
 10
17702
 20
20089
 10
17674
 20
19480
 10
17625
 20
17888
 10
17625
 20
17888
  0
LWPOLYLINE
  5
7D
100
AcDbEntity
  8
0
  6
BYLAYER
 62
  256
370
   -1
100
AcDbPolyline
 90
   71
 70
    1
 43
0
 10
87506
 20
17922
 10
87520
 20
17281
 10
87553
 20
16749
 10
87578
 20
16516
 10
87610
 20
16298
 10
87648
 20
16090
 10
87694
 20
15894
 10
87747
 20
15708
 10
87807
 20
15530
 10
87928
 20
15244
 10
88086
 20
14938
 10
88275
 20
14615
 10
88605
 20
14092
 10
89006
 20
13435
 10
89532
 20
12531
 10
90208
 20
12534
 10
90819
 20
12565
 10
91266
 20
12594
 10
91752
 20
12638
 10
92415
 20
12709
 10
93403
 20
12836
 10
94752
 20
13031
 10
94594
 20
14165
 10
94487
 20
14996
 10
94378
 20
15974
 10
94304
 20
16847
 10
94279
 20
17239
 10
94248
 20
17896
 10
94215
 20
18793
 10
94246
 20
19671
 10
94278
 20
20313
 10
94282
 20
20378
 10
93878
 20
20454
 10
93569
 20
20526
 10
93262
 20
20613
 10
93020
 20
20695
 10
92830
 20
20778
 10
92671
 20
20871
 10
92540
 20
20976
 10
92435
 20
21093
 10
92343
 20
21232
 10
92266
 20
21390
 10
92205
 20
21563
 10
92171
 20
21704
 10
92146
 20
21854
 10
92132
 20
22013
 10
92128
 20
22186
 10
92141
 20
22496
 10
92182
 20
22918
 10
92278
 20
23772
 10
92423
 20
25026
 10
91281
 20
25059
 10
90148
 20
25058
 10
89531
 20
25055
 10
89005
 20
24150
 10
88604
 20
23493
 10
88275
 20
22971
 10
88085
 20
22648
 10
87928
 20
22341
 10
87807
 20
22055
 10
87746
 20
21878
 10
87693
 20
21691
 10
87648
 20
21494
 10
87609
 20
21287
 10
87578
 20
21069
 10
87552
 20
20836
 10
87519
 20
20304
 10
87506
 20
19663
 10
87512
 20
18793
 10
87506
 20
17922
 10
87506
 20
17922
  0
LWPOLYLINE
  5
7E
100
AcDbEntity
  8
0
  6
BYLAYER
 62
  256
370
   -1
100
AcDbPolyline
 90
   93
 70
    1
 43
0
 10
96706
 20
25766
 10
98939
 20
24625
 10
99732
 20
26260
 10
100000
 20
26828
 10
100300
 20
27464
 10
100837
 20
28662
 10
101067
 20
29204
 10
101277
 20
29723
 10
101642
 20
30690
 10
101997
 20
31720
 10
102207
 20
32376
 10
102390
 20
32988
 10
102549
 20
33570
 10
102686
 20
34130
 10
102791
 20
34605
 10
102887
 20
35096
 10
102976
 20
35604
 10
103057
 20
36131
 10
103136
 20
36716
 10
103203
 20
37306
 10
103260
 20
37903
 10
103305
 20
38505
 10
103339
 20
39086
 10
103366
 20
39722
 10
103409
 20
41388
 10
103366
 20
43053
 10
103339
 20
43689
 10
103306
 20
44270
 10
103261
 20
44872
 10
103204
 20
45469
 10
103137
 20
46059
 10
103059
 20
46644
 10
102978
 20
47171
 10
102889
 20
47679
 10
102793
 20
48170
 10
102689
 20
48646
 10
102551
 20
49206
 10
102392
 20
49789
 10
102210
 20
50401
 10
102000
 20
51056
 10
101647
 20
52082
 10
101281
 20
53053
 10
101066
 20
53586
 10
100832
 20
54136
 10
100580
 20
54709
 10
100304
 20
55312
 10
100000
 20
55950
 10
99730
 20
56517
 10
98922
 20
58152
 10
96711
 20
57012
 10
97755
 20
54819
 10
98262
 20
53724
 10
98649
 20
52845
 10
98863
 20
52329
 10
99056
 20
51836
 10
99231
 20
51359
 10
99389
 20
50896
 10
99599
 20
50219
 10
99870
 20
49270
 10
100000
 20
48802
 10
100042
 20
48651
 10
100158
 20
48205
 10
100281
 20
47681
 10
100392
 20
47139
 10
100491
 20
46578
 10
100578
 20
45996
 10
100685
 20
45131
 10
100782
 20
44132
 10
100851
 20
43232
 10
100891
 20
42464
 10
100912
 20
41388
 10
100891
 20
40312
 10
100851
 20
39545
 10
100781
 20
38644
 10
100684
 20
37644
 10
100577
 20
36780
 10
100489
 20
36199
 10
100390
 20
35638
 10
100279
 20
35096
 10
100156
 20
34571
 10
100039
 20
34123
 10
100000
 20
33982
 10
99868
 20
33506
 10
99597
 20
32561
 10
99386
 20
31881
 10
99228
 20
31418
 10
99052
 20
30941
 10
98859
 20
30448
 10
98645
 20
29932
 10
98257
 20
29050
 10
97751
 20
27958
 10
96706
 20
25766
 10
96706
 20
25766
  0
LWPOLYLINE
  5
7F
100
AcDbEntity
  8
0
  6
BYLAYER
 62
  256
370
   -1
100
AcDbPolyline
 90
   73
 70
    1
 43
0
 10
33308
 20
58289
 10
33467
 20
57130
 10
33575
 20
56281
 10
33685
 20
55279
 10
33759
 20
54389
 10
33783
 20
53988
 10
33814
 20
53317
 10
33845
 20
52400
 10
33818
 20
51523
 10
33787
 20
50882
 10
33783
 20
50816
 10
34211
 20
50732
 10
34538
 20
50654
 10
34865
 20
50559
 10
35122
 20
50470
 10
35324
 20
50382
 10
35492
 20
50282
 10
35630
 20
50169
 10
35741
 20
50044
 10
35838
 20
49896
 10
35918
 20
49727
 10
35982
 20
49542
 10
36017
 20
49392
 10
36042
 20
49234
 10
36056
 20
49064
 10
36060
 20
48880
 10
36046
 20
48563
 10
36006
 20
48138
 10
35910
 20
47272
 10
35765
 20
46001
 10
36906
 20
45953
 10
38040
 20
45941
 10
38657
 20
45936
 10
39191
 20
46872
 10
39598
 20
47552
 10
39934
 20
48092
 10
40000
 20
48207
 10
40126
 20
48427
 10
40286
 20
48744
 10
40408
 20
49039
 10
40469
 20
49222
 10
40522
 20
49414
 10
40567
 20
49617
 10
40605
 20
49831
 10
40636
 20
50056
 10
40660
 20
50296
 10
40690
 20
50844
 10
40698
 20
51504
 10
40686
 20
52400
 10
40698
 20
53297
 10
40690
 20
53958
 10
40660
 20
54506
 10
40636
 20
54746
 10
40605
 20
54970
 10
40567
 20
55184
 10
40522
 20
55387
 10
40468
 20
55579
 10
40408
 20
55762
 10
40286
 20
56058
 10
40126
 20
56374
 10
40000
 20
56592
 10
39933
 20
56708
 10
39597
 20
57250
 10
39190
 20
57929
 10
38656
 20
58864
 10
37980
 20
58853
 10
37368
 20
58816
 10
36922
 20
58781
 10
36436
 20
58732
 10
35772
 20
58653
 10
34731
 20
58509
 10
33308
 20
58289
 10
33308
 20
58289
  0
LWPOLYLINE
  5
80
100
AcDbEntity
  8
0
  6
BYLAYER
 62
  256
370
   -1
100
AcDbPolyline
 90
    3
 70
    1
 43
0
 10
114566
 20
52
 10
114574
 20
60
 10
114566
 20
52
  0
LWPOLYLINE
  5
81
100
AcDbEntity
  8
0
  6
BYLAYER
 62
  256
370
   -1
100
AcDbPolyline
 90
   92
 70
    1
 43
0
 10
104719
 20
25022
 10
106952
 20
23881
 10
107781
 20
25582
 10
108374
 20
26834
 10
108672
 20
27484
 10
108937
 20
28081
 10
109178
 20
28644
 10
109397
 20
29182
 10
109588
 20
29674
 10
109776
 20
30182
 10
110150
 20
31260
 10
110375
 20
31954
 10
110566
 20
32592
 10
110732
 20
33193
 10
110872
 20
33766
 10
110980
 20
34260
 10
111078
 20
34773
 10
111169
 20
35309
 10
111252
 20
35874
 10
111332
 20
36493
 10
111400
 20
37116
 10
111456
 20
37742
 10
111501
 20
38372
 10
111533
 20
38984
 10
111558
 20
39654
 10
111595
 20
41406
 10
111558
 20
43158
 10
111533
 20
43827
 10
111501
 20
44439
 10
111457
 20
45069
 10
111401
 20
45696
 10
111333
 20
46318
 10
111254
 20
46937
 10
111170
 20
47502
 10
111080
 20
48039
 10
110982
 20
48552
 10
110875
 20
49045
 10
110734
 20
49619
 10
110569
 20
50220
 10
110378
 20
50858
 10
110154
 20
51552
 10
109781
 20
52627
 10
109592
 20
53136
 10
109401
 20
53630
 10
109176
 20
54182
 10
108933
 20
54754
 10
108669
 20
55350
 10
108380
 20
55978
 10
107780
 20
57232
 10
106935
 20
58932
 10
104724
 20
57792
 10
105820
 20
55504
 10
106351
 20
54364
 10
106758
 20
53445
 10
106983
 20
52906
 10
107186
 20
52391
 10
107369
 20
51894
 10
107535
 20
51412
 10
107752
 20
50715
 10
108041
 20
49715
 10
108223
 20
49066
 10
108344
 20
48604
 10
108470
 20
48063
 10
108583
 20
47496
 10
108684
 20
46901
 10
108774
 20
46271
 10
108882
 20
45352
 10
108977
 20
44302
 10
109045
 20
43353
 10
109082
 20
42541
 10
109098
 20
41406
 10
109082
 20
40270
 10
109044
 20
39459
 10
108976
 20
38510
 10
108880
 20
37460
 10
108772
 20
36541
 10
108682
 20
35911
 10
108580
 20
35316
 10
108468
 20
34750
 10
108342
 20
34208
 10
108220
 20
33744
 10
108038
 20
33097
 10
107751
 20
32101
 10
107532
 20
31401
 10
107366
 20
30919
 10
107182
 20
30422
 10
106979
 20
29907
 10
106754
 20
29368
 10
106346
 20
28446
 10
105816
 20
27308
 10
104719
 20
25022
 10
104719
 20
25022
  0
LWPOLYLINE
  5
82
100
AcDbEntity
  8
0
  6
BYLAYER
 62
  256
370
   -1
100
AcDbPolyline
 90
   92
 70
    1
 43
0
 10
85462
 20
23044
 10
87694
 20
21903
 10
88560
 20
23669
 10
89178
 20
24969
 10
89489
 20
25645
 10
89766
 20
26264
 10
90016
 20
26850
 10
90245
 20
27408
 10
90443
 20
27915
 10
90639
 20
28441
 10
91032
 20
29565
 10
91272
 20
30298
 10
91472
 20
30960
 10
91643
 20
31580
 10
91788
 20
32169
 10
91897
 20
32680
 10
91998
 20
33215
 10
92090
 20
33780
 10
92176
 20
34383
 10
92257
 20
35038
 10
92326
 20
35693
 10
92382
 20
36349
 10
92426
 20
37006
 10
92457
 20
37648
 10
92480
 20
38351
 10
92510
 20
40190
 10
92480
 20
42029
 10
92457
 20
42731
 10
92426
 20
43374
 10
92382
 20
44030
 10
92326
 20
44687
 10
92258
 20
45342
 10
92178
 20
45996
 10
92092
 20
46600
 10
92000
 20
47165
 10
91899
 20
47700
 10
91790
 20
48210
 10
91646
 20
48800
 10
91475
 20
49420
 10
91274
 20
50082
 10
91036
 20
50815
 10
90645
 20
51936
 10
90448
 20
52463
 10
90250
 20
52972
 10
90016
 20
53546
 10
89762
 20
54139
 10
89486
 20
54758
 10
89184
 20
55411
 10
88558
 20
56712
 10
87677
 20
58478
 10
85466
 20
57338
 10
86613
 20
54956
 10
87169
 20
53770
 10
87596
 20
52812
 10
87831
 20
52250
 10
88044
 20
51713
 10
88236
 20
51196
 10
88410
 20
50694
 10
88636
 20
49975
 10
88941
 20
48926
 10
89134
 20
48248
 10
89260
 20
47769
 10
89388
 20
47210
 10
89503
 20
46619
 10
89606
 20
45991
 10
89699
 20
45312
 10
89807
 20
44337
 10
89902
 20
43238
 10
89968
 20
42241
 10
90003
 20
41385
 10
90013
 20
40190
 10
90003
 20
38995
 10
89968
 20
38139
 10
89901
 20
37141
 10
89806
 20
36043
 10
89697
 20
35068
 10
89604
 20
34389
 10
89501
 20
33761
 10
89386
 20
33170
 10
89257
 20
32611
 10
89131
 20
32130
 10
88938
 20
31454
 10
88634
 20
30409
 10
88406
 20
29686
 10
88233
 20
29185
 10
88040
 20
28668
 10
87828
 20
28132
 10
87592
 20
27569
 10
87164
 20
26608
 10
86609
 20
25425
 10
85462
 20
23044
 10
85462
 20
23044
  0
LWPOLYLINE
  5
83
100
AcDbEntity
  8
0
  6
BYLAYER
 62
  256
370
   -1
100
AcDbPolyline
 90
   69
 70
    1
 43
0
 10
63752
 20
37543
 10
64881
 20
37404
 10
65708
 20
37316
 10
66372
 20
37266
 10
66858
 20
37237
 10
67305
 20
37222
 10
67916
 20
37210
 10
68591
 20
37227
 10
69096
 20
38044
 10
69480
 20
38636
 10
69796
 20
39108
 10
69978
 20
39400
 10
70130
 20
39677
 10
70248
 20
39936
 10
70308
 20
40097
 10
70362
 20
40267
 10
70408
 20
40446
 10
70449
 20
40635
 10
70512
 20
41048
 10
70556
 20
41535
 10
70584
 20
42123
 10
70601
 20
42922
 10
70584
 20
43721
 10
70556
 20
44309
 10
70512
 20
44795
 10
70449
 20
45208
 10
70409
 20
45397
 10
70362
 20
45576
 10
70309
 20
45746
 10
70249
 20
45908
 10
70131
 20
46167
 10
69979
 20
46444
 10
69797
 20
46736
 10
69481
 20
47207
 10
69097
 20
47800
 10
68592
 20
48617
 10
67975
 20
48640
 10
66842
 20
48680
 10
65700
 20
48685
 10
65844
 20
47470
 10
65940
 20
46643
 10
65984
 20
46228
 10
65995
 20
45932
 10
65988
 20
45795
 10
65974
 20
45666
 10
65951
 20
45544
 10
65920
 20
45429
 10
65866
 20
45289
 10
65801
 20
45162
 10
65723
 20
45052
 10
65636
 20
44959
 10
65528
 20
44876
 10
65397
 20
44804
 10
65241
 20
44741
 10
65042
 20
44679
 10
64791
 20
44615
 10
64539
 20
44563
 10
64210
 20
44509
 10
64214
 20
44443
 10
64251
 20
43801
 10
64289
 20
42922
 10
64254
 20
42084
 10
64220
 20
41471
 10
64194
 20
41104
 10
64119
 20
40285
 10
64012
 20
39377
 10
63906
 20
38601
 10
63752
 20
37543
 10
63752
 20
37543
  0
LWPOLYLINE
  5
84
100
AcDbEntity
  8
0
  6
BYLAYER
 62
  256
370
   -1
100
AcDbPolyline
 90
   96
 70
    1
 43
0
 10
15032
 20
19054
 10
15056
 20
17128
 10
15077
 20
16393
 10
15107
 20
15720
 10
15150
 20
15036
 10
15206
 20
14350
 10
15274
 20
13662
 10
15356
 20
12972
 10
15444
 20
12331
 10
15538
 20
11738
 10
15641
 20
11181
 10
15753
 20
10653
 10
15901
 20
10046
 10
16078
 20
9406
 10
16287
 20
8720
 10
16540
 20
7951
 10
16950
 20
6784
 10
17154
 20
6239
 10
17359
 20
5714
 10
17603
 20
5118
 10
17868
 20
4503
 10
18155
 20
3861
 10
18469
 20
3184
 10
19121
 20
1835
 10
20000
 20
80
 10
20038
 20
4
 10
22250
 20
1144
 10
21052
 20
3620
 10
20470
 20
4855
 10
20025
 20
5850
 10
20000
 20
5909
 10
19778
 20
6434
 10
19556
 20
6992
 10
19355
 20
7530
 10
19174
 20
8052
 10
18938
 20
8794
 10
18617
 20
9890
 10
18414
 20
10597
 10
18283
 20
11094
 10
18151
 20
11672
 10
18034
 20
12288
 10
17929
 20
12948
 10
17834
 20
13676
 10
17725
 20
14710
 10
17631
 20
15853
 10
17566
 20
16896
 10
17534
 20
17800
 10
17530
 20
19054
 10
17535
 20
20309
 10
17567
 20
21212
 10
17632
 20
22255
 10
17726
 20
23399
 10
17836
 20
24432
 10
17931
 20
25160
 10
18036
 20
25820
 10
18154
 20
26436
 10
18286
 20
27014
 10
18417
 20
27512
 10
18620
 20
28218
 10
18940
 20
29310
 10
19177
 20
30056
 10
19358
 20
30577
 10
19560
 20
31115
 10
19782
 20
31672
 10
20000
 20
32189
 10
20029
 20
32258
 10
20476
 20
33256
 10
21056
 20
34487
 10
22255
 20
36962
 10
20022
 20
38103
 10
20000
 20
38058
 10
19121
 20
36272
 10
18476
 20
34924
 10
18152
 20
34222
 10
17864
 20
33579
 10
17603
 20
32973
 10
17365
 20
32394
 10
17160
 20
31873
 10
16956
 20
31330
 10
16544
 20
30157
 10
16290
 20
29386
 10
16080
 20
28700
 10
15903
 20
28061
 10
15755
 20
27456
 10
15643
 20
26928
 10
15540
 20
26371
 10
15446
 20
25778
 10
15358
 20
25136
 10
15276
 20
24446
 10
15206
 20
23758
 10
15150
 20
23072
 10
15108
 20
22388
 10
15078
 20
21716
 10
15056
 20
20980
 10
15032
 20
19054
 10
15032
 20
19054
  0
LWPOLYLINE
  5
85
100
AcDbEntity
  8
0
  6
BYLAYER
 62
  256
370
   -1
100
AcDbPolyline
 90
   73
 70
    1
 43
0
 10
59900
 20
5740
 10
59904
 20
5062
 10
59931
 20
4498
 10
59954
 20
4252
 10
59984
 20
4020
 10
60000
 20
3927
 10
60022
 20
3800
 10
60067
 20
3591
 10
60120
 20
3393
 10
60182
 20
3204
 10
60305
 20
2900
 10
60467
 20
2574
 10
60662
 20
2229
 10
61004
 20
1670
 10
61418
 20
969
 10
61960
 20
4
 10
62636
 20
21
 10
63248
 20
64
 10
63694
 20
102
 10
64180
 20
156
 10
64843
 20
240
 10
65938
 20
401
 10
67435
 20
646
 10
67274
 20
1830
 10
67166
 20
2698
 10
67056
 20
3717
 10
66982
 20
4630
 10
66958
 20
5040
 10
66928
 20
5725
 10
66898
 20
6662
 10
66925
 20
7538
 10
66953
 20
8179
 10
66957
 20
8245
 10
66504
 20
8336
 10
66157
 20
8421
 10
65812
 20
8523
 10
65540
 20
8619
 10
65327
 20
8714
 10
65150
 20
8821
 10
65004
 20
8941
 10
64887
 20
9074
 10
64785
 20
9232
 10
64700
 20
9411
 10
64635
 20
9607
 10
64598
 20
9766
 10
64574
 20
9933
 10
64559
 20
10113
 10
64556
 20
10309
 10
64570
 20
10633
 10
64610
 20
11062
 10
64706
 20
11938
 10
64851
 20
13227
 10
63710
 20
13286
 10
62576
 20
13309
 10
61959
 20
13319
 10
61416
 20
12354
 10
61002
 20
11652
 10
60662
 20
11094
 10
60466
 20
10750
 10
60304
 20
10423
 10
60181
 20
10118
 10
60120
 20
9930
 10
60067
 20
9732
 10
60022
 20
9523
 10
60000
 20
9396
 10
59984
 20
9303
 10
59954
 20
9071
 10
59931
 20
8824
 10
59904
 20
8261
 10
59900
 20
7582
 10
59920
 20
6662
 10
59900
 20
5740
 10
59900
 20
5740
  0
LWPOLYLINE
  5
86
100
AcDbEntity
  8
0
  6
BYLAYER
 62
  256
370
   -1
100
AcDbPolyline
 90
   89
 70
    1
 43
0
 10
10985
 20
17549
 10
11028
 20
15884
 10
11055
 20
15248
 10
11088
 20
14666
 10
11133
 20
14064
 10
11190
 20
13468
 10
11257
 20
12878
 10
11335
 20
12293
 10
11416
 20
11766
 10
11505
 20
11258
 10
11601
 20
10767
 10
11705
 20
10291
 10
11843
 20
9731
 10
12002
 20
9148
 10
12184
 20
8536
 10
12394
 20
7880
 10
12747
 20
6854
 10
13113
 20
5884
 10
13328
 20
5351
 10
13562
 20
4800
 10
13814
 20
4228
 10
14090
 20
3625
 10
14664
 20
2420
 10
15472
 20
785
 10
17683
 20
1925
 10
16639
 20
4118
 10
16132
 20
5212
 10
15745
 20
6092
 10
15531
 20
6608
 10
15338
 20
7101
 10
15163
 20
7578
 10
15005
 20
8041
 10
14795
 20
8718
 10
14524
 20
9667
 10
14352
 20
10286
 10
14236
 20
10732
 10
14113
 20
11256
 10
14002
 20
11798
 10
13903
 20
12359
 10
13816
 20
12940
 10
13709
 20
13806
 10
13612
 20
14805
 10
13543
 20
15705
 10
13503
 20
16473
 10
13482
 20
17549
 10
13503
 20
18625
 10
13543
 20
19392
 10
13613
 20
20293
 10
13710
 20
21293
 10
13817
 20
22157
 10
13905
 20
22738
 10
14004
 20
23298
 10
14115
 20
23841
 10
14238
 20
24366
 10
14355
 20
24814
 10
14526
 20
25430
 10
14797
 20
26376
 10
15008
 20
27056
 10
15166
 20
27519
 10
15342
 20
27996
 10
15535
 20
28489
 10
15749
 20
29005
 10
16137
 20
29887
 10
16643
 20
30979
 10
17688
 20
33171
 10
15455
 20
34312
 10
14662
 20
32676
 10
14094
 20
31472
 10
13557
 20
30275
 10
13327
 20
29732
 10
13117
 20
29214
 10
12752
 20
28247
 10
12397
 20
27217
 10
12187
 20
26561
 10
12004
 20
25949
 10
11845
 20
25366
 10
11708
 20
24807
 10
11603
 20
24332
 10
11507
 20
23840
 10
11418
 20
23332
 10
11337
 20
22806
 10
11258
 20
22221
 10
11191
 20
21630
 10
11134
 20
21034
 10
11089
 20
20432
 10
11055
 20
19850
 10
11028
 20
19214
 10
10985
 20
17549
 10
10985
 20
17549
  0
LWPOLYLINE
  5
87
100
AcDbEntity
  8
0
  6
BYLAYER
 62
  256
370
   -1
100
AcDbPolyline
 90
   69
 70
    1
 43
0
 10
12874
 20
58505
 10
13030
 20
57397
 10
13137
 20
56584
 10
13246
 20
55630
 10
13320
 20
54774
 10
13345
 20
54390
 10
13377
 20
53748
 10
13411
 20
52870
 10
13379
 20
51992
 10
13345
 20
51350
 10
13340
 20
51284
 10
13719
 20
51216
 10
14008
 20
51151
 10
14297
 20
51071
 10
14525
 20
50996
 10
14704
 20
50920
 10
14853
 20
50834
 10
14976
 20
50736
 10
15076
 20
50628
 10
15162
 20
50498
 10
15236
 20
50350
 10
15294
 20
50188
 10
15328
 20
50055
 10
15351
 20
49915
 10
15366
 20
49766
 10
15371
 20
49605
 10
15359
 20
49301
 10
15316
 20
48882
 10
15221
 20
48041
 10
15076
 20
46803
 10
16218
 20
46786
 10
17351
 20
46804
 10
17968
 20
46815
 10
18485
 20
47688
 10
18879
 20
48322
 10
19203
 20
48826
 10
19390
 20
49137
 10
19545
 20
49433
 10
19664
 20
49710
 10
19724
 20
49881
 10
19777
 20
50062
 10
19823
 20
50252
 10
19862
 20
50453
 10
19920
 20
50890
 10
19957
 20
51405
 10
19975
 20
52027
 10
19977
 20
52871
 10
19975
 20
53715
 10
19957
 20
54337
 10
19920
 20
54852
 10
19862
 20
55289
 10
19823
 20
55490
 10
19777
 20
55680
 10
19724
 20
55860
 10
19664
 20
56032
 10
19545
 20
56308
 10
19389
 20
56604
 10
19203
 20
56915
 10
18878
 20
57420
 10
18484
 20
58054
 10
17967
 20
58926
 10
17292
 20
58932
 10
16681
 20
58909
 10
16234
 20
58886
 10
15748
 20
58848
 10
15084
 20
58786
 10
14150
 20
58676
 10
12874
 20
58505
 10
12874
 20
58505
  0
LWPOLYLINE
  5
88
100
AcDbEntity
  8
0
  6
BYLAYER
 62
  256
370
   -1
100
AcDbPolyline
 90
   71
 70
    1
 43
0
 10
46139
 20
579
 10
47562
 20
360
 10
48603
 20
215
 10
49266
 20
137
 10
49752
 20
88
 10
50199
 20
53
 10
50810
 20
15
 10
51487
 20
4
 10
52020
 20
939
 10
52428
 20
1619
 10
52764
 20
2160
 10
52957
 20
2494
 10
53116
 20
2811
 10
53238
 20
3106
 10
53299
 20
3289
 10
53352
 20
3482
 10
53398
 20
3684
 10
53436
 20
3898
 10
53466
 20
4123
 10
53490
 20
4363
 10
53520
 20
4911
 10
53529
 20
5572
 10
53516
 20
6468
 10
53529
 20
7364
 10
53520
 20
8025
 10
53490
 20
8573
 10
53466
 20
8813
 10
53436
 20
9038
 10
53398
 20
9252
 10
53353
 20
9454
 10
53300
 20
9646
 10
53239
 20
9830
 10
53117
 20
10125
 10
52957
 20
10442
 10
52764
 20
10776
 10
52429
 20
11317
 10
52022
 20
11997
 10
51488
 20
12932
 10
50870
 20
12928
 10
49737
 20
12915
 10
48596
 20
12868
 10
48740
 20
11596
 10
48836
 20
10731
 10
48877
 20
10306
 10
48890
 20
9988
 10
48886
 20
9804
 10
48872
 20
9634
 10
48848
 20
9476
 10
48812
 20
9326
 10
48749
 20
9141
 10
48668
 20
8972
 10
48572
 20
8824
 10
48461
 20
8699
 10
48322
 20
8587
 10
48154
 20
8487
 10
47953
 20
8398
 10
47696
 20
8309
 10
47369
 20
8214
 10
47042
 20
8136
 10
46614
 20
8052
 10
46618
 20
7987
 10
46648
 20
7345
 10
46676
 20
6468
 10
46644
 20
5551
 10
46614
 20
4880
 10
46590
 20
4479
 10
46516
 20
3590
 10
46406
 20
2588
 10
46298
 20
1738
 10
46139
 20
579
 10
46139
 20
579
  0
LWPOLYLINE
  5
89
100
AcDbEntity
  8
0
  6
BYLAYER
 62
  256
370
   -1
100
AcDbPolyline
 90
   71
 70
    1
 43
0
 10
38639
 20
13468
 10
38796
 20
12360
 10
38902
 20
11547
 10
39011
 20
10593
 10
39085
 20
9738
 10
39110
 20
9354
 10
39142
 20
8711
 10
39176
 20
7834
 10
39144
 20
6956
 10
39110
 20
6314
 10
39106
 20
6248
 10
39484
 20
6179
 10
39773
 20
6114
 10
40000
 20
6051
 10
40062
 20
6034
 10
40290
 20
5959
 10
40469
 20
5883
 10
40618
 20
5797
 10
40742
 20
5700
 10
40841
 20
5591
 10
40928
 20
5461
 10
41001
 20
5314
 10
41059
 20
5151
 10
41093
 20
5018
 10
41116
 20
4878
 10
41131
 20
4729
 10
41136
 20
4568
 10
41124
 20
4264
 10
41082
 20
3846
 10
40986
 20
3004
 10
40841
 20
1766
 10
41983
 20
1749
 10
43116
 20
1767
 10
43733
 20
1778
 10
44250
 20
2651
 10
44644
 20
3285
 10
44968
 20
3789
 10
45155
 20
4100
 10
45310
 20
4396
 10
45429
 20
4673
 10
45489
 20
4844
 10
45542
 20
5025
 10
45588
 20
5215
 10
45627
 20
5416
 10
45686
 20
5853
 10
45722
 20
6368
 10
45740
 20
6990
 10
45742
 20
7834
 10
45740
 20
8678
 10
45722
 20
9300
 10
45686
 20
9815
 10
45627
 20
10252
 10
45588
 20
10453
 10
45542
 20
10643
 10
45489
 20
10824
 10
45429
 20
10995
 10
45310
 20
11271
 10
45154
 20
11567
 10
44968
 20
11878
 10
44644
 20
12383
 10
44250
 20
13017
 10
43732
 20
13890
 10
43057
 20
13895
 10
42446
 20
13872
 10
41999
 20
13849
 10
41513
 20
13812
 10
40849
 20
13749
 10
40000
 20
13649
 10
39915
 20
13639
 10
38639
 20
13468
 10
38639
 20
13468
  0
LWPOLYLINE
  5
8A
100
AcDbEntity
  8
0
  6
BYLAYER
 62
  256
370
   -1
100
AcDbPolyline
 90
   71
 70
    1
 43
0
 10
50416
 20
13922
 10
51766
 20
13727
 10
52754
 20
13600
 10
53417
 20
13529
 10
53903
 20
13485
 10
54350
 20
13456
 10
54961
 20
13425
 10
55637
 20
13422
 10
56163
 20
14326
 10
56564
 20
14983
 10
56894
 20
15506
 10
57083
 20
15829
 10
57241
 20
16135
 10
57362
 20
16421
 10
57422
 20
16598
 10
57475
 20
16785
 10
57521
 20
16981
 10
57559
 20
17188
 10
57591
 20
17407
 10
57616
 20
17640
 10
57649
 20
18172
 10
57662
 20
18813
 10
57657
 20
19684
 10
57663
 20
20554
 10
57650
 20
21195
 10
57616
 20
21726
 10
57591
 20
21960
 10
57560
 20
22178
 10
57521
 20
22385
 10
57476
 20
22582
 10
57422
 20
22768
 10
57362
 20
22946
 10
57241
 20
23232
 10
57084
 20
23538
 10
56894
 20
23862
 10
56565
 20
24384
 10
56164
 20
25041
 10
55638
 20
25946
 10
55021
 20
25948
 10
53888
 20
25950
 10
52746
 20
25917
 10
52891
 20
24663
 10
52986
 20
23809
 10
53028
 20
23387
 10
53041
 20
23076
 10
53036
 20
22904
 10
53022
 20
22745
 10
52998
 20
22595
 10
52964
 20
22454
 10
52903
 20
22281
 10
52826
 20
22122
 10
52734
 20
21984
 10
52629
 20
21867
 10
52498
 20
21762
 10
52339
 20
21669
 10
52149
 20
21586
 10
51907
 20
21504
 10
51600
 20
21417
 10
51291
 20
21345
 10
50887
 20
21269
 10
50891
 20
21204
 10
50923
 20
20562
 10
50954
 20
19684
 10
50921
 20
18786
 10
50890
 20
18130
 10
50865
 20
17738
 10
50791
 20
16864
 10
50682
 20
15887
 10
50574
 20
15056
 10
50416
 20
13922
 10
50416
 20
13922
  0
LWPOLYLINE
  5
8B
100
AcDbEntity
  8
0
  6
BYLAYER
 62
  256
370
   -1
100
AcDbPolyline
 90
   71
 70
    1
 43
0
 10
80794
 20
5741
 10
80798
 20
5062
 10
80825
 20
4499
 10
80848
 20
4252
 10
80878
 20
4020
 10
80915
 20
3800
 10
80960
 20
3592
 10
81014
 20
3394
 10
81075
 20
3205
 10
81198
 20
2900
 10
81360
 20
2574
 10
81556
 20
2229
 10
81896
 20
1671
 10
82310
 20
969
 10
82852
 20
4
 10
83470
 20
14
 10
84603
 20
38
 10
85744
 20
96
 10
85599
 20
1385
 10
85503
 20
2262
 10
85464
 20
2690
 10
85450
 20
3014
 10
85453
 20
3210
 10
85467
 20
3390
 10
85492
 20
3558
 10
85528
 20
3716
 10
85594
 20
3912
 10
85679
 20
4092
 10
85780
 20
4249
 10
85897
 20
4382
 10
86043
 20
4502
 10
86221
 20
4609
 10
86433
 20
4704
 10
86706
 20
4800
 10
87051
 20
4902
 10
87397
 20
4987
 10
87850
 20
5078
 10
87847
 20
5144
 10
87818
 20
5785
 10
87791
 20
6661
 10
87821
 20
7598
 10
87852
 20
8284
 10
87876
 20
8693
 10
87950
 20
9606
 10
88059
 20
10626
 10
88168
 20
11494
 10
88328
 20
12678
 10
86832
 20
12922
 10
85737
 20
13083
 10
85074
 20
13168
 10
84588
 20
13221
 10
84141
 20
13259
 10
83530
 20
13302
 10
82853
 20
13319
 10
82311
 20
12354
 10
81897
 20
11653
 10
81556
 20
11094
 10
81360
 20
10750
 10
81198
 20
10423
 10
81075
 20
10119
 10
81014
 20
9930
 10
80961
 20
9732
 10
80916
 20
9523
 10
80878
 20
9303
 10
80848
 20
9072
 10
80825
 20
8825
 10
80798
 20
8262
 10
80794
 20
7583
 10
80814
 20
6662
 10
80794
 20
5741
 10
80794
 20
5741
  0
LWPOLYLINE
  5
8C
100
AcDbEntity
  8
0
  6
BYLAYER
 62
  256
370
   -1
100
AcDbPolyline
 90
   69
 70
    1
 43
0
 10
80833
 20
19375
 10
80834
 20
18531
 10
80852
 20
17909
 10
80889
 20
17394
 10
80948
 20
16957
 10
80987
 20
16756
 10
81032
 20
16566
 10
81086
 20
16386
 10
81146
 20
16214
 10
81265
 20
15938
 10
81420
 20
15642
 10
81607
 20
15331
 10
81931
 20
14826
 10
82325
 20
14192
 10
82842
 20
13320
 10
83518
 20
13314
 10
84129
 20
13337
 10
84576
 20
13360
 10
85062
 20
13398
 10
85726
 20
13460
 10
86660
 20
13570
 10
87936
 20
13741
 10
87779
 20
14849
 10
87672
 20
15662
 10
87564
 20
16616
 10
87490
 20
17472
 10
87465
 20
17856
 10
87432
 20
18498
 10
87399
 20
19376
 10
87430
 20
20254
 10
87465
 20
20896
 10
87469
 20
20962
 10
87091
 20
21030
 10
86802
 20
21095
 10
86512
 20
21175
 10
86284
 20
21250
 10
86106
 20
21326
 10
85956
 20
21412
 10
85833
 20
21510
 10
85734
 20
21618
 10
85647
 20
21748
 10
85574
 20
21896
 10
85516
 20
22058
 10
85482
 20
22191
 10
85458
 20
22331
 10
85444
 20
22480
 10
85439
 20
22641
 10
85451
 20
22945
 10
85493
 20
23364
 10
85589
 20
24205
 10
85734
 20
25443
 10
84592
 20
25460
 10
83459
 20
25442
 10
82842
 20
25431
 10
82324
 20
24558
 10
81930
 20
23924
 10
81607
 20
23420
 10
81420
 20
23109
 10
81265
 20
22813
 10
81146
 20
22536
 10
81086
 20
22365
 10
81032
 20
22184
 10
80987
 20
21994
 10
80948
 20
21793
 10
80889
 20
21356
 10
80852
 20
20841
 10
80834
 20
20219
 10
80833
 20
19375
 10
80833
 20
19375
  0
LWPOLYLINE
  5
8D
100
AcDbEntity
  8
0
  6
BYLAYER
 62
  256
370
   -1
100
AcDbPolyline
 90
   69
 70
    1
 43
0
 10
47748
 20
27991
 10
47757
 20
27170
 10
47780
 20
26564
 10
47820
 20
26064
 10
47881
 20
25638
 10
47920
 20
25443
 10
47967
 20
25259
 10
48020
 20
25083
 10
48080
 20
24917
 10
48199
 20
24649
 10
48352
 20
24362
 10
48537
 20
24060
 10
48856
 20
23572
 10
49246
 20
22958
 10
49757
 20
22114
 10
50374
 20
22096
 10
51507
 20
22069
 10
52649
 20
22075
 10
52504
 20
23302
 10
52409
 20
24136
 10
52365
 20
24553
 10
52354
 20
24853
 10
52360
 20
25002
 10
52374
 20
25140
 10
52398
 20
25272
 10
52430
 20
25396
 10
52486
 20
25547
 10
52555
 20
25684
 10
52637
 20
25804
 10
52730
 20
25905
 10
52846
 20
25996
 10
52986
 20
26074
 10
53154
 20
26144
 10
53367
 20
26212
 10
53636
 20
26284
 10
53908
 20
26343
 10
54262
 20
26404
 10
54257
 20
26470
 10
54222
 20
27112
 10
54187
 20
27991
 10
54222
 20
28849
 10
54254
 20
29476
 10
54280
 20
29852
 10
54354
 20
30690
 10
54462
 20
31620
 10
54568
 20
32415
 10
54724
 20
33498
 10
53521
 20
33653
 10
52641
 20
33753
 10
51977
 20
33810
 10
51491
 20
33842
 10
51044
 20
33862
 10
50433
 20
33880
 10
49758
 20
33869
 10
49247
 20
33024
 10
48858
 20
32410
 10
48537
 20
31922
 10
48353
 20
31620
 10
48199
 20
31334
 10
48080
 20
31066
 10
48020
 20
30900
 10
47967
 20
30724
 10
47921
 20
30540
 10
47881
 20
30344
 10
47820
 20
29920
 10
47780
 20
29418
 10
47757
 20
28813
 10
47748
 20
27991
 10
47748
 20
27991
  0
LWPOLYLINE
  5
8E
100
AcDbEntity
  8
0
  6
BYLAYER
 62
  256
370
   -1
100
AcDbPolyline
 90
   69
 70
    1
 43
0
 10
53064
 20
975
 10
54193
 20
837
 10
55020
 20
748
 10
55684
 20
698
 10
56170
 20
670
 10
56617
 20
654
 10
57228
 20
642
 10
57903
 20
660
 10
58408
 20
1476
 10
58792
 20
2069
 10
59108
 20
2541
 10
59290
 20
2832
 10
59442
 20
3109
 10
59560
 20
3368
 10
59620
 20
3530
 10
59674
 20
3700
 10
59720
 20
3878
 10
59761
 20
4068
 10
59824
 20
4480
 10
59868
 20
4967
 10
59896
 20
5556
 10
59913
 20
6354
 10
59896
 20
7153
 10
59868
 20
7741
 10
59824
 20
8228
 10
59761
 20
8640
 10
59721
 20
8830
 10
59674
 20
9009
 10
59621
 20
9179
 10
59561
 20
9340
 10
59443
 20
9599
 10
59291
 20
9876
 10
59109
 20
10168
 10
58793
 20
10640
 10
58409
 20
11233
 10
57904
 20
12049
 10
57287
 20
12073
 10
56154
 20
12112
 10
55012
 20
12118
 10
55156
 20
10902
 10
55252
 20
10075
 10
55296
 20
9660
 10
55307
 20
9365
 10
55300
 20
9227
 10
55286
 20
9098
 10
55263
 20
8977
 10
55232
 20
8861
 10
55178
 20
8721
 10
55113
 20
8594
 10
55035
 20
8484
 10
54948
 20
8391
 10
54840
 20
8308
 10
54709
 20
8236
 10
54553
 20
8173
 10
54354
 20
8112
 10
54103
 20
8047
 10
53851
 20
7995
 10
53522
 20
7942
 10
53526
 20
7876
 10
53563
 20
7233
 10
53601
 20
6355
 10
53566
 20
5517
 10
53532
 20
4904
 10
53506
 20
4537
 10
53431
 20
3718
 10
53324
 20
2809
 10
53218
 20
2034
 10
53064
 20
975
 10
53064
 20
975
  0
LWPOLYLINE
  5
8F
100
AcDbEntity
  8
0
  6
BYLAYER
 62
  256
370
   -1
100
AcDbPolyline
 90
   86
 70
    1
 43
0
 10
31224
 20
17799
 10
31278
 20
16278
 10
31308
 20
15698
 10
31343
 20
15167
 10
31390
 20
14612
 10
31447
 20
14066
 10
31513
 20
13529
 10
31590
 20
13001
 10
31666
 20
12540
 10
31750
 20
12082
 10
31843
 20
11627
 10
31944
 20
11177
 10
32078
 20
10636
 10
32228
 20
10082
 10
32394
 20
9514
 10
32577
 20
8928
 10
32898
 20
7982
 10
33241
 20
7065
 10
33441
 20
6566
 10
33657
 20
6051
 10
34143
 20
4957
 10
34674
 20
3832
 10
35422
 20
2305
 10
37634
 20
3445
 10
36675
 20
5481
 10
36209
 20
6498
 10
35854
 20
7313
 10
35660
 20
7790
 10
35482
 20
8248
 10
35322
 20
8691
 10
35177
 20
9122
 10
34982
 20
9762
 10
34738
 20
10630
 10
34475
 20
11618
 10
34355
 20
12121
 10
34248
 20
12622
 10
34153
 20
13122
 10
34071
 20
13618
 10
33966
 20
14391
 10
33868
 20
15309
 10
33795
 20
16130
 10
33751
 20
16822
 10
33721
 20
17798
 10
33752
 20
18775
 10
33795
 20
19467
 10
33868
 20
20288
 10
33968
 20
21206
 10
34072
 20
21979
 10
34154
 20
22475
 10
34249
 20
22974
 10
34357
 20
23475
 10
34477
 20
23979
 10
34740
 20
24966
 10
34982
 20
25831
 10
35180
 20
26474
 10
35325
 20
26904
 10
35485
 20
27347
 10
35662
 20
27805
 10
35858
 20
28283
 10
36214
 20
29102
 10
36679
 20
30115
 10
37638
 20
32150
 10
35404
 20
33291
 10
34671
 20
31764
 10
34146
 20
30640
 10
33651
 20
29524
 10
33438
 20
29017
 10
33244
 20
28532
 10
32902
 20
27619
 10
32580
 20
26669
 10
32396
 20
26082
 10
32230
 20
25514
 10
32080
 20
24961
 10
31947
 20
24421
 10
31845
 20
23970
 10
31752
 20
23515
 10
31667
 20
23057
 10
31591
 20
22596
 10
31514
 20
22068
 10
31447
 20
21532
 10
31390
 20
20986
 10
31344
 20
20430
 10
31308
 20
19900
 10
31278
 20
19319
 10
31224
 20
17799
 10
31224
 20
17799
  0
ENDSEC
  0
SECTION
  2
OBJECTS
  0
DICTIONARY
  5
C
330
0
100
AcDbDictionary
281
    1
  3
ACAD_GROUP
350
D
  0
DICTIONARY
  5
D
330
C
100
AcDbDictionary
281
    1
  0
ENDSEC
  0
EOF
